<svg width="235" height="120" viewBox="0 0 235 120" fill="none" xmlns="http://www.w3.org/2000/svg">
<g filter="url(#filter0_dd_35_419)">
<mask id="path-1-outside-1_35_419" maskUnits="userSpaceOnUse" x="-0.34375" y="0.84375" width="231" height="118" fill="black">
<rect fill="white" x="-0.34375" y="0.84375" width="231" height="118"/>
<path d="M21.2188 10.375L24.5625 11L25.4688 10.6875L27.2812 11.2812H28.4688L31.1875 11L33.9062 11.2812L39.9688 11C40.2812 12 40.8854 12.5 41.7812 12.5L42.375 13.7188V16.125C41.7292 19.1458 40.7188 20.6562 39.3438 20.6562H36.3438C32.4271 20.6562 29.9062 20.1562 28.7812 19.1562C26.9688 20.6354 26.0625 22.0417 26.0625 23.375V23.6875L30.9062 24.5938L32.7188 24.2812H33.3125C40.5625 25.4896 44.1875 26.5938 44.1875 27.5938L44.5 30.625C44.3333 33.0417 44.125 34.25 43.875 34.25L42.9688 35.1562H42.6875C42.2292 34.6979 41.1146 34.3958 39.3438 34.25L38.75 34.8438C36.2917 34.4479 32.5625 33.4479 27.5625 31.8438L25.1562 33.9375C24.3438 35.4792 23.9375 36.6875 23.9375 37.5625V37.875C23.9375 38.4583 26.3542 39.3646 31.1875 40.5938C32.0417 41.6354 33.8542 42.5417 36.625 43.3125V43C37.8333 43.2708 38.4375 43.6771 38.4375 44.2188C38.4375 45.6562 37.0312 48.375 34.2188 52.375H33.3125C33.3125 51.9792 32.9062 51.7812 32.0938 51.7812C32.0938 51.0312 29.375 49.7188 23.9375 47.8438C21.5625 46.2396 18.2396 44.7292 13.9688 43.3125C13.9688 42.8333 13.1667 42.3333 11.5625 41.8125L10.6562 40.2812C11.2604 40.2812 12.4688 38.5729 14.2812 35.1562C14.8854 35.1146 15.6875 33.1979 16.6875 29.4062C17.8958 27.0729 18.5 24.8646 18.5 22.7812H18.8125L18.2188 19.75L18.8125 12.8125L18.5 11.5938L21.2188 10.375ZM20.9375 50.25C29.7083 53.1667 34.6354 55.2812 35.7188 56.5938C36.7396 56.5938 37.25 57.0938 37.25 58.0938L34.5312 62.3125L35.4375 63.2188V63.8438H35.125L31.5 64.125C30.8958 63.5 29.0833 62.8021 26.0625 62.0312C26.0625 61.6979 24.75 60.8854 22.125 59.5938L21.2188 59.9062L18.8125 59H17.9062L17.3125 56.875C17.3125 55.625 18.0104 54.125 19.4062 52.375L18.5 51.4688C19.3542 50.6562 20.1667 50.25 20.9375 50.25Z"/>
<path d="M54.875 9.1875C56.75 9.375 57.6875 9.65625 57.6875 10.0312L59.0938 9.1875C60.7396 9.33333 61.5938 9.61458 61.6562 10.0312L63.0625 9.75L67.0312 10.875H70.9688L76.0938 14V14.5625C76.9479 14.7083 78.0729 16.4062 79.4688 19.6562C81.3646 21.5312 82.3125 24.2604 82.3125 27.8438C82.3125 29.0729 81.1771 32.9479 78.9062 39.4688C76.2604 41.5312 74.6667 43.125 74.125 44.25L70.9688 45.9688C68.9479 46.3646 66.7812 47.5833 64.4688 49.625L57.6875 50.7812C57.2917 51.2396 54.1146 51.8021 48.1562 52.4688C47.8854 53.2188 47.6146 53.5938 47.3438 53.5938L45.0625 52.75L45.3438 50.7812L46 46.25L47.7812 33.2188L47.5 32.9688L49.0312 31.5312V29.8125L48.75 28.6875L49.5938 24.75L46.3125 15.6875L46.5938 15.4062L46.3125 14V13.7188C46.3125 11.6354 47.1562 10.5938 48.8438 10.5938C48.8438 10.0312 49.1354 9.75 49.7188 9.75L49.9688 10.0312H50.2812C50.6771 9.69792 52.2083 9.41667 54.875 9.1875ZM58.375 21.0625L58.6562 23.3125L57.8125 33.7812L57.125 39.4688L58.25 38.9062L61.0625 39.1562C62.9583 39.1562 64.8542 38.2188 66.75 36.3438C68.4375 35.8229 69.2812 34.8854 69.2812 33.5312C69.6354 33.5312 70.1979 32.8646 70.9688 31.5312V30.125L71.5312 26.1562C70.6354 26.0521 69.6979 24.9167 68.7188 22.75C68.1562 22.75 67.875 22.4792 67.875 21.9375H67.3125C67.3125 21.3542 67.0312 21.0625 66.4688 21.0625V20.5L64.7812 20.7812L60.25 17.9688H59.9375C58.4375 17.9688 57.6875 18.3438 57.6875 19.0938L58.375 21.0625ZM49.4688 18.7812V20.5H49.7812V18.7812H49.4688Z"/>
<path d="M89.8125 7.78125C92.3958 7.78125 95.7812 8.78125 99.9688 10.7812C96.7812 21.0312 95.1875 29.3854 95.1875 35.8438L95.7812 47.7812L94 47.1875L85.625 48.375L85.0312 45.375L84.4375 32.25L88.625 7.78125H89.8125Z"/>
<path d="M111 16.75C109.917 13.1458 110.458 10.8542 112.625 9.875L122.438 11.5625L120.156 17.5312C119.177 20.2188 122.406 20.8438 129.844 19.4062L129.875 19.5938C130.188 21.8646 130.396 24.6875 130.5 28.0625L130.281 28.3125L130.812 28.2188L130.562 29.9688L126.719 30.3438L123.719 29L121.344 29.1875L120.344 29.5938L120.656 31.3125C121.177 34.3125 121.323 37.0938 121.094 39.6562C121.302 38.8229 121.562 38.4792 121.875 38.625C122.188 38.7708 122.573 40.125 123.031 42.6875C119.927 44.2292 116.615 45 113.094 45L112.312 45.125C111.25 44.4375 110.729 43.3438 110.75 41.8438C109.042 40.3438 108.99 40.0312 110.594 40.9062L110.438 37.2188L110.375 32.0625L109.625 30.9375C108.083 29.9792 105.031 29.3438 100.469 29.0312L100.094 27C100.49 26.9167 100.146 25.9792 99.0625 24.1875L100.531 24.1562C101.031 21.4271 101.469 19.6354 101.844 18.7812L108.875 19.9062L110.875 20.5938L111 16.75Z"/>
<path d="M137.312 7.78125C139.896 7.78125 143.281 8.78125 147.469 10.7812C144.281 21.0312 142.688 29.3854 142.688 35.8438L143.281 47.7812L141.5 47.1875L133.125 48.375L132.531 45.375L131.938 32.25L136.125 7.78125H137.312Z"/>
<path d="M159.062 7.96875C160.312 7.96875 163 14.1458 167.125 26.5C168.979 25.6458 170.229 22.4062 170.875 16.7812L175.719 15.4062L180.594 16.7812L176.438 35.1875L178.531 45.4688C174.344 47.2604 171.323 49.0729 169.469 50.9062H167.375C165.708 45.0104 164.552 42.0625 163.906 42.0625L164.594 41.3438V40.6875L159.312 32.5312L158.438 41.3438L158.062 47.5L157.531 48.875H155.969C154.948 48.2292 153.448 47.5208 151.469 46.75C151.469 45.9375 150.312 45.4792 148 45.375V44.6562L148.375 32.5625L147.906 31.125V30.4062C149.948 23.5521 150.969 19.8854 150.969 19.4062L149.312 11.3438L159.062 7.96875Z"/>
<path d="M210.625 6.84375C212.833 6.84375 214.948 10.0208 216.969 16.375H216.344L208.75 17L205.531 16.375C198.615 16.375 193.542 20.1771 190.312 27.7812V29.6875C191.854 36.0417 193.552 39.2188 195.406 39.2188C195.406 40.8229 199.417 42.3021 207.438 43.6562C211.25 42.9479 213.156 42.1042 213.156 41.125V39.8438C213.156 35.7188 208.927 33.1875 200.469 32.25L196.031 33.5C194.76 32.0208 194.125 29.4792 194.125 25.875V24.625L199.844 22.7188L200.469 23.3438H201.125L201.719 22.7188H202.375C209.396 24.2812 215.74 27.4583 221.406 32.25C221.406 33.2917 222.26 34.7604 223.969 36.6562C223.969 45.8438 218.677 51.5521 208.094 53.7812L206.188 54.4375C195.354 54.4375 187.323 48.5104 182.094 36.6562L182.688 34.75L181.438 30.9375V30.3438C184.25 18.9062 187.208 13.1875 190.312 13.1875C195.583 9.39583 201.292 7.5 207.438 7.5L210 8.09375L210.625 7.5V6.84375Z"/>
<path d="M80.7812 62.5625L84.75 61.9688C87.5833 61.5521 89.4375 62.25 90.3125 64.0625C93.1667 65.1042 94.7396 66.625 95.0312 68.625L95.2812 70.3438L96.4375 70.1875L95.4375 87.25L96.0938 87.7188L96.1875 88.3125L95.6562 92.4688L95.5938 94.8125C95.3438 97.9167 93.2917 100.365 89.4375 102.156L98.4688 109.062L99 111.25L95.0312 111.812L90.75 109.312L85.125 104.406L76.25 105.156L76.0312 105.281L76.5312 104.656L76.4375 104.094C74.4792 104.385 71.2812 102.323 66.8438 97.9062L66.0625 92.8125L69.5312 84.6562C69.6562 74.1354 70.9792 68.6875 73.5 68.3125C76.5208 64.75 78.9479 62.8333 80.7812 62.5625ZM77.9062 88.8125L78.5312 89.3125L78.5938 89.875L78.375 92.25L79.1562 93.875L85.4062 92.8438C87.2396 92.5521 87.8125 87.5938 87.125 77.9688L86.4375 72.8125L84.6562 71.375C81.8438 71.8125 80.3854 74.1875 80.2812 78.5L77.9062 88.8125Z"/>
<path d="M105.031 61.3438L111.125 62.4688L109.562 71.0625L108.625 70.5L109.125 71.2188L109 71.8438L107.938 74.1875L108.438 74.9062L108.344 75.5312L107.625 76L107.156 92.4062L109 92.75C112.604 91.4167 114.562 89.875 114.875 88.125C116.979 77.0208 117.74 69.6562 117.156 66.0312L119.219 65.125L124.75 66.1562C125.667 66.3229 126.094 67.4479 126.031 69.5312L125.406 69.4062L125.906 70.125L125.812 70.75L125.062 71.25L124.969 71.875C123.635 76.25 123.938 81.2812 125.875 86.9688L125.188 90.625L124.031 93.5938L124.531 94.3125C123.573 94.1458 122.219 95.8021 120.469 99.2812C117.49 103.365 111.958 104.677 103.875 103.219L102.031 102.875C98.8854 102.292 97.6771 91.2188 98.4062 69.6562C99.5312 63.5104 101.74 60.7396 105.031 61.3438Z"/>
<path d="M132.938 58.7812C135.521 58.7812 138.906 59.7812 143.094 61.7812C139.906 72.0312 138.312 80.3854 138.312 86.8438L138.906 98.7812L137.125 98.1875L128.75 99.375L128.156 96.375L127.562 83.25L131.75 58.7812H132.938Z"/>
<path d="M142.031 94.1562C141.698 92.4062 145.781 84.9062 154.281 71.6562C154.323 69.2604 150.74 68.2917 143.531 68.75L144.5 64.2188L146.062 61.4062L158.281 62.8438L163.719 61.0938C166.927 64.6979 168.615 67.3854 168.781 69.1562L167.719 70.2812C164.74 75.4896 163.333 78.5521 163.5 79.4688L162.781 78.8125L162.281 79.0625L158.688 83.4375L154.5 90L158.875 90.2812L163.094 88.4062L165.906 88.0625C165.698 89.7708 166.375 91.8021 167.938 94.1562C167.312 94.5104 167.146 94.9271 167.438 95.4062L168 97.7188L161.625 99.0625L160.75 102.094L159.844 100.25C154.094 100.25 151.031 100.344 150.656 100.531L143.688 101.688L142.031 94.1562Z"/>
</mask>
<path d="M21.2188 10.375L24.5625 11L25.4688 10.6875L27.2812 11.2812H28.4688L31.1875 11L33.9062 11.2812L39.9688 11C40.2812 12 40.8854 12.5 41.7812 12.5L42.375 13.7188V16.125C41.7292 19.1458 40.7188 20.6562 39.3438 20.6562H36.3438C32.4271 20.6562 29.9062 20.1562 28.7812 19.1562C26.9688 20.6354 26.0625 22.0417 26.0625 23.375V23.6875L30.9062 24.5938L32.7188 24.2812H33.3125C40.5625 25.4896 44.1875 26.5938 44.1875 27.5938L44.5 30.625C44.3333 33.0417 44.125 34.25 43.875 34.25L42.9688 35.1562H42.6875C42.2292 34.6979 41.1146 34.3958 39.3438 34.25L38.75 34.8438C36.2917 34.4479 32.5625 33.4479 27.5625 31.8438L25.1562 33.9375C24.3438 35.4792 23.9375 36.6875 23.9375 37.5625V37.875C23.9375 38.4583 26.3542 39.3646 31.1875 40.5938C32.0417 41.6354 33.8542 42.5417 36.625 43.3125V43C37.8333 43.2708 38.4375 43.6771 38.4375 44.2188C38.4375 45.6562 37.0312 48.375 34.2188 52.375H33.3125C33.3125 51.9792 32.9062 51.7812 32.0938 51.7812C32.0938 51.0312 29.375 49.7188 23.9375 47.8438C21.5625 46.2396 18.2396 44.7292 13.9688 43.3125C13.9688 42.8333 13.1667 42.3333 11.5625 41.8125L10.6562 40.2812C11.2604 40.2812 12.4688 38.5729 14.2812 35.1562C14.8854 35.1146 15.6875 33.1979 16.6875 29.4062C17.8958 27.0729 18.5 24.8646 18.5 22.7812H18.8125L18.2188 19.75L18.8125 12.8125L18.5 11.5938L21.2188 10.375ZM20.9375 50.25C29.7083 53.1667 34.6354 55.2812 35.7188 56.5938C36.7396 56.5938 37.25 57.0938 37.25 58.0938L34.5312 62.3125L35.4375 63.2188V63.8438H35.125L31.5 64.125C30.8958 63.5 29.0833 62.8021 26.0625 62.0312C26.0625 61.6979 24.75 60.8854 22.125 59.5938L21.2188 59.9062L18.8125 59H17.9062L17.3125 56.875C17.3125 55.625 18.0104 54.125 19.4062 52.375L18.5 51.4688C19.3542 50.6562 20.1667 50.25 20.9375 50.25Z" fill="#71FF86"/>
<path d="M54.875 9.1875C56.75 9.375 57.6875 9.65625 57.6875 10.0312L59.0938 9.1875C60.7396 9.33333 61.5938 9.61458 61.6562 10.0312L63.0625 9.75L67.0312 10.875H70.9688L76.0938 14V14.5625C76.9479 14.7083 78.0729 16.4062 79.4688 19.6562C81.3646 21.5312 82.3125 24.2604 82.3125 27.8438C82.3125 29.0729 81.1771 32.9479 78.9062 39.4688C76.2604 41.5312 74.6667 43.125 74.125 44.25L70.9688 45.9688C68.9479 46.3646 66.7812 47.5833 64.4688 49.625L57.6875 50.7812C57.2917 51.2396 54.1146 51.8021 48.1562 52.4688C47.8854 53.2188 47.6146 53.5938 47.3438 53.5938L45.0625 52.75L45.3438 50.7812L46 46.25L47.7812 33.2188L47.5 32.9688L49.0312 31.5312V29.8125L48.75 28.6875L49.5938 24.75L46.3125 15.6875L46.5938 15.4062L46.3125 14V13.7188C46.3125 11.6354 47.1562 10.5938 48.8438 10.5938C48.8438 10.0312 49.1354 9.75 49.7188 9.75L49.9688 10.0312H50.2812C50.6771 9.69792 52.2083 9.41667 54.875 9.1875ZM58.375 21.0625L58.6562 23.3125L57.8125 33.7812L57.125 39.4688L58.25 38.9062L61.0625 39.1562C62.9583 39.1562 64.8542 38.2188 66.75 36.3438C68.4375 35.8229 69.2812 34.8854 69.2812 33.5312C69.6354 33.5312 70.1979 32.8646 70.9688 31.5312V30.125L71.5312 26.1562C70.6354 26.0521 69.6979 24.9167 68.7188 22.75C68.1562 22.75 67.875 22.4792 67.875 21.9375H67.3125C67.3125 21.3542 67.0312 21.0625 66.4688 21.0625V20.5L64.7812 20.7812L60.25 17.9688H59.9375C58.4375 17.9688 57.6875 18.3438 57.6875 19.0938L58.375 21.0625ZM49.4688 18.7812V20.5H49.7812V18.7812H49.4688Z" fill="#71FF86"/>
<path d="M89.8125 7.78125C92.3958 7.78125 95.7812 8.78125 99.9688 10.7812C96.7812 21.0312 95.1875 29.3854 95.1875 35.8438L95.7812 47.7812L94 47.1875L85.625 48.375L85.0312 45.375L84.4375 32.25L88.625 7.78125H89.8125Z" fill="#71FF86"/>
<path d="M111 16.75C109.917 13.1458 110.458 10.8542 112.625 9.875L122.438 11.5625L120.156 17.5312C119.177 20.2188 122.406 20.8438 129.844 19.4062L129.875 19.5938C130.188 21.8646 130.396 24.6875 130.5 28.0625L130.281 28.3125L130.812 28.2188L130.562 29.9688L126.719 30.3438L123.719 29L121.344 29.1875L120.344 29.5938L120.656 31.3125C121.177 34.3125 121.323 37.0938 121.094 39.6562C121.302 38.8229 121.562 38.4792 121.875 38.625C122.188 38.7708 122.573 40.125 123.031 42.6875C119.927 44.2292 116.615 45 113.094 45L112.312 45.125C111.25 44.4375 110.729 43.3438 110.75 41.8438C109.042 40.3438 108.99 40.0312 110.594 40.9062L110.438 37.2188L110.375 32.0625L109.625 30.9375C108.083 29.9792 105.031 29.3438 100.469 29.0312L100.094 27C100.49 26.9167 100.146 25.9792 99.0625 24.1875L100.531 24.1562C101.031 21.4271 101.469 19.6354 101.844 18.7812L108.875 19.9062L110.875 20.5938L111 16.75Z" fill="#71FF86"/>
<path d="M137.312 7.78125C139.896 7.78125 143.281 8.78125 147.469 10.7812C144.281 21.0312 142.688 29.3854 142.688 35.8438L143.281 47.7812L141.5 47.1875L133.125 48.375L132.531 45.375L131.938 32.25L136.125 7.78125H137.312Z" fill="#71FF86"/>
<path d="M159.062 7.96875C160.312 7.96875 163 14.1458 167.125 26.5C168.979 25.6458 170.229 22.4062 170.875 16.7812L175.719 15.4062L180.594 16.7812L176.438 35.1875L178.531 45.4688C174.344 47.2604 171.323 49.0729 169.469 50.9062H167.375C165.708 45.0104 164.552 42.0625 163.906 42.0625L164.594 41.3438V40.6875L159.312 32.5312L158.438 41.3438L158.062 47.5L157.531 48.875H155.969C154.948 48.2292 153.448 47.5208 151.469 46.75C151.469 45.9375 150.312 45.4792 148 45.375V44.6562L148.375 32.5625L147.906 31.125V30.4062C149.948 23.5521 150.969 19.8854 150.969 19.4062L149.312 11.3438L159.062 7.96875Z" fill="#71FF86"/>
<path d="M210.625 6.84375C212.833 6.84375 214.948 10.0208 216.969 16.375H216.344L208.75 17L205.531 16.375C198.615 16.375 193.542 20.1771 190.312 27.7812V29.6875C191.854 36.0417 193.552 39.2188 195.406 39.2188C195.406 40.8229 199.417 42.3021 207.438 43.6562C211.25 42.9479 213.156 42.1042 213.156 41.125V39.8438C213.156 35.7188 208.927 33.1875 200.469 32.25L196.031 33.5C194.76 32.0208 194.125 29.4792 194.125 25.875V24.625L199.844 22.7188L200.469 23.3438H201.125L201.719 22.7188H202.375C209.396 24.2812 215.74 27.4583 221.406 32.25C221.406 33.2917 222.26 34.7604 223.969 36.6562C223.969 45.8438 218.677 51.5521 208.094 53.7812L206.188 54.4375C195.354 54.4375 187.323 48.5104 182.094 36.6562L182.688 34.75L181.438 30.9375V30.3438C184.25 18.9062 187.208 13.1875 190.312 13.1875C195.583 9.39583 201.292 7.5 207.438 7.5L210 8.09375L210.625 7.5V6.84375Z" fill="#71FF86"/>
<path d="M80.7812 62.5625L84.75 61.9688C87.5833 61.5521 89.4375 62.25 90.3125 64.0625C93.1667 65.1042 94.7396 66.625 95.0312 68.625L95.2812 70.3438L96.4375 70.1875L95.4375 87.25L96.0938 87.7188L96.1875 88.3125L95.6562 92.4688L95.5938 94.8125C95.3438 97.9167 93.2917 100.365 89.4375 102.156L98.4688 109.062L99 111.25L95.0312 111.812L90.75 109.312L85.125 104.406L76.25 105.156L76.0312 105.281L76.5312 104.656L76.4375 104.094C74.4792 104.385 71.2812 102.323 66.8438 97.9062L66.0625 92.8125L69.5312 84.6562C69.6562 74.1354 70.9792 68.6875 73.5 68.3125C76.5208 64.75 78.9479 62.8333 80.7812 62.5625ZM77.9062 88.8125L78.5312 89.3125L78.5938 89.875L78.375 92.25L79.1562 93.875L85.4062 92.8438C87.2396 92.5521 87.8125 87.5938 87.125 77.9688L86.4375 72.8125L84.6562 71.375C81.8438 71.8125 80.3854 74.1875 80.2812 78.5L77.9062 88.8125Z" fill="#71FF86"/>
<path d="M105.031 61.3438L111.125 62.4688L109.562 71.0625L108.625 70.5L109.125 71.2188L109 71.8438L107.938 74.1875L108.438 74.9062L108.344 75.5312L107.625 76L107.156 92.4062L109 92.75C112.604 91.4167 114.562 89.875 114.875 88.125C116.979 77.0208 117.74 69.6562 117.156 66.0312L119.219 65.125L124.75 66.1562C125.667 66.3229 126.094 67.4479 126.031 69.5312L125.406 69.4062L125.906 70.125L125.812 70.75L125.062 71.25L124.969 71.875C123.635 76.25 123.938 81.2812 125.875 86.9688L125.188 90.625L124.031 93.5938L124.531 94.3125C123.573 94.1458 122.219 95.8021 120.469 99.2812C117.49 103.365 111.958 104.677 103.875 103.219L102.031 102.875C98.8854 102.292 97.6771 91.2188 98.4062 69.6562C99.5312 63.5104 101.74 60.7396 105.031 61.3438Z" fill="#71FF86"/>
<path d="M132.938 58.7812C135.521 58.7812 138.906 59.7812 143.094 61.7812C139.906 72.0312 138.312 80.3854 138.312 86.8438L138.906 98.7812L137.125 98.1875L128.75 99.375L128.156 96.375L127.562 83.25L131.75 58.7812H132.938Z" fill="#71FF86"/>
<path d="M142.031 94.1562C141.698 92.4062 145.781 84.9062 154.281 71.6562C154.323 69.2604 150.74 68.2917 143.531 68.75L144.5 64.2188L146.062 61.4062L158.281 62.8438L163.719 61.0938C166.927 64.6979 168.615 67.3854 168.781 69.1562L167.719 70.2812C164.74 75.4896 163.333 78.5521 163.5 79.4688L162.781 78.8125L162.281 79.0625L158.688 83.4375L154.5 90L158.875 90.2812L163.094 88.4062L165.906 88.0625C165.698 89.7708 166.375 91.8021 167.938 94.1562C167.312 94.5104 167.146 94.9271 167.438 95.4062L168 97.7188L161.625 99.0625L160.75 102.094L159.844 100.25C154.094 100.25 151.031 100.344 150.656 100.531L143.688 101.688L142.031 94.1562Z" fill="#71FF86"/>
<path d="M21.2188 10.375L24.5625 11L25.4688 10.6875L27.2812 11.2812H28.4688L31.1875 11L33.9062 11.2812L39.9688 11C40.2812 12 40.8854 12.5 41.7812 12.5L42.375 13.7188V16.125C41.7292 19.1458 40.7188 20.6562 39.3438 20.6562H36.3438C32.4271 20.6562 29.9062 20.1562 28.7812 19.1562C26.9688 20.6354 26.0625 22.0417 26.0625 23.375V23.6875L30.9062 24.5938L32.7188 24.2812H33.3125C40.5625 25.4896 44.1875 26.5938 44.1875 27.5938L44.5 30.625C44.3333 33.0417 44.125 34.25 43.875 34.25L42.9688 35.1562H42.6875C42.2292 34.6979 41.1146 34.3958 39.3438 34.25L38.75 34.8438C36.2917 34.4479 32.5625 33.4479 27.5625 31.8438L25.1562 33.9375C24.3438 35.4792 23.9375 36.6875 23.9375 37.5625V37.875C23.9375 38.4583 26.3542 39.3646 31.1875 40.5938C32.0417 41.6354 33.8542 42.5417 36.625 43.3125V43C37.8333 43.2708 38.4375 43.6771 38.4375 44.2188C38.4375 45.6562 37.0312 48.375 34.2188 52.375H33.3125C33.3125 51.9792 32.9062 51.7812 32.0938 51.7812C32.0938 51.0312 29.375 49.7188 23.9375 47.8438C21.5625 46.2396 18.2396 44.7292 13.9688 43.3125C13.9688 42.8333 13.1667 42.3333 11.5625 41.8125L10.6562 40.2812C11.2604 40.2812 12.4688 38.5729 14.2812 35.1562C14.8854 35.1146 15.6875 33.1979 16.6875 29.4062C17.8958 27.0729 18.5 24.8646 18.5 22.7812H18.8125L18.2188 19.75L18.8125 12.8125L18.5 11.5938L21.2188 10.375ZM20.9375 50.25C29.7083 53.1667 34.6354 55.2812 35.7188 56.5938C36.7396 56.5938 37.25 57.0938 37.25 58.0938L34.5312 62.3125L35.4375 63.2188V63.8438H35.125L31.5 64.125C30.8958 63.5 29.0833 62.8021 26.0625 62.0312C26.0625 61.6979 24.75 60.8854 22.125 59.5938L21.2188 59.9062L18.8125 59H17.9062L17.3125 56.875C17.3125 55.625 18.0104 54.125 19.4062 52.375L18.5 51.4688C19.3542 50.6562 20.1667 50.25 20.9375 50.25Z" stroke="black" stroke-width="12" mask="url(#path-1-outside-1_35_419)"/>
<path d="M54.875 9.1875C56.75 9.375 57.6875 9.65625 57.6875 10.0312L59.0938 9.1875C60.7396 9.33333 61.5938 9.61458 61.6562 10.0312L63.0625 9.75L67.0312 10.875H70.9688L76.0938 14V14.5625C76.9479 14.7083 78.0729 16.4062 79.4688 19.6562C81.3646 21.5312 82.3125 24.2604 82.3125 27.8438C82.3125 29.0729 81.1771 32.9479 78.9062 39.4688C76.2604 41.5312 74.6667 43.125 74.125 44.25L70.9688 45.9688C68.9479 46.3646 66.7812 47.5833 64.4688 49.625L57.6875 50.7812C57.2917 51.2396 54.1146 51.8021 48.1562 52.4688C47.8854 53.2188 47.6146 53.5938 47.3438 53.5938L45.0625 52.75L45.3438 50.7812L46 46.25L47.7812 33.2188L47.5 32.9688L49.0312 31.5312V29.8125L48.75 28.6875L49.5938 24.75L46.3125 15.6875L46.5938 15.4062L46.3125 14V13.7188C46.3125 11.6354 47.1562 10.5938 48.8438 10.5938C48.8438 10.0312 49.1354 9.75 49.7188 9.75L49.9688 10.0312H50.2812C50.6771 9.69792 52.2083 9.41667 54.875 9.1875ZM58.375 21.0625L58.6562 23.3125L57.8125 33.7812L57.125 39.4688L58.25 38.9062L61.0625 39.1562C62.9583 39.1562 64.8542 38.2188 66.75 36.3438C68.4375 35.8229 69.2812 34.8854 69.2812 33.5312C69.6354 33.5312 70.1979 32.8646 70.9688 31.5312V30.125L71.5312 26.1562C70.6354 26.0521 69.6979 24.9167 68.7188 22.75C68.1562 22.75 67.875 22.4792 67.875 21.9375H67.3125C67.3125 21.3542 67.0312 21.0625 66.4688 21.0625V20.5L64.7812 20.7812L60.25 17.9688H59.9375C58.4375 17.9688 57.6875 18.3438 57.6875 19.0938L58.375 21.0625ZM49.4688 18.7812V20.5H49.7812V18.7812H49.4688Z" stroke="black" stroke-width="12" mask="url(#path-1-outside-1_35_419)"/>
<path d="M89.8125 7.78125C92.3958 7.78125 95.7812 8.78125 99.9688 10.7812C96.7812 21.0312 95.1875 29.3854 95.1875 35.8438L95.7812 47.7812L94 47.1875L85.625 48.375L85.0312 45.375L84.4375 32.25L88.625 7.78125H89.8125Z" stroke="black" stroke-width="12" mask="url(#path-1-outside-1_35_419)"/>
<path d="M111 16.75C109.917 13.1458 110.458 10.8542 112.625 9.875L122.438 11.5625L120.156 17.5312C119.177 20.2188 122.406 20.8438 129.844 19.4062L129.875 19.5938C130.188 21.8646 130.396 24.6875 130.5 28.0625L130.281 28.3125L130.812 28.2188L130.562 29.9688L126.719 30.3438L123.719 29L121.344 29.1875L120.344 29.5938L120.656 31.3125C121.177 34.3125 121.323 37.0938 121.094 39.6562C121.302 38.8229 121.562 38.4792 121.875 38.625C122.188 38.7708 122.573 40.125 123.031 42.6875C119.927 44.2292 116.615 45 113.094 45L112.312 45.125C111.25 44.4375 110.729 43.3438 110.75 41.8438C109.042 40.3438 108.99 40.0312 110.594 40.9062L110.438 37.2188L110.375 32.0625L109.625 30.9375C108.083 29.9792 105.031 29.3438 100.469 29.0312L100.094 27C100.49 26.9167 100.146 25.9792 99.0625 24.1875L100.531 24.1562C101.031 21.4271 101.469 19.6354 101.844 18.7812L108.875 19.9062L110.875 20.5938L111 16.75Z" stroke="black" stroke-width="12" mask="url(#path-1-outside-1_35_419)"/>
<path d="M137.312 7.78125C139.896 7.78125 143.281 8.78125 147.469 10.7812C144.281 21.0312 142.688 29.3854 142.688 35.8438L143.281 47.7812L141.5 47.1875L133.125 48.375L132.531 45.375L131.938 32.25L136.125 7.78125H137.312Z" stroke="black" stroke-width="12" mask="url(#path-1-outside-1_35_419)"/>
<path d="M159.062 7.96875C160.312 7.96875 163 14.1458 167.125 26.5C168.979 25.6458 170.229 22.4062 170.875 16.7812L175.719 15.4062L180.594 16.7812L176.438 35.1875L178.531 45.4688C174.344 47.2604 171.323 49.0729 169.469 50.9062H167.375C165.708 45.0104 164.552 42.0625 163.906 42.0625L164.594 41.3438V40.6875L159.312 32.5312L158.438 41.3438L158.062 47.5L157.531 48.875H155.969C154.948 48.2292 153.448 47.5208 151.469 46.75C151.469 45.9375 150.312 45.4792 148 45.375V44.6562L148.375 32.5625L147.906 31.125V30.4062C149.948 23.5521 150.969 19.8854 150.969 19.4062L149.312 11.3438L159.062 7.96875Z" stroke="black" stroke-width="12" mask="url(#path-1-outside-1_35_419)"/>
<path d="M210.625 6.84375C212.833 6.84375 214.948 10.0208 216.969 16.375H216.344L208.75 17L205.531 16.375C198.615 16.375 193.542 20.1771 190.312 27.7812V29.6875C191.854 36.0417 193.552 39.2188 195.406 39.2188C195.406 40.8229 199.417 42.3021 207.438 43.6562C211.25 42.9479 213.156 42.1042 213.156 41.125V39.8438C213.156 35.7188 208.927 33.1875 200.469 32.25L196.031 33.5C194.76 32.0208 194.125 29.4792 194.125 25.875V24.625L199.844 22.7188L200.469 23.3438H201.125L201.719 22.7188H202.375C209.396 24.2812 215.74 27.4583 221.406 32.25C221.406 33.2917 222.26 34.7604 223.969 36.6562C223.969 45.8438 218.677 51.5521 208.094 53.7812L206.188 54.4375C195.354 54.4375 187.323 48.5104 182.094 36.6562L182.688 34.75L181.438 30.9375V30.3438C184.25 18.9062 187.208 13.1875 190.312 13.1875C195.583 9.39583 201.292 7.5 207.438 7.5L210 8.09375L210.625 7.5V6.84375Z" stroke="black" stroke-width="12" mask="url(#path-1-outside-1_35_419)"/>
<path d="M80.7812 62.5625L84.75 61.9688C87.5833 61.5521 89.4375 62.25 90.3125 64.0625C93.1667 65.1042 94.7396 66.625 95.0312 68.625L95.2812 70.3438L96.4375 70.1875L95.4375 87.25L96.0938 87.7188L96.1875 88.3125L95.6562 92.4688L95.5938 94.8125C95.3438 97.9167 93.2917 100.365 89.4375 102.156L98.4688 109.062L99 111.25L95.0312 111.812L90.75 109.312L85.125 104.406L76.25 105.156L76.0312 105.281L76.5312 104.656L76.4375 104.094C74.4792 104.385 71.2812 102.323 66.8438 97.9062L66.0625 92.8125L69.5312 84.6562C69.6562 74.1354 70.9792 68.6875 73.5 68.3125C76.5208 64.75 78.9479 62.8333 80.7812 62.5625ZM77.9062 88.8125L78.5312 89.3125L78.5938 89.875L78.375 92.25L79.1562 93.875L85.4062 92.8438C87.2396 92.5521 87.8125 87.5938 87.125 77.9688L86.4375 72.8125L84.6562 71.375C81.8438 71.8125 80.3854 74.1875 80.2812 78.5L77.9062 88.8125Z" stroke="black" stroke-width="12" mask="url(#path-1-outside-1_35_419)"/>
<path d="M105.031 61.3438L111.125 62.4688L109.562 71.0625L108.625 70.5L109.125 71.2188L109 71.8438L107.938 74.1875L108.438 74.9062L108.344 75.5312L107.625 76L107.156 92.4062L109 92.75C112.604 91.4167 114.562 89.875 114.875 88.125C116.979 77.0208 117.74 69.6562 117.156 66.0312L119.219 65.125L124.75 66.1562C125.667 66.3229 126.094 67.4479 126.031 69.5312L125.406 69.4062L125.906 70.125L125.812 70.75L125.062 71.25L124.969 71.875C123.635 76.25 123.938 81.2812 125.875 86.9688L125.188 90.625L124.031 93.5938L124.531 94.3125C123.573 94.1458 122.219 95.8021 120.469 99.2812C117.49 103.365 111.958 104.677 103.875 103.219L102.031 102.875C98.8854 102.292 97.6771 91.2188 98.4062 69.6562C99.5312 63.5104 101.74 60.7396 105.031 61.3438Z" stroke="black" stroke-width="12" mask="url(#path-1-outside-1_35_419)"/>
<path d="M132.938 58.7812C135.521 58.7812 138.906 59.7812 143.094 61.7812C139.906 72.0312 138.312 80.3854 138.312 86.8438L138.906 98.7812L137.125 98.1875L128.75 99.375L128.156 96.375L127.562 83.25L131.75 58.7812H132.938Z" stroke="black" stroke-width="12" mask="url(#path-1-outside-1_35_419)"/>
<path d="M142.031 94.1562C141.698 92.4062 145.781 84.9062 154.281 71.6562C154.323 69.2604 150.74 68.2917 143.531 68.75L144.5 64.2188L146.062 61.4062L158.281 62.8438L163.719 61.0938C166.927 64.6979 168.615 67.3854 168.781 69.1562L167.719 70.2812C164.74 75.4896 163.333 78.5521 163.5 79.4688L162.781 78.8125L162.281 79.0625L158.688 83.4375L154.5 90L158.875 90.2812L163.094 88.4062L165.906 88.0625C165.698 89.7708 166.375 91.8021 167.938 94.1562C167.312 94.5104 167.146 94.9271 167.438 95.4062L168 97.7188L161.625 99.0625L160.75 102.094L159.844 100.25C154.094 100.25 151.031 100.344 150.656 100.531L143.688 101.688L142.031 94.1562Z" stroke="black" stroke-width="12" mask="url(#path-1-outside-1_35_419)"/>
</g>
<defs>
<filter id="filter0_dd_35_419" x="0.133148" y="0.84375" width="234.836" height="118.824" filterUnits="userSpaceOnUse" color-interpolation-filters="sRGB">
<feFlood flood-opacity="0" result="BackgroundImageFix"/>
<feColorMatrix in="SourceAlpha" type="matrix" values="0 0 0 0 0 0 0 0 0 0 0 0 0 0 0 0 0 0 127 0" result="hardAlpha"/>
<feOffset dx="4"/>
<feComposite in2="hardAlpha" operator="out"/>
<feColorMatrix type="matrix" values="0 0 0 0 0.831373 0 0 0 0 0.639216 0 0 0 0 0.45098 0 0 0 1 0"/>
<feBlend mode="normal" in2="BackgroundImageFix" result="effect1_dropShadow_35_419"/>
<feColorMatrix in="SourceAlpha" type="matrix" values="0 0 0 0 0 0 0 0 0 0 0 0 0 0 0 0 0 0 127 0" result="hardAlpha"/>
<feOffset dx="5" dy="1"/>
<feComposite in2="hardAlpha" operator="out"/>
<feColorMatrix type="matrix" values="0 0 0 0 0.831373 0 0 0 0 0.639216 0 0 0 0 0.45098 0 0 0 1 0"/>
<feBlend mode="normal" in2="effect1_dropShadow_35_419" result="effect2_dropShadow_35_419"/>
<feBlend mode="normal" in="SourceGraphic" in2="effect2_dropShadow_35_419" result="shape"/>
</filter>
</defs>
</svg>
