<svg width="78" height="28" viewBox="0 0 78 28" fill="none" xmlns="http://www.w3.org/2000/svg">
<g filter="url(#filter0_dd_35_330)">
<mask id="path-1-outside-1_35_330" maskUnits="userSpaceOnUse" x="-0.0839844" y="-0.0830078" width="73" height="27" fill="black">
<rect fill="white" x="-0.0839844" y="-0.0830078" width="73" height="27"/>
<path d="M10.1357 7.7168L11.0039 7.58691C11.6237 7.49577 12.0293 7.64844 12.2207 8.04492C12.8451 8.27279 13.1891 8.60547 13.2529 9.04297L13.3076 9.41895L13.5605 9.38477L13.3418 13.1172L13.4854 13.2197L13.5059 13.3496L13.3418 15.4346L12.2002 16.248C13.7041 17.556 14.5107 18.0732 14.6201 17.7998L14.3535 18.1211L14.3125 18.251L14.1895 18.5244L12.9316 17.998L11.3047 16.7129L9.09668 17.0615L10.2314 16.877L9.18555 16.8018C8.75716 16.8656 8.05762 16.4144 7.08691 15.4482L6.91602 14.334L7.6748 12.5498C7.70215 10.2484 7.99154 9.05664 8.54297 8.97461C9.20378 8.19531 9.7347 7.77604 10.1357 7.7168ZM9.50684 13.459L9.64355 13.5684L9.65723 13.6914L9.60938 14.2109L9.78027 14.5664L11.1475 14.3408C11.5485 14.277 11.6738 13.1924 11.5234 11.0869L11.373 9.95898L10.9834 9.64453C10.3682 9.74023 10.0492 10.2598 10.0264 11.2031L9.50684 13.459Z"/>
<path d="M23.5957 6.97852L24.1768 7.1084L24.8945 7.12891L25.4619 7.04004L26.8906 7.23828L27.082 7.52539L26.9658 8.86523L26.8086 11.791H26.9043L26.7197 12.167L26.8086 12.8232L26.7197 13.6709L27 13.7666L27.752 13.5752C28.0117 13.6618 28.2008 13.819 28.3193 14.0469V14.7031L28.2236 14.7988L28.3193 14.8945V15.2705C28.2829 15.3343 28.2008 15.4893 28.0732 15.7354L27.6016 15.6396L26.8154 15.4824V15.5781H27.0068L26.8154 15.7695H24.6553L22.8096 15.79C22.5042 15.6488 22.3311 15.4779 22.29 15.2773C22.3584 14.7168 22.2718 14.4092 22.0303 14.3545L22.3105 14.1631L22.4062 14.2588H22.5977C22.6387 13.9443 22.7321 13.7871 22.8779 13.7871L24.5527 13.7256L24.6484 13.6367L24.5527 13.541L24.5186 13.083L24.4639 11.0391L24.6484 9.07031L24.3682 8.87891L23.4658 8.94043L22.625 8.84473L22.3721 7.82617C22.3857 7.27474 22.6045 7.08561 23.0283 7.25879L23.4043 7.16309L23.5957 6.97852Z"/>
<path d="M33.665 17.2119C32.8766 17.5036 32.4368 17.5651 32.3457 17.3965C31.7396 17.3783 31.3773 17.2598 31.2588 17.041L31.3203 17.0068C30.9512 16.8701 30.7142 16.7061 30.6094 16.5146L30.5957 16.3164L29.9258 15.5918L29.9053 14.915L29.7549 14.7988L29.7002 14.5596L29.5498 14.4365C29.682 14.1403 29.6432 13.7985 29.4336 13.4111L29.4951 13.3701L29.3994 13.3564C29.3037 13.0465 29.2946 12.8711 29.3721 12.8301L29.2695 12.8164L29.2012 12.3721L29.1396 12.3994L29.1738 12.3174L29.1191 12.2148L28.9824 12.29L28.9482 12.2422C29.0622 11.8184 29.0371 11.4424 28.873 11.1143C29.1146 10.7451 29.2604 10.3691 29.3105 9.98633L29.6182 9.26172L30.5957 7.97656L31.0332 7.80566L31.6621 7.33398C31.9036 7.32943 32.2728 7.19043 32.7695 6.91699L34.3281 7.0127C34.8066 6.93978 35.2646 7.07422 35.7021 7.41602C35.6566 7.64844 35.6862 7.97201 35.791 8.38672C35.668 8.45508 35.6178 8.73307 35.6406 9.2207C35.5358 9.27995 35.529 9.53516 35.6201 9.98633C35.5107 10.2188 35.4857 10.3919 35.5449 10.5059L35.6543 10.5195L35.6748 10.5674L35.6338 10.6562L35.8525 10.8818C35.9255 11.0186 35.9323 11.1963 35.873 11.415C36.0918 11.7477 36.2331 11.8981 36.2969 11.8662C36.4928 12.7002 36.5475 13.1719 36.4609 13.2812L36.4951 14.1494C36.2354 14.2952 36.1533 14.5231 36.249 14.833L35.7773 15.5713L34.875 16.3506L33.665 17.2119ZM34.2324 13.0146L34.1436 12.9941L33.9248 12.4541L33.6377 12.085C33.3141 11.1143 33.2549 10.5719 33.46 10.458C33.7015 10.1208 33.779 9.87923 33.6924 9.7334C33.5785 9.51921 33.5762 9.36654 33.6855 9.27539L33.7812 9.28906L33.8086 9.20703C33.7539 9.11589 33.4873 9.06576 33.0088 9.05664L32.8242 9.15918L32.79 9.24805L32.7012 9.22754L32.209 9.50098C31.6621 10.2347 31.4456 11.1462 31.5596 12.2354L32.4141 14.9424C32.6374 15.3389 33.0498 15.5075 33.6514 15.4482L33.8359 15.3457C33.8906 15.0996 33.9886 14.9355 34.1299 14.8535C34.0479 14.7122 34.0843 14.4912 34.2393 14.1904C34.18 14.0811 34.1937 13.7689 34.2803 13.2539L34.2324 13.0146Z"/>
<path d="M40.7266 17.5605L40.248 17.2393L38.8604 16.5283C38.71 16.3688 38.6279 16.1979 38.6143 16.0156L38.6553 15.9268L39.1611 15.2158V14.8193L39.8037 13.7666L39.8242 13.7119C39.7923 13.5843 39.8812 13.1217 40.0908 12.3242C40.0589 11.7728 40.1318 11.2236 40.3096 10.6768L40.3574 10.7041L40.5557 9.82227L40.6582 9.79492L40.6787 9.74707L41.1299 8.42773L41.3281 7.14941C42.0527 7.09017 42.7044 7.15397 43.2832 7.34082L43.3311 7.36133C43.4404 7.41146 43.4678 7.53223 43.4131 7.72363L43.7686 7.78516C42.889 10.2461 42.4971 11.5973 42.5928 11.8389L42.4971 11.9004C42.2874 13.4362 42.0459 14.5436 41.7725 15.2227C41.6585 15.5098 41.3919 16.0794 40.9727 16.9316L40.7812 17.2461L40.8291 17.4375L40.7607 17.4717L40.7266 17.5605Z"/>
<path d="M47.4668 6.97852L48.0479 7.1084L48.7656 7.12891L49.333 7.04004L50.7617 7.23828L50.9531 7.52539L50.8369 8.86523L50.6797 11.791H50.7754L50.5908 12.167L50.6797 12.8232L50.5908 13.6709L50.8711 13.7666L51.623 13.5752C51.8828 13.6618 52.0719 13.819 52.1904 14.0469V14.7031L52.0947 14.7988L52.1904 14.8945V15.2705C52.154 15.3343 52.0719 15.4893 51.9443 15.7354L51.4727 15.6396L50.6865 15.4824V15.5781H50.8779L50.6865 15.7695H48.5264L46.6807 15.79C46.3753 15.6488 46.2021 15.4779 46.1611 15.2773C46.2295 14.7168 46.1429 14.4092 45.9014 14.3545L46.1816 14.1631L46.2773 14.2588H46.4688C46.5098 13.9443 46.6032 13.7871 46.749 13.7871L48.4238 13.7256L48.5195 13.6367L48.4238 13.541L48.3896 13.083L48.335 11.0391L48.5195 9.07031L48.2393 8.87891L47.3369 8.94043L46.4961 8.84473L46.2432 7.82617C46.2568 7.27474 46.4756 7.08561 46.8994 7.25879L47.2754 7.16309L47.4668 6.97852Z"/>
<path d="M57.5361 17.2119C56.7477 17.5036 56.3079 17.5651 56.2168 17.3965C55.6107 17.3783 55.2484 17.2598 55.1299 17.041L55.1914 17.0068C54.8223 16.8701 54.5853 16.7061 54.4805 16.5146L54.4668 16.3164L53.7969 15.5918L53.7764 14.915L53.626 14.7988L53.5713 14.5596L53.4209 14.4365C53.5531 14.1403 53.5143 13.7985 53.3047 13.4111L53.3662 13.3701L53.2705 13.3564C53.1748 13.0465 53.1657 12.8711 53.2432 12.8301L53.1406 12.8164L53.0723 12.3721L53.0107 12.3994L53.0449 12.3174L52.9902 12.2148L52.8535 12.29L52.8193 12.2422C52.9333 11.8184 52.9082 11.4424 52.7441 11.1143C52.9857 10.7451 53.1315 10.3691 53.1816 9.98633L53.4893 9.26172L54.4668 7.97656L54.9043 7.80566L55.5332 7.33398C55.7747 7.32943 56.1439 7.19043 56.6406 6.91699L58.1992 7.0127C58.6777 6.93978 59.1357 7.07422 59.5732 7.41602C59.5277 7.64844 59.5573 7.97201 59.6621 8.38672C59.5391 8.45508 59.4889 8.73307 59.5117 9.2207C59.4069 9.27995 59.4001 9.53516 59.4912 9.98633C59.3818 10.2188 59.3568 10.3919 59.416 10.5059L59.5254 10.5195L59.5459 10.5674L59.5049 10.6562L59.7236 10.8818C59.7965 11.0186 59.8034 11.1963 59.7441 11.415C59.9629 11.7477 60.1042 11.8981 60.168 11.8662C60.3639 12.7002 60.4186 13.1719 60.332 13.2812L60.3662 14.1494C60.1064 14.2952 60.0244 14.5231 60.1201 14.833L59.6484 15.5713L58.7461 16.3506L57.5361 17.2119ZM58.1035 13.0146L58.0146 12.9941L57.7959 12.4541L57.5088 12.085C57.1852 11.1143 57.126 10.5719 57.3311 10.458C57.5726 10.1208 57.6501 9.87923 57.5635 9.7334C57.4495 9.51921 57.4473 9.36654 57.5566 9.27539L57.6523 9.28906L57.6797 9.20703C57.625 9.11589 57.3584 9.06576 56.8799 9.05664L56.6953 9.15918L56.6611 9.24805L56.5723 9.22754L56.0801 9.50098C55.5332 10.2347 55.3167 11.1462 55.4307 12.2354L56.2852 14.9424C56.5085 15.3389 56.9209 15.5075 57.5225 15.4482L57.707 15.3457C57.7617 15.0996 57.8597 14.9355 58.001 14.8535C57.9189 14.7122 57.9554 14.4912 58.1104 14.1904C58.0511 14.0811 58.0648 13.7689 58.1514 13.2539L58.1035 13.0146Z"/>
</mask>
<path d="M10.1357 7.7168L11.0039 7.58691C11.6237 7.49577 12.0293 7.64844 12.2207 8.04492C12.8451 8.27279 13.1891 8.60547 13.2529 9.04297L13.3076 9.41895L13.5605 9.38477L13.3418 13.1172L13.4854 13.2197L13.5059 13.3496L13.3418 15.4346L12.2002 16.248C13.7041 17.556 14.5107 18.0732 14.6201 17.7998L14.3535 18.1211L14.3125 18.251L14.1895 18.5244L12.9316 17.998L11.3047 16.7129L9.09668 17.0615L10.2314 16.877L9.18555 16.8018C8.75716 16.8656 8.05762 16.4144 7.08691 15.4482L6.91602 14.334L7.6748 12.5498C7.70215 10.2484 7.99154 9.05664 8.54297 8.97461C9.20378 8.19531 9.7347 7.77604 10.1357 7.7168ZM9.50684 13.459L9.64355 13.5684L9.65723 13.6914L9.60938 14.2109L9.78027 14.5664L11.1475 14.3408C11.5485 14.277 11.6738 13.1924 11.5234 11.0869L11.373 9.95898L10.9834 9.64453C10.3682 9.74023 10.0492 10.2598 10.0264 11.2031L9.50684 13.459Z" fill="#FAEDCD"/>
<path d="M23.5957 6.97852L24.1768 7.1084L24.8945 7.12891L25.4619 7.04004L26.8906 7.23828L27.082 7.52539L26.9658 8.86523L26.8086 11.791H26.9043L26.7197 12.167L26.8086 12.8232L26.7197 13.6709L27 13.7666L27.752 13.5752C28.0117 13.6618 28.2008 13.819 28.3193 14.0469V14.7031L28.2236 14.7988L28.3193 14.8945V15.2705C28.2829 15.3343 28.2008 15.4893 28.0732 15.7354L27.6016 15.6396L26.8154 15.4824V15.5781H27.0068L26.8154 15.7695H24.6553L22.8096 15.79C22.5042 15.6488 22.3311 15.4779 22.29 15.2773C22.3584 14.7168 22.2718 14.4092 22.0303 14.3545L22.3105 14.1631L22.4062 14.2588H22.5977C22.6387 13.9443 22.7321 13.7871 22.8779 13.7871L24.5527 13.7256L24.6484 13.6367L24.5527 13.541L24.5186 13.083L24.4639 11.0391L24.6484 9.07031L24.3682 8.87891L23.4658 8.94043L22.625 8.84473L22.3721 7.82617C22.3857 7.27474 22.6045 7.08561 23.0283 7.25879L23.4043 7.16309L23.5957 6.97852Z" fill="#FAEDCD"/>
<path d="M33.665 17.2119C32.8766 17.5036 32.4368 17.5651 32.3457 17.3965C31.7396 17.3783 31.3773 17.2598 31.2588 17.041L31.3203 17.0068C30.9512 16.8701 30.7142 16.7061 30.6094 16.5146L30.5957 16.3164L29.9258 15.5918L29.9053 14.915L29.7549 14.7988L29.7002 14.5596L29.5498 14.4365C29.682 14.1403 29.6432 13.7985 29.4336 13.4111L29.4951 13.3701L29.3994 13.3564C29.3037 13.0465 29.2946 12.8711 29.3721 12.8301L29.2695 12.8164L29.2012 12.3721L29.1396 12.3994L29.1738 12.3174L29.1191 12.2148L28.9824 12.29L28.9482 12.2422C29.0622 11.8184 29.0371 11.4424 28.873 11.1143C29.1146 10.7451 29.2604 10.3691 29.3105 9.98633L29.6182 9.26172L30.5957 7.97656L31.0332 7.80566L31.6621 7.33398C31.9036 7.32943 32.2728 7.19043 32.7695 6.91699L34.3281 7.0127C34.8066 6.93978 35.2646 7.07422 35.7021 7.41602C35.6566 7.64844 35.6862 7.97201 35.791 8.38672C35.668 8.45508 35.6178 8.73307 35.6406 9.2207C35.5358 9.27995 35.529 9.53516 35.6201 9.98633C35.5107 10.2188 35.4857 10.3919 35.5449 10.5059L35.6543 10.5195L35.6748 10.5674L35.6338 10.6562L35.8525 10.8818C35.9255 11.0186 35.9323 11.1963 35.873 11.415C36.0918 11.7477 36.2331 11.8981 36.2969 11.8662C36.4928 12.7002 36.5475 13.1719 36.4609 13.2812L36.4951 14.1494C36.2354 14.2952 36.1533 14.5231 36.249 14.833L35.7773 15.5713L34.875 16.3506L33.665 17.2119ZM34.2324 13.0146L34.1436 12.9941L33.9248 12.4541L33.6377 12.085C33.3141 11.1143 33.2549 10.5719 33.46 10.458C33.7015 10.1208 33.779 9.87923 33.6924 9.7334C33.5785 9.51921 33.5762 9.36654 33.6855 9.27539L33.7812 9.28906L33.8086 9.20703C33.7539 9.11589 33.4873 9.06576 33.0088 9.05664L32.8242 9.15918L32.79 9.24805L32.7012 9.22754L32.209 9.50098C31.6621 10.2347 31.4456 11.1462 31.5596 12.2354L32.4141 14.9424C32.6374 15.3389 33.0498 15.5075 33.6514 15.4482L33.8359 15.3457C33.8906 15.0996 33.9886 14.9355 34.1299 14.8535C34.0479 14.7122 34.0843 14.4912 34.2393 14.1904C34.18 14.0811 34.1937 13.7689 34.2803 13.2539L34.2324 13.0146Z" fill="#FAEDCD"/>
<path d="M40.7266 17.5605L40.248 17.2393L38.8604 16.5283C38.71 16.3688 38.6279 16.1979 38.6143 16.0156L38.6553 15.9268L39.1611 15.2158V14.8193L39.8037 13.7666L39.8242 13.7119C39.7923 13.5843 39.8812 13.1217 40.0908 12.3242C40.0589 11.7728 40.1318 11.2236 40.3096 10.6768L40.3574 10.7041L40.5557 9.82227L40.6582 9.79492L40.6787 9.74707L41.1299 8.42773L41.3281 7.14941C42.0527 7.09017 42.7044 7.15397 43.2832 7.34082L43.3311 7.36133C43.4404 7.41146 43.4678 7.53223 43.4131 7.72363L43.7686 7.78516C42.889 10.2461 42.4971 11.5973 42.5928 11.8389L42.4971 11.9004C42.2874 13.4362 42.0459 14.5436 41.7725 15.2227C41.6585 15.5098 41.3919 16.0794 40.9727 16.9316L40.7812 17.2461L40.8291 17.4375L40.7607 17.4717L40.7266 17.5605Z" fill="#FAEDCD"/>
<path d="M47.4668 6.97852L48.0479 7.1084L48.7656 7.12891L49.333 7.04004L50.7617 7.23828L50.9531 7.52539L50.8369 8.86523L50.6797 11.791H50.7754L50.5908 12.167L50.6797 12.8232L50.5908 13.6709L50.8711 13.7666L51.623 13.5752C51.8828 13.6618 52.0719 13.819 52.1904 14.0469V14.7031L52.0947 14.7988L52.1904 14.8945V15.2705C52.154 15.3343 52.0719 15.4893 51.9443 15.7354L51.4727 15.6396L50.6865 15.4824V15.5781H50.8779L50.6865 15.7695H48.5264L46.6807 15.79C46.3753 15.6488 46.2021 15.4779 46.1611 15.2773C46.2295 14.7168 46.1429 14.4092 45.9014 14.3545L46.1816 14.1631L46.2773 14.2588H46.4688C46.5098 13.9443 46.6032 13.7871 46.749 13.7871L48.4238 13.7256L48.5195 13.6367L48.4238 13.541L48.3896 13.083L48.335 11.0391L48.5195 9.07031L48.2393 8.87891L47.3369 8.94043L46.4961 8.84473L46.2432 7.82617C46.2568 7.27474 46.4756 7.08561 46.8994 7.25879L47.2754 7.16309L47.4668 6.97852Z" fill="#FAEDCD"/>
<path d="M57.5361 17.2119C56.7477 17.5036 56.3079 17.5651 56.2168 17.3965C55.6107 17.3783 55.2484 17.2598 55.1299 17.041L55.1914 17.0068C54.8223 16.8701 54.5853 16.7061 54.4805 16.5146L54.4668 16.3164L53.7969 15.5918L53.7764 14.915L53.626 14.7988L53.5713 14.5596L53.4209 14.4365C53.5531 14.1403 53.5143 13.7985 53.3047 13.4111L53.3662 13.3701L53.2705 13.3564C53.1748 13.0465 53.1657 12.8711 53.2432 12.8301L53.1406 12.8164L53.0723 12.3721L53.0107 12.3994L53.0449 12.3174L52.9902 12.2148L52.8535 12.29L52.8193 12.2422C52.9333 11.8184 52.9082 11.4424 52.7441 11.1143C52.9857 10.7451 53.1315 10.3691 53.1816 9.98633L53.4893 9.26172L54.4668 7.97656L54.9043 7.80566L55.5332 7.33398C55.7747 7.32943 56.1439 7.19043 56.6406 6.91699L58.1992 7.0127C58.6777 6.93978 59.1357 7.07422 59.5732 7.41602C59.5277 7.64844 59.5573 7.97201 59.6621 8.38672C59.5391 8.45508 59.4889 8.73307 59.5117 9.2207C59.4069 9.27995 59.4001 9.53516 59.4912 9.98633C59.3818 10.2188 59.3568 10.3919 59.416 10.5059L59.5254 10.5195L59.5459 10.5674L59.5049 10.6562L59.7236 10.8818C59.7965 11.0186 59.8034 11.1963 59.7441 11.415C59.9629 11.7477 60.1042 11.8981 60.168 11.8662C60.3639 12.7002 60.4186 13.1719 60.332 13.2812L60.3662 14.1494C60.1064 14.2952 60.0244 14.5231 60.1201 14.833L59.6484 15.5713L58.7461 16.3506L57.5361 17.2119ZM58.1035 13.0146L58.0146 12.9941L57.7959 12.4541L57.5088 12.085C57.1852 11.1143 57.126 10.5719 57.3311 10.458C57.5726 10.1208 57.6501 9.87923 57.5635 9.7334C57.4495 9.51921 57.4473 9.36654 57.5566 9.27539L57.6523 9.28906L57.6797 9.20703C57.625 9.11589 57.3584 9.06576 56.8799 9.05664L56.6953 9.15918L56.6611 9.24805L56.5723 9.22754L56.0801 9.50098C55.5332 10.2347 55.3167 11.1462 55.4307 12.2354L56.2852 14.9424C56.5085 15.3389 56.9209 15.5075 57.5225 15.4482L57.707 15.3457C57.7617 15.0996 57.8597 14.9355 58.001 14.8535C57.9189 14.7122 57.9554 14.4912 58.1104 14.1904C58.0511 14.0811 58.0648 13.7689 58.1514 13.2539L58.1035 13.0146Z" fill="#FAEDCD"/>
<path d="M10.1357 7.7168L11.0039 7.58691C11.6237 7.49577 12.0293 7.64844 12.2207 8.04492C12.8451 8.27279 13.1891 8.60547 13.2529 9.04297L13.3076 9.41895L13.5605 9.38477L13.3418 13.1172L13.4854 13.2197L13.5059 13.3496L13.3418 15.4346L12.2002 16.248C13.7041 17.556 14.5107 18.0732 14.6201 17.7998L14.3535 18.1211L14.3125 18.251L14.1895 18.5244L12.9316 17.998L11.3047 16.7129L9.09668 17.0615L10.2314 16.877L9.18555 16.8018C8.75716 16.8656 8.05762 16.4144 7.08691 15.4482L6.91602 14.334L7.6748 12.5498C7.70215 10.2484 7.99154 9.05664 8.54297 8.97461C9.20378 8.19531 9.7347 7.77604 10.1357 7.7168ZM9.50684 13.459L9.64355 13.5684L9.65723 13.6914L9.60938 14.2109L9.78027 14.5664L11.1475 14.3408C11.5485 14.277 11.6738 13.1924 11.5234 11.0869L11.373 9.95898L10.9834 9.64453C10.3682 9.74023 10.0492 10.2598 10.0264 11.2031L9.50684 13.459Z" stroke="black" stroke-width="12" mask="url(#path-1-outside-1_35_330)"/>
<path d="M23.5957 6.97852L24.1768 7.1084L24.8945 7.12891L25.4619 7.04004L26.8906 7.23828L27.082 7.52539L26.9658 8.86523L26.8086 11.791H26.9043L26.7197 12.167L26.8086 12.8232L26.7197 13.6709L27 13.7666L27.752 13.5752C28.0117 13.6618 28.2008 13.819 28.3193 14.0469V14.7031L28.2236 14.7988L28.3193 14.8945V15.2705C28.2829 15.3343 28.2008 15.4893 28.0732 15.7354L27.6016 15.6396L26.8154 15.4824V15.5781H27.0068L26.8154 15.7695H24.6553L22.8096 15.79C22.5042 15.6488 22.3311 15.4779 22.29 15.2773C22.3584 14.7168 22.2718 14.4092 22.0303 14.3545L22.3105 14.1631L22.4062 14.2588H22.5977C22.6387 13.9443 22.7321 13.7871 22.8779 13.7871L24.5527 13.7256L24.6484 13.6367L24.5527 13.541L24.5186 13.083L24.4639 11.0391L24.6484 9.07031L24.3682 8.87891L23.4658 8.94043L22.625 8.84473L22.3721 7.82617C22.3857 7.27474 22.6045 7.08561 23.0283 7.25879L23.4043 7.16309L23.5957 6.97852Z" stroke="black" stroke-width="12" mask="url(#path-1-outside-1_35_330)"/>
<path d="M33.665 17.2119C32.8766 17.5036 32.4368 17.5651 32.3457 17.3965C31.7396 17.3783 31.3773 17.2598 31.2588 17.041L31.3203 17.0068C30.9512 16.8701 30.7142 16.7061 30.6094 16.5146L30.5957 16.3164L29.9258 15.5918L29.9053 14.915L29.7549 14.7988L29.7002 14.5596L29.5498 14.4365C29.682 14.1403 29.6432 13.7985 29.4336 13.4111L29.4951 13.3701L29.3994 13.3564C29.3037 13.0465 29.2946 12.8711 29.3721 12.8301L29.2695 12.8164L29.2012 12.3721L29.1396 12.3994L29.1738 12.3174L29.1191 12.2148L28.9824 12.29L28.9482 12.2422C29.0622 11.8184 29.0371 11.4424 28.873 11.1143C29.1146 10.7451 29.2604 10.3691 29.3105 9.98633L29.6182 9.26172L30.5957 7.97656L31.0332 7.80566L31.6621 7.33398C31.9036 7.32943 32.2728 7.19043 32.7695 6.91699L34.3281 7.0127C34.8066 6.93978 35.2646 7.07422 35.7021 7.41602C35.6566 7.64844 35.6862 7.97201 35.791 8.38672C35.668 8.45508 35.6178 8.73307 35.6406 9.2207C35.5358 9.27995 35.529 9.53516 35.6201 9.98633C35.5107 10.2188 35.4857 10.3919 35.5449 10.5059L35.6543 10.5195L35.6748 10.5674L35.6338 10.6562L35.8525 10.8818C35.9255 11.0186 35.9323 11.1963 35.873 11.415C36.0918 11.7477 36.2331 11.8981 36.2969 11.8662C36.4928 12.7002 36.5475 13.1719 36.4609 13.2812L36.4951 14.1494C36.2354 14.2952 36.1533 14.5231 36.249 14.833L35.7773 15.5713L34.875 16.3506L33.665 17.2119ZM34.2324 13.0146L34.1436 12.9941L33.9248 12.4541L33.6377 12.085C33.3141 11.1143 33.2549 10.5719 33.46 10.458C33.7015 10.1208 33.779 9.87923 33.6924 9.7334C33.5785 9.51921 33.5762 9.36654 33.6855 9.27539L33.7812 9.28906L33.8086 9.20703C33.7539 9.11589 33.4873 9.06576 33.0088 9.05664L32.8242 9.15918L32.79 9.24805L32.7012 9.22754L32.209 9.50098C31.6621 10.2347 31.4456 11.1462 31.5596 12.2354L32.4141 14.9424C32.6374 15.3389 33.0498 15.5075 33.6514 15.4482L33.8359 15.3457C33.8906 15.0996 33.9886 14.9355 34.1299 14.8535C34.0479 14.7122 34.0843 14.4912 34.2393 14.1904C34.18 14.0811 34.1937 13.7689 34.2803 13.2539L34.2324 13.0146Z" stroke="black" stroke-width="12" mask="url(#path-1-outside-1_35_330)"/>
<path d="M40.7266 17.5605L40.248 17.2393L38.8604 16.5283C38.71 16.3688 38.6279 16.1979 38.6143 16.0156L38.6553 15.9268L39.1611 15.2158V14.8193L39.8037 13.7666L39.8242 13.7119C39.7923 13.5843 39.8812 13.1217 40.0908 12.3242C40.0589 11.7728 40.1318 11.2236 40.3096 10.6768L40.3574 10.7041L40.5557 9.82227L40.6582 9.79492L40.6787 9.74707L41.1299 8.42773L41.3281 7.14941C42.0527 7.09017 42.7044 7.15397 43.2832 7.34082L43.3311 7.36133C43.4404 7.41146 43.4678 7.53223 43.4131 7.72363L43.7686 7.78516C42.889 10.2461 42.4971 11.5973 42.5928 11.8389L42.4971 11.9004C42.2874 13.4362 42.0459 14.5436 41.7725 15.2227C41.6585 15.5098 41.3919 16.0794 40.9727 16.9316L40.7812 17.2461L40.8291 17.4375L40.7607 17.4717L40.7266 17.5605Z" stroke="black" stroke-width="12" mask="url(#path-1-outside-1_35_330)"/>
<path d="M47.4668 6.97852L48.0479 7.1084L48.7656 7.12891L49.333 7.04004L50.7617 7.23828L50.9531 7.52539L50.8369 8.86523L50.6797 11.791H50.7754L50.5908 12.167L50.6797 12.8232L50.5908 13.6709L50.8711 13.7666L51.623 13.5752C51.8828 13.6618 52.0719 13.819 52.1904 14.0469V14.7031L52.0947 14.7988L52.1904 14.8945V15.2705C52.154 15.3343 52.0719 15.4893 51.9443 15.7354L51.4727 15.6396L50.6865 15.4824V15.5781H50.8779L50.6865 15.7695H48.5264L46.6807 15.79C46.3753 15.6488 46.2021 15.4779 46.1611 15.2773C46.2295 14.7168 46.1429 14.4092 45.9014 14.3545L46.1816 14.1631L46.2773 14.2588H46.4688C46.5098 13.9443 46.6032 13.7871 46.749 13.7871L48.4238 13.7256L48.5195 13.6367L48.4238 13.541L48.3896 13.083L48.335 11.0391L48.5195 9.07031L48.2393 8.87891L47.3369 8.94043L46.4961 8.84473L46.2432 7.82617C46.2568 7.27474 46.4756 7.08561 46.8994 7.25879L47.2754 7.16309L47.4668 6.97852Z" stroke="black" stroke-width="12" mask="url(#path-1-outside-1_35_330)"/>
<path d="M57.5361 17.2119C56.7477 17.5036 56.3079 17.5651 56.2168 17.3965C55.6107 17.3783 55.2484 17.2598 55.1299 17.041L55.1914 17.0068C54.8223 16.8701 54.5853 16.7061 54.4805 16.5146L54.4668 16.3164L53.7969 15.5918L53.7764 14.915L53.626 14.7988L53.5713 14.5596L53.4209 14.4365C53.5531 14.1403 53.5143 13.7985 53.3047 13.4111L53.3662 13.3701L53.2705 13.3564C53.1748 13.0465 53.1657 12.8711 53.2432 12.8301L53.1406 12.8164L53.0723 12.3721L53.0107 12.3994L53.0449 12.3174L52.9902 12.2148L52.8535 12.29L52.8193 12.2422C52.9333 11.8184 52.9082 11.4424 52.7441 11.1143C52.9857 10.7451 53.1315 10.3691 53.1816 9.98633L53.4893 9.26172L54.4668 7.97656L54.9043 7.80566L55.5332 7.33398C55.7747 7.32943 56.1439 7.19043 56.6406 6.91699L58.1992 7.0127C58.6777 6.93978 59.1357 7.07422 59.5732 7.41602C59.5277 7.64844 59.5573 7.97201 59.6621 8.38672C59.5391 8.45508 59.4889 8.73307 59.5117 9.2207C59.4069 9.27995 59.4001 9.53516 59.4912 9.98633C59.3818 10.2188 59.3568 10.3919 59.416 10.5059L59.5254 10.5195L59.5459 10.5674L59.5049 10.6562L59.7236 10.8818C59.7965 11.0186 59.8034 11.1963 59.7441 11.415C59.9629 11.7477 60.1042 11.8981 60.168 11.8662C60.3639 12.7002 60.4186 13.1719 60.332 13.2812L60.3662 14.1494C60.1064 14.2952 60.0244 14.5231 60.1201 14.833L59.6484 15.5713L58.7461 16.3506L57.5361 17.2119ZM58.1035 13.0146L58.0146 12.9941L57.7959 12.4541L57.5088 12.085C57.1852 11.1143 57.126 10.5719 57.3311 10.458C57.5726 10.1208 57.6501 9.87923 57.5635 9.7334C57.4495 9.51921 57.4473 9.36654 57.5566 9.27539L57.6523 9.28906L57.6797 9.20703C57.625 9.11589 57.3584 9.06576 56.8799 9.05664L56.6953 9.15918L56.6611 9.24805L56.5723 9.22754L56.0801 9.50098C55.5332 10.2347 55.3167 11.1462 55.4307 12.2354L56.2852 14.9424C56.5085 15.3389 56.9209 15.5075 57.5225 15.4482L57.707 15.3457C57.7617 15.0996 57.8597 14.9355 58.001 14.8535C57.9189 14.7122 57.9554 14.4912 58.1104 14.1904C58.0511 14.0811 58.0648 13.7689 58.1514 13.2539L58.1035 13.0146Z" stroke="black" stroke-width="12" mask="url(#path-1-outside-1_35_330)"/>
</g>
<defs>
<filter id="filter0_dd_35_330" x="0.726624" y="0.418823" width="76.8936" height="27.3158" filterUnits="userSpaceOnUse" color-interpolation-filters="sRGB">
<feFlood flood-opacity="0" result="BackgroundImageFix"/>
<feColorMatrix in="SourceAlpha" type="matrix" values="0 0 0 0 0 0 0 0 0 0 0 0 0 0 0 0 0 0 127 0" result="hardAlpha"/>
<feOffset dx="4"/>
<feComposite in2="hardAlpha" operator="out"/>
<feColorMatrix type="matrix" values="0 0 0 0 0.831373 0 0 0 0 0.639216 0 0 0 0 0.45098 0 0 0 1 0"/>
<feBlend mode="normal" in2="BackgroundImageFix" result="effect1_dropShadow_35_330"/>
<feColorMatrix in="SourceAlpha" type="matrix" values="0 0 0 0 0 0 0 0 0 0 0 0 0 0 0 0 0 0 127 0" result="hardAlpha"/>
<feOffset dx="5" dy="1"/>
<feComposite in2="hardAlpha" operator="out"/>
<feColorMatrix type="matrix" values="0 0 0 0 0.831373 0 0 0 0 0.639216 0 0 0 0 0.45098 0 0 0 1 0"/>
<feBlend mode="normal" in2="effect1_dropShadow_35_330" result="effect2_dropShadow_35_330"/>
<feBlend mode="normal" in="SourceGraphic" in2="effect2_dropShadow_35_330" result="shape"/>
</filter>
</defs>
</svg>
