<svg width="70" height="28" viewBox="0 0 70 28" fill="none" xmlns="http://www.w3.org/2000/svg">
<g filter="url(#filter0_dd_35_322)">
<mask id="path-1-outside-1_35_322" maskUnits="userSpaceOnUse" x="0.0380859" y="-0.0830078" width="65" height="27" fill="black">
<rect fill="white" x="0.0380859" y="-0.0830078" width="65" height="27"/>
<path d="M10.2578 7.7168L11.126 7.58691C11.7458 7.49577 12.1514 7.64844 12.3428 8.04492C12.9671 8.27279 13.3112 8.60547 13.375 9.04297L13.4297 9.41895L13.6826 9.38477L13.4639 13.1172L13.6074 13.2197L13.6279 13.3496L13.4639 15.4346L12.3223 16.248C13.8262 17.556 14.6328 18.0732 14.7422 17.7998L14.4756 18.1211L14.4346 18.251L14.3115 18.5244L13.0537 17.998L11.4268 16.7129L9.21875 17.0615L10.3535 16.877L9.30762 16.8018C8.87923 16.8656 8.17969 16.4144 7.20898 15.4482L7.03809 14.334L7.79688 12.5498C7.82422 10.2484 8.11361 9.05664 8.66504 8.97461C9.32585 8.19531 9.85677 7.77604 10.2578 7.7168ZM9.62891 13.459L9.76562 13.5684L9.7793 13.6914L9.73145 14.2109L9.90234 14.5664L11.2695 14.3408C11.6706 14.277 11.7959 13.1924 11.6455 11.0869L11.4951 9.95898L11.1055 9.64453C10.4902 9.74023 10.1712 10.2598 10.1484 11.2031L9.62891 13.459Z"/>
<path d="M23.7178 6.97852L24.2988 7.1084L25.0166 7.12891L25.584 7.04004L27.0127 7.23828L27.2041 7.52539L27.0879 8.86523L26.9307 11.791H27.0264L26.8418 12.167L26.9307 12.8232L26.8418 13.6709L27.1221 13.7666L27.874 13.5752C28.1338 13.6618 28.3229 13.819 28.4414 14.0469V14.7031L28.3457 14.7988L28.4414 14.8945V15.2705C28.4049 15.3343 28.3229 15.4893 28.1953 15.7354L27.7236 15.6396L26.9375 15.4824V15.5781H27.1289L26.9375 15.7695H24.7773L22.9316 15.79C22.6263 15.6488 22.4531 15.4779 22.4121 15.2773C22.4805 14.7168 22.3939 14.4092 22.1523 14.3545L22.4326 14.1631L22.5283 14.2588H22.7197C22.7607 13.9443 22.8542 13.7871 23 13.7871L24.6748 13.7256L24.7705 13.6367L24.6748 13.541L24.6406 13.083L24.5859 11.0391L24.7705 9.07031L24.4902 8.87891L23.5879 8.94043L22.7471 8.84473L22.4941 7.82617C22.5078 7.27474 22.7266 7.08561 23.1504 7.25879L23.5264 7.16309L23.7178 6.97852Z"/>
<path d="M32.6045 17.5605L32.126 17.2393L30.7383 16.5283C30.5879 16.3688 30.5059 16.1979 30.4922 16.0156L30.5332 15.9268L31.0391 15.2158V14.8193L31.6816 13.7666L31.7021 13.7119C31.6702 13.5843 31.7591 13.1217 31.9688 12.3242C31.9368 11.7728 32.0098 11.2236 32.1875 10.6768L32.2354 10.7041L32.4336 9.82227L32.5361 9.79492L32.5566 9.74707L33.0078 8.42773L33.2061 7.14941C33.9307 7.09017 34.5824 7.15397 35.1611 7.34082L35.209 7.36133C35.3184 7.41146 35.3457 7.53223 35.291 7.72363L35.6465 7.78516C34.7669 10.2461 34.375 11.5973 34.4707 11.8389L34.375 11.9004C34.1654 13.4362 33.9238 14.5436 33.6504 15.2227C33.5365 15.5098 33.2699 16.0794 32.8506 16.9316L32.6592 17.2461L32.707 17.4375L32.6387 17.4717L32.6045 17.5605Z"/>
<path d="M39.3447 6.97852L39.9258 7.1084L40.6436 7.12891L41.2109 7.04004L42.6396 7.23828L42.8311 7.52539L42.7148 8.86523L42.5576 11.791H42.6533L42.4688 12.167L42.5576 12.8232L42.4688 13.6709L42.749 13.7666L43.501 13.5752C43.7607 13.6618 43.9499 13.819 44.0684 14.0469V14.7031L43.9727 14.7988L44.0684 14.8945V15.2705C44.0319 15.3343 43.9499 15.4893 43.8223 15.7354L43.3506 15.6396L42.5645 15.4824V15.5781H42.7559L42.5645 15.7695H40.4043L38.5586 15.79C38.2533 15.6488 38.0801 15.4779 38.0391 15.2773C38.1074 14.7168 38.0208 14.4092 37.7793 14.3545L38.0596 14.1631L38.1553 14.2588H38.3467C38.3877 13.9443 38.4811 13.7871 38.627 13.7871L40.3018 13.7256L40.3975 13.6367L40.3018 13.541L40.2676 13.083L40.2129 11.0391L40.3975 9.07031L40.1172 8.87891L39.2148 8.94043L38.374 8.84473L38.1211 7.82617C38.1348 7.27474 38.3535 7.08561 38.7773 7.25879L39.1533 7.16309L39.3447 6.97852Z"/>
<path d="M49.4141 17.2119C48.6257 17.5036 48.1859 17.5651 48.0947 17.3965C47.4886 17.3783 47.1263 17.2598 47.0078 17.041L47.0693 17.0068C46.7002 16.8701 46.4632 16.7061 46.3584 16.5146L46.3447 16.3164L45.6748 15.5918L45.6543 14.915L45.5039 14.7988L45.4492 14.5596L45.2988 14.4365C45.431 14.1403 45.3923 13.7985 45.1826 13.4111L45.2441 13.3701L45.1484 13.3564C45.0527 13.0465 45.0436 12.8711 45.1211 12.8301L45.0186 12.8164L44.9502 12.3721L44.8887 12.3994L44.9229 12.3174L44.8682 12.2148L44.7314 12.29L44.6973 12.2422C44.8112 11.8184 44.7861 11.4424 44.6221 11.1143C44.8636 10.7451 45.0094 10.3691 45.0596 9.98633L45.3672 9.26172L46.3447 7.97656L46.7822 7.80566L47.4111 7.33398C47.6527 7.32943 48.0218 7.19043 48.5186 6.91699L50.0771 7.0127C50.5557 6.93978 51.0137 7.07422 51.4512 7.41602C51.4056 7.64844 51.4352 7.97201 51.54 8.38672C51.417 8.45508 51.3669 8.73307 51.3896 9.2207C51.2848 9.27995 51.278 9.53516 51.3691 9.98633C51.2598 10.2188 51.2347 10.3919 51.2939 10.5059L51.4033 10.5195L51.4238 10.5674L51.3828 10.6562L51.6016 10.8818C51.6745 11.0186 51.6813 11.1963 51.6221 11.415C51.8408 11.7477 51.9821 11.8981 52.0459 11.8662C52.2419 12.7002 52.2965 13.1719 52.21 13.2812L52.2441 14.1494C51.9844 14.2952 51.9023 14.5231 51.998 14.833L51.5264 15.5713L50.624 16.3506L49.4141 17.2119ZM49.9814 13.0146L49.8926 12.9941L49.6738 12.4541L49.3867 12.085C49.0632 11.1143 49.0039 10.5719 49.209 10.458C49.4505 10.1208 49.528 9.87923 49.4414 9.7334C49.3275 9.51921 49.3252 9.36654 49.4346 9.27539L49.5303 9.28906L49.5576 9.20703C49.5029 9.11589 49.2363 9.06576 48.7578 9.05664L48.5732 9.15918L48.5391 9.24805L48.4502 9.22754L47.958 9.50098C47.4111 10.2347 47.1947 11.1462 47.3086 12.2354L48.1631 14.9424C48.3864 15.3389 48.7988 15.5075 49.4004 15.4482L49.585 15.3457C49.6396 15.0996 49.7376 14.9355 49.8789 14.8535C49.7969 14.7122 49.8333 14.4912 49.9883 14.1904C49.929 14.0811 49.9427 13.7689 50.0293 13.2539L49.9814 13.0146Z"/>
</mask>
<path d="M10.2578 7.7168L11.126 7.58691C11.7458 7.49577 12.1514 7.64844 12.3428 8.04492C12.9671 8.27279 13.3112 8.60547 13.375 9.04297L13.4297 9.41895L13.6826 9.38477L13.4639 13.1172L13.6074 13.2197L13.6279 13.3496L13.4639 15.4346L12.3223 16.248C13.8262 17.556 14.6328 18.0732 14.7422 17.7998L14.4756 18.1211L14.4346 18.251L14.3115 18.5244L13.0537 17.998L11.4268 16.7129L9.21875 17.0615L10.3535 16.877L9.30762 16.8018C8.87923 16.8656 8.17969 16.4144 7.20898 15.4482L7.03809 14.334L7.79688 12.5498C7.82422 10.2484 8.11361 9.05664 8.66504 8.97461C9.32585 8.19531 9.85677 7.77604 10.2578 7.7168ZM9.62891 13.459L9.76562 13.5684L9.7793 13.6914L9.73145 14.2109L9.90234 14.5664L11.2695 14.3408C11.6706 14.277 11.7959 13.1924 11.6455 11.0869L11.4951 9.95898L11.1055 9.64453C10.4902 9.74023 10.1712 10.2598 10.1484 11.2031L9.62891 13.459Z" fill="#FAEDCD"/>
<path d="M23.7178 6.97852L24.2988 7.1084L25.0166 7.12891L25.584 7.04004L27.0127 7.23828L27.2041 7.52539L27.0879 8.86523L26.9307 11.791H27.0264L26.8418 12.167L26.9307 12.8232L26.8418 13.6709L27.1221 13.7666L27.874 13.5752C28.1338 13.6618 28.3229 13.819 28.4414 14.0469V14.7031L28.3457 14.7988L28.4414 14.8945V15.2705C28.4049 15.3343 28.3229 15.4893 28.1953 15.7354L27.7236 15.6396L26.9375 15.4824V15.5781H27.1289L26.9375 15.7695H24.7773L22.9316 15.79C22.6263 15.6488 22.4531 15.4779 22.4121 15.2773C22.4805 14.7168 22.3939 14.4092 22.1523 14.3545L22.4326 14.1631L22.5283 14.2588H22.7197C22.7607 13.9443 22.8542 13.7871 23 13.7871L24.6748 13.7256L24.7705 13.6367L24.6748 13.541L24.6406 13.083L24.5859 11.0391L24.7705 9.07031L24.4902 8.87891L23.5879 8.94043L22.7471 8.84473L22.4941 7.82617C22.5078 7.27474 22.7266 7.08561 23.1504 7.25879L23.5264 7.16309L23.7178 6.97852Z" fill="#FAEDCD"/>
<path d="M32.6045 17.5605L32.126 17.2393L30.7383 16.5283C30.5879 16.3688 30.5059 16.1979 30.4922 16.0156L30.5332 15.9268L31.0391 15.2158V14.8193L31.6816 13.7666L31.7021 13.7119C31.6702 13.5843 31.7591 13.1217 31.9688 12.3242C31.9368 11.7728 32.0098 11.2236 32.1875 10.6768L32.2354 10.7041L32.4336 9.82227L32.5361 9.79492L32.5566 9.74707L33.0078 8.42773L33.2061 7.14941C33.9307 7.09017 34.5824 7.15397 35.1611 7.34082L35.209 7.36133C35.3184 7.41146 35.3457 7.53223 35.291 7.72363L35.6465 7.78516C34.7669 10.2461 34.375 11.5973 34.4707 11.8389L34.375 11.9004C34.1654 13.4362 33.9238 14.5436 33.6504 15.2227C33.5365 15.5098 33.2699 16.0794 32.8506 16.9316L32.6592 17.2461L32.707 17.4375L32.6387 17.4717L32.6045 17.5605Z" fill="#FAEDCD"/>
<path d="M39.3447 6.97852L39.9258 7.1084L40.6436 7.12891L41.2109 7.04004L42.6396 7.23828L42.8311 7.52539L42.7148 8.86523L42.5576 11.791H42.6533L42.4688 12.167L42.5576 12.8232L42.4688 13.6709L42.749 13.7666L43.501 13.5752C43.7607 13.6618 43.9499 13.819 44.0684 14.0469V14.7031L43.9727 14.7988L44.0684 14.8945V15.2705C44.0319 15.3343 43.9499 15.4893 43.8223 15.7354L43.3506 15.6396L42.5645 15.4824V15.5781H42.7559L42.5645 15.7695H40.4043L38.5586 15.79C38.2533 15.6488 38.0801 15.4779 38.0391 15.2773C38.1074 14.7168 38.0208 14.4092 37.7793 14.3545L38.0596 14.1631L38.1553 14.2588H38.3467C38.3877 13.9443 38.4811 13.7871 38.627 13.7871L40.3018 13.7256L40.3975 13.6367L40.3018 13.541L40.2676 13.083L40.2129 11.0391L40.3975 9.07031L40.1172 8.87891L39.2148 8.94043L38.374 8.84473L38.1211 7.82617C38.1348 7.27474 38.3535 7.08561 38.7773 7.25879L39.1533 7.16309L39.3447 6.97852Z" fill="#FAEDCD"/>
<path d="M49.4141 17.2119C48.6257 17.5036 48.1859 17.5651 48.0947 17.3965C47.4886 17.3783 47.1263 17.2598 47.0078 17.041L47.0693 17.0068C46.7002 16.8701 46.4632 16.7061 46.3584 16.5146L46.3447 16.3164L45.6748 15.5918L45.6543 14.915L45.5039 14.7988L45.4492 14.5596L45.2988 14.4365C45.431 14.1403 45.3923 13.7985 45.1826 13.4111L45.2441 13.3701L45.1484 13.3564C45.0527 13.0465 45.0436 12.8711 45.1211 12.8301L45.0186 12.8164L44.9502 12.3721L44.8887 12.3994L44.9229 12.3174L44.8682 12.2148L44.7314 12.29L44.6973 12.2422C44.8112 11.8184 44.7861 11.4424 44.6221 11.1143C44.8636 10.7451 45.0094 10.3691 45.0596 9.98633L45.3672 9.26172L46.3447 7.97656L46.7822 7.80566L47.4111 7.33398C47.6527 7.32943 48.0218 7.19043 48.5186 6.91699L50.0771 7.0127C50.5557 6.93978 51.0137 7.07422 51.4512 7.41602C51.4056 7.64844 51.4352 7.97201 51.54 8.38672C51.417 8.45508 51.3669 8.73307 51.3896 9.2207C51.2848 9.27995 51.278 9.53516 51.3691 9.98633C51.2598 10.2188 51.2347 10.3919 51.2939 10.5059L51.4033 10.5195L51.4238 10.5674L51.3828 10.6562L51.6016 10.8818C51.6745 11.0186 51.6813 11.1963 51.6221 11.415C51.8408 11.7477 51.9821 11.8981 52.0459 11.8662C52.2419 12.7002 52.2965 13.1719 52.21 13.2812L52.2441 14.1494C51.9844 14.2952 51.9023 14.5231 51.998 14.833L51.5264 15.5713L50.624 16.3506L49.4141 17.2119ZM49.9814 13.0146L49.8926 12.9941L49.6738 12.4541L49.3867 12.085C49.0632 11.1143 49.0039 10.5719 49.209 10.458C49.4505 10.1208 49.528 9.87923 49.4414 9.7334C49.3275 9.51921 49.3252 9.36654 49.4346 9.27539L49.5303 9.28906L49.5576 9.20703C49.5029 9.11589 49.2363 9.06576 48.7578 9.05664L48.5732 9.15918L48.5391 9.24805L48.4502 9.22754L47.958 9.50098C47.4111 10.2347 47.1947 11.1462 47.3086 12.2354L48.1631 14.9424C48.3864 15.3389 48.7988 15.5075 49.4004 15.4482L49.585 15.3457C49.6396 15.0996 49.7376 14.9355 49.8789 14.8535C49.7969 14.7122 49.8333 14.4912 49.9883 14.1904C49.929 14.0811 49.9427 13.7689 50.0293 13.2539L49.9814 13.0146Z" fill="#FAEDCD"/>
<path d="M10.2578 7.7168L11.126 7.58691C11.7458 7.49577 12.1514 7.64844 12.3428 8.04492C12.9671 8.27279 13.3112 8.60547 13.375 9.04297L13.4297 9.41895L13.6826 9.38477L13.4639 13.1172L13.6074 13.2197L13.6279 13.3496L13.4639 15.4346L12.3223 16.248C13.8262 17.556 14.6328 18.0732 14.7422 17.7998L14.4756 18.1211L14.4346 18.251L14.3115 18.5244L13.0537 17.998L11.4268 16.7129L9.21875 17.0615L10.3535 16.877L9.30762 16.8018C8.87923 16.8656 8.17969 16.4144 7.20898 15.4482L7.03809 14.334L7.79688 12.5498C7.82422 10.2484 8.11361 9.05664 8.66504 8.97461C9.32585 8.19531 9.85677 7.77604 10.2578 7.7168ZM9.62891 13.459L9.76562 13.5684L9.7793 13.6914L9.73145 14.2109L9.90234 14.5664L11.2695 14.3408C11.6706 14.277 11.7959 13.1924 11.6455 11.0869L11.4951 9.95898L11.1055 9.64453C10.4902 9.74023 10.1712 10.2598 10.1484 11.2031L9.62891 13.459Z" stroke="black" stroke-width="12" mask="url(#path-1-outside-1_35_322)"/>
<path d="M23.7178 6.97852L24.2988 7.1084L25.0166 7.12891L25.584 7.04004L27.0127 7.23828L27.2041 7.52539L27.0879 8.86523L26.9307 11.791H27.0264L26.8418 12.167L26.9307 12.8232L26.8418 13.6709L27.1221 13.7666L27.874 13.5752C28.1338 13.6618 28.3229 13.819 28.4414 14.0469V14.7031L28.3457 14.7988L28.4414 14.8945V15.2705C28.4049 15.3343 28.3229 15.4893 28.1953 15.7354L27.7236 15.6396L26.9375 15.4824V15.5781H27.1289L26.9375 15.7695H24.7773L22.9316 15.79C22.6263 15.6488 22.4531 15.4779 22.4121 15.2773C22.4805 14.7168 22.3939 14.4092 22.1523 14.3545L22.4326 14.1631L22.5283 14.2588H22.7197C22.7607 13.9443 22.8542 13.7871 23 13.7871L24.6748 13.7256L24.7705 13.6367L24.6748 13.541L24.6406 13.083L24.5859 11.0391L24.7705 9.07031L24.4902 8.87891L23.5879 8.94043L22.7471 8.84473L22.4941 7.82617C22.5078 7.27474 22.7266 7.08561 23.1504 7.25879L23.5264 7.16309L23.7178 6.97852Z" stroke="black" stroke-width="12" mask="url(#path-1-outside-1_35_322)"/>
<path d="M32.6045 17.5605L32.126 17.2393L30.7383 16.5283C30.5879 16.3688 30.5059 16.1979 30.4922 16.0156L30.5332 15.9268L31.0391 15.2158V14.8193L31.6816 13.7666L31.7021 13.7119C31.6702 13.5843 31.7591 13.1217 31.9688 12.3242C31.9368 11.7728 32.0098 11.2236 32.1875 10.6768L32.2354 10.7041L32.4336 9.82227L32.5361 9.79492L32.5566 9.74707L33.0078 8.42773L33.2061 7.14941C33.9307 7.09017 34.5824 7.15397 35.1611 7.34082L35.209 7.36133C35.3184 7.41146 35.3457 7.53223 35.291 7.72363L35.6465 7.78516C34.7669 10.2461 34.375 11.5973 34.4707 11.8389L34.375 11.9004C34.1654 13.4362 33.9238 14.5436 33.6504 15.2227C33.5365 15.5098 33.2699 16.0794 32.8506 16.9316L32.6592 17.2461L32.707 17.4375L32.6387 17.4717L32.6045 17.5605Z" stroke="black" stroke-width="12" mask="url(#path-1-outside-1_35_322)"/>
<path d="M39.3447 6.97852L39.9258 7.1084L40.6436 7.12891L41.2109 7.04004L42.6396 7.23828L42.8311 7.52539L42.7148 8.86523L42.5576 11.791H42.6533L42.4688 12.167L42.5576 12.8232L42.4688 13.6709L42.749 13.7666L43.501 13.5752C43.7607 13.6618 43.9499 13.819 44.0684 14.0469V14.7031L43.9727 14.7988L44.0684 14.8945V15.2705C44.0319 15.3343 43.9499 15.4893 43.8223 15.7354L43.3506 15.6396L42.5645 15.4824V15.5781H42.7559L42.5645 15.7695H40.4043L38.5586 15.79C38.2533 15.6488 38.0801 15.4779 38.0391 15.2773C38.1074 14.7168 38.0208 14.4092 37.7793 14.3545L38.0596 14.1631L38.1553 14.2588H38.3467C38.3877 13.9443 38.4811 13.7871 38.627 13.7871L40.3018 13.7256L40.3975 13.6367L40.3018 13.541L40.2676 13.083L40.2129 11.0391L40.3975 9.07031L40.1172 8.87891L39.2148 8.94043L38.374 8.84473L38.1211 7.82617C38.1348 7.27474 38.3535 7.08561 38.7773 7.25879L39.1533 7.16309L39.3447 6.97852Z" stroke="black" stroke-width="12" mask="url(#path-1-outside-1_35_322)"/>
<path d="M49.4141 17.2119C48.6257 17.5036 48.1859 17.5651 48.0947 17.3965C47.4886 17.3783 47.1263 17.2598 47.0078 17.041L47.0693 17.0068C46.7002 16.8701 46.4632 16.7061 46.3584 16.5146L46.3447 16.3164L45.6748 15.5918L45.6543 14.915L45.5039 14.7988L45.4492 14.5596L45.2988 14.4365C45.431 14.1403 45.3923 13.7985 45.1826 13.4111L45.2441 13.3701L45.1484 13.3564C45.0527 13.0465 45.0436 12.8711 45.1211 12.8301L45.0186 12.8164L44.9502 12.3721L44.8887 12.3994L44.9229 12.3174L44.8682 12.2148L44.7314 12.29L44.6973 12.2422C44.8112 11.8184 44.7861 11.4424 44.6221 11.1143C44.8636 10.7451 45.0094 10.3691 45.0596 9.98633L45.3672 9.26172L46.3447 7.97656L46.7822 7.80566L47.4111 7.33398C47.6527 7.32943 48.0218 7.19043 48.5186 6.91699L50.0771 7.0127C50.5557 6.93978 51.0137 7.07422 51.4512 7.41602C51.4056 7.64844 51.4352 7.97201 51.54 8.38672C51.417 8.45508 51.3669 8.73307 51.3896 9.2207C51.2848 9.27995 51.278 9.53516 51.3691 9.98633C51.2598 10.2188 51.2347 10.3919 51.2939 10.5059L51.4033 10.5195L51.4238 10.5674L51.3828 10.6562L51.6016 10.8818C51.6745 11.0186 51.6813 11.1963 51.6221 11.415C51.8408 11.7477 51.9821 11.8981 52.0459 11.8662C52.2419 12.7002 52.2965 13.1719 52.21 13.2812L52.2441 14.1494C51.9844 14.2952 51.9023 14.5231 51.998 14.833L51.5264 15.5713L50.624 16.3506L49.4141 17.2119ZM49.9814 13.0146L49.8926 12.9941L49.6738 12.4541L49.3867 12.085C49.0632 11.1143 49.0039 10.5719 49.209 10.458C49.4505 10.1208 49.528 9.87923 49.4414 9.7334C49.3275 9.51921 49.3252 9.36654 49.4346 9.27539L49.5303 9.28906L49.5576 9.20703C49.5029 9.11589 49.2363 9.06576 48.7578 9.05664L48.5732 9.15918L48.5391 9.24805L48.4502 9.22754L47.958 9.50098C47.4111 10.2347 47.1947 11.1462 47.3086 12.2354L48.1631 14.9424C48.3864 15.3389 48.7988 15.5075 49.4004 15.4482L49.585 15.3457C49.6396 15.0996 49.7376 14.9355 49.8789 14.8535C49.7969 14.7122 49.8333 14.4912 49.9883 14.1904C49.929 14.0811 49.9427 13.7689 50.0293 13.2539L49.9814 13.0146Z" stroke="black" stroke-width="12" mask="url(#path-1-outside-1_35_322)"/>
</g>
<defs>
<filter id="filter0_dd_35_322" x="0.848663" y="0.418823" width="68.6495" height="27.3158" filterUnits="userSpaceOnUse" color-interpolation-filters="sRGB">
<feFlood flood-opacity="0" result="BackgroundImageFix"/>
<feColorMatrix in="SourceAlpha" type="matrix" values="0 0 0 0 0 0 0 0 0 0 0 0 0 0 0 0 0 0 127 0" result="hardAlpha"/>
<feOffset dx="4"/>
<feComposite in2="hardAlpha" operator="out"/>
<feColorMatrix type="matrix" values="0 0 0 0 0.831373 0 0 0 0 0.639216 0 0 0 0 0.45098 0 0 0 1 0"/>
<feBlend mode="normal" in2="BackgroundImageFix" result="effect1_dropShadow_35_322"/>
<feColorMatrix in="SourceAlpha" type="matrix" values="0 0 0 0 0 0 0 0 0 0 0 0 0 0 0 0 0 0 127 0" result="hardAlpha"/>
<feOffset dx="5" dy="1"/>
<feComposite in2="hardAlpha" operator="out"/>
<feColorMatrix type="matrix" values="0 0 0 0 0.831373 0 0 0 0 0.639216 0 0 0 0 0.45098 0 0 0 1 0"/>
<feBlend mode="normal" in2="effect1_dropShadow_35_322" result="effect2_dropShadow_35_322"/>
<feBlend mode="normal" in="SourceGraphic" in2="effect2_dropShadow_35_322" result="shape"/>
</filter>
</defs>
</svg>
