<svg width="85" height="31" viewBox="0 0 85 31" fill="none" xmlns="http://www.w3.org/2000/svg">
<g filter="url(#filter0_dd_35_287)">
<mask id="path-1-outside-1_35_287" maskUnits="userSpaceOnUse" x="-0.227539" y="-0.623047" width="80" height="31" fill="black">
<rect fill="white" x="-0.227539" y="-0.623047" width="80" height="31"/>
<path d="M9.99219 10.7168L10.8604 10.5869C11.4801 10.4958 11.8857 10.6484 12.0771 11.0449C12.7015 11.2728 13.0456 11.6055 13.1094 12.043L13.1641 12.4189L13.417 12.3848L13.1982 16.1172L13.3418 16.2197L13.3623 16.3496L13.1982 18.4346L12.0566 19.248C13.5605 20.556 14.3672 21.0732 14.4766 20.7998L14.21 21.1211L14.1689 21.251L14.0459 21.5244L12.7881 20.998L11.1611 19.7129L8.95312 20.0615L10.0879 19.877L9.04199 19.8018C8.61361 19.8656 7.91406 19.4144 6.94336 18.4482L6.77246 17.334L7.53125 15.5498C7.55859 13.2484 7.84798 12.0566 8.39941 11.9746C9.06022 11.1953 9.59115 10.776 9.99219 10.7168ZM9.36328 16.459L9.5 16.5684L9.51367 16.6914L9.46582 17.2109L9.63672 17.5664L11.0039 17.3408C11.4049 17.277 11.5303 16.1924 11.3799 14.0869L11.2295 12.959L10.8398 12.6445C10.2246 12.7402 9.9056 13.2598 9.88281 14.2031L9.36328 16.459Z"/>
<path d="M24.2451 11.8516C24.0081 11.0632 24.1266 10.5618 24.6006 10.3477L26.7471 10.7168L26.248 12.0225C26.0339 12.6104 26.7402 12.7471 28.3672 12.4326L28.374 12.4736C28.4424 12.9704 28.488 13.5879 28.5107 14.3262L28.4629 14.3809L28.5791 14.3604L28.5244 14.7432L27.6836 14.8252L27.0273 14.5312L26.5078 14.5723L26.2891 14.6611L26.3574 15.0371C26.4714 15.6934 26.5033 16.3018 26.4531 16.8623C26.4987 16.68 26.5557 16.6048 26.624 16.6367C26.6924 16.6686 26.7767 16.9648 26.877 17.5254C26.1979 17.8626 25.4733 18.0312 24.7031 18.0312L24.5322 18.0586C24.2998 17.9082 24.1859 17.6689 24.1904 17.3408C23.8167 17.0127 23.8053 16.9443 24.1562 17.1357L24.1221 16.3291L24.1084 15.2012L23.9443 14.9551C23.6071 14.7454 22.9395 14.6064 21.9414 14.5381L21.8594 14.0938C21.946 14.0755 21.8708 13.8704 21.6338 13.4785L21.9551 13.4717C22.0645 12.8747 22.1602 12.4827 22.2422 12.2959L23.7803 12.542L24.2178 12.6924L24.2451 11.8516ZM30.8008 9.37695L31.1699 9.8623L30.8008 11.7012L30.9238 11.8242V11.9473L30.6777 14.1484V14.2783H30.8008C31.5436 11.7445 32.209 10.4775 32.7969 10.4775H33.6172C33.8359 10.4775 34.1185 11.4163 34.4648 13.2939H34.5947C34.5947 12.6559 34.9525 12.0863 35.668 11.585V11.7012L35.791 11.585H35.9141L37.3838 11.9473V12.3164C37.1696 12.3164 36.6068 13.2962 35.6953 15.2559L35.5654 15.625L35.6953 15.7412V15.8643C35.5358 17.4958 35.292 18.3115 34.9639 18.3115C34.098 17.8193 33.526 17.4115 33.248 17.0879L33.3711 16.7188L32.8789 14.8799C32.7331 14.8799 32.5303 15.7777 32.2705 17.5732C30.9489 17.9014 30.1719 18.1885 29.9395 18.4346C29.748 18.4346 29.5863 17.6986 29.4541 16.2266L28.4766 14.1484C28.4766 11.3776 28.8434 9.99219 29.5771 9.99219L30.6777 9.5L30.8008 9.37695ZM40.7334 11.7354C41.5127 11.7354 41.916 11.8151 41.9434 11.9746C42.4629 12.1706 42.7409 12.3757 42.7773 12.5898L42.709 12.5967C42.9915 12.82 43.1465 13.0251 43.1738 13.2119L43.126 13.376L43.4746 14.1553L43.2764 14.709L43.3721 14.8525L43.3379 15.0645L43.4268 15.208C43.2217 15.4085 43.1488 15.6979 43.208 16.0762L43.1396 16.083L43.2217 16.124C43.2035 16.4066 43.1533 16.5524 43.0713 16.5615L43.1533 16.6025L43.0713 16.9785H43.1396L43.0781 17.0332L43.0986 17.1357L43.2422 17.1084L43.249 17.1631C43.0166 17.4684 42.9209 17.7783 42.9619 18.0928C42.6292 18.3206 42.3809 18.5827 42.2168 18.8789L41.7109 19.3711L40.4463 20.1162L40.0088 20.1299L39.3115 20.3281C39.0973 20.2552 38.7305 20.2575 38.2109 20.335L36.8779 19.8018C36.4359 19.7152 36.0781 19.4691 35.8047 19.0635C35.9232 18.8857 36.0007 18.6146 36.0371 18.25C36.1693 18.2272 36.3037 18.0176 36.4404 17.6211C36.5498 17.6029 36.6364 17.3978 36.7002 17.0059C36.8734 16.8464 36.9531 16.7119 36.9395 16.6025L36.8506 16.5615L36.8438 16.5137L36.9121 16.459L36.7891 16.2061C36.7708 16.0785 36.8232 15.9349 36.9463 15.7754C36.8597 15.4382 36.7822 15.2741 36.7139 15.2832C36.8096 14.5495 36.9144 14.1507 37.0283 14.0869L37.2744 13.376C37.5479 13.335 37.6914 13.1755 37.7051 12.8975L38.3613 12.4395L39.4004 12.0771L40.7334 11.7354ZM38.8877 14.9688L38.9561 15.0098L38.9766 15.5156L39.1133 15.8984C39.0814 16.778 38.9583 17.2337 38.7441 17.2656C38.4251 17.4661 38.2793 17.6393 38.3066 17.7852C38.3385 17.9902 38.2907 18.1133 38.1631 18.1543L38.0879 18.1133L38.04 18.1748C38.0537 18.2614 38.2679 18.3799 38.6826 18.5303L38.8809 18.5098L38.9424 18.4414L39.0107 18.4824L39.5234 18.4141C40.2389 17.9811 40.7197 17.3066 40.9658 16.3906L41.0957 13.9434C41.0273 13.5605 40.7197 13.3031 40.1729 13.1709L39.9814 13.1982C39.8538 13.3805 39.7171 13.4854 39.5713 13.5127C39.5941 13.6494 39.4893 13.8158 39.2568 14.0117C39.2751 14.1165 39.1634 14.3649 38.9219 14.7568L38.8877 14.9688Z"/>
<path d="M47.8701 20.5605L47.3916 20.2393L46.0039 19.5283C45.8535 19.3688 45.7715 19.1979 45.7578 19.0156L45.7988 18.9268L46.3047 18.2158V17.8193L46.9473 16.7666L46.9678 16.7119C46.9359 16.5843 47.0247 16.1217 47.2344 15.3242C47.2025 14.7728 47.2754 14.2236 47.4531 13.6768L47.501 13.7041L47.6992 12.8223L47.8018 12.7949L47.8223 12.7471L48.2734 11.4277L48.4717 10.1494C49.1963 10.0902 49.848 10.154 50.4268 10.3408L50.4746 10.3613C50.584 10.4115 50.6113 10.5322 50.5566 10.7236L50.9121 10.7852C50.0326 13.2461 49.6406 14.5973 49.7363 14.8389L49.6406 14.9004C49.431 16.4362 49.1895 17.5436 48.916 18.2227C48.8021 18.5098 48.5355 19.0794 48.1162 19.9316L47.9248 20.2461L47.9727 20.4375L47.9043 20.4717L47.8701 20.5605Z"/>
<path d="M54.6104 9.97852L55.1914 10.1084L55.9092 10.1289L56.4766 10.04L57.9053 10.2383L58.0967 10.5254L57.9805 11.8652L57.8232 14.791H57.9189L57.7344 15.167L57.8232 15.8232L57.7344 16.6709L58.0146 16.7666L58.7666 16.5752C59.0264 16.6618 59.2155 16.819 59.334 17.0469V17.7031L59.2383 17.7988L59.334 17.8945V18.2705C59.2975 18.3343 59.2155 18.4893 59.0879 18.7354L58.6162 18.6396L57.8301 18.4824V18.5781H58.0215L57.8301 18.7695H55.6699L53.8242 18.79C53.5189 18.6488 53.3457 18.4779 53.3047 18.2773C53.373 17.7168 53.2865 17.4092 53.0449 17.3545L53.3252 17.1631L53.4209 17.2588H53.6123C53.6533 16.9443 53.7467 16.7871 53.8926 16.7871L55.5674 16.7256L55.6631 16.6367L55.5674 16.541L55.5332 16.083L55.4785 14.0391L55.6631 12.0703L55.3828 11.8789L54.4805 11.9404L53.6396 11.8447L53.3867 10.8262C53.4004 10.2747 53.6191 10.0856 54.043 10.2588L54.4189 10.1631L54.6104 9.97852Z"/>
<path d="M64.6797 20.2119C63.8913 20.5036 63.4515 20.5651 63.3604 20.3965C62.7542 20.3783 62.3919 20.2598 62.2734 20.041L62.335 20.0068C61.9658 19.8701 61.7288 19.7061 61.624 19.5146L61.6104 19.3164L60.9404 18.5918L60.9199 17.915L60.7695 17.7988L60.7148 17.5596L60.5645 17.4365C60.6966 17.1403 60.6579 16.7985 60.4482 16.4111L60.5098 16.3701L60.4141 16.3564C60.3184 16.0465 60.3092 15.8711 60.3867 15.8301L60.2842 15.8164L60.2158 15.3721L60.1543 15.3994L60.1885 15.3174L60.1338 15.2148L59.9971 15.29L59.9629 15.2422C60.0768 14.8184 60.0518 14.4424 59.8877 14.1143C60.1292 13.7451 60.2751 13.3691 60.3252 12.9863L60.6328 12.2617L61.6104 10.9766L62.0479 10.8057L62.6768 10.334C62.9183 10.3294 63.2874 10.1904 63.7842 9.91699L65.3428 10.0127C65.8213 9.93978 66.2793 10.0742 66.7168 10.416C66.6712 10.6484 66.7008 10.972 66.8057 11.3867C66.6826 11.4551 66.6325 11.7331 66.6553 12.2207C66.5505 12.2799 66.5436 12.5352 66.6348 12.9863C66.5254 13.2188 66.5003 13.3919 66.5596 13.5059L66.6689 13.5195L66.6895 13.5674L66.6484 13.6562L66.8672 13.8818C66.9401 14.0186 66.9469 14.1963 66.8877 14.415C67.1064 14.7477 67.2477 14.8981 67.3115 14.8662C67.5075 15.7002 67.5622 16.1719 67.4756 16.2812L67.5098 17.1494C67.25 17.2952 67.168 17.5231 67.2637 17.833L66.792 18.5713L65.8896 19.3506L64.6797 20.2119ZM65.2471 16.0146L65.1582 15.9941L64.9395 15.4541L64.6523 15.085C64.3288 14.1143 64.2695 13.5719 64.4746 13.458C64.7161 13.1208 64.7936 12.8792 64.707 12.7334C64.5931 12.5192 64.5908 12.3665 64.7002 12.2754L64.7959 12.2891L64.8232 12.207C64.7686 12.1159 64.502 12.0658 64.0234 12.0566L63.8389 12.1592L63.8047 12.248L63.7158 12.2275L63.2236 12.501C62.6768 13.2347 62.4603 14.1462 62.5742 15.2354L63.4287 17.9424C63.652 18.3389 64.0645 18.5075 64.666 18.4482L64.8506 18.3457C64.9053 18.0996 65.0033 17.9355 65.1445 17.8535C65.0625 17.7122 65.099 17.4912 65.2539 17.1904C65.1947 17.0811 65.2083 16.7689 65.2949 16.2539L65.2471 16.0146Z"/>
</mask>
<path d="M9.99219 10.7168L10.8604 10.5869C11.4801 10.4958 11.8857 10.6484 12.0771 11.0449C12.7015 11.2728 13.0456 11.6055 13.1094 12.043L13.1641 12.4189L13.417 12.3848L13.1982 16.1172L13.3418 16.2197L13.3623 16.3496L13.1982 18.4346L12.0566 19.248C13.5605 20.556 14.3672 21.0732 14.4766 20.7998L14.21 21.1211L14.1689 21.251L14.0459 21.5244L12.7881 20.998L11.1611 19.7129L8.95312 20.0615L10.0879 19.877L9.04199 19.8018C8.61361 19.8656 7.91406 19.4144 6.94336 18.4482L6.77246 17.334L7.53125 15.5498C7.55859 13.2484 7.84798 12.0566 8.39941 11.9746C9.06022 11.1953 9.59115 10.776 9.99219 10.7168ZM9.36328 16.459L9.5 16.5684L9.51367 16.6914L9.46582 17.2109L9.63672 17.5664L11.0039 17.3408C11.4049 17.277 11.5303 16.1924 11.3799 14.0869L11.2295 12.959L10.8398 12.6445C10.2246 12.7402 9.9056 13.2598 9.88281 14.2031L9.36328 16.459Z" fill="#FAEDCD"/>
<path d="M24.2451 11.8516C24.0081 11.0632 24.1266 10.5618 24.6006 10.3477L26.7471 10.7168L26.248 12.0225C26.0339 12.6104 26.7402 12.7471 28.3672 12.4326L28.374 12.4736C28.4424 12.9704 28.488 13.5879 28.5107 14.3262L28.4629 14.3809L28.5791 14.3604L28.5244 14.7432L27.6836 14.8252L27.0273 14.5312L26.5078 14.5723L26.2891 14.6611L26.3574 15.0371C26.4714 15.6934 26.5033 16.3018 26.4531 16.8623C26.4987 16.68 26.5557 16.6048 26.624 16.6367C26.6924 16.6686 26.7767 16.9648 26.877 17.5254C26.1979 17.8626 25.4733 18.0312 24.7031 18.0312L24.5322 18.0586C24.2998 17.9082 24.1859 17.6689 24.1904 17.3408C23.8167 17.0127 23.8053 16.9443 24.1562 17.1357L24.1221 16.3291L24.1084 15.2012L23.9443 14.9551C23.6071 14.7454 22.9395 14.6064 21.9414 14.5381L21.8594 14.0938C21.946 14.0755 21.8708 13.8704 21.6338 13.4785L21.9551 13.4717C22.0645 12.8747 22.1602 12.4827 22.2422 12.2959L23.7803 12.542L24.2178 12.6924L24.2451 11.8516ZM30.8008 9.37695L31.1699 9.8623L30.8008 11.7012L30.9238 11.8242V11.9473L30.6777 14.1484V14.2783H30.8008C31.5436 11.7445 32.209 10.4775 32.7969 10.4775H33.6172C33.8359 10.4775 34.1185 11.4163 34.4648 13.2939H34.5947C34.5947 12.6559 34.9525 12.0863 35.668 11.585V11.7012L35.791 11.585H35.9141L37.3838 11.9473V12.3164C37.1696 12.3164 36.6068 13.2962 35.6953 15.2559L35.5654 15.625L35.6953 15.7412V15.8643C35.5358 17.4958 35.292 18.3115 34.9639 18.3115C34.098 17.8193 33.526 17.4115 33.248 17.0879L33.3711 16.7188L32.8789 14.8799C32.7331 14.8799 32.5303 15.7777 32.2705 17.5732C30.9489 17.9014 30.1719 18.1885 29.9395 18.4346C29.748 18.4346 29.5863 17.6986 29.4541 16.2266L28.4766 14.1484C28.4766 11.3776 28.8434 9.99219 29.5771 9.99219L30.6777 9.5L30.8008 9.37695ZM40.7334 11.7354C41.5127 11.7354 41.916 11.8151 41.9434 11.9746C42.4629 12.1706 42.7409 12.3757 42.7773 12.5898L42.709 12.5967C42.9915 12.82 43.1465 13.0251 43.1738 13.2119L43.126 13.376L43.4746 14.1553L43.2764 14.709L43.3721 14.8525L43.3379 15.0645L43.4268 15.208C43.2217 15.4085 43.1488 15.6979 43.208 16.0762L43.1396 16.083L43.2217 16.124C43.2035 16.4066 43.1533 16.5524 43.0713 16.5615L43.1533 16.6025L43.0713 16.9785H43.1396L43.0781 17.0332L43.0986 17.1357L43.2422 17.1084L43.249 17.1631C43.0166 17.4684 42.9209 17.7783 42.9619 18.0928C42.6292 18.3206 42.3809 18.5827 42.2168 18.8789L41.7109 19.3711L40.4463 20.1162L40.0088 20.1299L39.3115 20.3281C39.0973 20.2552 38.7305 20.2575 38.2109 20.335L36.8779 19.8018C36.4359 19.7152 36.0781 19.4691 35.8047 19.0635C35.9232 18.8857 36.0007 18.6146 36.0371 18.25C36.1693 18.2272 36.3037 18.0176 36.4404 17.6211C36.5498 17.6029 36.6364 17.3978 36.7002 17.0059C36.8734 16.8464 36.9531 16.7119 36.9395 16.6025L36.8506 16.5615L36.8438 16.5137L36.9121 16.459L36.7891 16.2061C36.7708 16.0785 36.8232 15.9349 36.9463 15.7754C36.8597 15.4382 36.7822 15.2741 36.7139 15.2832C36.8096 14.5495 36.9144 14.1507 37.0283 14.0869L37.2744 13.376C37.5479 13.335 37.6914 13.1755 37.7051 12.8975L38.3613 12.4395L39.4004 12.0771L40.7334 11.7354ZM38.8877 14.9688L38.9561 15.0098L38.9766 15.5156L39.1133 15.8984C39.0814 16.778 38.9583 17.2337 38.7441 17.2656C38.4251 17.4661 38.2793 17.6393 38.3066 17.7852C38.3385 17.9902 38.2907 18.1133 38.1631 18.1543L38.0879 18.1133L38.04 18.1748C38.0537 18.2614 38.2679 18.3799 38.6826 18.5303L38.8809 18.5098L38.9424 18.4414L39.0107 18.4824L39.5234 18.4141C40.2389 17.9811 40.7197 17.3066 40.9658 16.3906L41.0957 13.9434C41.0273 13.5605 40.7197 13.3031 40.1729 13.1709L39.9814 13.1982C39.8538 13.3805 39.7171 13.4854 39.5713 13.5127C39.5941 13.6494 39.4893 13.8158 39.2568 14.0117C39.2751 14.1165 39.1634 14.3649 38.9219 14.7568L38.8877 14.9688Z" fill="#FAEDCD"/>
<path d="M47.8701 20.5605L47.3916 20.2393L46.0039 19.5283C45.8535 19.3688 45.7715 19.1979 45.7578 19.0156L45.7988 18.9268L46.3047 18.2158V17.8193L46.9473 16.7666L46.9678 16.7119C46.9359 16.5843 47.0247 16.1217 47.2344 15.3242C47.2025 14.7728 47.2754 14.2236 47.4531 13.6768L47.501 13.7041L47.6992 12.8223L47.8018 12.7949L47.8223 12.7471L48.2734 11.4277L48.4717 10.1494C49.1963 10.0902 49.848 10.154 50.4268 10.3408L50.4746 10.3613C50.584 10.4115 50.6113 10.5322 50.5566 10.7236L50.9121 10.7852C50.0326 13.2461 49.6406 14.5973 49.7363 14.8389L49.6406 14.9004C49.431 16.4362 49.1895 17.5436 48.916 18.2227C48.8021 18.5098 48.5355 19.0794 48.1162 19.9316L47.9248 20.2461L47.9727 20.4375L47.9043 20.4717L47.8701 20.5605Z" fill="#FAEDCD"/>
<path d="M54.6104 9.97852L55.1914 10.1084L55.9092 10.1289L56.4766 10.04L57.9053 10.2383L58.0967 10.5254L57.9805 11.8652L57.8232 14.791H57.9189L57.7344 15.167L57.8232 15.8232L57.7344 16.6709L58.0146 16.7666L58.7666 16.5752C59.0264 16.6618 59.2155 16.819 59.334 17.0469V17.7031L59.2383 17.7988L59.334 17.8945V18.2705C59.2975 18.3343 59.2155 18.4893 59.0879 18.7354L58.6162 18.6396L57.8301 18.4824V18.5781H58.0215L57.8301 18.7695H55.6699L53.8242 18.79C53.5189 18.6488 53.3457 18.4779 53.3047 18.2773C53.373 17.7168 53.2865 17.4092 53.0449 17.3545L53.3252 17.1631L53.4209 17.2588H53.6123C53.6533 16.9443 53.7467 16.7871 53.8926 16.7871L55.5674 16.7256L55.6631 16.6367L55.5674 16.541L55.5332 16.083L55.4785 14.0391L55.6631 12.0703L55.3828 11.8789L54.4805 11.9404L53.6396 11.8447L53.3867 10.8262C53.4004 10.2747 53.6191 10.0856 54.043 10.2588L54.4189 10.1631L54.6104 9.97852Z" fill="#FAEDCD"/>
<path d="M64.6797 20.2119C63.8913 20.5036 63.4515 20.5651 63.3604 20.3965C62.7542 20.3783 62.3919 20.2598 62.2734 20.041L62.335 20.0068C61.9658 19.8701 61.7288 19.7061 61.624 19.5146L61.6104 19.3164L60.9404 18.5918L60.9199 17.915L60.7695 17.7988L60.7148 17.5596L60.5645 17.4365C60.6966 17.1403 60.6579 16.7985 60.4482 16.4111L60.5098 16.3701L60.4141 16.3564C60.3184 16.0465 60.3092 15.8711 60.3867 15.8301L60.2842 15.8164L60.2158 15.3721L60.1543 15.3994L60.1885 15.3174L60.1338 15.2148L59.9971 15.29L59.9629 15.2422C60.0768 14.8184 60.0518 14.4424 59.8877 14.1143C60.1292 13.7451 60.2751 13.3691 60.3252 12.9863L60.6328 12.2617L61.6104 10.9766L62.0479 10.8057L62.6768 10.334C62.9183 10.3294 63.2874 10.1904 63.7842 9.91699L65.3428 10.0127C65.8213 9.93978 66.2793 10.0742 66.7168 10.416C66.6712 10.6484 66.7008 10.972 66.8057 11.3867C66.6826 11.4551 66.6325 11.7331 66.6553 12.2207C66.5505 12.2799 66.5436 12.5352 66.6348 12.9863C66.5254 13.2188 66.5003 13.3919 66.5596 13.5059L66.6689 13.5195L66.6895 13.5674L66.6484 13.6562L66.8672 13.8818C66.9401 14.0186 66.9469 14.1963 66.8877 14.415C67.1064 14.7477 67.2477 14.8981 67.3115 14.8662C67.5075 15.7002 67.5622 16.1719 67.4756 16.2812L67.5098 17.1494C67.25 17.2952 67.168 17.5231 67.2637 17.833L66.792 18.5713L65.8896 19.3506L64.6797 20.2119ZM65.2471 16.0146L65.1582 15.9941L64.9395 15.4541L64.6523 15.085C64.3288 14.1143 64.2695 13.5719 64.4746 13.458C64.7161 13.1208 64.7936 12.8792 64.707 12.7334C64.5931 12.5192 64.5908 12.3665 64.7002 12.2754L64.7959 12.2891L64.8232 12.207C64.7686 12.1159 64.502 12.0658 64.0234 12.0566L63.8389 12.1592L63.8047 12.248L63.7158 12.2275L63.2236 12.501C62.6768 13.2347 62.4603 14.1462 62.5742 15.2354L63.4287 17.9424C63.652 18.3389 64.0645 18.5075 64.666 18.4482L64.8506 18.3457C64.9053 18.0996 65.0033 17.9355 65.1445 17.8535C65.0625 17.7122 65.099 17.4912 65.2539 17.1904C65.1947 17.0811 65.2083 16.7689 65.2949 16.2539L65.2471 16.0146Z" fill="#FAEDCD"/>
<path d="M9.99219 10.7168L10.8604 10.5869C11.4801 10.4958 11.8857 10.6484 12.0771 11.0449C12.7015 11.2728 13.0456 11.6055 13.1094 12.043L13.1641 12.4189L13.417 12.3848L13.1982 16.1172L13.3418 16.2197L13.3623 16.3496L13.1982 18.4346L12.0566 19.248C13.5605 20.556 14.3672 21.0732 14.4766 20.7998L14.21 21.1211L14.1689 21.251L14.0459 21.5244L12.7881 20.998L11.1611 19.7129L8.95312 20.0615L10.0879 19.877L9.04199 19.8018C8.61361 19.8656 7.91406 19.4144 6.94336 18.4482L6.77246 17.334L7.53125 15.5498C7.55859 13.2484 7.84798 12.0566 8.39941 11.9746C9.06022 11.1953 9.59115 10.776 9.99219 10.7168ZM9.36328 16.459L9.5 16.5684L9.51367 16.6914L9.46582 17.2109L9.63672 17.5664L11.0039 17.3408C11.4049 17.277 11.5303 16.1924 11.3799 14.0869L11.2295 12.959L10.8398 12.6445C10.2246 12.7402 9.9056 13.2598 9.88281 14.2031L9.36328 16.459Z" stroke="black" stroke-width="12" mask="url(#path-1-outside-1_35_287)"/>
<path d="M24.2451 11.8516C24.0081 11.0632 24.1266 10.5618 24.6006 10.3477L26.7471 10.7168L26.248 12.0225C26.0339 12.6104 26.7402 12.7471 28.3672 12.4326L28.374 12.4736C28.4424 12.9704 28.488 13.5879 28.5107 14.3262L28.4629 14.3809L28.5791 14.3604L28.5244 14.7432L27.6836 14.8252L27.0273 14.5312L26.5078 14.5723L26.2891 14.6611L26.3574 15.0371C26.4714 15.6934 26.5033 16.3018 26.4531 16.8623C26.4987 16.68 26.5557 16.6048 26.624 16.6367C26.6924 16.6686 26.7767 16.9648 26.877 17.5254C26.1979 17.8626 25.4733 18.0312 24.7031 18.0312L24.5322 18.0586C24.2998 17.9082 24.1859 17.6689 24.1904 17.3408C23.8167 17.0127 23.8053 16.9443 24.1562 17.1357L24.1221 16.3291L24.1084 15.2012L23.9443 14.9551C23.6071 14.7454 22.9395 14.6064 21.9414 14.5381L21.8594 14.0938C21.946 14.0755 21.8708 13.8704 21.6338 13.4785L21.9551 13.4717C22.0645 12.8747 22.1602 12.4827 22.2422 12.2959L23.7803 12.542L24.2178 12.6924L24.2451 11.8516ZM30.8008 9.37695L31.1699 9.8623L30.8008 11.7012L30.9238 11.8242V11.9473L30.6777 14.1484V14.2783H30.8008C31.5436 11.7445 32.209 10.4775 32.7969 10.4775H33.6172C33.8359 10.4775 34.1185 11.4163 34.4648 13.2939H34.5947C34.5947 12.6559 34.9525 12.0863 35.668 11.585V11.7012L35.791 11.585H35.9141L37.3838 11.9473V12.3164C37.1696 12.3164 36.6068 13.2962 35.6953 15.2559L35.5654 15.625L35.6953 15.7412V15.8643C35.5358 17.4958 35.292 18.3115 34.9639 18.3115C34.098 17.8193 33.526 17.4115 33.248 17.0879L33.3711 16.7188L32.8789 14.8799C32.7331 14.8799 32.5303 15.7777 32.2705 17.5732C30.9489 17.9014 30.1719 18.1885 29.9395 18.4346C29.748 18.4346 29.5863 17.6986 29.4541 16.2266L28.4766 14.1484C28.4766 11.3776 28.8434 9.99219 29.5771 9.99219L30.6777 9.5L30.8008 9.37695ZM40.7334 11.7354C41.5127 11.7354 41.916 11.8151 41.9434 11.9746C42.4629 12.1706 42.7409 12.3757 42.7773 12.5898L42.709 12.5967C42.9915 12.82 43.1465 13.0251 43.1738 13.2119L43.126 13.376L43.4746 14.1553L43.2764 14.709L43.3721 14.8525L43.3379 15.0645L43.4268 15.208C43.2217 15.4085 43.1488 15.6979 43.208 16.0762L43.1396 16.083L43.2217 16.124C43.2035 16.4066 43.1533 16.5524 43.0713 16.5615L43.1533 16.6025L43.0713 16.9785H43.1396L43.0781 17.0332L43.0986 17.1357L43.2422 17.1084L43.249 17.1631C43.0166 17.4684 42.9209 17.7783 42.9619 18.0928C42.6292 18.3206 42.3809 18.5827 42.2168 18.8789L41.7109 19.3711L40.4463 20.1162L40.0088 20.1299L39.3115 20.3281C39.0973 20.2552 38.7305 20.2575 38.2109 20.335L36.8779 19.8018C36.4359 19.7152 36.0781 19.4691 35.8047 19.0635C35.9232 18.8857 36.0007 18.6146 36.0371 18.25C36.1693 18.2272 36.3037 18.0176 36.4404 17.6211C36.5498 17.6029 36.6364 17.3978 36.7002 17.0059C36.8734 16.8464 36.9531 16.7119 36.9395 16.6025L36.8506 16.5615L36.8438 16.5137L36.9121 16.459L36.7891 16.2061C36.7708 16.0785 36.8232 15.9349 36.9463 15.7754C36.8597 15.4382 36.7822 15.2741 36.7139 15.2832C36.8096 14.5495 36.9144 14.1507 37.0283 14.0869L37.2744 13.376C37.5479 13.335 37.6914 13.1755 37.7051 12.8975L38.3613 12.4395L39.4004 12.0771L40.7334 11.7354ZM38.8877 14.9688L38.9561 15.0098L38.9766 15.5156L39.1133 15.8984C39.0814 16.778 38.9583 17.2337 38.7441 17.2656C38.4251 17.4661 38.2793 17.6393 38.3066 17.7852C38.3385 17.9902 38.2907 18.1133 38.1631 18.1543L38.0879 18.1133L38.04 18.1748C38.0537 18.2614 38.2679 18.3799 38.6826 18.5303L38.8809 18.5098L38.9424 18.4414L39.0107 18.4824L39.5234 18.4141C40.2389 17.9811 40.7197 17.3066 40.9658 16.3906L41.0957 13.9434C41.0273 13.5605 40.7197 13.3031 40.1729 13.1709L39.9814 13.1982C39.8538 13.3805 39.7171 13.4854 39.5713 13.5127C39.5941 13.6494 39.4893 13.8158 39.2568 14.0117C39.2751 14.1165 39.1634 14.3649 38.9219 14.7568L38.8877 14.9688Z" stroke="black" stroke-width="12" mask="url(#path-1-outside-1_35_287)"/>
<path d="M47.8701 20.5605L47.3916 20.2393L46.0039 19.5283C45.8535 19.3688 45.7715 19.1979 45.7578 19.0156L45.7988 18.9268L46.3047 18.2158V17.8193L46.9473 16.7666L46.9678 16.7119C46.9359 16.5843 47.0247 16.1217 47.2344 15.3242C47.2025 14.7728 47.2754 14.2236 47.4531 13.6768L47.501 13.7041L47.6992 12.8223L47.8018 12.7949L47.8223 12.7471L48.2734 11.4277L48.4717 10.1494C49.1963 10.0902 49.848 10.154 50.4268 10.3408L50.4746 10.3613C50.584 10.4115 50.6113 10.5322 50.5566 10.7236L50.9121 10.7852C50.0326 13.2461 49.6406 14.5973 49.7363 14.8389L49.6406 14.9004C49.431 16.4362 49.1895 17.5436 48.916 18.2227C48.8021 18.5098 48.5355 19.0794 48.1162 19.9316L47.9248 20.2461L47.9727 20.4375L47.9043 20.4717L47.8701 20.5605Z" stroke="black" stroke-width="12" mask="url(#path-1-outside-1_35_287)"/>
<path d="M54.6104 9.97852L55.1914 10.1084L55.9092 10.1289L56.4766 10.04L57.9053 10.2383L58.0967 10.5254L57.9805 11.8652L57.8232 14.791H57.9189L57.7344 15.167L57.8232 15.8232L57.7344 16.6709L58.0146 16.7666L58.7666 16.5752C59.0264 16.6618 59.2155 16.819 59.334 17.0469V17.7031L59.2383 17.7988L59.334 17.8945V18.2705C59.2975 18.3343 59.2155 18.4893 59.0879 18.7354L58.6162 18.6396L57.8301 18.4824V18.5781H58.0215L57.8301 18.7695H55.6699L53.8242 18.79C53.5189 18.6488 53.3457 18.4779 53.3047 18.2773C53.373 17.7168 53.2865 17.4092 53.0449 17.3545L53.3252 17.1631L53.4209 17.2588H53.6123C53.6533 16.9443 53.7467 16.7871 53.8926 16.7871L55.5674 16.7256L55.6631 16.6367L55.5674 16.541L55.5332 16.083L55.4785 14.0391L55.6631 12.0703L55.3828 11.8789L54.4805 11.9404L53.6396 11.8447L53.3867 10.8262C53.4004 10.2747 53.6191 10.0856 54.043 10.2588L54.4189 10.1631L54.6104 9.97852Z" stroke="black" stroke-width="12" mask="url(#path-1-outside-1_35_287)"/>
<path d="M64.6797 20.2119C63.8913 20.5036 63.4515 20.5651 63.3604 20.3965C62.7542 20.3783 62.3919 20.2598 62.2734 20.041L62.335 20.0068C61.9658 19.8701 61.7288 19.7061 61.624 19.5146L61.6104 19.3164L60.9404 18.5918L60.9199 17.915L60.7695 17.7988L60.7148 17.5596L60.5645 17.4365C60.6966 17.1403 60.6579 16.7985 60.4482 16.4111L60.5098 16.3701L60.4141 16.3564C60.3184 16.0465 60.3092 15.8711 60.3867 15.8301L60.2842 15.8164L60.2158 15.3721L60.1543 15.3994L60.1885 15.3174L60.1338 15.2148L59.9971 15.29L59.9629 15.2422C60.0768 14.8184 60.0518 14.4424 59.8877 14.1143C60.1292 13.7451 60.2751 13.3691 60.3252 12.9863L60.6328 12.2617L61.6104 10.9766L62.0479 10.8057L62.6768 10.334C62.9183 10.3294 63.2874 10.1904 63.7842 9.91699L65.3428 10.0127C65.8213 9.93978 66.2793 10.0742 66.7168 10.416C66.6712 10.6484 66.7008 10.972 66.8057 11.3867C66.6826 11.4551 66.6325 11.7331 66.6553 12.2207C66.5505 12.2799 66.5436 12.5352 66.6348 12.9863C66.5254 13.2188 66.5003 13.3919 66.5596 13.5059L66.6689 13.5195L66.6895 13.5674L66.6484 13.6562L66.8672 13.8818C66.9401 14.0186 66.9469 14.1963 66.8877 14.415C67.1064 14.7477 67.2477 14.8981 67.3115 14.8662C67.5075 15.7002 67.5622 16.1719 67.4756 16.2812L67.5098 17.1494C67.25 17.2952 67.168 17.5231 67.2637 17.833L66.792 18.5713L65.8896 19.3506L64.6797 20.2119ZM65.2471 16.0146L65.1582 15.9941L64.9395 15.4541L64.6523 15.085C64.3288 14.1143 64.2695 13.5719 64.4746 13.458C64.7161 13.1208 64.7936 12.8792 64.707 12.7334C64.5931 12.5192 64.5908 12.3665 64.7002 12.2754L64.7959 12.2891L64.8232 12.207C64.7686 12.1159 64.502 12.0658 64.0234 12.0566L63.8389 12.1592L63.8047 12.248L63.7158 12.2275L63.2236 12.501C62.6768 13.2347 62.4603 14.1462 62.5742 15.2354L63.4287 17.9424C63.652 18.3389 64.0645 18.5075 64.666 18.4482L64.8506 18.3457C64.9053 18.0996 65.0033 17.9355 65.1445 17.8535C65.0625 17.7122 65.099 17.4912 65.2539 17.1904C65.1947 17.0811 65.2083 16.7689 65.2949 16.2539L65.2471 16.0146Z" stroke="black" stroke-width="12" mask="url(#path-1-outside-1_35_287)"/>
</g>
<defs>
<filter id="filter0_dd_35_287" x="0.583038" y="0.0550537" width="84.1808" height="30.6796" filterUnits="userSpaceOnUse" color-interpolation-filters="sRGB">
<feFlood flood-opacity="0" result="BackgroundImageFix"/>
<feColorMatrix in="SourceAlpha" type="matrix" values="0 0 0 0 0 0 0 0 0 0 0 0 0 0 0 0 0 0 127 0" result="hardAlpha"/>
<feOffset dx="4"/>
<feComposite in2="hardAlpha" operator="out"/>
<feColorMatrix type="matrix" values="0 0 0 0 0.831373 0 0 0 0 0.639216 0 0 0 0 0.45098 0 0 0 1 0"/>
<feBlend mode="normal" in2="BackgroundImageFix" result="effect1_dropShadow_35_287"/>
<feColorMatrix in="SourceAlpha" type="matrix" values="0 0 0 0 0 0 0 0 0 0 0 0 0 0 0 0 0 0 127 0" result="hardAlpha"/>
<feOffset dx="5" dy="1"/>
<feComposite in2="hardAlpha" operator="out"/>
<feColorMatrix type="matrix" values="0 0 0 0 0.831373 0 0 0 0 0.639216 0 0 0 0 0.45098 0 0 0 1 0"/>
<feBlend mode="normal" in2="effect1_dropShadow_35_287" result="effect2_dropShadow_35_287"/>
<feBlend mode="normal" in="SourceGraphic" in2="effect2_dropShadow_35_287" result="shape"/>
</filter>
</defs>
</svg>
