<svg width="69" height="28" viewBox="0 0 69 28" fill="none" xmlns="http://www.w3.org/2000/svg">
<g filter="url(#filter0_dd_35_323)">
<mask id="path-1-outside-1_35_323" maskUnits="userSpaceOnUse" x="-0.28418" y="-0.0830078" width="65" height="27" fill="black">
<rect fill="white" x="-0.28418" y="-0.0830078" width="65" height="27"/>
<path d="M9.93555 7.7168L10.8037 7.58691C11.4235 7.49577 11.8291 7.64844 12.0205 8.04492C12.6449 8.27279 12.9889 8.60547 13.0527 9.04297L13.1074 9.41895L13.3604 9.38477L13.1416 13.1172L13.2852 13.2197L13.3057 13.3496L13.1416 15.4346L12 16.248C13.5039 17.556 14.3105 18.0732 14.4199 17.7998L14.1533 18.1211L14.1123 18.251L13.9893 18.5244L12.7314 17.998L11.1045 16.7129L8.89648 17.0615L10.0312 16.877L8.98535 16.8018C8.55697 16.8656 7.85742 16.4144 6.88672 15.4482L6.71582 14.334L7.47461 12.5498C7.50195 10.2484 7.79134 9.05664 8.34277 8.97461C9.00358 8.19531 9.53451 7.77604 9.93555 7.7168ZM9.30664 13.459L9.44336 13.5684L9.45703 13.6914L9.40918 14.2109L9.58008 14.5664L10.9473 14.3408C11.3483 14.277 11.4736 13.1924 11.3232 11.0869L11.1729 9.95898L10.7832 9.64453C10.168 9.74023 9.84896 10.2598 9.82617 11.2031L9.30664 13.459Z"/>
<path d="M22.8623 7.86035C23.0583 7.87858 23.1016 7.90137 22.9922 7.92871V7.84668L25.2275 7.83984C25.2275 7.94922 25.6217 8.08366 26.4102 8.24316L26.5332 8.55762L26.6836 8.83105C26.6836 9.09082 26.9023 9.28223 27.3398 9.40527L27.668 10.2256C27.7363 11.3376 27.1416 12.224 25.8838 12.8848C26.8545 13.3177 27.3398 13.6071 27.3398 13.7529L27.4219 14.3271C27.5677 15.1383 27.4287 15.8356 27.0049 16.4189C26.1527 16.9339 25.5898 17.1914 25.3164 17.1914L23.9287 17.6016C23.514 17.2734 23.318 16.804 23.3408 16.1934V15.9473H23.1768C23.6325 15.6328 24.0951 15.5622 24.5645 15.7354C24.8698 15.6943 25.1296 15.3776 25.3438 14.7852L25.125 14.4092C24.4642 13.8486 23.7259 13.5684 22.9102 13.5684C22.9102 13.459 22.6094 13.3701 22.0078 13.3018C21.9167 13.3063 21.8688 12.8984 21.8643 12.0781L21.8779 11.6543C22.3656 11.4128 23.0924 11.292 24.0586 11.292L24.1406 11.21L25.2891 10.8818L25.207 10.7998V10.7178L25.2891 10.6357C25.2891 10.1071 24.5234 9.80632 22.9922 9.7334L22.9102 9.81543V9.7334L21.8438 9.89746L21.4199 9.53516L21.4746 9.19336L21.5088 8.43457L21.8438 8.33887L21.7617 8.01074C21.8483 7.7373 22.2152 7.68717 22.8623 7.86035Z"/>
<path d="M31.9268 17.5605L31.4482 17.2393L30.0605 16.5283C29.9102 16.3688 29.8281 16.1979 29.8145 16.0156L29.8555 15.9268L30.3613 15.2158V14.8193L31.0039 13.7666L31.0244 13.7119C30.9925 13.5843 31.0814 13.1217 31.291 12.3242C31.2591 11.7728 31.332 11.2236 31.5098 10.6768L31.5576 10.7041L31.7559 9.82227L31.8584 9.79492L31.8789 9.74707L32.3301 8.42773L32.5283 7.14941C33.2529 7.09017 33.9046 7.15397 34.4834 7.34082L34.5312 7.36133C34.6406 7.41146 34.668 7.53223 34.6133 7.72363L34.9688 7.78516C34.0892 10.2461 33.6973 11.5973 33.793 11.8389L33.6973 11.9004C33.4876 13.4362 33.2461 14.5436 32.9727 15.2227C32.8587 15.5098 32.5921 16.0794 32.1729 16.9316L31.9814 17.2461L32.0293 17.4375L31.9609 17.4717L31.9268 17.5605Z"/>
<path d="M38.667 6.97852L39.248 7.1084L39.9658 7.12891L40.5332 7.04004L41.9619 7.23828L42.1533 7.52539L42.0371 8.86523L41.8799 11.791H41.9756L41.791 12.167L41.8799 12.8232L41.791 13.6709L42.0713 13.7666L42.8232 13.5752C43.083 13.6618 43.2721 13.819 43.3906 14.0469V14.7031L43.2949 14.7988L43.3906 14.8945V15.2705C43.3542 15.3343 43.2721 15.4893 43.1445 15.7354L42.6729 15.6396L41.8867 15.4824V15.5781H42.0781L41.8867 15.7695H39.7266L37.8809 15.79C37.5755 15.6488 37.4023 15.4779 37.3613 15.2773C37.4297 14.7168 37.3431 14.4092 37.1016 14.3545L37.3818 14.1631L37.4775 14.2588H37.6689C37.71 13.9443 37.8034 13.7871 37.9492 13.7871L39.624 13.7256L39.7197 13.6367L39.624 13.541L39.5898 13.083L39.5352 11.0391L39.7197 9.07031L39.4395 8.87891L38.5371 8.94043L37.6963 8.84473L37.4434 7.82617C37.457 7.27474 37.6758 7.08561 38.0996 7.25879L38.4756 7.16309L38.667 6.97852Z"/>
<path d="M48.7363 17.2119C47.9479 17.5036 47.5081 17.5651 47.417 17.3965C46.8109 17.3783 46.4486 17.2598 46.3301 17.041L46.3916 17.0068C46.0225 16.8701 45.7855 16.7061 45.6807 16.5146L45.667 16.3164L44.9971 15.5918L44.9766 14.915L44.8262 14.7988L44.7715 14.5596L44.6211 14.4365C44.7533 14.1403 44.7145 13.7985 44.5049 13.4111L44.5664 13.3701L44.4707 13.3564C44.375 13.0465 44.3659 12.8711 44.4434 12.8301L44.3408 12.8164L44.2725 12.3721L44.2109 12.3994L44.2451 12.3174L44.1904 12.2148L44.0537 12.29L44.0195 12.2422C44.1335 11.8184 44.1084 11.4424 43.9443 11.1143C44.1859 10.7451 44.3317 10.3691 44.3818 9.98633L44.6895 9.26172L45.667 7.97656L46.1045 7.80566L46.7334 7.33398C46.9749 7.32943 47.3441 7.19043 47.8408 6.91699L49.3994 7.0127C49.8779 6.93978 50.3359 7.07422 50.7734 7.41602C50.7279 7.64844 50.7575 7.97201 50.8623 8.38672C50.7393 8.45508 50.6891 8.73307 50.7119 9.2207C50.6071 9.27995 50.6003 9.53516 50.6914 9.98633C50.582 10.2188 50.557 10.3919 50.6162 10.5059L50.7256 10.5195L50.7461 10.5674L50.7051 10.6562L50.9238 10.8818C50.9967 11.0186 51.0036 11.1963 50.9443 11.415C51.1631 11.7477 51.3044 11.8981 51.3682 11.8662C51.5641 12.7002 51.6188 13.1719 51.5322 13.2812L51.5664 14.1494C51.3066 14.2952 51.2246 14.5231 51.3203 14.833L50.8486 15.5713L49.9463 16.3506L48.7363 17.2119ZM49.3037 13.0146L49.2148 12.9941L48.9961 12.4541L48.709 12.085C48.3854 11.1143 48.3262 10.5719 48.5312 10.458C48.7728 10.1208 48.8503 9.87923 48.7637 9.7334C48.6497 9.51921 48.6475 9.36654 48.7568 9.27539L48.8525 9.28906L48.8799 9.20703C48.8252 9.11589 48.5586 9.06576 48.0801 9.05664L47.8955 9.15918L47.8613 9.24805L47.7725 9.22754L47.2803 9.50098C46.7334 10.2347 46.5169 11.1462 46.6309 12.2354L47.4854 14.9424C47.7087 15.3389 48.1211 15.5075 48.7227 15.4482L48.9072 15.3457C48.9619 15.0996 49.0599 14.9355 49.2012 14.8535C49.1191 14.7122 49.1556 14.4912 49.3105 14.1904C49.2513 14.0811 49.265 13.7689 49.3516 13.2539L49.3037 13.0146Z"/>
</mask>
<path d="M9.93555 7.7168L10.8037 7.58691C11.4235 7.49577 11.8291 7.64844 12.0205 8.04492C12.6449 8.27279 12.9889 8.60547 13.0527 9.04297L13.1074 9.41895L13.3604 9.38477L13.1416 13.1172L13.2852 13.2197L13.3057 13.3496L13.1416 15.4346L12 16.248C13.5039 17.556 14.3105 18.0732 14.4199 17.7998L14.1533 18.1211L14.1123 18.251L13.9893 18.5244L12.7314 17.998L11.1045 16.7129L8.89648 17.0615L10.0312 16.877L8.98535 16.8018C8.55697 16.8656 7.85742 16.4144 6.88672 15.4482L6.71582 14.334L7.47461 12.5498C7.50195 10.2484 7.79134 9.05664 8.34277 8.97461C9.00358 8.19531 9.53451 7.77604 9.93555 7.7168ZM9.30664 13.459L9.44336 13.5684L9.45703 13.6914L9.40918 14.2109L9.58008 14.5664L10.9473 14.3408C11.3483 14.277 11.4736 13.1924 11.3232 11.0869L11.1729 9.95898L10.7832 9.64453C10.168 9.74023 9.84896 10.2598 9.82617 11.2031L9.30664 13.459Z" fill="#FAEDCD"/>
<path d="M22.8623 7.86035C23.0583 7.87858 23.1016 7.90137 22.9922 7.92871V7.84668L25.2275 7.83984C25.2275 7.94922 25.6217 8.08366 26.4102 8.24316L26.5332 8.55762L26.6836 8.83105C26.6836 9.09082 26.9023 9.28223 27.3398 9.40527L27.668 10.2256C27.7363 11.3376 27.1416 12.224 25.8838 12.8848C26.8545 13.3177 27.3398 13.6071 27.3398 13.7529L27.4219 14.3271C27.5677 15.1383 27.4287 15.8356 27.0049 16.4189C26.1527 16.9339 25.5898 17.1914 25.3164 17.1914L23.9287 17.6016C23.514 17.2734 23.318 16.804 23.3408 16.1934V15.9473H23.1768C23.6325 15.6328 24.0951 15.5622 24.5645 15.7354C24.8698 15.6943 25.1296 15.3776 25.3438 14.7852L25.125 14.4092C24.4642 13.8486 23.7259 13.5684 22.9102 13.5684C22.9102 13.459 22.6094 13.3701 22.0078 13.3018C21.9167 13.3063 21.8688 12.8984 21.8643 12.0781L21.8779 11.6543C22.3656 11.4128 23.0924 11.292 24.0586 11.292L24.1406 11.21L25.2891 10.8818L25.207 10.7998V10.7178L25.2891 10.6357C25.2891 10.1071 24.5234 9.80632 22.9922 9.7334L22.9102 9.81543V9.7334L21.8438 9.89746L21.4199 9.53516L21.4746 9.19336L21.5088 8.43457L21.8438 8.33887L21.7617 8.01074C21.8483 7.7373 22.2152 7.68717 22.8623 7.86035Z" fill="#FAEDCD"/>
<path d="M31.9268 17.5605L31.4482 17.2393L30.0605 16.5283C29.9102 16.3688 29.8281 16.1979 29.8145 16.0156L29.8555 15.9268L30.3613 15.2158V14.8193L31.0039 13.7666L31.0244 13.7119C30.9925 13.5843 31.0814 13.1217 31.291 12.3242C31.2591 11.7728 31.332 11.2236 31.5098 10.6768L31.5576 10.7041L31.7559 9.82227L31.8584 9.79492L31.8789 9.74707L32.3301 8.42773L32.5283 7.14941C33.2529 7.09017 33.9046 7.15397 34.4834 7.34082L34.5312 7.36133C34.6406 7.41146 34.668 7.53223 34.6133 7.72363L34.9688 7.78516C34.0892 10.2461 33.6973 11.5973 33.793 11.8389L33.6973 11.9004C33.4876 13.4362 33.2461 14.5436 32.9727 15.2227C32.8587 15.5098 32.5921 16.0794 32.1729 16.9316L31.9814 17.2461L32.0293 17.4375L31.9609 17.4717L31.9268 17.5605Z" fill="#FAEDCD"/>
<path d="M38.667 6.97852L39.248 7.1084L39.9658 7.12891L40.5332 7.04004L41.9619 7.23828L42.1533 7.52539L42.0371 8.86523L41.8799 11.791H41.9756L41.791 12.167L41.8799 12.8232L41.791 13.6709L42.0713 13.7666L42.8232 13.5752C43.083 13.6618 43.2721 13.819 43.3906 14.0469V14.7031L43.2949 14.7988L43.3906 14.8945V15.2705C43.3542 15.3343 43.2721 15.4893 43.1445 15.7354L42.6729 15.6396L41.8867 15.4824V15.5781H42.0781L41.8867 15.7695H39.7266L37.8809 15.79C37.5755 15.6488 37.4023 15.4779 37.3613 15.2773C37.4297 14.7168 37.3431 14.4092 37.1016 14.3545L37.3818 14.1631L37.4775 14.2588H37.6689C37.71 13.9443 37.8034 13.7871 37.9492 13.7871L39.624 13.7256L39.7197 13.6367L39.624 13.541L39.5898 13.083L39.5352 11.0391L39.7197 9.07031L39.4395 8.87891L38.5371 8.94043L37.6963 8.84473L37.4434 7.82617C37.457 7.27474 37.6758 7.08561 38.0996 7.25879L38.4756 7.16309L38.667 6.97852Z" fill="#FAEDCD"/>
<path d="M48.7363 17.2119C47.9479 17.5036 47.5081 17.5651 47.417 17.3965C46.8109 17.3783 46.4486 17.2598 46.3301 17.041L46.3916 17.0068C46.0225 16.8701 45.7855 16.7061 45.6807 16.5146L45.667 16.3164L44.9971 15.5918L44.9766 14.915L44.8262 14.7988L44.7715 14.5596L44.6211 14.4365C44.7533 14.1403 44.7145 13.7985 44.5049 13.4111L44.5664 13.3701L44.4707 13.3564C44.375 13.0465 44.3659 12.8711 44.4434 12.8301L44.3408 12.8164L44.2725 12.3721L44.2109 12.3994L44.2451 12.3174L44.1904 12.2148L44.0537 12.29L44.0195 12.2422C44.1335 11.8184 44.1084 11.4424 43.9443 11.1143C44.1859 10.7451 44.3317 10.3691 44.3818 9.98633L44.6895 9.26172L45.667 7.97656L46.1045 7.80566L46.7334 7.33398C46.9749 7.32943 47.3441 7.19043 47.8408 6.91699L49.3994 7.0127C49.8779 6.93978 50.3359 7.07422 50.7734 7.41602C50.7279 7.64844 50.7575 7.97201 50.8623 8.38672C50.7393 8.45508 50.6891 8.73307 50.7119 9.2207C50.6071 9.27995 50.6003 9.53516 50.6914 9.98633C50.582 10.2188 50.557 10.3919 50.6162 10.5059L50.7256 10.5195L50.7461 10.5674L50.7051 10.6562L50.9238 10.8818C50.9967 11.0186 51.0036 11.1963 50.9443 11.415C51.1631 11.7477 51.3044 11.8981 51.3682 11.8662C51.5641 12.7002 51.6188 13.1719 51.5322 13.2812L51.5664 14.1494C51.3066 14.2952 51.2246 14.5231 51.3203 14.833L50.8486 15.5713L49.9463 16.3506L48.7363 17.2119ZM49.3037 13.0146L49.2148 12.9941L48.9961 12.4541L48.709 12.085C48.3854 11.1143 48.3262 10.5719 48.5312 10.458C48.7728 10.1208 48.8503 9.87923 48.7637 9.7334C48.6497 9.51921 48.6475 9.36654 48.7568 9.27539L48.8525 9.28906L48.8799 9.20703C48.8252 9.11589 48.5586 9.06576 48.0801 9.05664L47.8955 9.15918L47.8613 9.24805L47.7725 9.22754L47.2803 9.50098C46.7334 10.2347 46.5169 11.1462 46.6309 12.2354L47.4854 14.9424C47.7087 15.3389 48.1211 15.5075 48.7227 15.4482L48.9072 15.3457C48.9619 15.0996 49.0599 14.9355 49.2012 14.8535C49.1191 14.7122 49.1556 14.4912 49.3105 14.1904C49.2513 14.0811 49.265 13.7689 49.3516 13.2539L49.3037 13.0146Z" fill="#FAEDCD"/>
<path d="M9.93555 7.7168L10.8037 7.58691C11.4235 7.49577 11.8291 7.64844 12.0205 8.04492C12.6449 8.27279 12.9889 8.60547 13.0527 9.04297L13.1074 9.41895L13.3604 9.38477L13.1416 13.1172L13.2852 13.2197L13.3057 13.3496L13.1416 15.4346L12 16.248C13.5039 17.556 14.3105 18.0732 14.4199 17.7998L14.1533 18.1211L14.1123 18.251L13.9893 18.5244L12.7314 17.998L11.1045 16.7129L8.89648 17.0615L10.0312 16.877L8.98535 16.8018C8.55697 16.8656 7.85742 16.4144 6.88672 15.4482L6.71582 14.334L7.47461 12.5498C7.50195 10.2484 7.79134 9.05664 8.34277 8.97461C9.00358 8.19531 9.53451 7.77604 9.93555 7.7168ZM9.30664 13.459L9.44336 13.5684L9.45703 13.6914L9.40918 14.2109L9.58008 14.5664L10.9473 14.3408C11.3483 14.277 11.4736 13.1924 11.3232 11.0869L11.1729 9.95898L10.7832 9.64453C10.168 9.74023 9.84896 10.2598 9.82617 11.2031L9.30664 13.459Z" stroke="black" stroke-width="12" mask="url(#path-1-outside-1_35_323)"/>
<path d="M22.8623 7.86035C23.0583 7.87858 23.1016 7.90137 22.9922 7.92871V7.84668L25.2275 7.83984C25.2275 7.94922 25.6217 8.08366 26.4102 8.24316L26.5332 8.55762L26.6836 8.83105C26.6836 9.09082 26.9023 9.28223 27.3398 9.40527L27.668 10.2256C27.7363 11.3376 27.1416 12.224 25.8838 12.8848C26.8545 13.3177 27.3398 13.6071 27.3398 13.7529L27.4219 14.3271C27.5677 15.1383 27.4287 15.8356 27.0049 16.4189C26.1527 16.9339 25.5898 17.1914 25.3164 17.1914L23.9287 17.6016C23.514 17.2734 23.318 16.804 23.3408 16.1934V15.9473H23.1768C23.6325 15.6328 24.0951 15.5622 24.5645 15.7354C24.8698 15.6943 25.1296 15.3776 25.3438 14.7852L25.125 14.4092C24.4642 13.8486 23.7259 13.5684 22.9102 13.5684C22.9102 13.459 22.6094 13.3701 22.0078 13.3018C21.9167 13.3063 21.8688 12.8984 21.8643 12.0781L21.8779 11.6543C22.3656 11.4128 23.0924 11.292 24.0586 11.292L24.1406 11.21L25.2891 10.8818L25.207 10.7998V10.7178L25.2891 10.6357C25.2891 10.1071 24.5234 9.80632 22.9922 9.7334L22.9102 9.81543V9.7334L21.8438 9.89746L21.4199 9.53516L21.4746 9.19336L21.5088 8.43457L21.8438 8.33887L21.7617 8.01074C21.8483 7.7373 22.2152 7.68717 22.8623 7.86035Z" stroke="black" stroke-width="12" mask="url(#path-1-outside-1_35_323)"/>
<path d="M31.9268 17.5605L31.4482 17.2393L30.0605 16.5283C29.9102 16.3688 29.8281 16.1979 29.8145 16.0156L29.8555 15.9268L30.3613 15.2158V14.8193L31.0039 13.7666L31.0244 13.7119C30.9925 13.5843 31.0814 13.1217 31.291 12.3242C31.2591 11.7728 31.332 11.2236 31.5098 10.6768L31.5576 10.7041L31.7559 9.82227L31.8584 9.79492L31.8789 9.74707L32.3301 8.42773L32.5283 7.14941C33.2529 7.09017 33.9046 7.15397 34.4834 7.34082L34.5312 7.36133C34.6406 7.41146 34.668 7.53223 34.6133 7.72363L34.9688 7.78516C34.0892 10.2461 33.6973 11.5973 33.793 11.8389L33.6973 11.9004C33.4876 13.4362 33.2461 14.5436 32.9727 15.2227C32.8587 15.5098 32.5921 16.0794 32.1729 16.9316L31.9814 17.2461L32.0293 17.4375L31.9609 17.4717L31.9268 17.5605Z" stroke="black" stroke-width="12" mask="url(#path-1-outside-1_35_323)"/>
<path d="M38.667 6.97852L39.248 7.1084L39.9658 7.12891L40.5332 7.04004L41.9619 7.23828L42.1533 7.52539L42.0371 8.86523L41.8799 11.791H41.9756L41.791 12.167L41.8799 12.8232L41.791 13.6709L42.0713 13.7666L42.8232 13.5752C43.083 13.6618 43.2721 13.819 43.3906 14.0469V14.7031L43.2949 14.7988L43.3906 14.8945V15.2705C43.3542 15.3343 43.2721 15.4893 43.1445 15.7354L42.6729 15.6396L41.8867 15.4824V15.5781H42.0781L41.8867 15.7695H39.7266L37.8809 15.79C37.5755 15.6488 37.4023 15.4779 37.3613 15.2773C37.4297 14.7168 37.3431 14.4092 37.1016 14.3545L37.3818 14.1631L37.4775 14.2588H37.6689C37.71 13.9443 37.8034 13.7871 37.9492 13.7871L39.624 13.7256L39.7197 13.6367L39.624 13.541L39.5898 13.083L39.5352 11.0391L39.7197 9.07031L39.4395 8.87891L38.5371 8.94043L37.6963 8.84473L37.4434 7.82617C37.457 7.27474 37.6758 7.08561 38.0996 7.25879L38.4756 7.16309L38.667 6.97852Z" stroke="black" stroke-width="12" mask="url(#path-1-outside-1_35_323)"/>
<path d="M48.7363 17.2119C47.9479 17.5036 47.5081 17.5651 47.417 17.3965C46.8109 17.3783 46.4486 17.2598 46.3301 17.041L46.3916 17.0068C46.0225 16.8701 45.7855 16.7061 45.6807 16.5146L45.667 16.3164L44.9971 15.5918L44.9766 14.915L44.8262 14.7988L44.7715 14.5596L44.6211 14.4365C44.7533 14.1403 44.7145 13.7985 44.5049 13.4111L44.5664 13.3701L44.4707 13.3564C44.375 13.0465 44.3659 12.8711 44.4434 12.8301L44.3408 12.8164L44.2725 12.3721L44.2109 12.3994L44.2451 12.3174L44.1904 12.2148L44.0537 12.29L44.0195 12.2422C44.1335 11.8184 44.1084 11.4424 43.9443 11.1143C44.1859 10.7451 44.3317 10.3691 44.3818 9.98633L44.6895 9.26172L45.667 7.97656L46.1045 7.80566L46.7334 7.33398C46.9749 7.32943 47.3441 7.19043 47.8408 6.91699L49.3994 7.0127C49.8779 6.93978 50.3359 7.07422 50.7734 7.41602C50.7279 7.64844 50.7575 7.97201 50.8623 8.38672C50.7393 8.45508 50.6891 8.73307 50.7119 9.2207C50.6071 9.27995 50.6003 9.53516 50.6914 9.98633C50.582 10.2188 50.557 10.3919 50.6162 10.5059L50.7256 10.5195L50.7461 10.5674L50.7051 10.6562L50.9238 10.8818C50.9967 11.0186 51.0036 11.1963 50.9443 11.415C51.1631 11.7477 51.3044 11.8981 51.3682 11.8662C51.5641 12.7002 51.6188 13.1719 51.5322 13.2812L51.5664 14.1494C51.3066 14.2952 51.2246 14.5231 51.3203 14.833L50.8486 15.5713L49.9463 16.3506L48.7363 17.2119ZM49.3037 13.0146L49.2148 12.9941L48.9961 12.4541L48.709 12.085C48.3854 11.1143 48.3262 10.5719 48.5312 10.458C48.7728 10.1208 48.8503 9.87923 48.7637 9.7334C48.6497 9.51921 48.6475 9.36654 48.7568 9.27539L48.8525 9.28906L48.8799 9.20703C48.8252 9.11589 48.5586 9.06576 48.0801 9.05664L47.8955 9.15918L47.8613 9.24805L47.7725 9.22754L47.2803 9.50098C46.7334 10.2347 46.5169 11.1462 46.6309 12.2354L47.4854 14.9424C47.7087 15.3389 48.1211 15.5075 48.7227 15.4482L48.9072 15.3457C48.9619 15.0996 49.0599 14.9355 49.2012 14.8535C49.1191 14.7122 49.1556 14.4912 49.3105 14.1904C49.2513 14.0811 49.265 13.7689 49.3516 13.2539L49.3037 13.0146Z" stroke="black" stroke-width="12" mask="url(#path-1-outside-1_35_323)"/>
</g>
<defs>
<filter id="filter0_dd_35_323" x="0.526428" y="0.418823" width="68.294" height="27.3158" filterUnits="userSpaceOnUse" color-interpolation-filters="sRGB">
<feFlood flood-opacity="0" result="BackgroundImageFix"/>
<feColorMatrix in="SourceAlpha" type="matrix" values="0 0 0 0 0 0 0 0 0 0 0 0 0 0 0 0 0 0 127 0" result="hardAlpha"/>
<feOffset dx="4"/>
<feComposite in2="hardAlpha" operator="out"/>
<feColorMatrix type="matrix" values="0 0 0 0 0.831373 0 0 0 0 0.639216 0 0 0 0 0.45098 0 0 0 1 0"/>
<feBlend mode="normal" in2="BackgroundImageFix" result="effect1_dropShadow_35_323"/>
<feColorMatrix in="SourceAlpha" type="matrix" values="0 0 0 0 0 0 0 0 0 0 0 0 0 0 0 0 0 0 127 0" result="hardAlpha"/>
<feOffset dx="5" dy="1"/>
<feComposite in2="hardAlpha" operator="out"/>
<feColorMatrix type="matrix" values="0 0 0 0 0.831373 0 0 0 0 0.639216 0 0 0 0 0.45098 0 0 0 1 0"/>
<feBlend mode="normal" in2="effect1_dropShadow_35_323" result="effect2_dropShadow_35_323"/>
<feBlend mode="normal" in="SourceGraphic" in2="effect2_dropShadow_35_323" result="shape"/>
</filter>
</defs>
</svg>
