<svg width="69" height="28" viewBox="0 0 69 28" fill="none" xmlns="http://www.w3.org/2000/svg">
<g filter="url(#filter0_dd_35_324)">
<mask id="path-1-outside-1_35_324" maskUnits="userSpaceOnUse" x="-0.236328" y="-0.0830078" width="65" height="27" fill="black">
<rect fill="white" x="-0.236328" y="-0.0830078" width="65" height="27"/>
<path d="M9.9834 7.7168L10.8516 7.58691C11.4714 7.49577 11.877 7.64844 12.0684 8.04492C12.6927 8.27279 13.0368 8.60547 13.1006 9.04297L13.1553 9.41895L13.4082 9.38477L13.1895 13.1172L13.333 13.2197L13.3535 13.3496L13.1895 15.4346L12.0479 16.248C13.5518 17.556 14.3584 18.0732 14.4678 17.7998L14.2012 18.1211L14.1602 18.251L14.0371 18.5244L12.7793 17.998L11.1523 16.7129L8.94434 17.0615L10.0791 16.877L9.0332 16.8018C8.60482 16.8656 7.90527 16.4144 6.93457 15.4482L6.76367 14.334L7.52246 12.5498C7.5498 10.2484 7.83919 9.05664 8.39062 8.97461C9.05143 8.19531 9.58236 7.77604 9.9834 7.7168ZM9.35449 13.459L9.49121 13.5684L9.50488 13.6914L9.45703 14.2109L9.62793 14.5664L10.9951 14.3408C11.3962 14.277 11.5215 13.1924 11.3711 11.0869L11.2207 9.95898L10.8311 9.64453C10.2158 9.74023 9.89681 10.2598 9.87402 11.2031L9.35449 13.459Z"/>
<path d="M25.6035 7.05371H25.665C25.9977 7.16309 26.1641 7.60286 26.1641 8.37305V8.87891L26.2324 9.08398C26.1732 9.39388 26.0866 9.61263 25.9727 9.74023C25.9909 9.90885 26.0547 9.99316 26.1641 9.99316V10.499L26.1025 10.5469L26.1641 10.6016V11.1553C26.196 11.2829 26.3851 11.3854 26.7314 11.4629C26.891 11.3945 27.1188 11.3604 27.415 11.3604H27.9824C28.4427 11.4606 28.6729 11.6133 28.6729 11.8184L28.6045 12.2217L28.6729 12.8301C28.4632 12.9303 28.1898 12.9805 27.8525 12.9805V12.9326L27.3535 13.0283L26.6631 12.9326C26.4626 12.9326 26.319 13.0329 26.2324 13.2334C26.2871 13.5387 26.3669 13.6914 26.4717 13.6914C26.4443 14.1973 26.4033 14.4502 26.3486 14.4502L26.417 14.498V14.9082L26.54 15.2568L26.417 15.3594L26.6016 16.3232C26.2233 16.7516 25.8063 17.0365 25.3506 17.1777L25.0361 17.2324C24.9313 17.2324 24.7855 17.098 24.5986 16.8291L24.6602 16.4736L24.5986 15.4141L24.6602 14.8057C24.5326 14.4912 24.4505 14.1357 24.4141 13.7393H24.4688C24.373 13.165 24.2933 12.8779 24.2295 12.8779L23.9697 12.8301H23.8467L22.7188 12.9805L22.6504 12.9326L22.5957 12.9805V12.9326L22.5342 12.9805H21.8438C21.6934 12.9167 21.5885 12.8164 21.5293 12.6797C21.5293 12.2285 21.7799 11.7044 22.2812 11.1074C23.1562 10.1413 23.6781 9.36426 23.8467 8.77637C24.0837 8.55306 24.25 8.31608 24.3457 8.06543C24.8333 7.61882 25.1683 7.36589 25.3506 7.30664C25.3506 7.21094 25.4349 7.12663 25.6035 7.05371ZM24.5371 10.499L24.2295 11.3125L24.2842 11.3604H24.3457L24.5986 11.3125L24.5371 11.0527L24.5986 10.6016V10.499H24.5371Z"/>
<path d="M31.8789 17.5605L31.4004 17.2393L30.0127 16.5283C29.8623 16.3688 29.7803 16.1979 29.7666 16.0156L29.8076 15.9268L30.3135 15.2158V14.8193L30.9561 13.7666L30.9766 13.7119C30.9447 13.5843 31.0335 13.1217 31.2432 12.3242C31.2113 11.7728 31.2842 11.2236 31.4619 10.6768L31.5098 10.7041L31.708 9.82227L31.8105 9.79492L31.8311 9.74707L32.2822 8.42773L32.4805 7.14941C33.2051 7.09017 33.8568 7.15397 34.4355 7.34082L34.4834 7.36133C34.5928 7.41146 34.6201 7.53223 34.5654 7.72363L34.9209 7.78516C34.0413 10.2461 33.6494 11.5973 33.7451 11.8389L33.6494 11.9004C33.4398 13.4362 33.1982 14.5436 32.9248 15.2227C32.8109 15.5098 32.5443 16.0794 32.125 16.9316L31.9336 17.2461L31.9814 17.4375L31.9131 17.4717L31.8789 17.5605Z"/>
<path d="M38.6191 6.97852L39.2002 7.1084L39.918 7.12891L40.4854 7.04004L41.9141 7.23828L42.1055 7.52539L41.9893 8.86523L41.832 11.791H41.9277L41.7432 12.167L41.832 12.8232L41.7432 13.6709L42.0234 13.7666L42.7754 13.5752C43.0352 13.6618 43.2243 13.819 43.3428 14.0469V14.7031L43.2471 14.7988L43.3428 14.8945V15.2705C43.3063 15.3343 43.2243 15.4893 43.0967 15.7354L42.625 15.6396L41.8389 15.4824V15.5781H42.0303L41.8389 15.7695H39.6787L37.833 15.79C37.5277 15.6488 37.3545 15.4779 37.3135 15.2773C37.3818 14.7168 37.2952 14.4092 37.0537 14.3545L37.334 14.1631L37.4297 14.2588H37.6211C37.6621 13.9443 37.7555 13.7871 37.9014 13.7871L39.5762 13.7256L39.6719 13.6367L39.5762 13.541L39.542 13.083L39.4873 11.0391L39.6719 9.07031L39.3916 8.87891L38.4893 8.94043L37.6484 8.84473L37.3955 7.82617C37.4092 7.27474 37.6279 7.08561 38.0518 7.25879L38.4277 7.16309L38.6191 6.97852Z"/>
<path d="M48.6885 17.2119C47.9001 17.5036 47.4603 17.5651 47.3691 17.3965C46.763 17.3783 46.4007 17.2598 46.2822 17.041L46.3438 17.0068C45.9746 16.8701 45.7376 16.7061 45.6328 16.5146L45.6191 16.3164L44.9492 15.5918L44.9287 14.915L44.7783 14.7988L44.7236 14.5596L44.5732 14.4365C44.7054 14.1403 44.6667 13.7985 44.457 13.4111L44.5186 13.3701L44.4229 13.3564C44.3271 13.0465 44.318 12.8711 44.3955 12.8301L44.293 12.8164L44.2246 12.3721L44.1631 12.3994L44.1973 12.3174L44.1426 12.2148L44.0059 12.29L43.9717 12.2422C44.0856 11.8184 44.0605 11.4424 43.8965 11.1143C44.138 10.7451 44.2839 10.3691 44.334 9.98633L44.6416 9.26172L45.6191 7.97656L46.0566 7.80566L46.6855 7.33398C46.9271 7.32943 47.2962 7.19043 47.793 6.91699L49.3516 7.0127C49.8301 6.93978 50.2881 7.07422 50.7256 7.41602C50.68 7.64844 50.7096 7.97201 50.8145 8.38672C50.6914 8.45508 50.6413 8.73307 50.6641 9.2207C50.5592 9.27995 50.5524 9.53516 50.6436 9.98633C50.5342 10.2188 50.5091 10.3919 50.5684 10.5059L50.6777 10.5195L50.6982 10.5674L50.6572 10.6562L50.876 10.8818C50.9489 11.0186 50.9557 11.1963 50.8965 11.415C51.1152 11.7477 51.2565 11.8981 51.3203 11.8662C51.5163 12.7002 51.571 13.1719 51.4844 13.2812L51.5186 14.1494C51.2588 14.2952 51.1768 14.5231 51.2725 14.833L50.8008 15.5713L49.8984 16.3506L48.6885 17.2119ZM49.2559 13.0146L49.167 12.9941L48.9482 12.4541L48.6611 12.085C48.3376 11.1143 48.2783 10.5719 48.4834 10.458C48.7249 10.1208 48.8024 9.87923 48.7158 9.7334C48.6019 9.51921 48.5996 9.36654 48.709 9.27539L48.8047 9.28906L48.832 9.20703C48.7773 9.11589 48.5107 9.06576 48.0322 9.05664L47.8477 9.15918L47.8135 9.24805L47.7246 9.22754L47.2324 9.50098C46.6855 10.2347 46.4691 11.1462 46.583 12.2354L47.4375 14.9424C47.6608 15.3389 48.0732 15.5075 48.6748 15.4482L48.8594 15.3457C48.9141 15.0996 49.012 14.9355 49.1533 14.8535C49.0713 14.7122 49.1077 14.4912 49.2627 14.1904C49.2035 14.0811 49.2171 13.7689 49.3037 13.2539L49.2559 13.0146Z"/>
</mask>
<path d="M9.9834 7.7168L10.8516 7.58691C11.4714 7.49577 11.877 7.64844 12.0684 8.04492C12.6927 8.27279 13.0368 8.60547 13.1006 9.04297L13.1553 9.41895L13.4082 9.38477L13.1895 13.1172L13.333 13.2197L13.3535 13.3496L13.1895 15.4346L12.0479 16.248C13.5518 17.556 14.3584 18.0732 14.4678 17.7998L14.2012 18.1211L14.1602 18.251L14.0371 18.5244L12.7793 17.998L11.1523 16.7129L8.94434 17.0615L10.0791 16.877L9.0332 16.8018C8.60482 16.8656 7.90527 16.4144 6.93457 15.4482L6.76367 14.334L7.52246 12.5498C7.5498 10.2484 7.83919 9.05664 8.39062 8.97461C9.05143 8.19531 9.58236 7.77604 9.9834 7.7168ZM9.35449 13.459L9.49121 13.5684L9.50488 13.6914L9.45703 14.2109L9.62793 14.5664L10.9951 14.3408C11.3962 14.277 11.5215 13.1924 11.3711 11.0869L11.2207 9.95898L10.8311 9.64453C10.2158 9.74023 9.89681 10.2598 9.87402 11.2031L9.35449 13.459Z" fill="#FAEDCD"/>
<path d="M25.6035 7.05371H25.665C25.9977 7.16309 26.1641 7.60286 26.1641 8.37305V8.87891L26.2324 9.08398C26.1732 9.39388 26.0866 9.61263 25.9727 9.74023C25.9909 9.90885 26.0547 9.99316 26.1641 9.99316V10.499L26.1025 10.5469L26.1641 10.6016V11.1553C26.196 11.2829 26.3851 11.3854 26.7314 11.4629C26.891 11.3945 27.1188 11.3604 27.415 11.3604H27.9824C28.4427 11.4606 28.6729 11.6133 28.6729 11.8184L28.6045 12.2217L28.6729 12.8301C28.4632 12.9303 28.1898 12.9805 27.8525 12.9805V12.9326L27.3535 13.0283L26.6631 12.9326C26.4626 12.9326 26.319 13.0329 26.2324 13.2334C26.2871 13.5387 26.3669 13.6914 26.4717 13.6914C26.4443 14.1973 26.4033 14.4502 26.3486 14.4502L26.417 14.498V14.9082L26.54 15.2568L26.417 15.3594L26.6016 16.3232C26.2233 16.7516 25.8063 17.0365 25.3506 17.1777L25.0361 17.2324C24.9313 17.2324 24.7855 17.098 24.5986 16.8291L24.6602 16.4736L24.5986 15.4141L24.6602 14.8057C24.5326 14.4912 24.4505 14.1357 24.4141 13.7393H24.4688C24.373 13.165 24.2933 12.8779 24.2295 12.8779L23.9697 12.8301H23.8467L22.7188 12.9805L22.6504 12.9326L22.5957 12.9805V12.9326L22.5342 12.9805H21.8438C21.6934 12.9167 21.5885 12.8164 21.5293 12.6797C21.5293 12.2285 21.7799 11.7044 22.2812 11.1074C23.1562 10.1413 23.6781 9.36426 23.8467 8.77637C24.0837 8.55306 24.25 8.31608 24.3457 8.06543C24.8333 7.61882 25.1683 7.36589 25.3506 7.30664C25.3506 7.21094 25.4349 7.12663 25.6035 7.05371ZM24.5371 10.499L24.2295 11.3125L24.2842 11.3604H24.3457L24.5986 11.3125L24.5371 11.0527L24.5986 10.6016V10.499H24.5371Z" fill="#FAEDCD"/>
<path d="M31.8789 17.5605L31.4004 17.2393L30.0127 16.5283C29.8623 16.3688 29.7803 16.1979 29.7666 16.0156L29.8076 15.9268L30.3135 15.2158V14.8193L30.9561 13.7666L30.9766 13.7119C30.9447 13.5843 31.0335 13.1217 31.2432 12.3242C31.2113 11.7728 31.2842 11.2236 31.4619 10.6768L31.5098 10.7041L31.708 9.82227L31.8105 9.79492L31.8311 9.74707L32.2822 8.42773L32.4805 7.14941C33.2051 7.09017 33.8568 7.15397 34.4355 7.34082L34.4834 7.36133C34.5928 7.41146 34.6201 7.53223 34.5654 7.72363L34.9209 7.78516C34.0413 10.2461 33.6494 11.5973 33.7451 11.8389L33.6494 11.9004C33.4398 13.4362 33.1982 14.5436 32.9248 15.2227C32.8109 15.5098 32.5443 16.0794 32.125 16.9316L31.9336 17.2461L31.9814 17.4375L31.9131 17.4717L31.8789 17.5605Z" fill="#FAEDCD"/>
<path d="M38.6191 6.97852L39.2002 7.1084L39.918 7.12891L40.4854 7.04004L41.9141 7.23828L42.1055 7.52539L41.9893 8.86523L41.832 11.791H41.9277L41.7432 12.167L41.832 12.8232L41.7432 13.6709L42.0234 13.7666L42.7754 13.5752C43.0352 13.6618 43.2243 13.819 43.3428 14.0469V14.7031L43.2471 14.7988L43.3428 14.8945V15.2705C43.3063 15.3343 43.2243 15.4893 43.0967 15.7354L42.625 15.6396L41.8389 15.4824V15.5781H42.0303L41.8389 15.7695H39.6787L37.833 15.79C37.5277 15.6488 37.3545 15.4779 37.3135 15.2773C37.3818 14.7168 37.2952 14.4092 37.0537 14.3545L37.334 14.1631L37.4297 14.2588H37.6211C37.6621 13.9443 37.7555 13.7871 37.9014 13.7871L39.5762 13.7256L39.6719 13.6367L39.5762 13.541L39.542 13.083L39.4873 11.0391L39.6719 9.07031L39.3916 8.87891L38.4893 8.94043L37.6484 8.84473L37.3955 7.82617C37.4092 7.27474 37.6279 7.08561 38.0518 7.25879L38.4277 7.16309L38.6191 6.97852Z" fill="#FAEDCD"/>
<path d="M48.6885 17.2119C47.9001 17.5036 47.4603 17.5651 47.3691 17.3965C46.763 17.3783 46.4007 17.2598 46.2822 17.041L46.3438 17.0068C45.9746 16.8701 45.7376 16.7061 45.6328 16.5146L45.6191 16.3164L44.9492 15.5918L44.9287 14.915L44.7783 14.7988L44.7236 14.5596L44.5732 14.4365C44.7054 14.1403 44.6667 13.7985 44.457 13.4111L44.5186 13.3701L44.4229 13.3564C44.3271 13.0465 44.318 12.8711 44.3955 12.8301L44.293 12.8164L44.2246 12.3721L44.1631 12.3994L44.1973 12.3174L44.1426 12.2148L44.0059 12.29L43.9717 12.2422C44.0856 11.8184 44.0605 11.4424 43.8965 11.1143C44.138 10.7451 44.2839 10.3691 44.334 9.98633L44.6416 9.26172L45.6191 7.97656L46.0566 7.80566L46.6855 7.33398C46.9271 7.32943 47.2962 7.19043 47.793 6.91699L49.3516 7.0127C49.8301 6.93978 50.2881 7.07422 50.7256 7.41602C50.68 7.64844 50.7096 7.97201 50.8145 8.38672C50.6914 8.45508 50.6413 8.73307 50.6641 9.2207C50.5592 9.27995 50.5524 9.53516 50.6436 9.98633C50.5342 10.2188 50.5091 10.3919 50.5684 10.5059L50.6777 10.5195L50.6982 10.5674L50.6572 10.6562L50.876 10.8818C50.9489 11.0186 50.9557 11.1963 50.8965 11.415C51.1152 11.7477 51.2565 11.8981 51.3203 11.8662C51.5163 12.7002 51.571 13.1719 51.4844 13.2812L51.5186 14.1494C51.2588 14.2952 51.1768 14.5231 51.2725 14.833L50.8008 15.5713L49.8984 16.3506L48.6885 17.2119ZM49.2559 13.0146L49.167 12.9941L48.9482 12.4541L48.6611 12.085C48.3376 11.1143 48.2783 10.5719 48.4834 10.458C48.7249 10.1208 48.8024 9.87923 48.7158 9.7334C48.6019 9.51921 48.5996 9.36654 48.709 9.27539L48.8047 9.28906L48.832 9.20703C48.7773 9.11589 48.5107 9.06576 48.0322 9.05664L47.8477 9.15918L47.8135 9.24805L47.7246 9.22754L47.2324 9.50098C46.6855 10.2347 46.4691 11.1462 46.583 12.2354L47.4375 14.9424C47.6608 15.3389 48.0732 15.5075 48.6748 15.4482L48.8594 15.3457C48.9141 15.0996 49.012 14.9355 49.1533 14.8535C49.0713 14.7122 49.1077 14.4912 49.2627 14.1904C49.2035 14.0811 49.2171 13.7689 49.3037 13.2539L49.2559 13.0146Z" fill="#FAEDCD"/>
<path d="M9.9834 7.7168L10.8516 7.58691C11.4714 7.49577 11.877 7.64844 12.0684 8.04492C12.6927 8.27279 13.0368 8.60547 13.1006 9.04297L13.1553 9.41895L13.4082 9.38477L13.1895 13.1172L13.333 13.2197L13.3535 13.3496L13.1895 15.4346L12.0479 16.248C13.5518 17.556 14.3584 18.0732 14.4678 17.7998L14.2012 18.1211L14.1602 18.251L14.0371 18.5244L12.7793 17.998L11.1523 16.7129L8.94434 17.0615L10.0791 16.877L9.0332 16.8018C8.60482 16.8656 7.90527 16.4144 6.93457 15.4482L6.76367 14.334L7.52246 12.5498C7.5498 10.2484 7.83919 9.05664 8.39062 8.97461C9.05143 8.19531 9.58236 7.77604 9.9834 7.7168ZM9.35449 13.459L9.49121 13.5684L9.50488 13.6914L9.45703 14.2109L9.62793 14.5664L10.9951 14.3408C11.3962 14.277 11.5215 13.1924 11.3711 11.0869L11.2207 9.95898L10.8311 9.64453C10.2158 9.74023 9.89681 10.2598 9.87402 11.2031L9.35449 13.459Z" stroke="black" stroke-width="12" mask="url(#path-1-outside-1_35_324)"/>
<path d="M25.6035 7.05371H25.665C25.9977 7.16309 26.1641 7.60286 26.1641 8.37305V8.87891L26.2324 9.08398C26.1732 9.39388 26.0866 9.61263 25.9727 9.74023C25.9909 9.90885 26.0547 9.99316 26.1641 9.99316V10.499L26.1025 10.5469L26.1641 10.6016V11.1553C26.196 11.2829 26.3851 11.3854 26.7314 11.4629C26.891 11.3945 27.1188 11.3604 27.415 11.3604H27.9824C28.4427 11.4606 28.6729 11.6133 28.6729 11.8184L28.6045 12.2217L28.6729 12.8301C28.4632 12.9303 28.1898 12.9805 27.8525 12.9805V12.9326L27.3535 13.0283L26.6631 12.9326C26.4626 12.9326 26.319 13.0329 26.2324 13.2334C26.2871 13.5387 26.3669 13.6914 26.4717 13.6914C26.4443 14.1973 26.4033 14.4502 26.3486 14.4502L26.417 14.498V14.9082L26.54 15.2568L26.417 15.3594L26.6016 16.3232C26.2233 16.7516 25.8063 17.0365 25.3506 17.1777L25.0361 17.2324C24.9313 17.2324 24.7855 17.098 24.5986 16.8291L24.6602 16.4736L24.5986 15.4141L24.6602 14.8057C24.5326 14.4912 24.4505 14.1357 24.4141 13.7393H24.4688C24.373 13.165 24.2933 12.8779 24.2295 12.8779L23.9697 12.8301H23.8467L22.7188 12.9805L22.6504 12.9326L22.5957 12.9805V12.9326L22.5342 12.9805H21.8438C21.6934 12.9167 21.5885 12.8164 21.5293 12.6797C21.5293 12.2285 21.7799 11.7044 22.2812 11.1074C23.1562 10.1413 23.6781 9.36426 23.8467 8.77637C24.0837 8.55306 24.25 8.31608 24.3457 8.06543C24.8333 7.61882 25.1683 7.36589 25.3506 7.30664C25.3506 7.21094 25.4349 7.12663 25.6035 7.05371ZM24.5371 10.499L24.2295 11.3125L24.2842 11.3604H24.3457L24.5986 11.3125L24.5371 11.0527L24.5986 10.6016V10.499H24.5371Z" stroke="black" stroke-width="12" mask="url(#path-1-outside-1_35_324)"/>
<path d="M31.8789 17.5605L31.4004 17.2393L30.0127 16.5283C29.8623 16.3688 29.7803 16.1979 29.7666 16.0156L29.8076 15.9268L30.3135 15.2158V14.8193L30.9561 13.7666L30.9766 13.7119C30.9447 13.5843 31.0335 13.1217 31.2432 12.3242C31.2113 11.7728 31.2842 11.2236 31.4619 10.6768L31.5098 10.7041L31.708 9.82227L31.8105 9.79492L31.8311 9.74707L32.2822 8.42773L32.4805 7.14941C33.2051 7.09017 33.8568 7.15397 34.4355 7.34082L34.4834 7.36133C34.5928 7.41146 34.6201 7.53223 34.5654 7.72363L34.9209 7.78516C34.0413 10.2461 33.6494 11.5973 33.7451 11.8389L33.6494 11.9004C33.4398 13.4362 33.1982 14.5436 32.9248 15.2227C32.8109 15.5098 32.5443 16.0794 32.125 16.9316L31.9336 17.2461L31.9814 17.4375L31.9131 17.4717L31.8789 17.5605Z" stroke="black" stroke-width="12" mask="url(#path-1-outside-1_35_324)"/>
<path d="M38.6191 6.97852L39.2002 7.1084L39.918 7.12891L40.4854 7.04004L41.9141 7.23828L42.1055 7.52539L41.9893 8.86523L41.832 11.791H41.9277L41.7432 12.167L41.832 12.8232L41.7432 13.6709L42.0234 13.7666L42.7754 13.5752C43.0352 13.6618 43.2243 13.819 43.3428 14.0469V14.7031L43.2471 14.7988L43.3428 14.8945V15.2705C43.3063 15.3343 43.2243 15.4893 43.0967 15.7354L42.625 15.6396L41.8389 15.4824V15.5781H42.0303L41.8389 15.7695H39.6787L37.833 15.79C37.5277 15.6488 37.3545 15.4779 37.3135 15.2773C37.3818 14.7168 37.2952 14.4092 37.0537 14.3545L37.334 14.1631L37.4297 14.2588H37.6211C37.6621 13.9443 37.7555 13.7871 37.9014 13.7871L39.5762 13.7256L39.6719 13.6367L39.5762 13.541L39.542 13.083L39.4873 11.0391L39.6719 9.07031L39.3916 8.87891L38.4893 8.94043L37.6484 8.84473L37.3955 7.82617C37.4092 7.27474 37.6279 7.08561 38.0518 7.25879L38.4277 7.16309L38.6191 6.97852Z" stroke="black" stroke-width="12" mask="url(#path-1-outside-1_35_324)"/>
<path d="M48.6885 17.2119C47.9001 17.5036 47.4603 17.5651 47.3691 17.3965C46.763 17.3783 46.4007 17.2598 46.2822 17.041L46.3438 17.0068C45.9746 16.8701 45.7376 16.7061 45.6328 16.5146L45.6191 16.3164L44.9492 15.5918L44.9287 14.915L44.7783 14.7988L44.7236 14.5596L44.5732 14.4365C44.7054 14.1403 44.6667 13.7985 44.457 13.4111L44.5186 13.3701L44.4229 13.3564C44.3271 13.0465 44.318 12.8711 44.3955 12.8301L44.293 12.8164L44.2246 12.3721L44.1631 12.3994L44.1973 12.3174L44.1426 12.2148L44.0059 12.29L43.9717 12.2422C44.0856 11.8184 44.0605 11.4424 43.8965 11.1143C44.138 10.7451 44.2839 10.3691 44.334 9.98633L44.6416 9.26172L45.6191 7.97656L46.0566 7.80566L46.6855 7.33398C46.9271 7.32943 47.2962 7.19043 47.793 6.91699L49.3516 7.0127C49.8301 6.93978 50.2881 7.07422 50.7256 7.41602C50.68 7.64844 50.7096 7.97201 50.8145 8.38672C50.6914 8.45508 50.6413 8.73307 50.6641 9.2207C50.5592 9.27995 50.5524 9.53516 50.6436 9.98633C50.5342 10.2188 50.5091 10.3919 50.5684 10.5059L50.6777 10.5195L50.6982 10.5674L50.6572 10.6562L50.876 10.8818C50.9489 11.0186 50.9557 11.1963 50.8965 11.415C51.1152 11.7477 51.2565 11.8981 51.3203 11.8662C51.5163 12.7002 51.571 13.1719 51.4844 13.2812L51.5186 14.1494C51.2588 14.2952 51.1768 14.5231 51.2725 14.833L50.8008 15.5713L49.8984 16.3506L48.6885 17.2119ZM49.2559 13.0146L49.167 12.9941L48.9482 12.4541L48.6611 12.085C48.3376 11.1143 48.2783 10.5719 48.4834 10.458C48.7249 10.1208 48.8024 9.87923 48.7158 9.7334C48.6019 9.51921 48.5996 9.36654 48.709 9.27539L48.8047 9.28906L48.832 9.20703C48.7773 9.11589 48.5107 9.06576 48.0322 9.05664L47.8477 9.15918L47.8135 9.24805L47.7246 9.22754L47.2324 9.50098C46.6855 10.2347 46.4691 11.1462 46.583 12.2354L47.4375 14.9424C47.6608 15.3389 48.0732 15.5075 48.6748 15.4482L48.8594 15.3457C48.9141 15.0996 49.012 14.9355 49.1533 14.8535C49.0713 14.7122 49.1077 14.4912 49.2627 14.1904C49.2035 14.0811 49.2171 13.7689 49.3037 13.2539L49.2559 13.0146Z" stroke="black" stroke-width="12" mask="url(#path-1-outside-1_35_324)"/>
</g>
<defs>
<filter id="filter0_dd_35_324" x="0.574249" y="0.418823" width="68.1983" height="27.3158" filterUnits="userSpaceOnUse" color-interpolation-filters="sRGB">
<feFlood flood-opacity="0" result="BackgroundImageFix"/>
<feColorMatrix in="SourceAlpha" type="matrix" values="0 0 0 0 0 0 0 0 0 0 0 0 0 0 0 0 0 0 127 0" result="hardAlpha"/>
<feOffset dx="4"/>
<feComposite in2="hardAlpha" operator="out"/>
<feColorMatrix type="matrix" values="0 0 0 0 0.831373 0 0 0 0 0.639216 0 0 0 0 0.45098 0 0 0 1 0"/>
<feBlend mode="normal" in2="BackgroundImageFix" result="effect1_dropShadow_35_324"/>
<feColorMatrix in="SourceAlpha" type="matrix" values="0 0 0 0 0 0 0 0 0 0 0 0 0 0 0 0 0 0 127 0" result="hardAlpha"/>
<feOffset dx="5" dy="1"/>
<feComposite in2="hardAlpha" operator="out"/>
<feColorMatrix type="matrix" values="0 0 0 0 0.831373 0 0 0 0 0.639216 0 0 0 0 0.45098 0 0 0 1 0"/>
<feBlend mode="normal" in2="effect1_dropShadow_35_324" result="effect2_dropShadow_35_324"/>
<feBlend mode="normal" in="SourceGraphic" in2="effect2_dropShadow_35_324" result="shape"/>
</filter>
</defs>
</svg>
