<svg width="69" height="29" viewBox="0 0 69 29" fill="none" xmlns="http://www.w3.org/2000/svg">
<g filter="url(#filter0_dd_35_325)">
<mask id="path-1-outside-1_35_325" maskUnits="userSpaceOnUse" x="0.0986328" y="-0.0830078" width="64" height="28" fill="black">
<rect fill="white" x="0.0986328" y="-0.0830078" width="64" height="28"/>
<path d="M10.3184 8.7168L11.1865 8.58691C11.8063 8.49577 12.2119 8.64844 12.4033 9.04492C13.0277 9.27279 13.3717 9.60547 13.4355 10.043L13.4902 10.4189L13.7432 10.3848L13.5244 14.1172L13.668 14.2197L13.6885 14.3496L13.5244 16.4346L12.3828 17.248C13.8867 18.556 14.6934 19.0732 14.8027 18.7998L14.5361 19.1211L14.4951 19.251L14.3721 19.5244L13.1143 18.998L11.4873 17.7129L9.2793 18.0615L10.4141 17.877L9.36816 17.8018C8.93978 17.8656 8.24023 17.4144 7.26953 16.4482L7.09863 15.334L7.85742 13.5498C7.88477 11.2484 8.17415 10.0566 8.72559 9.97461C9.38639 9.19531 9.91732 8.77604 10.3184 8.7168ZM9.68945 14.459L9.82617 14.5684L9.83984 14.6914L9.79199 15.2109L9.96289 15.5664L11.3301 15.3408C11.7311 15.277 11.8564 14.1924 11.7061 12.0869L11.5557 10.959L11.166 10.6445C10.5508 10.7402 10.2318 11.2598 10.209 12.2031L9.68945 14.459Z"/>
<path d="M25.4736 8.75781H25.7402L26.0684 8.83301L26.123 8.75781C26.3691 8.91276 26.5446 9.34798 26.6494 10.0635L26.7246 10.1387V10.2686C26.7246 10.6833 26.2415 10.8906 25.2754 10.8906C25.2754 10.9772 25.1432 11.0433 24.8789 11.0889C24.6602 11.2803 24.5508 11.417 24.5508 11.499L24.6191 11.5742H24.6807L25.1387 11.499C26.1276 11.7269 26.7451 12.0938 26.9912 12.5996L27.3125 13.2148V13.9668C27.0482 15.2109 26.8271 16.013 26.6494 16.373C26.5036 16.8652 26.0684 17.4098 25.3438 18.0068C24.7148 19.0596 24.2546 19.5859 23.9629 19.5859C23.9629 19.6862 23.5664 19.8457 22.7734 20.0645L22.124 20.2764C21.7048 20.2764 21.2217 19.8161 20.6748 18.8955V18.7656C21.9919 18.0775 22.999 17.3232 23.6963 16.5029C23.8376 16.4346 24.0563 16.07 24.3525 15.4092L25.0156 14.1787V13.8369C25.0156 13.6182 24.4027 13.4108 23.1768 13.2148C22.999 13.0007 22.9102 12.5905 22.9102 11.9844L22.5752 10.6855C22.5752 10.1979 23.1038 9.85384 24.1611 9.65332C24.5531 9.18392 24.9906 8.88542 25.4736 8.75781Z"/>
<path d="M31.5439 18.5605L31.0654 18.2393L29.6777 17.5283C29.5273 17.3688 29.4453 17.1979 29.4316 17.0156L29.4727 16.9268L29.9785 16.2158V15.8193L30.6211 14.7666L30.6416 14.7119C30.6097 14.5843 30.6986 14.1217 30.9082 13.3242C30.8763 12.7728 30.9492 12.2236 31.127 11.6768L31.1748 11.7041L31.373 10.8223L31.4756 10.7949L31.4961 10.7471L31.9473 9.42773L32.1455 8.14941C32.8701 8.09017 33.5218 8.15397 34.1006 8.34082L34.1484 8.36133C34.2578 8.41146 34.2852 8.53223 34.2305 8.72363L34.5859 8.78516C33.7064 11.2461 33.3145 12.5973 33.4102 12.8389L33.3145 12.9004C33.1048 14.4362 32.8633 15.5436 32.5898 16.2227C32.4759 16.5098 32.2093 17.0794 31.79 17.9316L31.5986 18.2461L31.6465 18.4375L31.5781 18.4717L31.5439 18.5605Z"/>
<path d="M38.2842 7.97852L38.8652 8.1084L39.583 8.12891L40.1504 8.04004L41.5791 8.23828L41.7705 8.52539L41.6543 9.86523L41.4971 12.791H41.5928L41.4082 13.167L41.4971 13.8232L41.4082 14.6709L41.6885 14.7666L42.4404 14.5752C42.7002 14.6618 42.8893 14.819 43.0078 15.0469V15.7031L42.9121 15.7988L43.0078 15.8945V16.2705C42.9714 16.3343 42.8893 16.4893 42.7617 16.7354L42.29 16.6396L41.5039 16.4824V16.5781H41.6953L41.5039 16.7695H39.3438L37.498 16.79C37.1927 16.6488 37.0195 16.4779 36.9785 16.2773C37.0469 15.7168 36.9603 15.4092 36.7188 15.3545L36.999 15.1631L37.0947 15.2588H37.2861C37.3271 14.9443 37.4206 14.7871 37.5664 14.7871L39.2412 14.7256L39.3369 14.6367L39.2412 14.541L39.207 14.083L39.1523 12.0391L39.3369 10.0703L39.0566 9.87891L38.1543 9.94043L37.3135 9.84473L37.0605 8.82617C37.0742 8.27474 37.293 8.08561 37.7168 8.25879L38.0928 8.16309L38.2842 7.97852Z"/>
<path d="M48.3535 18.2119C47.5651 18.5036 47.1253 18.5651 47.0342 18.3965C46.4281 18.3783 46.0658 18.2598 45.9473 18.041L46.0088 18.0068C45.6396 17.8701 45.4027 17.7061 45.2979 17.5146L45.2842 17.3164L44.6143 16.5918L44.5938 15.915L44.4434 15.7988L44.3887 15.5596L44.2383 15.4365C44.3704 15.1403 44.3317 14.7985 44.1221 14.4111L44.1836 14.3701L44.0879 14.3564C43.9922 14.0465 43.9831 13.8711 44.0605 13.8301L43.958 13.8164L43.8896 13.3721L43.8281 13.3994L43.8623 13.3174L43.8076 13.2148L43.6709 13.29L43.6367 13.2422C43.7507 12.8184 43.7256 12.4424 43.5615 12.1143C43.8031 11.7451 43.9489 11.3691 43.999 10.9863L44.3066 10.2617L45.2842 8.97656L45.7217 8.80566L46.3506 8.33398C46.5921 8.32943 46.9613 8.19043 47.458 7.91699L49.0166 8.0127C49.4951 7.93978 49.9531 8.07422 50.3906 8.41602C50.3451 8.64844 50.3747 8.97201 50.4795 9.38672C50.3564 9.45508 50.3063 9.73307 50.3291 10.2207C50.2243 10.2799 50.2174 10.5352 50.3086 10.9863C50.1992 11.2188 50.1742 11.3919 50.2334 11.5059L50.3428 11.5195L50.3633 11.5674L50.3223 11.6562L50.541 11.8818C50.6139 12.0186 50.6208 12.1963 50.5615 12.415C50.7803 12.7477 50.9215 12.8981 50.9854 12.8662C51.1813 13.7002 51.236 14.1719 51.1494 14.2812L51.1836 15.1494C50.9238 15.2952 50.8418 15.5231 50.9375 15.833L50.4658 16.5713L49.5635 17.3506L48.3535 18.2119ZM48.9209 14.0146L48.832 13.9941L48.6133 13.4541L48.3262 13.085C48.0026 12.1143 47.9434 11.5719 48.1484 11.458C48.39 11.1208 48.4674 10.8792 48.3809 10.7334C48.2669 10.5192 48.2646 10.3665 48.374 10.2754L48.4697 10.2891L48.4971 10.207C48.4424 10.1159 48.1758 10.0658 47.6973 10.0566L47.5127 10.1592L47.4785 10.248L47.3896 10.2275L46.8975 10.501C46.3506 11.2347 46.1341 12.1462 46.248 13.2354L47.1025 15.9424C47.3258 16.3389 47.7383 16.5075 48.3398 16.4482L48.5244 16.3457C48.5791 16.0996 48.6771 15.9355 48.8184 15.8535C48.7363 15.7122 48.7728 15.4912 48.9277 15.1904C48.8685 15.0811 48.8822 14.7689 48.9688 14.2539L48.9209 14.0146Z"/>
</mask>
<path d="M10.3184 8.7168L11.1865 8.58691C11.8063 8.49577 12.2119 8.64844 12.4033 9.04492C13.0277 9.27279 13.3717 9.60547 13.4355 10.043L13.4902 10.4189L13.7432 10.3848L13.5244 14.1172L13.668 14.2197L13.6885 14.3496L13.5244 16.4346L12.3828 17.248C13.8867 18.556 14.6934 19.0732 14.8027 18.7998L14.5361 19.1211L14.4951 19.251L14.3721 19.5244L13.1143 18.998L11.4873 17.7129L9.2793 18.0615L10.4141 17.877L9.36816 17.8018C8.93978 17.8656 8.24023 17.4144 7.26953 16.4482L7.09863 15.334L7.85742 13.5498C7.88477 11.2484 8.17415 10.0566 8.72559 9.97461C9.38639 9.19531 9.91732 8.77604 10.3184 8.7168ZM9.68945 14.459L9.82617 14.5684L9.83984 14.6914L9.79199 15.2109L9.96289 15.5664L11.3301 15.3408C11.7311 15.277 11.8564 14.1924 11.7061 12.0869L11.5557 10.959L11.166 10.6445C10.5508 10.7402 10.2318 11.2598 10.209 12.2031L9.68945 14.459Z" fill="#FAEDCD"/>
<path d="M25.4736 8.75781H25.7402L26.0684 8.83301L26.123 8.75781C26.3691 8.91276 26.5446 9.34798 26.6494 10.0635L26.7246 10.1387V10.2686C26.7246 10.6833 26.2415 10.8906 25.2754 10.8906C25.2754 10.9772 25.1432 11.0433 24.8789 11.0889C24.6602 11.2803 24.5508 11.417 24.5508 11.499L24.6191 11.5742H24.6807L25.1387 11.499C26.1276 11.7269 26.7451 12.0938 26.9912 12.5996L27.3125 13.2148V13.9668C27.0482 15.2109 26.8271 16.013 26.6494 16.373C26.5036 16.8652 26.0684 17.4098 25.3438 18.0068C24.7148 19.0596 24.2546 19.5859 23.9629 19.5859C23.9629 19.6862 23.5664 19.8457 22.7734 20.0645L22.124 20.2764C21.7048 20.2764 21.2217 19.8161 20.6748 18.8955V18.7656C21.9919 18.0775 22.999 17.3232 23.6963 16.5029C23.8376 16.4346 24.0563 16.07 24.3525 15.4092L25.0156 14.1787V13.8369C25.0156 13.6182 24.4027 13.4108 23.1768 13.2148C22.999 13.0007 22.9102 12.5905 22.9102 11.9844L22.5752 10.6855C22.5752 10.1979 23.1038 9.85384 24.1611 9.65332C24.5531 9.18392 24.9906 8.88542 25.4736 8.75781Z" fill="#FAEDCD"/>
<path d="M31.5439 18.5605L31.0654 18.2393L29.6777 17.5283C29.5273 17.3688 29.4453 17.1979 29.4316 17.0156L29.4727 16.9268L29.9785 16.2158V15.8193L30.6211 14.7666L30.6416 14.7119C30.6097 14.5843 30.6986 14.1217 30.9082 13.3242C30.8763 12.7728 30.9492 12.2236 31.127 11.6768L31.1748 11.7041L31.373 10.8223L31.4756 10.7949L31.4961 10.7471L31.9473 9.42773L32.1455 8.14941C32.8701 8.09017 33.5218 8.15397 34.1006 8.34082L34.1484 8.36133C34.2578 8.41146 34.2852 8.53223 34.2305 8.72363L34.5859 8.78516C33.7064 11.2461 33.3145 12.5973 33.4102 12.8389L33.3145 12.9004C33.1048 14.4362 32.8633 15.5436 32.5898 16.2227C32.4759 16.5098 32.2093 17.0794 31.79 17.9316L31.5986 18.2461L31.6465 18.4375L31.5781 18.4717L31.5439 18.5605Z" fill="#FAEDCD"/>
<path d="M38.2842 7.97852L38.8652 8.1084L39.583 8.12891L40.1504 8.04004L41.5791 8.23828L41.7705 8.52539L41.6543 9.86523L41.4971 12.791H41.5928L41.4082 13.167L41.4971 13.8232L41.4082 14.6709L41.6885 14.7666L42.4404 14.5752C42.7002 14.6618 42.8893 14.819 43.0078 15.0469V15.7031L42.9121 15.7988L43.0078 15.8945V16.2705C42.9714 16.3343 42.8893 16.4893 42.7617 16.7354L42.29 16.6396L41.5039 16.4824V16.5781H41.6953L41.5039 16.7695H39.3438L37.498 16.79C37.1927 16.6488 37.0195 16.4779 36.9785 16.2773C37.0469 15.7168 36.9603 15.4092 36.7188 15.3545L36.999 15.1631L37.0947 15.2588H37.2861C37.3271 14.9443 37.4206 14.7871 37.5664 14.7871L39.2412 14.7256L39.3369 14.6367L39.2412 14.541L39.207 14.083L39.1523 12.0391L39.3369 10.0703L39.0566 9.87891L38.1543 9.94043L37.3135 9.84473L37.0605 8.82617C37.0742 8.27474 37.293 8.08561 37.7168 8.25879L38.0928 8.16309L38.2842 7.97852Z" fill="#FAEDCD"/>
<path d="M48.3535 18.2119C47.5651 18.5036 47.1253 18.5651 47.0342 18.3965C46.4281 18.3783 46.0658 18.2598 45.9473 18.041L46.0088 18.0068C45.6396 17.8701 45.4027 17.7061 45.2979 17.5146L45.2842 17.3164L44.6143 16.5918L44.5938 15.915L44.4434 15.7988L44.3887 15.5596L44.2383 15.4365C44.3704 15.1403 44.3317 14.7985 44.1221 14.4111L44.1836 14.3701L44.0879 14.3564C43.9922 14.0465 43.9831 13.8711 44.0605 13.8301L43.958 13.8164L43.8896 13.3721L43.8281 13.3994L43.8623 13.3174L43.8076 13.2148L43.6709 13.29L43.6367 13.2422C43.7507 12.8184 43.7256 12.4424 43.5615 12.1143C43.8031 11.7451 43.9489 11.3691 43.999 10.9863L44.3066 10.2617L45.2842 8.97656L45.7217 8.80566L46.3506 8.33398C46.5921 8.32943 46.9613 8.19043 47.458 7.91699L49.0166 8.0127C49.4951 7.93978 49.9531 8.07422 50.3906 8.41602C50.3451 8.64844 50.3747 8.97201 50.4795 9.38672C50.3564 9.45508 50.3063 9.73307 50.3291 10.2207C50.2243 10.2799 50.2174 10.5352 50.3086 10.9863C50.1992 11.2188 50.1742 11.3919 50.2334 11.5059L50.3428 11.5195L50.3633 11.5674L50.3223 11.6562L50.541 11.8818C50.6139 12.0186 50.6208 12.1963 50.5615 12.415C50.7803 12.7477 50.9215 12.8981 50.9854 12.8662C51.1813 13.7002 51.236 14.1719 51.1494 14.2812L51.1836 15.1494C50.9238 15.2952 50.8418 15.5231 50.9375 15.833L50.4658 16.5713L49.5635 17.3506L48.3535 18.2119ZM48.9209 14.0146L48.832 13.9941L48.6133 13.4541L48.3262 13.085C48.0026 12.1143 47.9434 11.5719 48.1484 11.458C48.39 11.1208 48.4674 10.8792 48.3809 10.7334C48.2669 10.5192 48.2646 10.3665 48.374 10.2754L48.4697 10.2891L48.4971 10.207C48.4424 10.1159 48.1758 10.0658 47.6973 10.0566L47.5127 10.1592L47.4785 10.248L47.3896 10.2275L46.8975 10.501C46.3506 11.2347 46.1341 12.1462 46.248 13.2354L47.1025 15.9424C47.3258 16.3389 47.7383 16.5075 48.3398 16.4482L48.5244 16.3457C48.5791 16.0996 48.6771 15.9355 48.8184 15.8535C48.7363 15.7122 48.7728 15.4912 48.9277 15.1904C48.8685 15.0811 48.8822 14.7689 48.9688 14.2539L48.9209 14.0146Z" fill="#FAEDCD"/>
<path d="M10.3184 8.7168L11.1865 8.58691C11.8063 8.49577 12.2119 8.64844 12.4033 9.04492C13.0277 9.27279 13.3717 9.60547 13.4355 10.043L13.4902 10.4189L13.7432 10.3848L13.5244 14.1172L13.668 14.2197L13.6885 14.3496L13.5244 16.4346L12.3828 17.248C13.8867 18.556 14.6934 19.0732 14.8027 18.7998L14.5361 19.1211L14.4951 19.251L14.3721 19.5244L13.1143 18.998L11.4873 17.7129L9.2793 18.0615L10.4141 17.877L9.36816 17.8018C8.93978 17.8656 8.24023 17.4144 7.26953 16.4482L7.09863 15.334L7.85742 13.5498C7.88477 11.2484 8.17415 10.0566 8.72559 9.97461C9.38639 9.19531 9.91732 8.77604 10.3184 8.7168ZM9.68945 14.459L9.82617 14.5684L9.83984 14.6914L9.79199 15.2109L9.96289 15.5664L11.3301 15.3408C11.7311 15.277 11.8564 14.1924 11.7061 12.0869L11.5557 10.959L11.166 10.6445C10.5508 10.7402 10.2318 11.2598 10.209 12.2031L9.68945 14.459Z" stroke="black" stroke-width="12" mask="url(#path-1-outside-1_35_325)"/>
<path d="M25.4736 8.75781H25.7402L26.0684 8.83301L26.123 8.75781C26.3691 8.91276 26.5446 9.34798 26.6494 10.0635L26.7246 10.1387V10.2686C26.7246 10.6833 26.2415 10.8906 25.2754 10.8906C25.2754 10.9772 25.1432 11.0433 24.8789 11.0889C24.6602 11.2803 24.5508 11.417 24.5508 11.499L24.6191 11.5742H24.6807L25.1387 11.499C26.1276 11.7269 26.7451 12.0938 26.9912 12.5996L27.3125 13.2148V13.9668C27.0482 15.2109 26.8271 16.013 26.6494 16.373C26.5036 16.8652 26.0684 17.4098 25.3438 18.0068C24.7148 19.0596 24.2546 19.5859 23.9629 19.5859C23.9629 19.6862 23.5664 19.8457 22.7734 20.0645L22.124 20.2764C21.7048 20.2764 21.2217 19.8161 20.6748 18.8955V18.7656C21.9919 18.0775 22.999 17.3232 23.6963 16.5029C23.8376 16.4346 24.0563 16.07 24.3525 15.4092L25.0156 14.1787V13.8369C25.0156 13.6182 24.4027 13.4108 23.1768 13.2148C22.999 13.0007 22.9102 12.5905 22.9102 11.9844L22.5752 10.6855C22.5752 10.1979 23.1038 9.85384 24.1611 9.65332C24.5531 9.18392 24.9906 8.88542 25.4736 8.75781Z" stroke="black" stroke-width="12" mask="url(#path-1-outside-1_35_325)"/>
<path d="M31.5439 18.5605L31.0654 18.2393L29.6777 17.5283C29.5273 17.3688 29.4453 17.1979 29.4316 17.0156L29.4727 16.9268L29.9785 16.2158V15.8193L30.6211 14.7666L30.6416 14.7119C30.6097 14.5843 30.6986 14.1217 30.9082 13.3242C30.8763 12.7728 30.9492 12.2236 31.127 11.6768L31.1748 11.7041L31.373 10.8223L31.4756 10.7949L31.4961 10.7471L31.9473 9.42773L32.1455 8.14941C32.8701 8.09017 33.5218 8.15397 34.1006 8.34082L34.1484 8.36133C34.2578 8.41146 34.2852 8.53223 34.2305 8.72363L34.5859 8.78516C33.7064 11.2461 33.3145 12.5973 33.4102 12.8389L33.3145 12.9004C33.1048 14.4362 32.8633 15.5436 32.5898 16.2227C32.4759 16.5098 32.2093 17.0794 31.79 17.9316L31.5986 18.2461L31.6465 18.4375L31.5781 18.4717L31.5439 18.5605Z" stroke="black" stroke-width="12" mask="url(#path-1-outside-1_35_325)"/>
<path d="M38.2842 7.97852L38.8652 8.1084L39.583 8.12891L40.1504 8.04004L41.5791 8.23828L41.7705 8.52539L41.6543 9.86523L41.4971 12.791H41.5928L41.4082 13.167L41.4971 13.8232L41.4082 14.6709L41.6885 14.7666L42.4404 14.5752C42.7002 14.6618 42.8893 14.819 43.0078 15.0469V15.7031L42.9121 15.7988L43.0078 15.8945V16.2705C42.9714 16.3343 42.8893 16.4893 42.7617 16.7354L42.29 16.6396L41.5039 16.4824V16.5781H41.6953L41.5039 16.7695H39.3438L37.498 16.79C37.1927 16.6488 37.0195 16.4779 36.9785 16.2773C37.0469 15.7168 36.9603 15.4092 36.7188 15.3545L36.999 15.1631L37.0947 15.2588H37.2861C37.3271 14.9443 37.4206 14.7871 37.5664 14.7871L39.2412 14.7256L39.3369 14.6367L39.2412 14.541L39.207 14.083L39.1523 12.0391L39.3369 10.0703L39.0566 9.87891L38.1543 9.94043L37.3135 9.84473L37.0605 8.82617C37.0742 8.27474 37.293 8.08561 37.7168 8.25879L38.0928 8.16309L38.2842 7.97852Z" stroke="black" stroke-width="12" mask="url(#path-1-outside-1_35_325)"/>
<path d="M48.3535 18.2119C47.5651 18.5036 47.1253 18.5651 47.0342 18.3965C46.4281 18.3783 46.0658 18.2598 45.9473 18.041L46.0088 18.0068C45.6396 17.8701 45.4027 17.7061 45.2979 17.5146L45.2842 17.3164L44.6143 16.5918L44.5938 15.915L44.4434 15.7988L44.3887 15.5596L44.2383 15.4365C44.3704 15.1403 44.3317 14.7985 44.1221 14.4111L44.1836 14.3701L44.0879 14.3564C43.9922 14.0465 43.9831 13.8711 44.0605 13.8301L43.958 13.8164L43.8896 13.3721L43.8281 13.3994L43.8623 13.3174L43.8076 13.2148L43.6709 13.29L43.6367 13.2422C43.7507 12.8184 43.7256 12.4424 43.5615 12.1143C43.8031 11.7451 43.9489 11.3691 43.999 10.9863L44.3066 10.2617L45.2842 8.97656L45.7217 8.80566L46.3506 8.33398C46.5921 8.32943 46.9613 8.19043 47.458 7.91699L49.0166 8.0127C49.4951 7.93978 49.9531 8.07422 50.3906 8.41602C50.3451 8.64844 50.3747 8.97201 50.4795 9.38672C50.3564 9.45508 50.3063 9.73307 50.3291 10.2207C50.2243 10.2799 50.2174 10.5352 50.3086 10.9863C50.1992 11.2188 50.1742 11.3919 50.2334 11.5059L50.3428 11.5195L50.3633 11.5674L50.3223 11.6562L50.541 11.8818C50.6139 12.0186 50.6208 12.1963 50.5615 12.415C50.7803 12.7477 50.9215 12.8981 50.9854 12.8662C51.1813 13.7002 51.236 14.1719 51.1494 14.2812L51.1836 15.1494C50.9238 15.2952 50.8418 15.5231 50.9375 15.833L50.4658 16.5713L49.5635 17.3506L48.3535 18.2119ZM48.9209 14.0146L48.832 13.9941L48.6133 13.4541L48.3262 13.085C48.0026 12.1143 47.9434 11.5719 48.1484 11.458C48.39 11.1208 48.4674 10.8792 48.3809 10.7334C48.2669 10.5192 48.2646 10.3665 48.374 10.2754L48.4697 10.2891L48.4971 10.207C48.4424 10.1159 48.1758 10.0658 47.6973 10.0566L47.5127 10.1592L47.4785 10.248L47.3896 10.2275L46.8975 10.501C46.3506 11.2347 46.1341 12.1462 46.248 13.2354L47.1025 15.9424C47.3258 16.3389 47.7383 16.5075 48.3398 16.4482L48.5244 16.3457C48.5791 16.0996 48.6771 15.9355 48.8184 15.8535C48.7363 15.7122 48.7728 15.4912 48.9277 15.1904C48.8685 15.0811 48.8822 14.7689 48.9688 14.2539L48.9209 14.0146Z" stroke="black" stroke-width="12" mask="url(#path-1-outside-1_35_325)"/>
</g>
<defs>
<filter id="filter0_dd_35_325" x="0.90921" y="0.69043" width="67.5284" height="28.0442" filterUnits="userSpaceOnUse" color-interpolation-filters="sRGB">
<feFlood flood-opacity="0" result="BackgroundImageFix"/>
<feColorMatrix in="SourceAlpha" type="matrix" values="0 0 0 0 0 0 0 0 0 0 0 0 0 0 0 0 0 0 127 0" result="hardAlpha"/>
<feOffset dx="4"/>
<feComposite in2="hardAlpha" operator="out"/>
<feColorMatrix type="matrix" values="0 0 0 0 0.831373 0 0 0 0 0.639216 0 0 0 0 0.45098 0 0 0 1 0"/>
<feBlend mode="normal" in2="BackgroundImageFix" result="effect1_dropShadow_35_325"/>
<feColorMatrix in="SourceAlpha" type="matrix" values="0 0 0 0 0 0 0 0 0 0 0 0 0 0 0 0 0 0 127 0" result="hardAlpha"/>
<feOffset dx="5" dy="1"/>
<feComposite in2="hardAlpha" operator="out"/>
<feColorMatrix type="matrix" values="0 0 0 0 0.831373 0 0 0 0 0.639216 0 0 0 0 0.45098 0 0 0 1 0"/>
<feBlend mode="normal" in2="effect1_dropShadow_35_325" result="effect2_dropShadow_35_325"/>
<feBlend mode="normal" in="SourceGraphic" in2="effect2_dropShadow_35_325" result="shape"/>
</filter>
</defs>
</svg>
