<svg width="70" height="28" viewBox="0 0 70 28" fill="none" xmlns="http://www.w3.org/2000/svg">
<g filter="url(#filter0_dd_35_326)">
<mask id="path-1-outside-1_35_326" maskUnits="userSpaceOnUse" x="-0.0917969" y="-0.0830078" width="65" height="27" fill="black">
<rect fill="white" x="-0.0917969" y="-0.0830078" width="65" height="27"/>
<path d="M10.1279 7.7168L10.9961 7.58691C11.6159 7.49577 12.0215 7.64844 12.2129 8.04492C12.8372 8.27279 13.1813 8.60547 13.2451 9.04297L13.2998 9.41895L13.5527 9.38477L13.334 13.1172L13.4775 13.2197L13.498 13.3496L13.334 15.4346L12.1924 16.248C13.6963 17.556 14.5029 18.0732 14.6123 17.7998L14.3457 18.1211L14.3047 18.251L14.1816 18.5244L12.9238 17.998L11.2969 16.7129L9.08887 17.0615L10.2236 16.877L9.17773 16.8018C8.74935 16.8656 8.0498 16.4144 7.0791 15.4482L6.9082 14.334L7.66699 12.5498C7.69434 10.2484 7.98372 9.05664 8.53516 8.97461C9.19596 8.19531 9.72689 7.77604 10.1279 7.7168ZM9.49902 13.459L9.63574 13.5684L9.64941 13.6914L9.60156 14.2109L9.77246 14.5664L11.1396 14.3408C11.5407 14.277 11.666 13.1924 11.5156 11.0869L11.3652 9.95898L10.9756 9.64453C10.3604 9.74023 10.0413 10.2598 10.0186 11.2031L9.49902 13.459Z"/>
<path d="M27.8535 7.01953H27.9971L29.043 8.29785V8.5918C29.043 8.78776 28.5964 9.02474 27.7031 9.30273L27.5527 9.72656L26.5137 9.58301C26.5137 10.0342 26.1172 10.3669 25.3242 10.5811C25.3242 10.8317 25.126 11.1188 24.7295 11.4424C26.0785 12.1214 26.8213 12.5931 26.958 12.8574L26.8076 13.001H27.1084L27.4023 14.2861V14.7168C27.4023 15.7832 26.8076 16.6377 25.6182 17.2803H25.4746C23.0911 17.2803 21.8994 16.3301 21.8994 14.4297L22.2002 12.8574L22.0498 12.7207C22.0498 11.3672 22.5465 10.1322 23.54 9.01562C25.7549 7.6849 27.1927 7.01953 27.8535 7.01953ZM24.1348 13.2881V14.4297L23.9844 14.5732C24.1302 14.9515 24.2783 15.1406 24.4287 15.1406H24.8799L25.1738 14.8604H25.0303L25.1738 14.7168V14.0059C24.8776 13.5273 24.5312 13.2881 24.1348 13.2881Z"/>
<path d="M32.7344 17.5605L32.2559 17.2393L30.8682 16.5283C30.7178 16.3688 30.6357 16.1979 30.6221 16.0156L30.6631 15.9268L31.1689 15.2158V14.8193L31.8115 13.7666L31.832 13.7119C31.8001 13.5843 31.889 13.1217 32.0986 12.3242C32.0667 11.7728 32.1396 11.2236 32.3174 10.6768L32.3652 10.7041L32.5635 9.82227L32.666 9.79492L32.6865 9.74707L33.1377 8.42773L33.3359 7.14941C34.0605 7.09017 34.7122 7.15397 35.291 7.34082L35.3389 7.36133C35.4482 7.41146 35.4756 7.53223 35.4209 7.72363L35.7764 7.78516C34.8968 10.2461 34.5049 11.5973 34.6006 11.8389L34.5049 11.9004C34.2952 13.4362 34.0537 14.5436 33.7803 15.2227C33.6663 15.5098 33.3997 16.0794 32.9805 16.9316L32.7891 17.2461L32.8369 17.4375L32.7686 17.4717L32.7344 17.5605Z"/>
<path d="M39.4746 6.97852L40.0557 7.1084L40.7734 7.12891L41.3408 7.04004L42.7695 7.23828L42.9609 7.52539L42.8447 8.86523L42.6875 11.791H42.7832L42.5986 12.167L42.6875 12.8232L42.5986 13.6709L42.8789 13.7666L43.6309 13.5752C43.8906 13.6618 44.0798 13.819 44.1982 14.0469V14.7031L44.1025 14.7988L44.1982 14.8945V15.2705C44.1618 15.3343 44.0798 15.4893 43.9521 15.7354L43.4805 15.6396L42.6943 15.4824V15.5781H42.8857L42.6943 15.7695H40.5342L38.6885 15.79C38.3831 15.6488 38.21 15.4779 38.1689 15.2773C38.2373 14.7168 38.1507 14.4092 37.9092 14.3545L38.1895 14.1631L38.2852 14.2588H38.4766C38.5176 13.9443 38.611 13.7871 38.7568 13.7871L40.4316 13.7256L40.5273 13.6367L40.4316 13.541L40.3975 13.083L40.3428 11.0391L40.5273 9.07031L40.2471 8.87891L39.3447 8.94043L38.5039 8.84473L38.251 7.82617C38.2646 7.27474 38.4834 7.08561 38.9072 7.25879L39.2832 7.16309L39.4746 6.97852Z"/>
<path d="M49.5439 17.2119C48.7555 17.5036 48.3158 17.5651 48.2246 17.3965C47.6185 17.3783 47.2562 17.2598 47.1377 17.041L47.1992 17.0068C46.8301 16.8701 46.5931 16.7061 46.4883 16.5146L46.4746 16.3164L45.8047 15.5918L45.7842 14.915L45.6338 14.7988L45.5791 14.5596L45.4287 14.4365C45.5609 14.1403 45.5221 13.7985 45.3125 13.4111L45.374 13.3701L45.2783 13.3564C45.1826 13.0465 45.1735 12.8711 45.251 12.8301L45.1484 12.8164L45.0801 12.3721L45.0186 12.3994L45.0527 12.3174L44.998 12.2148L44.8613 12.29L44.8271 12.2422C44.9411 11.8184 44.916 11.4424 44.752 11.1143C44.9935 10.7451 45.1393 10.3691 45.1895 9.98633L45.4971 9.26172L46.4746 7.97656L46.9121 7.80566L47.541 7.33398C47.7826 7.32943 48.1517 7.19043 48.6484 6.91699L50.207 7.0127C50.6855 6.93978 51.1436 7.07422 51.5811 7.41602C51.5355 7.64844 51.5651 7.97201 51.6699 8.38672C51.5469 8.45508 51.4967 8.73307 51.5195 9.2207C51.4147 9.27995 51.4079 9.53516 51.499 9.98633C51.3896 10.2188 51.3646 10.3919 51.4238 10.5059L51.5332 10.5195L51.5537 10.5674L51.5127 10.6562L51.7314 10.8818C51.8044 11.0186 51.8112 11.1963 51.752 11.415C51.9707 11.7477 52.112 11.8981 52.1758 11.8662C52.3717 12.7002 52.4264 13.1719 52.3398 13.2812L52.374 14.1494C52.1143 14.2952 52.0322 14.5231 52.1279 14.833L51.6562 15.5713L50.7539 16.3506L49.5439 17.2119ZM50.1113 13.0146L50.0225 12.9941L49.8037 12.4541L49.5166 12.085C49.193 11.1143 49.1338 10.5719 49.3389 10.458C49.5804 10.1208 49.6579 9.87923 49.5713 9.7334C49.4574 9.51921 49.4551 9.36654 49.5645 9.27539L49.6602 9.28906L49.6875 9.20703C49.6328 9.11589 49.3662 9.06576 48.8877 9.05664L48.7031 9.15918L48.6689 9.24805L48.5801 9.22754L48.0879 9.50098C47.541 10.2347 47.3245 11.1462 47.4385 12.2354L48.293 14.9424C48.5163 15.3389 48.9287 15.5075 49.5303 15.4482L49.7148 15.3457C49.7695 15.0996 49.8675 14.9355 50.0088 14.8535C49.9268 14.7122 49.9632 14.4912 50.1182 14.1904C50.0589 14.0811 50.0726 13.7689 50.1592 13.2539L50.1113 13.0146Z"/>
</mask>
<path d="M10.1279 7.7168L10.9961 7.58691C11.6159 7.49577 12.0215 7.64844 12.2129 8.04492C12.8372 8.27279 13.1813 8.60547 13.2451 9.04297L13.2998 9.41895L13.5527 9.38477L13.334 13.1172L13.4775 13.2197L13.498 13.3496L13.334 15.4346L12.1924 16.248C13.6963 17.556 14.5029 18.0732 14.6123 17.7998L14.3457 18.1211L14.3047 18.251L14.1816 18.5244L12.9238 17.998L11.2969 16.7129L9.08887 17.0615L10.2236 16.877L9.17773 16.8018C8.74935 16.8656 8.0498 16.4144 7.0791 15.4482L6.9082 14.334L7.66699 12.5498C7.69434 10.2484 7.98372 9.05664 8.53516 8.97461C9.19596 8.19531 9.72689 7.77604 10.1279 7.7168ZM9.49902 13.459L9.63574 13.5684L9.64941 13.6914L9.60156 14.2109L9.77246 14.5664L11.1396 14.3408C11.5407 14.277 11.666 13.1924 11.5156 11.0869L11.3652 9.95898L10.9756 9.64453C10.3604 9.74023 10.0413 10.2598 10.0186 11.2031L9.49902 13.459Z" fill="#FAEDCD"/>
<path d="M27.8535 7.01953H27.9971L29.043 8.29785V8.5918C29.043 8.78776 28.5964 9.02474 27.7031 9.30273L27.5527 9.72656L26.5137 9.58301C26.5137 10.0342 26.1172 10.3669 25.3242 10.5811C25.3242 10.8317 25.126 11.1188 24.7295 11.4424C26.0785 12.1214 26.8213 12.5931 26.958 12.8574L26.8076 13.001H27.1084L27.4023 14.2861V14.7168C27.4023 15.7832 26.8076 16.6377 25.6182 17.2803H25.4746C23.0911 17.2803 21.8994 16.3301 21.8994 14.4297L22.2002 12.8574L22.0498 12.7207C22.0498 11.3672 22.5465 10.1322 23.54 9.01562C25.7549 7.6849 27.1927 7.01953 27.8535 7.01953ZM24.1348 13.2881V14.4297L23.9844 14.5732C24.1302 14.9515 24.2783 15.1406 24.4287 15.1406H24.8799L25.1738 14.8604H25.0303L25.1738 14.7168V14.0059C24.8776 13.5273 24.5312 13.2881 24.1348 13.2881Z" fill="#FAEDCD"/>
<path d="M32.7344 17.5605L32.2559 17.2393L30.8682 16.5283C30.7178 16.3688 30.6357 16.1979 30.6221 16.0156L30.6631 15.9268L31.1689 15.2158V14.8193L31.8115 13.7666L31.832 13.7119C31.8001 13.5843 31.889 13.1217 32.0986 12.3242C32.0667 11.7728 32.1396 11.2236 32.3174 10.6768L32.3652 10.7041L32.5635 9.82227L32.666 9.79492L32.6865 9.74707L33.1377 8.42773L33.3359 7.14941C34.0605 7.09017 34.7122 7.15397 35.291 7.34082L35.3389 7.36133C35.4482 7.41146 35.4756 7.53223 35.4209 7.72363L35.7764 7.78516C34.8968 10.2461 34.5049 11.5973 34.6006 11.8389L34.5049 11.9004C34.2952 13.4362 34.0537 14.5436 33.7803 15.2227C33.6663 15.5098 33.3997 16.0794 32.9805 16.9316L32.7891 17.2461L32.8369 17.4375L32.7686 17.4717L32.7344 17.5605Z" fill="#FAEDCD"/>
<path d="M39.4746 6.97852L40.0557 7.1084L40.7734 7.12891L41.3408 7.04004L42.7695 7.23828L42.9609 7.52539L42.8447 8.86523L42.6875 11.791H42.7832L42.5986 12.167L42.6875 12.8232L42.5986 13.6709L42.8789 13.7666L43.6309 13.5752C43.8906 13.6618 44.0798 13.819 44.1982 14.0469V14.7031L44.1025 14.7988L44.1982 14.8945V15.2705C44.1618 15.3343 44.0798 15.4893 43.9521 15.7354L43.4805 15.6396L42.6943 15.4824V15.5781H42.8857L42.6943 15.7695H40.5342L38.6885 15.79C38.3831 15.6488 38.21 15.4779 38.1689 15.2773C38.2373 14.7168 38.1507 14.4092 37.9092 14.3545L38.1895 14.1631L38.2852 14.2588H38.4766C38.5176 13.9443 38.611 13.7871 38.7568 13.7871L40.4316 13.7256L40.5273 13.6367L40.4316 13.541L40.3975 13.083L40.3428 11.0391L40.5273 9.07031L40.2471 8.87891L39.3447 8.94043L38.5039 8.84473L38.251 7.82617C38.2646 7.27474 38.4834 7.08561 38.9072 7.25879L39.2832 7.16309L39.4746 6.97852Z" fill="#FAEDCD"/>
<path d="M49.5439 17.2119C48.7555 17.5036 48.3158 17.5651 48.2246 17.3965C47.6185 17.3783 47.2562 17.2598 47.1377 17.041L47.1992 17.0068C46.8301 16.8701 46.5931 16.7061 46.4883 16.5146L46.4746 16.3164L45.8047 15.5918L45.7842 14.915L45.6338 14.7988L45.5791 14.5596L45.4287 14.4365C45.5609 14.1403 45.5221 13.7985 45.3125 13.4111L45.374 13.3701L45.2783 13.3564C45.1826 13.0465 45.1735 12.8711 45.251 12.8301L45.1484 12.8164L45.0801 12.3721L45.0186 12.3994L45.0527 12.3174L44.998 12.2148L44.8613 12.29L44.8271 12.2422C44.9411 11.8184 44.916 11.4424 44.752 11.1143C44.9935 10.7451 45.1393 10.3691 45.1895 9.98633L45.4971 9.26172L46.4746 7.97656L46.9121 7.80566L47.541 7.33398C47.7826 7.32943 48.1517 7.19043 48.6484 6.91699L50.207 7.0127C50.6855 6.93978 51.1436 7.07422 51.5811 7.41602C51.5355 7.64844 51.5651 7.97201 51.6699 8.38672C51.5469 8.45508 51.4967 8.73307 51.5195 9.2207C51.4147 9.27995 51.4079 9.53516 51.499 9.98633C51.3896 10.2188 51.3646 10.3919 51.4238 10.5059L51.5332 10.5195L51.5537 10.5674L51.5127 10.6562L51.7314 10.8818C51.8044 11.0186 51.8112 11.1963 51.752 11.415C51.9707 11.7477 52.112 11.8981 52.1758 11.8662C52.3717 12.7002 52.4264 13.1719 52.3398 13.2812L52.374 14.1494C52.1143 14.2952 52.0322 14.5231 52.1279 14.833L51.6562 15.5713L50.7539 16.3506L49.5439 17.2119ZM50.1113 13.0146L50.0225 12.9941L49.8037 12.4541L49.5166 12.085C49.193 11.1143 49.1338 10.5719 49.3389 10.458C49.5804 10.1208 49.6579 9.87923 49.5713 9.7334C49.4574 9.51921 49.4551 9.36654 49.5645 9.27539L49.6602 9.28906L49.6875 9.20703C49.6328 9.11589 49.3662 9.06576 48.8877 9.05664L48.7031 9.15918L48.6689 9.24805L48.5801 9.22754L48.0879 9.50098C47.541 10.2347 47.3245 11.1462 47.4385 12.2354L48.293 14.9424C48.5163 15.3389 48.9287 15.5075 49.5303 15.4482L49.7148 15.3457C49.7695 15.0996 49.8675 14.9355 50.0088 14.8535C49.9268 14.7122 49.9632 14.4912 50.1182 14.1904C50.0589 14.0811 50.0726 13.7689 50.1592 13.2539L50.1113 13.0146Z" fill="#FAEDCD"/>
<path d="M24.7362 10.8309L24.5858 10.9745L28.7287 15.3146L28.879 15.171L24.7362 10.8309ZM10.1279 7.7168L11.0048 13.6524L11.0157 13.6508L10.1279 7.7168ZM10.9961 7.58691L10.1231 1.65076L10.1157 1.65185L10.1083 1.65295L10.9961 7.58691ZM12.2129 8.04492L6.80958 10.6534L7.86826 12.8464L10.1558 13.6813L12.2129 8.04492ZM13.2451 9.04297L19.1826 8.17933L19.1823 8.17713L13.2451 9.04297ZM13.2998 9.41895L7.36229 10.2826L8.21723 16.1603L14.1033 15.3649L13.2998 9.41895ZM13.5527 9.38477L19.5425 9.73581L19.9687 2.46321L12.7492 3.43881L13.5527 9.38477ZM13.334 13.1172L7.34426 12.7661L7.15041 16.0738L9.84656 17.9996L13.334 13.1172ZM13.4775 13.2197L19.4041 12.284L19.0118 9.79936L16.965 8.33733L13.4775 13.2197ZM13.498 13.3496L19.4796 13.8203L19.5351 13.1138L19.4246 12.4138L13.498 13.3496ZM13.334 15.4346L16.8159 20.3209L19.0959 18.6963L19.3155 15.9052L13.334 15.4346ZM12.1924 16.248L8.71049 11.3617L2.51064 15.7796L8.25497 20.7754L12.1924 16.248ZM14.6123 17.7998L20.1832 20.0281L9.99493 13.9684L14.6123 17.7998ZM14.3457 18.1211L9.72833 14.2897L8.97803 15.1939L8.62421 16.3143L14.3457 18.1211ZM14.3047 18.251L19.7762 20.7132L19.9204 20.3928L20.0262 20.0578L14.3047 18.251ZM14.1816 18.5244L11.8654 24.0593L17.2554 26.3149L19.6532 20.9866L14.1816 18.5244ZM12.9238 17.998L9.20468 22.7063L9.84953 23.2157L10.6076 23.5329L12.9238 17.998ZM11.2969 16.7129L15.016 12.0046L12.9552 10.3767L10.3611 10.7863L11.2969 16.7129ZM9.08887 17.0615L8.12562 11.1393L10.0246 22.9881L9.08887 17.0615ZM10.2236 16.877L11.1869 22.7991L10.6539 10.8924L10.2236 16.877ZM9.17773 16.8018L9.608 10.8172L8.94817 10.7698L8.29387 10.8672L9.17773 16.8018ZM7.0791 15.4482L1.14845 16.3579L1.44765 18.3086L2.84646 19.7009L7.0791 15.4482ZM6.9082 14.334L1.38679 11.9858L0.718794 13.5565L0.977553 15.2436L6.9082 14.334ZM7.66699 12.5498L13.1884 14.898L13.6525 13.8068L13.6666 12.6211L7.66699 12.5498ZM8.53516 8.97461L9.418 14.9093L11.6512 14.5771L13.1114 12.8551L8.53516 8.97461ZM9.49902 13.459L3.65208 12.1124L2.80559 15.788L5.75085 18.1442L9.49902 13.459ZM9.63574 13.5684L15.599 12.9058L15.3246 10.4357L13.3839 8.88315L9.63574 13.5684ZM9.64941 13.6914L15.6241 14.2417L15.68 13.6347L15.6127 13.0288L9.64941 13.6914ZM9.60156 14.2109L3.62685 13.6606L3.47455 15.3142L4.19405 16.8107L9.60156 14.2109ZM9.77246 14.5664L4.36495 17.1662L6.3131 21.2183L10.7493 20.4864L9.77246 14.5664ZM11.1396 14.3408L10.197 8.41534L10.1799 8.41805L10.1629 8.42086L11.1396 14.3408ZM11.5156 11.0869L17.5004 10.6594L17.4873 10.4761L17.463 10.2939L11.5156 11.0869ZM11.3652 9.95898L17.3126 9.166L16.9962 6.79317L15.1333 5.2898L11.3652 9.95898ZM10.9756 9.64453L14.7437 4.97534L12.6772 3.30767L10.0533 3.71583L10.9756 9.64453ZM10.0186 11.2031L15.8655 12.5497L16.0021 11.9565L16.0168 11.348L10.0186 11.2031ZM27.9971 7.01953L32.6408 3.2201L30.8403 1.01953H27.9971V7.01953ZM29.043 8.29785H35.043V6.15607L33.6867 4.49842L29.043 8.29785ZM27.7031 9.30273L25.9201 3.57378L23.0528 4.46617L22.0486 7.29628L27.7031 9.30273ZM27.5527 9.72656L26.7316 15.6701L31.5729 16.339L33.2073 11.733L27.5527 9.72656ZM26.5137 9.58301L27.3348 3.63946L20.5137 2.69707V9.58301H26.5137ZM25.3242 10.5811L23.7596 4.78865L19.3242 5.98671V10.5811H25.3242ZM24.7295 11.4424L20.9359 6.79388L13.7692 12.6425L22.0317 16.8017L24.7295 11.4424ZM26.958 12.8574L31.1009 17.1976L34.3525 14.0937L32.2873 10.1009L26.958 12.8574ZM26.8076 13.001L22.6648 8.66084L11.8322 19.001H26.8076V13.001ZM27.1084 13.001L32.9574 11.6632L31.891 7.00098H27.1084V13.001ZM27.4023 14.2861H33.4023V13.6087L33.2513 12.9483L27.4023 14.2861ZM25.6182 17.2803V23.2803H27.1352L28.47 22.5592L25.6182 17.2803ZM21.8994 14.4297L16.0063 13.3023L15.8994 13.8609V14.4297H21.8994ZM22.2002 12.8574L28.0933 13.9848L28.7254 10.6807L26.2362 8.41778L22.2002 12.8574ZM22.0498 12.7207H16.0498V15.3749L18.0138 17.1603L22.0498 12.7207ZM23.54 9.01562L20.45 3.87254L19.6657 4.3437L19.0576 5.02717L23.54 9.01562ZM24.1348 13.2881V7.28809H18.1348V13.2881H24.1348ZM24.1348 14.4297L28.2776 18.7698L30.1348 16.9971V14.4297H24.1348ZM23.9844 14.5732L19.8415 10.2331L16.9461 12.9969L18.386 16.7316L23.9844 14.5732ZM24.8799 15.1406V21.1406H27.2819L29.0203 19.4831L24.8799 15.1406ZM25.1738 14.8604L29.3143 19.2028L40.1612 8.86035H25.1738V14.8604ZM25.0303 14.8604L20.7876 10.6177L10.545 20.8604H25.0303V14.8604ZM25.1738 14.7168L29.4165 18.9594L31.1738 17.2021V14.7168H25.1738ZM25.1738 14.0059H31.1738V12.299L30.2754 10.8477L25.1738 14.0059ZM32.7344 17.5605L29.3898 22.5419L35.6344 26.7347L38.3344 19.7144L32.7344 17.5605ZM32.2559 17.2393L35.6005 12.2579L35.3066 12.0606L34.9916 11.8993L32.2559 17.2393ZM30.8682 16.5283L26.5026 20.6444L27.212 21.3968L28.1324 21.8683L30.8682 16.5283ZM30.6221 16.0156L25.1743 13.5013L24.5226 14.9134L24.6389 16.4644L30.6221 16.0156ZM30.6631 15.9268L25.7743 12.4482L25.4499 12.9042L25.2153 13.4124L30.6631 15.9268ZM31.1689 15.2158L36.0577 18.6944L37.1689 17.1326V15.2158H31.1689ZM31.1689 14.8193L26.0476 11.6933L25.1689 13.1328V14.8193H31.1689ZM31.8115 13.7666L36.9329 16.8926L37.2295 16.4065L37.4295 15.8733L31.8115 13.7666ZM31.832 13.7119L37.45 15.8187L38.106 14.0693L37.6529 12.2567L31.832 13.7119ZM32.0986 12.3242L37.9015 13.8495L38.1436 12.9285L38.0886 11.9777L32.0986 12.3242ZM32.3174 10.6768L35.2942 5.4673L28.8907 1.80818L26.6112 8.82224L32.3174 10.6768ZM32.3652 10.7041L29.3884 15.9136L36.4382 19.942L38.2191 12.0201L32.3652 10.7041ZM32.5635 9.82227L31.0175 4.02486L27.5065 4.96111L26.7096 8.50627L32.5635 9.82227ZM32.666 9.79492L34.212 15.5923L37.0314 14.8405L38.1809 12.1584L32.666 9.79492ZM32.6865 9.74707L38.2014 12.1106L38.2905 11.9026L38.3637 11.6885L32.6865 9.74707ZM33.1377 8.42773L38.8149 10.3692L38.9859 9.86929L39.0668 9.34722L33.1377 8.42773ZM33.3359 7.14941L32.847 1.16937L28.1318 1.55489L27.4068 6.22992L33.3359 7.14941ZM35.291 7.34082L37.6545 1.82595L37.399 1.71642L37.1343 1.63099L35.291 7.34082ZM35.3389 7.36133L37.8388 1.90694L37.771 1.87585L37.7024 1.84646L35.3389 7.36133ZM35.4209 7.72363L29.6518 6.07531L27.817 12.4968L34.3976 13.6357L35.4209 7.72363ZM35.7764 7.78516L41.4263 9.8045L43.8264 3.08923L36.7996 1.87305L35.7764 7.78516ZM34.6006 11.8389L37.8451 16.8859L41.9967 14.2171L40.1787 9.62868L34.6006 11.8389ZM34.5049 11.9004L31.2603 6.85332L28.934 8.3488L28.56 11.0889L34.5049 11.9004ZM33.7803 15.2227L28.2146 12.9814L28.2089 12.9955L28.2033 13.0096L33.7803 15.2227ZM32.9805 16.9316L38.1057 20.0513L38.2455 19.8216L38.3642 19.5803L32.9805 16.9316ZM32.7891 17.2461L27.6639 14.1264L26.36 16.2685L26.9682 18.7013L32.7891 17.2461ZM32.8369 17.4375L35.5202 22.8041L39.8251 20.6516L38.6578 15.9823L32.8369 17.4375ZM32.7686 17.4717L30.0853 12.1051L28.0039 13.1458L27.1685 15.3178L32.7686 17.4717ZM39.4746 6.97852L40.7835 1.12302L37.6334 0.418873L35.3098 2.65945L39.4746 6.97852ZM40.0557 7.1084L38.7468 12.9639L39.3087 13.0895L39.8843 13.106L40.0557 7.1084ZM40.7734 7.12891L40.6021 13.1265L41.1552 13.1423L41.7019 13.0566L40.7734 7.12891ZM41.3408 7.04004L42.1655 1.09698L41.2878 0.975196L40.4124 1.11231L41.3408 7.04004ZM42.7695 7.23828L47.7618 3.91008L46.2657 1.66591L43.5942 1.29522L42.7695 7.23828ZM42.9609 7.52539L48.9385 8.04385L49.1203 5.94778L47.9532 4.19719L42.9609 7.52539ZM42.8447 8.86523L36.8672 8.34677L36.8587 8.44491L36.8534 8.54327L42.8447 8.86523ZM42.6875 11.791L36.6961 11.4691L36.3564 17.791H42.6875V11.791ZM42.7832 11.791L48.1692 14.4351L52.4126 5.79102H42.7832V11.791ZM42.5986 12.167L37.2126 9.52295L36.4078 11.1624L36.6529 12.9721L42.5986 12.167ZM42.6875 12.8232L48.6548 13.4488L48.7299 12.7322L48.6332 12.0181L42.6875 12.8232ZM42.5986 13.6709L36.6313 13.0453L36.1325 17.8031L40.6598 19.349L42.5986 13.6709ZM42.8789 13.7666L40.94 19.4447L42.6292 20.0215L44.359 19.5812L42.8789 13.7666ZM43.6309 13.5752L45.5282 7.8831L43.8575 7.32618L42.1508 7.76061L43.6309 13.5752ZM44.1982 14.0469H50.1982V12.5801L49.5215 11.2788L44.1982 14.0469ZM44.1982 14.7031L48.4409 18.9458L50.1982 17.1884V14.7031H44.1982ZM44.1025 14.7988L39.8599 10.5562L35.6173 14.7988L39.8599 19.0415L44.1025 14.7988ZM44.1982 14.8945H50.1982V12.4092L48.4409 10.6519L44.1982 14.8945ZM44.1982 15.2705L49.4077 18.2473L50.1982 16.8639V15.2705H44.1982ZM43.9521 15.7354L42.7591 21.6155L47.1951 22.5156L49.2787 18.4973L43.9521 15.7354ZM43.4805 15.6396L44.6735 9.75946L44.6654 9.7578L44.6572 9.75616L43.4805 15.6396ZM42.6943 15.4824L43.871 9.59894L36.6943 8.1636V15.4824H42.6943ZM42.6943 15.5781H36.6943V21.5781H42.6943V15.5781ZM42.8857 15.5781L47.1284 19.8208L57.371 9.57812H42.8857V15.5781ZM42.6943 15.7695V21.7695H45.1796L46.937 20.0122L42.6943 15.7695ZM40.5342 15.7695V9.76953H40.5008L40.4675 9.7699L40.5342 15.7695ZM38.6885 15.79L36.169 21.2354L37.3994 21.8047L38.7551 21.7897L38.6885 15.79ZM38.1689 15.2773L32.2131 14.551L32.0947 15.5217L32.2907 16.4797L38.1689 15.2773ZM37.9092 14.3545L34.5254 9.39969L23.154 17.1656L36.5842 20.2064L37.9092 14.3545ZM38.1895 14.1631L42.4321 9.92045L38.9141 6.4025L34.8057 9.20828L38.1895 14.1631ZM38.2852 14.2588L34.0425 18.5014L35.7999 20.2588H38.2852V14.2588ZM38.4766 14.2588V20.2588H43.7448L44.4262 15.0348L38.4766 14.2588ZM38.7568 13.7871V19.7871H38.867L38.9771 19.7831L38.7568 13.7871ZM40.4316 13.7256L40.6519 19.7215L42.8803 19.6397L44.5143 18.1223L40.4316 13.7256ZM40.5273 13.6367L44.6101 18.0335L49.1727 13.7968L44.77 9.39408L40.5273 13.6367ZM40.4316 13.541L34.4483 13.9875L34.614 16.2087L36.189 17.7837L40.4316 13.541ZM40.3975 13.083L34.3996 13.2435L34.4034 13.3867L34.4141 13.5295L40.3975 13.083ZM40.3428 11.0391L34.369 10.479L34.3353 10.8386L34.3449 11.1995L40.3428 11.0391ZM40.5273 9.07031L46.5011 9.63036L46.8312 6.10972L43.9111 4.11551L40.5273 9.07031ZM40.2471 8.87891L43.6308 3.9241L41.9136 2.75135L39.8389 2.8928L40.2471 8.87891ZM39.3447 8.94043L38.6662 14.9019L39.2084 14.9637L39.7529 14.9265L39.3447 8.94043ZM38.5039 8.84473L32.6808 10.2907L33.685 14.335L37.8254 14.8062L38.5039 8.84473ZM38.251 7.82617L32.2528 7.67746L32.2328 8.48663L32.4278 9.27219L38.251 7.82617ZM38.9072 7.25879L36.6378 12.813L38.4696 13.5615L40.3873 13.0734L38.9072 7.25879ZM39.2832 7.16309L40.7633 12.9777L42.3038 12.5855L43.448 11.4822L39.2832 7.16309ZM49.5439 17.2119L51.6257 22.8392L52.3738 22.5625L53.0235 22.0999L49.5439 17.2119ZM48.2246 17.3965L53.5028 14.5434L51.8594 11.5031L48.405 11.3992L48.2246 17.3965ZM47.1377 17.041L44.2238 11.7961L39.0346 14.679L41.8619 19.8987L47.1377 17.041ZM47.1992 17.0068L50.1131 22.2518L61.5222 15.9134L49.2831 11.3803L47.1992 17.0068ZM46.4883 16.5146L40.5025 16.9275L40.5931 18.2414L41.2257 19.3965L46.4883 16.5146ZM46.4746 16.3164L52.4604 15.9036L52.315 13.7951L50.8802 12.2433L46.4746 16.3164ZM45.8047 15.5918L39.8074 15.7735L39.8754 18.0169L41.3991 19.6649L45.8047 15.5918ZM45.7842 14.915L51.7814 14.7333L51.6956 11.9003L49.4529 10.1673L45.7842 14.915ZM45.6338 14.7988L39.7846 16.1358L40.2637 18.2318L41.9651 19.5465L45.6338 14.7988ZM45.5791 14.5596L51.4283 13.2226L50.97 11.218L49.3785 9.91583L45.5791 14.5596ZM45.4287 14.4365L39.9493 11.9919L38.0818 16.1778L41.6293 19.0803L45.4287 14.4365ZM45.3125 13.4111L41.9843 8.41883L37.4312 11.4542L40.0357 16.2668L45.3125 13.4111ZM45.374 13.3701L48.7022 18.3624L61.7689 9.65132L46.2226 7.43042L45.374 13.3701ZM45.2783 13.3564L39.5455 15.1269L40.667 18.7586L44.4298 19.2961L45.2783 13.3564ZM45.251 12.8301L48.0583 18.1328L64.628 9.36059L46.044 6.88271L45.251 12.8301ZM45.1484 12.8164L39.2182 13.7287L39.9015 18.1699L44.3555 18.7638L45.1484 12.8164ZM45.0801 12.3721L51.0103 11.4597L49.8167 3.70102L42.6432 6.8892L45.0801 12.3721ZM45.0186 12.3994L39.4801 10.0917L33.6837 24.003L47.4554 17.8823L45.0186 12.3994ZM45.0527 12.3174L50.5912 14.6251L51.6843 12.0016L50.3469 9.49385L45.0527 12.3174ZM44.998 12.2148L50.2922 9.39131L47.432 4.02853L42.1065 6.95755L44.998 12.2148ZM44.8613 12.29L39.9789 15.7775L43.0792 20.1178L47.7528 17.5473L44.8613 12.29ZM44.8271 12.2422L39.0329 10.6846L38.2968 13.4225L39.9447 15.7296L44.8271 12.2422ZM44.752 11.1143L39.7312 7.82909L37.8436 10.714L39.3854 13.7975L44.752 11.1143ZM45.1895 9.98633L39.6665 7.64169L39.3466 8.39539L39.2402 9.20727L45.1895 9.98633ZM45.4971 9.26172L40.7216 5.62929L40.2673 6.22645L39.9741 6.91708L45.4971 9.26172ZM46.4746 7.97656L44.2915 2.38782L42.7203 3.00157L41.6991 4.34413L46.4746 7.97656ZM46.9121 7.80566L49.0952 13.3944L49.8574 13.0967L50.5121 12.6057L46.9121 7.80566ZM47.541 7.33398L47.4278 1.33505L45.4909 1.3716L43.941 2.53398L47.541 7.33398ZM48.6484 6.91699L49.0162 0.928271L47.2794 0.821629L45.7551 1.66072L48.6484 6.91699ZM50.207 7.0127L49.8393 13.0014L50.4781 13.0406L51.1109 12.9442L50.207 7.0127ZM51.5811 7.41602L57.4689 8.5705L58.1777 4.95569L55.2749 2.68787L51.5811 7.41602ZM51.6699 8.38672L54.5838 13.6317L58.6178 11.3905L57.487 6.91647L51.6699 8.38672ZM51.5195 9.2207L54.4719 14.4441L57.6853 12.6278L57.513 8.94063L51.5195 9.2207ZM51.499 9.98633L56.9279 12.5411L57.7734 10.7445L57.3802 8.79821L51.499 9.98633ZM51.4238 10.5059L46.1005 13.274L47.5538 16.0688L50.6796 16.4595L51.4238 10.5059ZM51.5332 10.5195L57.0481 8.15602L55.6924 4.99274L52.2774 4.56586L51.5332 10.5195ZM51.5537 10.5674L57.0015 13.0817L58.1202 10.6577L57.0686 8.20387L51.5537 10.5674ZM51.5127 10.6562L46.0649 8.1419L44.3403 11.8786L47.2053 14.8331L51.5127 10.6562ZM51.7314 10.8818L57.0256 8.05831L56.6276 7.31209L56.0388 6.70496L51.7314 10.8818ZM51.752 11.415L45.9606 9.84655L45.2544 12.4542L46.7386 14.7115L51.752 11.415ZM52.1758 11.8662L58.0167 10.4938L56.2807 3.10556L49.4925 6.49965L52.1758 11.8662ZM52.3398 13.2812L47.6356 9.55703L46.2571 11.2982L46.3445 13.5173L52.3398 13.2812ZM52.374 14.1494L55.3112 19.3813L58.5139 17.5833L58.3694 13.9134L52.374 14.1494ZM52.1279 14.833L57.1841 18.0633L58.6814 15.7198L57.8608 13.0626L52.1279 14.833ZM51.6562 15.5713L55.578 20.1122L56.2409 19.5397L56.7124 18.8016L51.6562 15.5713ZM50.7539 16.3506L54.2335 21.2386L54.4627 21.0754L54.6756 20.8915L50.7539 16.3506ZM50.1113 13.0146L55.9948 11.838L55.2351 8.03937L51.4605 7.1683L50.1113 13.0146ZM50.0225 12.9941L44.4614 15.2467L45.6328 18.1388L48.6733 18.8405L50.0225 12.9941ZM49.8037 12.4541L55.3648 10.2015L55.0518 9.42866L54.5398 8.77046L49.8037 12.4541ZM49.5166 12.085L43.8245 13.9823L44.1495 14.9573L44.7805 15.7686L49.5166 12.085ZM49.3389 10.458L52.2527 15.703L53.4316 15.048L54.2168 13.9517L49.3389 10.458ZM49.5713 9.7334L44.2741 12.5511L44.3402 12.6755L44.4122 12.7966L49.5713 9.7334ZM49.5645 9.27539L50.413 3.33569L47.7725 2.95848L45.7233 4.66606L49.5645 9.27539ZM49.6602 9.28906L48.8116 15.2288L53.7688 15.9369L55.3523 11.1864L49.6602 9.28906ZM49.6875 9.20703L55.3796 11.1044L56.2523 8.4864L54.8325 6.12006L49.6875 9.20703ZM48.8877 9.05664L49.002 3.05773L47.3864 3.02696L45.9738 3.8117L48.8877 9.05664ZM48.7031 9.15918L45.7893 3.91424L43.885 4.97214L43.1031 7.00531L48.7031 9.15918ZM48.6689 9.24805L47.3198 15.0944L52.3981 16.2663L54.269 11.4019L48.6689 9.24805ZM48.5801 9.22754L49.9292 3.38119L47.6822 2.86263L45.6662 3.9826L48.5801 9.22754ZM48.0879 9.50098L45.174 4.25603L44.0474 4.88195L43.2772 5.91534L48.0879 9.50098ZM47.4385 12.2354L41.471 12.8596L41.5341 13.4629L41.7168 14.0414L47.4385 12.2354ZM48.293 14.9424L42.5713 16.7485L42.759 17.3433L43.0651 17.8868L48.293 14.9424ZM49.5303 15.4482L50.1183 21.4194L51.3565 21.2974L52.4441 20.6932L49.5303 15.4482ZM49.7148 15.3457L52.6287 20.5906L54.9868 19.2806L55.572 16.6473L49.7148 15.3457ZM50.0088 14.8535L53.0216 20.0422L58.2103 17.0294L55.1975 11.8407L50.0088 14.8535ZM50.1182 14.1904L55.452 16.9382L56.9037 14.1201L55.3939 11.3327L50.1182 14.1904ZM50.1592 13.2539L56.0761 14.2488L56.2592 13.1599L56.0427 12.0772L50.1592 13.2539ZM11.0157 13.6508L11.8839 13.5209L10.1083 1.65295L9.24017 1.78284L11.0157 13.6508ZM11.8691 13.5231C11.592 13.5638 10.7316 13.655 9.65148 13.2484C8.38701 12.7725 7.37184 11.8181 6.80958 10.6534L17.6162 5.43643C16.8625 3.87527 15.5489 2.6463 13.8788 2.01768C12.393 1.45843 11.02 1.51886 10.1231 1.65076L11.8691 13.5231ZM10.1558 13.6813C9.9656 13.6118 9.38724 13.377 8.76858 12.7788C8.07051 12.1038 7.48364 11.1138 7.30792 9.90881L19.1823 8.17713C18.6561 4.56908 15.8193 2.97403 14.27 2.40857L10.1558 13.6813ZM7.3076 9.90661L7.36229 10.2826L19.2373 8.55531L19.1826 8.17933L7.3076 9.90661ZM14.1033 15.3649L14.3562 15.3307L12.7492 3.43881L12.4963 3.47299L14.1033 15.3649ZM7.56301 9.03372L7.34426 12.7661L19.3237 13.4682L19.5425 9.73581L7.56301 9.03372ZM9.84656 17.9996L9.99011 18.1021L16.965 8.33733L16.8214 8.23479L9.84656 17.9996ZM7.55096 14.1555L7.57147 14.2854L19.4246 12.4138L19.4041 12.284L7.55096 14.1555ZM7.51654 12.8789L7.35247 14.9639L19.3155 15.9052L19.4796 13.8203L7.51654 12.8789ZM9.85209 10.5482L8.71049 11.3617L15.6743 21.1344L16.8159 20.3209L9.85209 10.5482ZM8.25497 20.7754C9.04491 21.4624 9.89554 22.1605 10.6865 22.6677C10.9908 22.8628 11.7981 23.3731 12.8563 23.6548C13.3676 23.7909 14.5973 24.0599 16.0868 23.6621C17.9573 23.1625 19.469 21.8136 20.1832 20.0281L9.04144 15.5715C9.72829 13.8544 11.1908 12.5491 12.9905 12.0685C14.409 11.6896 15.546 11.9529 15.9428 12.0585C16.4324 12.1888 16.7724 12.3537 16.9015 12.4189C17.0557 12.4968 17.1483 12.5561 17.1641 12.5662C17.1909 12.5833 17.1155 12.5358 16.9088 12.3725C16.7147 12.2192 16.4575 12.0057 16.1298 11.7207L8.25497 20.7754ZM9.99493 13.9684L9.72833 14.2897L18.9631 21.9525L19.2297 21.6312L9.99493 13.9684ZM8.62421 16.3143L8.58319 16.4442L20.0262 20.0578L20.0672 19.9279L8.62421 16.3143ZM8.83316 15.7888L8.71011 16.0622L19.6532 20.9866L19.7762 20.7132L8.83316 15.7888ZM16.4979 12.9895L15.2401 12.4632L10.6076 23.5329L11.8654 24.0593L16.4979 12.9895ZM16.643 13.2898L15.016 12.0046L7.57773 21.4212L9.20468 22.7063L16.643 13.2898ZM10.3611 10.7863L8.15309 11.1349L10.0246 22.9881L12.2327 22.6395L10.3611 10.7863ZM10.0521 22.9837L11.1869 22.7991L9.26039 10.9548L8.12562 11.1393L10.0521 22.9837ZM10.6539 10.8924L9.608 10.8172L8.74747 22.7863L9.79337 22.8615L10.6539 10.8924ZM8.29387 10.8672C9.42807 10.6983 10.3106 10.9259 10.7545 11.0784C11.2123 11.2356 11.4988 11.4141 11.5838 11.469C11.7404 11.57 11.6634 11.5456 11.3117 11.1956L2.84646 19.7009C3.46551 20.317 4.22362 21.0013 5.07977 21.5535C5.67261 21.9358 7.56487 23.1082 10.0616 22.7363L8.29387 10.8672ZM13.0098 14.5386L12.8389 13.4244L0.977553 15.2436L1.14845 16.3579L13.0098 14.5386ZM12.4296 16.6822L13.1884 14.898L2.14558 10.2016L1.38679 11.9858L12.4296 16.6822ZM13.6666 12.6211C13.6787 11.6023 13.7531 11.2717 13.7351 11.3458C13.7309 11.3631 13.6147 11.8883 13.1781 12.5496C12.7049 13.2665 11.5201 14.5966 9.418 14.9093L7.65231 3.03992C5.27445 3.39365 3.84674 4.90343 3.16331 5.93877C2.51653 6.91857 2.22289 7.90088 2.07398 8.5141C1.7666 9.77992 1.68266 11.1958 1.66742 12.4785L13.6666 12.6211ZM13.1114 12.8551C13.3004 12.6322 13.3098 12.6563 13.1475 12.7845C13.0584 12.8548 12.8553 13.0061 12.5433 13.1663C12.2372 13.3235 11.7125 13.5478 11.0048 13.6524L9.25108 1.78121C7.53401 2.03487 6.31148 2.89226 5.71043 3.3669C5.01722 3.91434 4.43074 4.53771 3.9589 5.09416L13.1114 12.8551ZM5.75085 18.1442L5.88757 18.2536L13.3839 8.88315L13.2472 8.77377L5.75085 18.1442ZM3.67244 14.2309L3.68611 14.354L15.6127 13.0288L15.599 12.9058L3.67244 14.2309ZM3.6747 13.1411L3.62685 13.6606L15.5763 14.7612L15.6241 14.2417L3.6747 13.1411ZM4.19405 16.8107L4.36495 17.1662L15.18 11.9666L15.0091 11.6112L4.19405 16.8107ZM10.7493 20.4864L12.1164 20.2608L10.1629 8.42086L8.79567 8.64645L10.7493 20.4864ZM12.0823 20.2663C15.0887 19.788 16.4256 17.5125 16.8431 16.6015C17.2955 15.6144 17.4356 14.6799 17.4948 14.1682C17.6233 13.0559 17.5824 11.8081 17.5004 10.6594L5.53087 11.5144C5.59921 12.4712 5.57089 12.8184 5.57408 12.7908C5.57788 12.7579 5.59221 12.6426 5.63258 12.4702C5.67017 12.3097 5.75457 11.9939 5.93434 11.6016C6.22032 10.9777 7.39109 8.86173 10.197 8.41534L12.0823 20.2663ZM17.463 10.2939L17.3126 9.166L5.41787 10.752L5.56826 11.8799L17.463 10.2939ZM15.1333 5.2898L14.7437 4.97534L7.20747 14.3137L7.59712 14.6282L15.1333 5.2898ZM10.0533 3.71583C8.05007 4.02745 6.26421 5.17115 5.16187 6.96638C4.22426 8.49335 4.04446 10.0584 4.0203 11.0582L16.0168 11.348C16.0154 11.4045 16.0065 12.2381 15.3879 13.2455C15.0497 13.7964 14.5512 14.358 13.8696 14.8068C13.1912 15.2536 12.4964 15.4801 11.8978 15.5732L10.0533 3.71583ZM4.17161 9.85656L3.65208 12.1124L15.346 14.8056L15.8655 12.5497L4.17161 9.85656ZM27.8535 13.0195H27.9971V1.01953H27.8535V13.0195ZM23.3533 10.819L24.3992 12.0973L33.6867 4.49842L32.6408 3.2201L23.3533 10.819ZM23.043 8.29785V8.5918H35.043V8.29785H23.043ZM23.043 8.5918C23.043 6.28044 24.3371 4.87069 24.783 4.43839C25.3056 3.93179 25.7783 3.67869 25.8957 3.61641C26.1695 3.47113 26.2564 3.46912 25.9201 3.57378L29.4861 15.0317C30.0431 14.8584 30.7999 14.5989 31.5203 14.2166C31.861 14.0358 32.5012 13.6694 33.1354 13.0545C33.693 12.514 35.043 11.0011 35.043 8.5918H23.043ZM22.0486 7.29628L21.8982 7.7201L33.2073 11.733L33.3577 11.3092L22.0486 7.29628ZM28.3739 3.78302L27.3348 3.63946L25.6925 15.5266L26.7316 15.6701L28.3739 3.78302ZM20.5137 9.58301C20.5137 8.78145 20.6983 7.95597 21.0853 7.19101C21.4614 6.44751 21.9464 5.92134 22.3596 5.57459C23.1076 4.94696 23.7545 4.79002 23.7596 4.78865L26.8888 16.3735C27.6869 16.1579 28.9285 15.7275 30.073 14.7672C31.4065 13.6483 32.5137 11.8545 32.5137 9.58301H20.5137ZM19.3242 10.5811C19.3242 9.09603 19.908 8.05332 20.2382 7.57523C20.5717 7.09223 20.8804 6.83916 20.9359 6.79388L28.5231 16.0909C28.9751 15.722 29.5812 15.1636 30.1129 14.3935C30.6413 13.6283 31.3242 12.3167 31.3242 10.5811H19.3242ZM22.0317 16.8017C22.6348 17.1053 22.9555 17.2902 23.0821 17.3706C23.15 17.4137 23.0586 17.3617 22.8913 17.2218C22.8042 17.1489 22.6393 17.0046 22.4445 16.791C22.2672 16.5965 21.9324 16.2011 21.6287 15.614L32.2873 10.1009C31.687 8.94025 30.8523 8.23635 30.5923 8.0188C30.2052 7.69487 29.8181 7.43298 29.5146 7.24025C28.8983 6.84896 28.1731 6.45854 27.4272 6.08308L22.0317 16.8017ZM22.8152 8.51729L22.6648 8.66084L30.9505 17.3411L31.1009 17.1976L22.8152 8.51729ZM26.8076 19.001H27.1084V7.00098H26.8076V19.001ZM21.2594 14.3388L21.5534 15.6239L33.2513 12.9483L32.9574 11.6632L21.2594 14.3388ZM21.4023 14.2861V14.7168H33.4023V14.2861H21.4023ZM21.4023 14.7168C21.4023 14.0563 21.611 13.3343 22.0317 12.7299C22.2192 12.4605 22.4064 12.2761 22.5421 12.1623C22.675 12.0508 22.7621 12.0036 22.7663 12.0013L28.47 22.5592C30.9893 21.1982 33.4023 18.6032 33.4023 14.7168H21.4023ZM25.6182 11.2803H25.4746V23.2803H25.6182V11.2803ZM25.4746 11.2803C24.9204 11.2803 25.6144 11.1433 26.5337 11.8763C27.0356 12.2764 27.424 12.8014 27.6586 13.3625C27.8779 13.8871 27.8994 14.2878 27.8994 14.4297H15.8994C15.8994 16.7111 16.6823 19.369 19.0527 21.259C21.1637 22.9421 23.6453 23.2803 25.4746 23.2803V11.2803ZM27.7925 15.5571L28.0933 13.9848L16.3071 11.73L16.0063 13.3023L27.7925 15.5571ZM26.2362 8.41778L26.0858 8.28106L18.0138 17.1603L18.1642 17.2971L26.2362 8.41778ZM28.0498 12.7207C28.0498 12.7515 28.0468 12.7995 28.0354 12.8586C28.0241 12.9178 28.0073 12.9726 27.989 13.0183C27.9498 13.1156 27.9293 13.1088 28.0225 13.0041L19.0576 5.02717C17.1964 7.11886 16.0498 9.7394 16.0498 12.7207H28.0498ZM26.6301 14.1587C27.6523 13.5445 28.3585 13.1678 28.7994 12.9638C29.0197 12.8618 29.0835 12.8453 29.0255 12.8637C28.9918 12.8744 28.8834 12.9076 28.715 12.9403C28.5559 12.9713 28.2545 13.0195 27.8535 13.0195V1.01953C26.0657 1.01953 24.4603 1.74914 23.7597 2.07333C22.7628 2.53466 21.6426 3.15598 20.45 3.87254L26.6301 14.1587ZM18.1348 13.2881V14.4297H30.1348V13.2881H18.1348ZM19.9919 10.0896L19.8415 10.2331L28.1272 18.9134L28.2776 18.7698L19.9919 10.0896ZM18.386 16.7316C18.5473 17.15 18.8748 17.9241 19.481 18.6982C20.0117 19.3758 21.6321 21.1406 24.4287 21.1406V9.14062C27.075 9.14062 28.5461 10.8109 28.9287 11.2994C29.3868 11.8844 29.5672 12.3747 29.5827 12.4148L18.386 16.7316ZM24.4287 21.1406H24.8799V9.14062H24.4287V21.1406ZM29.0203 19.4831L29.3143 19.2028L21.0334 10.5179L20.7394 10.7982L29.0203 19.4831ZM25.1738 8.86035H25.0303V20.8604H25.1738V8.86035ZM29.2729 19.103L29.4165 18.9594L20.9312 10.4742L20.7876 10.6177L29.2729 19.103ZM31.1738 14.7168V14.0059H19.1738V14.7168H31.1738ZM30.2754 10.8477C29.3889 9.41563 27.4133 7.28809 24.1348 7.28809V19.2881C23.0376 19.2881 22.0456 18.9319 21.2817 18.4042C20.5867 17.9241 20.2205 17.4035 20.0722 17.164L30.2754 10.8477ZM36.079 12.5792L35.6005 12.2579L28.9113 22.2206L29.3898 22.5419L36.079 12.5792ZM34.9916 11.8993L33.6039 11.1883L28.1324 21.8683L29.5201 22.5793L34.9916 11.8993ZM35.2337 12.4122C35.8317 13.0465 36.4966 14.1182 36.6053 15.5669L24.6389 16.4644C24.7749 18.2777 25.6039 19.6912 26.5026 20.6444L35.2337 12.4122ZM36.0698 18.53L36.1108 18.4411L25.2153 13.4124L25.1743 13.5013L36.0698 18.53ZM35.5518 19.4053L36.0577 18.6944L26.2802 11.7373L25.7743 12.4482L35.5518 19.4053ZM37.1689 15.2158V14.8193H25.1689V15.2158H37.1689ZM36.2903 17.9453L36.9329 16.8926L26.6902 10.6406L26.0476 11.6933L36.2903 17.9453ZM37.4295 15.8733L37.45 15.8187L26.2141 11.6052L26.1935 11.6599L37.4295 15.8733ZM37.6529 12.2567C37.7389 12.6009 37.7783 12.8915 37.7982 13.092C37.8187 13.2989 37.8245 13.4727 37.8255 13.5998C37.8275 13.8463 37.8122 14.0347 37.803 14.1299C37.7849 14.3177 37.7622 14.4264 37.767 14.4013C37.7741 14.3644 37.8097 14.199 37.9015 13.8495L26.2958 10.7989C26.178 11.247 26.0643 11.7116 25.9825 12.1373C25.9429 12.3435 25.8909 12.6416 25.8585 12.9769C25.8473 13.0933 25.732 14.0503 26.0112 15.1671L37.6529 12.2567ZM38.0886 11.9777C38.1016 12.2017 38.0669 12.3981 38.0236 12.5313L26.6112 8.82224C26.2124 10.0492 26.0319 11.3439 26.1086 12.6707L38.0886 11.9777ZM29.3405 15.8862L29.3884 15.9136L35.3421 5.49464L35.2942 5.4673L29.3405 15.8862ZM38.2191 12.0201L38.4174 11.1383L26.7096 8.50627L26.5113 9.38811L38.2191 12.0201ZM34.1095 15.6197L34.212 15.5923L31.12 3.99751L31.0175 4.02486L34.1095 15.6197ZM38.1809 12.1584L38.2014 12.1106L27.1717 7.38355L27.1511 7.43141L38.1809 12.1584ZM38.3637 11.6885L38.8149 10.3692L27.4605 6.4863L27.0093 7.80564L38.3637 11.6885ZM39.0668 9.34722L39.2651 8.0689L27.4068 6.22992L27.2086 7.50824L39.0668 9.34722ZM33.8249 13.1295C33.9126 13.1223 33.7526 13.1491 33.4477 13.0506L37.1343 1.63099C35.6718 1.15884 34.2085 1.05805 32.847 1.16937L33.8249 13.1295ZM32.9275 12.8557L32.9754 12.8762L37.7024 1.84646L37.6545 1.82595L32.9275 12.8557ZM32.8389 12.8157C32.1007 12.4774 31.3449 11.9411 30.7203 11.1603C30.0996 10.3845 29.7567 9.55274 29.5895 8.81446C29.2849 7.46899 29.5531 6.4205 29.6518 6.07531L41.19 9.37196C41.3434 8.83536 41.6253 7.63078 41.2933 6.16455C40.8808 4.34291 39.6504 2.73726 37.8388 1.90694L32.8389 12.8157ZM34.3976 13.6357L34.7531 13.6973L36.7996 1.87305L36.4441 1.81153L34.3976 13.6357ZM30.1264 5.76581C29.6739 7.03179 29.3075 8.12039 29.0603 8.97287C28.941 9.38405 28.8112 9.86955 28.7214 10.3526C28.6778 10.587 28.6172 10.9581 28.5952 11.3937C28.5834 11.6275 28.5127 12.7625 29.0225 14.0491L40.1787 9.62868C40.3254 9.99893 40.412 10.3275 40.4652 10.581C40.519 10.8375 40.5475 11.0603 40.5635 11.2345C40.5944 11.5728 40.5879 11.8418 40.5799 11.9989C40.5645 12.3047 40.5257 12.5114 40.5191 12.5467C40.5033 12.6315 40.5085 12.5801 40.5853 12.3157C40.7299 11.8169 40.9993 10.9995 41.4263 9.8045L30.1264 5.76581ZM31.356 6.7918L31.2603 6.85332L37.7494 16.9475L37.8451 16.8859L31.356 6.7918ZM28.56 11.0889C28.4694 11.7526 28.3817 12.2494 28.3043 12.6042C28.2209 12.9868 28.1772 13.0744 28.2146 12.9814L39.346 17.4639C39.9142 16.0527 40.2304 14.3191 40.4498 12.7119L28.56 11.0889ZM28.2033 13.0096C28.2156 12.9785 28.1837 13.0589 28.0606 13.322C27.9498 13.5586 27.7969 13.8762 27.5967 14.283L38.3642 19.5803C38.7639 18.7679 39.1401 17.9828 39.3572 17.4357L28.2033 13.0096ZM27.8553 13.812L27.6639 14.1264L37.9143 20.3658L38.1057 20.0513L27.8553 13.812ZM26.9682 18.7013L27.0161 18.8927L38.6578 15.9823L38.6099 15.7909L26.9682 18.7013ZM30.1536 12.0709L30.0853 12.1051L35.4518 22.8382L35.5202 22.8041L30.1536 12.0709ZM27.1685 15.3178L27.1343 15.4067L38.3344 19.7144L38.3686 19.6256L27.1685 15.3178ZM38.1657 12.834L38.7468 12.9639L41.3645 1.2529L40.7835 1.12302L38.1657 12.834ZM39.8843 13.106L40.6021 13.1265L40.9448 1.13135L40.227 1.11085L39.8843 13.106ZM41.7019 13.0566L42.2693 12.9678L40.4124 1.11231L39.845 1.20117L41.7019 13.0566ZM40.5162 12.9831L41.9449 13.1813L43.5942 1.29522L42.1655 1.09698L40.5162 12.9831ZM37.7772 10.5665L37.9686 10.8536L47.9532 4.19719L47.7618 3.91008L37.7772 10.5665ZM36.9834 7.00693L36.8672 8.34677L48.8223 9.3837L48.9385 8.04385L36.9834 7.00693ZM36.8534 8.54327L36.6961 11.4691L48.6789 12.113L48.8361 9.1872L36.8534 8.54327ZM42.6875 17.791H42.7832V5.79102H42.6875V17.791ZM37.3972 9.14698L37.2126 9.52295L47.9846 14.811L48.1692 14.4351L37.3972 9.14698ZM36.6529 12.9721L36.7418 13.6284L48.6332 12.0181L48.5444 11.3618L36.6529 12.9721ZM36.7202 12.1976L36.6313 13.0453L48.5659 14.2965L48.6548 13.4488L36.7202 12.1976ZM40.6598 19.349L40.94 19.4447L44.8178 8.0885L44.5375 7.9928L40.6598 19.349ZM44.359 19.5812L45.1109 19.3898L42.1508 7.76061L41.3988 7.95202L44.359 19.5812ZM41.7335 19.2673C41.2359 19.1014 40.6722 18.8211 40.1319 18.3719C39.5857 17.9178 39.1673 17.3772 38.8749 16.815L49.5215 11.2788C48.6333 9.57066 47.1585 8.42653 45.5282 7.8831L41.7335 19.2673ZM38.1982 14.0469V14.7031H50.1982V14.0469H38.1982ZM39.9556 10.4605L39.8599 10.5562L48.3452 19.0415L48.4409 18.9458L39.9556 10.4605ZM39.8599 19.0415L39.9556 19.1372L48.4409 10.6519L48.3452 10.5562L39.8599 19.0415ZM38.1982 14.8945V15.2705H50.1982V14.8945H38.1982ZM38.9888 12.2937C38.8785 12.4867 38.7345 12.7635 38.6256 12.9734L49.2787 18.4973C49.3386 18.3818 49.3823 18.2982 49.4121 18.2419C49.427 18.2138 49.4352 18.1985 49.4381 18.1931C49.4438 18.1826 49.4312 18.2061 49.4077 18.2473L38.9888 12.2937ZM45.1452 9.85517L44.6735 9.75946L42.2874 21.5198L42.7591 21.6155L45.1452 9.85517ZM44.6572 9.75616L43.871 9.59894L41.5176 21.3659L42.3038 21.5231L44.6572 9.75616ZM36.6943 15.4824V15.5781H48.6943V15.4824H36.6943ZM42.6943 21.5781H42.8857V9.57812H42.6943V21.5781ZM38.6431 11.3355L38.4517 11.5269L46.937 20.0122L47.1284 19.8208L38.6431 11.3355ZM40.4675 9.7699L38.6218 9.79041L38.7551 21.7897L40.6008 21.7692L40.4675 9.7699ZM41.208 10.3447C41.5189 10.4885 43.5135 11.4657 44.0472 14.075L32.2907 16.4797C32.9064 19.4901 35.2474 20.809 36.169 21.2354L41.208 10.3447ZM44.1248 16.0037C44.1927 15.4469 44.295 14.2941 43.9308 13.0005C43.4931 11.4455 42.1412 9.16083 39.2341 8.50261L36.5842 20.2064C35.4581 19.9514 34.4131 19.3529 33.6141 18.4706C32.8715 17.6507 32.535 16.8035 32.3797 16.2519C32.2248 15.7015 32.1973 15.2611 32.1925 15.0303C32.1873 14.7843 32.2053 14.6146 32.2131 14.551L44.1248 16.0037ZM41.2929 19.3093L41.5732 19.1179L34.8057 9.20828L34.5254 9.39969L41.2929 19.3093ZM33.9468 18.4057L34.0425 18.5014L42.5278 10.0161L42.4321 9.92045L33.9468 18.4057ZM38.2852 20.2588H38.4766V8.25879H38.2852V20.2588ZM44.4262 15.0348C44.4074 15.1791 44.305 16.0115 43.7355 16.97C43.4188 17.503 42.8643 18.2315 41.9524 18.8308C40.9843 19.467 39.8681 19.7871 38.7568 19.7871V7.78711C36.0112 7.78711 34.2294 9.47678 33.4193 10.8401C32.7563 11.9558 32.5868 13.0241 32.527 13.4828L44.4262 15.0348ZM38.9771 19.7831L40.6519 19.7215L40.2114 7.72963L38.5366 7.79115L38.9771 19.7831ZM44.5143 18.1223L44.6101 18.0335L36.4446 9.23996L36.3489 9.32882L44.5143 18.1223ZM44.77 9.39408L44.6743 9.29837L36.189 17.7837L36.2847 17.8794L44.77 9.39408ZM46.415 13.0945L46.3808 12.6365L34.4141 13.5295L34.4483 13.9875L46.415 13.0945ZM46.3953 12.9225L46.3406 10.8786L34.3449 11.1995L34.3996 13.2435L46.3953 12.9225ZM46.3166 11.5991L46.5011 9.63036L34.5535 8.51027L34.369 10.479L46.3166 11.5991ZM43.9111 4.11551L43.6308 3.9241L36.8633 13.8337L37.1436 14.0251L43.9111 4.11551ZM39.8389 2.8928L38.9366 2.95433L39.7529 14.9265L40.6552 14.865L39.8389 2.8928ZM40.0233 2.97892L39.1825 2.88322L37.8254 14.8062L38.6662 14.9019L40.0233 2.97892ZM44.3271 7.39871L44.0741 6.38016L32.4278 9.27219L32.6808 10.2907L44.3271 7.39871ZM44.2491 7.97489C44.244 8.18173 44.2169 8.6638 44.0244 9.2772C43.8304 9.89508 43.3799 10.9187 42.3495 11.8096C39.885 13.9403 37.1904 13.0388 36.6378 12.813L41.1767 1.70456C40.2002 1.30556 37.1843 0.412102 34.5011 2.73194C32.3481 4.59343 32.2673 7.09373 32.2528 7.67746L44.2491 7.97489ZM40.3873 13.0734L40.7633 12.9777L37.8031 1.3485L37.4272 1.44421L40.3873 13.0734ZM43.448 11.4822L43.6394 11.2976L35.3098 2.65945L35.1184 2.84402L43.448 11.4822ZM47.4622 11.5846C47.1818 11.6884 47.3597 11.5951 47.7915 11.5347C47.9804 11.5083 48.6579 11.4194 49.5447 11.5983C50.4732 11.7855 52.3718 12.4509 53.5028 14.5434L42.9464 20.2496C44.123 22.4264 46.1108 23.1473 47.1719 23.3613C48.1915 23.567 49.0453 23.4761 49.4541 23.4189C50.3256 23.297 51.1177 23.0271 51.6257 22.8392L47.4622 11.5846ZM48.405 11.3992C48.4239 11.3998 48.5129 11.4029 48.6545 11.4229C48.7896 11.442 49.0413 11.4858 49.3633 11.5912C49.8865 11.7623 51.4352 12.3774 52.4134 14.1833L41.8619 19.8987C42.9587 21.9234 44.7478 22.7071 45.6332 22.9967C46.5824 23.3071 47.4638 23.3763 48.0442 23.3938L48.405 11.3992ZM50.0516 22.286L50.1131 22.2518L44.2854 11.7619L44.2238 11.7961L50.0516 22.286ZM49.2831 11.3803C49.4109 11.4277 49.7461 11.5617 50.1599 11.8481C50.5723 12.1336 51.2353 12.6912 51.7509 13.6328L41.2257 19.3965C42.3993 21.5396 44.3654 22.3556 45.1153 22.6333L49.2831 11.3803ZM52.4741 16.1018L52.4604 15.9036L40.4888 16.7292L40.5025 16.9275L52.4741 16.1018ZM50.8802 12.2433L50.2103 11.5187L41.3991 19.6649L42.069 20.3895L50.8802 12.2433ZM51.8019 15.4101L51.7814 14.7333L39.7869 15.0968L39.8074 15.7735L51.8019 15.4101ZM49.4529 10.1673L49.3025 10.0511L41.9651 19.5465L42.1155 19.6627L49.4529 10.1673ZM51.4829 13.4619L51.4283 13.2226L39.73 15.8965L39.7846 16.1358L51.4829 13.4619ZM49.3785 9.91583L49.2281 9.79278L41.6293 19.0803L41.7797 19.2033L49.3785 9.91583ZM50.9081 16.8812C52.0502 14.3212 51.3456 11.9528 50.5893 10.5554L40.0357 16.2668C39.8728 15.9659 39.6247 15.4079 39.5369 14.6337C39.4433 13.807 39.5522 12.8819 39.9493 11.9919L50.9081 16.8812ZM48.6407 18.4034L48.7022 18.3624L42.0458 8.37782L41.9843 8.41883L48.6407 18.4034ZM46.2226 7.43042L46.1268 7.41675L44.4298 19.2961L44.5255 19.3098L46.2226 7.43042ZM51.0112 11.586C51.024 11.6274 51.0549 11.7314 51.0876 11.8827C51.117 12.019 51.172 12.3026 51.1916 12.6812C51.2084 13.0045 51.223 13.7669 50.9306 14.6928C50.6103 15.7072 49.8078 17.2066 48.0583 18.1328L42.4437 7.52735C40.6554 8.47405 39.825 10.0108 39.4876 11.0793C39.1781 12.0593 39.1864 12.8927 39.2078 13.3037C39.2512 14.1401 39.4523 14.8252 39.5455 15.1269L51.0112 11.586ZM46.044 6.88271L45.9414 6.86904L44.3555 18.7638L44.458 18.7774L46.044 6.88271ZM51.0787 11.9041L51.0103 11.4597L39.1498 13.2844L39.2182 13.7287L51.0787 11.9041ZM42.6432 6.8892L42.5817 6.91654L47.4554 17.8823L47.5169 17.8549L42.6432 6.8892ZM50.557 14.7071L50.5912 14.6251L39.5143 10.0097L39.4801 10.0917L50.557 14.7071ZM50.3469 9.49385L50.2922 9.39131L39.7039 15.0384L39.7586 15.1409L50.3469 9.49385ZM42.1065 6.95755L41.9698 7.03274L47.7528 17.5473L47.8896 17.4721L42.1065 6.95755ZM49.7437 8.80261L49.7095 8.75476L39.9447 15.7296L39.9789 15.7775L49.7437 8.80261ZM50.6214 13.7998C51.0379 12.2507 51.0635 10.321 50.1185 8.43098L39.3854 13.7975C38.7685 12.5638 38.8443 11.386 39.0329 10.6846L50.6214 13.7998ZM49.7727 14.3994C50.4376 13.3832 50.9557 12.1623 51.1387 10.7654L39.2402 9.20727C39.3229 8.57594 39.5494 8.10701 39.7312 7.82909L49.7727 14.3994ZM50.7124 12.331L51.02 11.6064L39.9741 6.91708L39.6665 7.64169L50.7124 12.331ZM50.2726 12.8942L51.2501 11.609L41.6991 4.34413L40.7216 5.62929L50.2726 12.8942ZM48.6577 13.5653L49.0952 13.3944L44.729 2.21692L44.2915 2.38782L48.6577 13.5653ZM50.5121 12.6057L51.141 12.134L43.941 2.53398L43.3121 3.00566L50.5121 12.6057ZM47.6542 13.3329C49.5204 13.2977 51.0498 12.4441 51.5418 12.1733L45.7551 1.66072C45.659 1.7136 45.7135 1.67567 45.8847 1.6112C45.9758 1.57687 46.1434 1.51857 46.3731 1.46457C46.5947 1.41247 46.96 1.34388 47.4278 1.33505L47.6542 13.3329ZM48.2807 12.9057L49.8393 13.0014L50.5748 1.02397L49.0162 0.928271L48.2807 12.9057ZM51.1109 12.9442C50.4958 13.038 49.8441 12.9993 49.2195 12.8159C48.6132 12.638 48.1695 12.3647 47.8872 12.1442L55.2749 2.68787C53.7454 1.49293 51.6601 0.722016 49.3032 1.08117L51.1109 12.9442ZM45.6932 6.26153C45.3903 7.80632 45.6786 9.16755 45.8528 9.85697L57.487 6.91647C57.4887 6.92337 57.5231 7.05676 57.5441 7.286C57.5635 7.49752 57.5882 7.96226 57.4689 8.5705L45.6932 6.26153ZM48.7561 3.14178C46.1097 4.61199 45.6925 7.26423 45.6353 7.58169C45.4929 8.37126 45.5065 9.08162 45.5261 9.50077L57.513 8.94063C57.513 8.94119 57.5161 9.00204 57.5123 9.10844C57.5088 9.20498 57.4972 9.42095 57.4448 9.71128C57.3979 9.97118 57.2796 10.5172 56.9579 11.1606C56.6361 11.8041 55.9393 12.8786 54.5838 13.6317L48.7561 3.14178ZM48.5672 3.99733C46.8703 4.95646 46.1166 6.417 45.8051 7.29425C45.4998 8.15419 45.4486 8.89914 45.4379 9.29589C45.4164 10.1002 45.5419 10.7984 45.6178 11.1744L57.3802 8.79821C57.3806 8.80021 57.3936 8.8635 57.4068 8.97361C57.4184 9.07127 57.4421 9.30166 57.4336 9.6172C57.4264 9.88634 57.3909 10.5282 57.1134 11.3095C56.8299 12.1081 56.1164 13.5146 54.4719 14.4441L48.5672 3.99733ZM46.0701 7.43155C45.8852 7.82449 44.6181 10.4232 46.1005 13.274L56.7471 7.73774C57.4741 9.13573 57.4398 10.4351 57.3363 11.15C57.2342 11.8554 57.0193 12.347 56.9279 12.5411L46.0701 7.43155ZM50.6796 16.4595L50.789 16.4732L52.2774 4.56586L52.168 4.55219L50.6796 16.4595ZM46.0183 12.883L46.0388 12.9309L57.0686 8.20387L57.0481 8.15602L46.0183 12.883ZM46.106 8.05303L46.0649 8.1419L56.9605 13.1706L57.0015 13.0817L46.106 8.05303ZM47.2053 14.8331L47.424 15.0587L56.0388 6.70496L55.8201 6.47937L47.2053 14.8331ZM46.4373 13.7054C45.5193 11.984 45.8033 10.4274 45.9606 9.84655L57.5433 12.9835C57.8191 11.9652 58.0895 10.0531 57.0256 8.05831L46.4373 13.7054ZM46.7386 14.7115C46.8975 14.9531 47.215 15.4235 47.6489 15.8854C47.8351 16.0836 48.3369 16.6034 49.1117 17.0511C49.713 17.3985 52.0967 18.6139 54.8591 17.2328L49.4925 6.49965C52.2229 5.13442 54.5651 6.34301 55.1151 6.66077C55.8387 7.07885 56.2795 7.54624 56.3951 7.66929C56.6877 7.98077 56.8252 8.2097 56.7653 8.1186L46.7386 14.7115ZM46.3349 13.2387C46.4148 13.5787 46.416 13.6428 46.4037 13.5365C46.3993 13.4989 46.3647 13.2145 46.3873 12.8024C46.3989 12.5923 46.432 12.2075 46.5537 11.733C46.6645 11.3007 46.9365 10.4401 47.6356 9.55703L57.0441 17.0055C58.312 15.404 58.3574 13.6768 58.3693 13.4602C58.3999 12.9028 58.3555 12.4278 58.3238 12.1544C58.2568 11.5764 58.1328 10.9877 58.0167 10.4938L46.3349 13.2387ZM46.3445 13.5173L46.3787 14.3855L58.3694 13.9134L58.3352 13.0452L46.3445 13.5173ZM49.4368 8.91751C48.3498 9.52776 47.1075 10.6332 46.4724 12.3974C45.8622 14.0922 46.0924 15.6234 46.3951 16.6034L57.8608 13.0626C58.0677 13.7327 58.2911 14.995 57.763 16.462C57.2099 17.9983 56.1385 18.9169 55.3112 19.3813L49.4368 8.91751ZM47.0718 11.6027L46.6001 12.341L56.7124 18.8016L57.1841 18.0633L47.0718 11.6027ZM47.7345 11.0304L46.8322 11.8096L54.6756 20.8915L55.578 20.1122L47.7345 11.0304ZM47.2743 11.4626L46.0644 12.3239L53.0235 22.0999L54.2335 21.2386L47.2743 11.4626ZM51.4605 7.1683L51.3716 7.14779L48.6733 18.8405L48.7622 18.861L51.4605 7.1683ZM55.5836 10.7415L55.3648 10.2015L44.2426 14.7067L44.4614 15.2467L55.5836 10.7415ZM54.5398 8.77046L54.2527 8.40132L44.7805 15.7686L45.0676 16.1377L54.5398 8.77046ZM55.2087 10.1876C55.0864 9.82061 55.1532 9.92547 55.194 10.2986C55.2119 10.462 55.2767 11.0931 55.0917 11.9254C54.903 12.7749 54.2582 14.5888 52.2527 15.703L46.425 5.21306C44.317 6.38419 43.6027 8.30862 43.3775 9.3222C43.1561 10.3186 43.2175 11.1673 43.265 11.6018C43.365 12.5172 43.6233 13.3786 43.8245 13.9823L55.2087 10.1876ZM54.2168 13.9517C54.501 13.5548 54.98 12.8272 55.2914 11.8565C55.5926 10.9176 56.0103 8.82576 54.7304 6.67017L44.4122 12.7966C43.2189 10.7869 43.6411 8.88874 43.8648 8.19136C44.0987 7.46215 44.4182 7.02394 44.4609 6.96435L54.2168 13.9517ZM54.8685 6.91572C55.0227 7.20552 55.4644 8.09274 55.4835 9.36871C55.5071 10.9537 54.8546 12.6772 53.4056 13.8847L45.7233 4.66606C44.165 5.96471 43.4589 7.81012 43.4848 9.54779C43.5061 10.9764 44.006 12.0471 44.2741 12.5511L54.8685 6.91572ZM48.7159 15.2151L48.8116 15.2288L50.5087 3.34937L50.413 3.33569L48.7159 15.2151ZM55.3523 11.1864L55.3796 11.1044L43.9954 7.30966L43.9681 7.3917L55.3523 11.1864ZM54.8325 6.12006C53.8845 4.5402 52.527 3.87601 52.0219 3.6539C51.4013 3.38102 50.856 3.26095 50.5553 3.20441C49.9368 3.08811 49.3639 3.06462 49.002 3.05773L48.7734 15.0556C48.89 15.0578 48.6897 15.0639 48.3378 14.9977C48.1704 14.9663 47.7319 14.8764 47.1916 14.6388C46.7668 14.452 45.4631 13.8283 44.5425 12.294L54.8325 6.12006ZM45.9738 3.8117L45.7893 3.91424L51.617 14.4041L51.8016 14.3016L45.9738 3.8117ZM43.1031 7.00531L43.0689 7.09417L54.269 11.4019L54.3032 11.3131L43.1031 7.00531ZM50.0181 3.4017L49.9292 3.38119L47.2309 15.0739L47.3198 15.0944L50.0181 3.4017ZM45.6662 3.9826L45.174 4.25603L51.0017 14.7459L51.4939 14.4725L45.6662 3.9826ZM43.2772 5.91534C41.6583 8.08725 41.233 10.5836 41.471 12.8596L53.4059 11.6111C53.4077 11.628 53.425 11.8182 53.353 12.1213C53.2769 12.4416 53.1255 12.7823 52.8986 13.0866L43.2772 5.91534ZM41.7168 14.0414L42.5713 16.7485L54.0147 13.1363L53.1602 10.4293L41.7168 14.0414ZM43.0651 17.8868C43.825 19.2361 45.0128 20.3123 46.4992 20.92C47.8746 21.4823 49.1758 21.5122 50.1183 21.4194L48.9422 9.47713C49.2831 9.44355 50.0774 9.41873 51.0404 9.81244C52.1143 10.2515 52.9842 11.0452 53.5208 11.998L43.0651 17.8868ZM52.4441 20.6932L52.6287 20.5906L46.801 10.1008L46.6164 10.2033L52.4441 20.6932ZM55.572 16.6473C55.4585 17.1581 54.9586 18.9175 53.0216 20.0422L46.996 9.66478C44.7764 10.9536 44.0806 13.0412 43.8577 14.0441L55.572 16.6473ZM55.1975 11.8407C56.0768 13.355 56.0193 14.8021 55.8946 15.5583C55.7731 16.2947 55.5304 16.786 55.452 16.9382L44.7843 11.4427C44.551 11.8957 44.2125 12.6478 44.0546 13.6053C43.8934 14.5825 43.8587 16.2107 44.8201 17.8663L55.1975 11.8407ZM55.3939 11.3327C55.6829 11.8662 55.8319 12.3398 55.9116 12.6507C55.9942 12.9728 56.0328 13.2423 56.0526 13.4255C56.0909 13.7789 56.0825 14.0397 56.0782 14.1368C56.0696 14.3343 56.0505 14.4014 56.0761 14.2488L44.2422 12.259C44.1813 12.6214 44.1121 13.102 44.0897 13.6117C44.0786 13.8649 44.0726 14.2564 44.1222 14.7153C44.161 15.0743 44.2832 16.0157 44.8424 17.0481L55.3939 11.3327ZM56.0427 12.0772L55.9948 11.838L44.2278 14.1913L44.2757 14.4306L56.0427 12.0772ZM42.6943 9.76953H40.5342V21.7695H42.6943V9.76953Z" fill="black" mask="url(#path-1-outside-1_35_326)"/>
</g>
<defs>
<filter id="filter0_dd_35_326" x="0.718811" y="0.418823" width="68.9092" height="27.3158" filterUnits="userSpaceOnUse" color-interpolation-filters="sRGB">
<feFlood flood-opacity="0" result="BackgroundImageFix"/>
<feColorMatrix in="SourceAlpha" type="matrix" values="0 0 0 0 0 0 0 0 0 0 0 0 0 0 0 0 0 0 127 0" result="hardAlpha"/>
<feOffset dx="4"/>
<feComposite in2="hardAlpha" operator="out"/>
<feColorMatrix type="matrix" values="0 0 0 0 0.831373 0 0 0 0 0.639216 0 0 0 0 0.45098 0 0 0 1 0"/>
<feBlend mode="normal" in2="BackgroundImageFix" result="effect1_dropShadow_35_326"/>
<feColorMatrix in="SourceAlpha" type="matrix" values="0 0 0 0 0 0 0 0 0 0 0 0 0 0 0 0 0 0 127 0" result="hardAlpha"/>
<feOffset dx="5" dy="1"/>
<feComposite in2="hardAlpha" operator="out"/>
<feColorMatrix type="matrix" values="0 0 0 0 0.831373 0 0 0 0 0.639216 0 0 0 0 0.45098 0 0 0 1 0"/>
<feBlend mode="normal" in2="effect1_dropShadow_35_326" result="effect2_dropShadow_35_326"/>
<feBlend mode="normal" in="SourceGraphic" in2="effect2_dropShadow_35_326" result="shape"/>
</filter>
</defs>
</svg>
