<svg width="68" height="28" viewBox="0 0 68 28" fill="none" xmlns="http://www.w3.org/2000/svg">
<g filter="url(#filter0_dd_35_327)">
<mask id="path-1-outside-1_35_327" maskUnits="userSpaceOnUse" x="-0.271484" y="-0.0830078" width="64" height="27" fill="black">
<rect fill="white" x="-0.271484" y="-0.0830078" width="64" height="27"/>
<path d="M9.94824 7.7168L10.8164 7.58691C11.4362 7.49577 11.8418 7.64844 12.0332 8.04492C12.6576 8.27279 13.0016 8.60547 13.0654 9.04297L13.1201 9.41895L13.373 9.38477L13.1543 13.1172L13.2979 13.2197L13.3184 13.3496L13.1543 15.4346L12.0127 16.248C13.5166 17.556 14.3232 18.0732 14.4326 17.7998L14.166 18.1211L14.125 18.251L14.002 18.5244L12.7441 17.998L11.1172 16.7129L8.90918 17.0615L10.0439 16.877L8.99805 16.8018C8.56966 16.8656 7.87012 16.4144 6.89941 15.4482L6.72852 14.334L7.4873 12.5498C7.51465 10.2484 7.80404 9.05664 8.35547 8.97461C9.01628 8.19531 9.5472 7.77604 9.94824 7.7168ZM9.31934 13.459L9.45605 13.5684L9.46973 13.6914L9.42188 14.2109L9.59277 14.5664L10.96 14.3408C11.361 14.277 11.4863 13.1924 11.3359 11.0869L11.1855 9.95898L10.7959 9.64453C10.1807 9.74023 9.86165 10.2598 9.83887 11.2031L9.31934 13.459Z"/>
<path d="M22.5195 8.7832L22.8135 9.01562L23.8867 9.0498L23.8594 9.28223L24.7207 9.45312C24.9486 9.20247 25.5342 9.17741 26.4775 9.37793C26.5687 10.2074 26.4958 10.8636 26.2588 11.3467L26.4775 11.8252L26.4502 12.8027L26.4092 15.585L26.1973 15.7695L25.623 17.5469L25.2334 19.0645L24.9463 19.3652C24.9326 19.5703 24.3174 19.5703 23.1006 19.3652L22.3691 19.2354L22.4033 18.709C22.6494 18.3991 23.0026 17.041 23.4629 14.6348L23.668 12.0986L23.5859 11.9824C23.5996 11.9004 23.6589 11.529 23.7637 10.8682L22.7041 10.834L22.3486 10.8682L22.0479 10.6494L21.4941 10.5469V10.4854L21.6445 10.3623L21.5146 10.1367L21.8086 9.4873L21.6719 9.09766L21.9453 8.84473L22.2871 8.97461L22.5195 8.7832Z"/>
<path d="M30.9141 17.5605L30.4355 17.2393L29.0479 16.5283C28.8975 16.3688 28.8154 16.1979 28.8018 16.0156L28.8428 15.9268L29.3486 15.2158V14.8193L29.9912 13.7666L30.0117 13.7119C29.9798 13.5843 30.0687 13.1217 30.2783 12.3242C30.2464 11.7728 30.3193 11.2236 30.4971 10.6768L30.5449 10.7041L30.7432 9.82227L30.8457 9.79492L30.8662 9.74707L31.3174 8.42773L31.5156 7.14941C32.2402 7.09017 32.8919 7.15397 33.4707 7.34082L33.5186 7.36133C33.6279 7.41146 33.6553 7.53223 33.6006 7.72363L33.9561 7.78516C33.0765 10.2461 32.6846 11.5973 32.7803 11.8389L32.6846 11.9004C32.4749 13.4362 32.2334 14.5436 31.96 15.2227C31.846 15.5098 31.5794 16.0794 31.1602 16.9316L30.9688 17.2461L31.0166 17.4375L30.9482 17.4717L30.9141 17.5605Z"/>
<path d="M37.6543 6.97852L38.2354 7.1084L38.9531 7.12891L39.5205 7.04004L40.9492 7.23828L41.1406 7.52539L41.0244 8.86523L40.8672 11.791H40.9629L40.7783 12.167L40.8672 12.8232L40.7783 13.6709L41.0586 13.7666L41.8105 13.5752C42.0703 13.6618 42.2594 13.819 42.3779 14.0469V14.7031L42.2822 14.7988L42.3779 14.8945V15.2705C42.3415 15.3343 42.2594 15.4893 42.1318 15.7354L41.6602 15.6396L40.874 15.4824V15.5781H41.0654L40.874 15.7695H38.7139L36.8682 15.79C36.5628 15.6488 36.3896 15.4779 36.3486 15.2773C36.417 14.7168 36.3304 14.4092 36.0889 14.3545L36.3691 14.1631L36.4648 14.2588H36.6562C36.6973 13.9443 36.7907 13.7871 36.9365 13.7871L38.6113 13.7256L38.707 13.6367L38.6113 13.541L38.5771 13.083L38.5225 11.0391L38.707 9.07031L38.4268 8.87891L37.5244 8.94043L36.6836 8.84473L36.4307 7.82617C36.4443 7.27474 36.6631 7.08561 37.0869 7.25879L37.4629 7.16309L37.6543 6.97852Z"/>
<path d="M47.7236 17.2119C46.9352 17.5036 46.4954 17.5651 46.4043 17.3965C45.7982 17.3783 45.4359 17.2598 45.3174 17.041L45.3789 17.0068C45.0098 16.8701 44.7728 16.7061 44.668 16.5146L44.6543 16.3164L43.9844 15.5918L43.9639 14.915L43.8135 14.7988L43.7588 14.5596L43.6084 14.4365C43.7406 14.1403 43.7018 13.7985 43.4922 13.4111L43.5537 13.3701L43.458 13.3564C43.3623 13.0465 43.3532 12.8711 43.4307 12.8301L43.3281 12.8164L43.2598 12.3721L43.1982 12.3994L43.2324 12.3174L43.1777 12.2148L43.041 12.29L43.0068 12.2422C43.1208 11.8184 43.0957 11.4424 42.9316 11.1143C43.1732 10.7451 43.319 10.3691 43.3691 9.98633L43.6768 9.26172L44.6543 7.97656L45.0918 7.80566L45.7207 7.33398C45.9622 7.32943 46.3314 7.19043 46.8281 6.91699L48.3867 7.0127C48.8652 6.93978 49.3232 7.07422 49.7607 7.41602C49.7152 7.64844 49.7448 7.97201 49.8496 8.38672C49.7266 8.45508 49.6764 8.73307 49.6992 9.2207C49.5944 9.27995 49.5876 9.53516 49.6787 9.98633C49.5693 10.2188 49.5443 10.3919 49.6035 10.5059L49.7129 10.5195L49.7334 10.5674L49.6924 10.6562L49.9111 10.8818C49.984 11.0186 49.9909 11.1963 49.9316 11.415C50.1504 11.7477 50.2917 11.8981 50.3555 11.8662C50.5514 12.7002 50.6061 13.1719 50.5195 13.2812L50.5537 14.1494C50.2939 14.2952 50.2119 14.5231 50.3076 14.833L49.8359 15.5713L48.9336 16.3506L47.7236 17.2119ZM48.291 13.0146L48.2021 12.9941L47.9834 12.4541L47.6963 12.085C47.3727 11.1143 47.3135 10.5719 47.5186 10.458C47.7601 10.1208 47.8376 9.87923 47.751 9.7334C47.637 9.51921 47.6348 9.36654 47.7441 9.27539L47.8398 9.28906L47.8672 9.20703C47.8125 9.11589 47.5459 9.06576 47.0674 9.05664L46.8828 9.15918L46.8486 9.24805L46.7598 9.22754L46.2676 9.50098C45.7207 10.2347 45.5042 11.1462 45.6182 12.2354L46.4727 14.9424C46.696 15.3389 47.1084 15.5075 47.71 15.4482L47.8945 15.3457C47.9492 15.0996 48.0472 14.9355 48.1885 14.8535C48.1064 14.7122 48.1429 14.4912 48.2979 14.1904C48.2386 14.0811 48.2523 13.7689 48.3389 13.2539L48.291 13.0146Z"/>
</mask>
<path d="M9.94824 7.7168L10.8164 7.58691C11.4362 7.49577 11.8418 7.64844 12.0332 8.04492C12.6576 8.27279 13.0016 8.60547 13.0654 9.04297L13.1201 9.41895L13.373 9.38477L13.1543 13.1172L13.2979 13.2197L13.3184 13.3496L13.1543 15.4346L12.0127 16.248C13.5166 17.556 14.3232 18.0732 14.4326 17.7998L14.166 18.1211L14.125 18.251L14.002 18.5244L12.7441 17.998L11.1172 16.7129L8.90918 17.0615L10.0439 16.877L8.99805 16.8018C8.56966 16.8656 7.87012 16.4144 6.89941 15.4482L6.72852 14.334L7.4873 12.5498C7.51465 10.2484 7.80404 9.05664 8.35547 8.97461C9.01628 8.19531 9.5472 7.77604 9.94824 7.7168ZM9.31934 13.459L9.45605 13.5684L9.46973 13.6914L9.42188 14.2109L9.59277 14.5664L10.96 14.3408C11.361 14.277 11.4863 13.1924 11.3359 11.0869L11.1855 9.95898L10.7959 9.64453C10.1807 9.74023 9.86165 10.2598 9.83887 11.2031L9.31934 13.459Z" fill="#FAEDCD"/>
<path d="M22.5195 8.7832L22.8135 9.01562L23.8867 9.0498L23.8594 9.28223L24.7207 9.45312C24.9486 9.20247 25.5342 9.17741 26.4775 9.37793C26.5687 10.2074 26.4958 10.8636 26.2588 11.3467L26.4775 11.8252L26.4502 12.8027L26.4092 15.585L26.1973 15.7695L25.623 17.5469L25.2334 19.0645L24.9463 19.3652C24.9326 19.5703 24.3174 19.5703 23.1006 19.3652L22.3691 19.2354L22.4033 18.709C22.6494 18.3991 23.0026 17.041 23.4629 14.6348L23.668 12.0986L23.5859 11.9824C23.5996 11.9004 23.6589 11.529 23.7637 10.8682L22.7041 10.834L22.3486 10.8682L22.0479 10.6494L21.4941 10.5469V10.4854L21.6445 10.3623L21.5146 10.1367L21.8086 9.4873L21.6719 9.09766L21.9453 8.84473L22.2871 8.97461L22.5195 8.7832Z" fill="#FAEDCD"/>
<path d="M30.9141 17.5605L30.4355 17.2393L29.0479 16.5283C28.8975 16.3688 28.8154 16.1979 28.8018 16.0156L28.8428 15.9268L29.3486 15.2158V14.8193L29.9912 13.7666L30.0117 13.7119C29.9798 13.5843 30.0687 13.1217 30.2783 12.3242C30.2464 11.7728 30.3193 11.2236 30.4971 10.6768L30.5449 10.7041L30.7432 9.82227L30.8457 9.79492L30.8662 9.74707L31.3174 8.42773L31.5156 7.14941C32.2402 7.09017 32.8919 7.15397 33.4707 7.34082L33.5186 7.36133C33.6279 7.41146 33.6553 7.53223 33.6006 7.72363L33.9561 7.78516C33.0765 10.2461 32.6846 11.5973 32.7803 11.8389L32.6846 11.9004C32.4749 13.4362 32.2334 14.5436 31.96 15.2227C31.846 15.5098 31.5794 16.0794 31.1602 16.9316L30.9688 17.2461L31.0166 17.4375L30.9482 17.4717L30.9141 17.5605Z" fill="#FAEDCD"/>
<path d="M37.6543 6.97852L38.2354 7.1084L38.9531 7.12891L39.5205 7.04004L40.9492 7.23828L41.1406 7.52539L41.0244 8.86523L40.8672 11.791H40.9629L40.7783 12.167L40.8672 12.8232L40.7783 13.6709L41.0586 13.7666L41.8105 13.5752C42.0703 13.6618 42.2594 13.819 42.3779 14.0469V14.7031L42.2822 14.7988L42.3779 14.8945V15.2705C42.3415 15.3343 42.2594 15.4893 42.1318 15.7354L41.6602 15.6396L40.874 15.4824V15.5781H41.0654L40.874 15.7695H38.7139L36.8682 15.79C36.5628 15.6488 36.3896 15.4779 36.3486 15.2773C36.417 14.7168 36.3304 14.4092 36.0889 14.3545L36.3691 14.1631L36.4648 14.2588H36.6562C36.6973 13.9443 36.7907 13.7871 36.9365 13.7871L38.6113 13.7256L38.707 13.6367L38.6113 13.541L38.5771 13.083L38.5225 11.0391L38.707 9.07031L38.4268 8.87891L37.5244 8.94043L36.6836 8.84473L36.4307 7.82617C36.4443 7.27474 36.6631 7.08561 37.0869 7.25879L37.4629 7.16309L37.6543 6.97852Z" fill="#FAEDCD"/>
<path d="M47.7236 17.2119C46.9352 17.5036 46.4954 17.5651 46.4043 17.3965C45.7982 17.3783 45.4359 17.2598 45.3174 17.041L45.3789 17.0068C45.0098 16.8701 44.7728 16.7061 44.668 16.5146L44.6543 16.3164L43.9844 15.5918L43.9639 14.915L43.8135 14.7988L43.7588 14.5596L43.6084 14.4365C43.7406 14.1403 43.7018 13.7985 43.4922 13.4111L43.5537 13.3701L43.458 13.3564C43.3623 13.0465 43.3532 12.8711 43.4307 12.8301L43.3281 12.8164L43.2598 12.3721L43.1982 12.3994L43.2324 12.3174L43.1777 12.2148L43.041 12.29L43.0068 12.2422C43.1208 11.8184 43.0957 11.4424 42.9316 11.1143C43.1732 10.7451 43.319 10.3691 43.3691 9.98633L43.6768 9.26172L44.6543 7.97656L45.0918 7.80566L45.7207 7.33398C45.9622 7.32943 46.3314 7.19043 46.8281 6.91699L48.3867 7.0127C48.8652 6.93978 49.3232 7.07422 49.7607 7.41602C49.7152 7.64844 49.7448 7.97201 49.8496 8.38672C49.7266 8.45508 49.6764 8.73307 49.6992 9.2207C49.5944 9.27995 49.5876 9.53516 49.6787 9.98633C49.5693 10.2188 49.5443 10.3919 49.6035 10.5059L49.7129 10.5195L49.7334 10.5674L49.6924 10.6562L49.9111 10.8818C49.984 11.0186 49.9909 11.1963 49.9316 11.415C50.1504 11.7477 50.2917 11.8981 50.3555 11.8662C50.5514 12.7002 50.6061 13.1719 50.5195 13.2812L50.5537 14.1494C50.2939 14.2952 50.2119 14.5231 50.3076 14.833L49.8359 15.5713L48.9336 16.3506L47.7236 17.2119ZM48.291 13.0146L48.2021 12.9941L47.9834 12.4541L47.6963 12.085C47.3727 11.1143 47.3135 10.5719 47.5186 10.458C47.7601 10.1208 47.8376 9.87923 47.751 9.7334C47.637 9.51921 47.6348 9.36654 47.7441 9.27539L47.8398 9.28906L47.8672 9.20703C47.8125 9.11589 47.5459 9.06576 47.0674 9.05664L46.8828 9.15918L46.8486 9.24805L46.7598 9.22754L46.2676 9.50098C45.7207 10.2347 45.5042 11.1462 45.6182 12.2354L46.4727 14.9424C46.696 15.3389 47.1084 15.5075 47.71 15.4482L47.8945 15.3457C47.9492 15.0996 48.0472 14.9355 48.1885 14.8535C48.1064 14.7122 48.1429 14.4912 48.2979 14.1904C48.2386 14.0811 48.2523 13.7689 48.3389 13.2539L48.291 13.0146Z" fill="#FAEDCD"/>
<path d="M9.94824 7.7168L10.8164 7.58691C11.4362 7.49577 11.8418 7.64844 12.0332 8.04492C12.6576 8.27279 13.0016 8.60547 13.0654 9.04297L13.1201 9.41895L13.373 9.38477L13.1543 13.1172L13.2979 13.2197L13.3184 13.3496L13.1543 15.4346L12.0127 16.248C13.5166 17.556 14.3232 18.0732 14.4326 17.7998L14.166 18.1211L14.125 18.251L14.002 18.5244L12.7441 17.998L11.1172 16.7129L8.90918 17.0615L10.0439 16.877L8.99805 16.8018C8.56966 16.8656 7.87012 16.4144 6.89941 15.4482L6.72852 14.334L7.4873 12.5498C7.51465 10.2484 7.80404 9.05664 8.35547 8.97461C9.01628 8.19531 9.5472 7.77604 9.94824 7.7168ZM9.31934 13.459L9.45605 13.5684L9.46973 13.6914L9.42188 14.2109L9.59277 14.5664L10.96 14.3408C11.361 14.277 11.4863 13.1924 11.3359 11.0869L11.1855 9.95898L10.7959 9.64453C10.1807 9.74023 9.86165 10.2598 9.83887 11.2031L9.31934 13.459Z" stroke="black" stroke-width="12" mask="url(#path-1-outside-1_35_327)"/>
<path d="M22.5195 8.7832L22.8135 9.01562L23.8867 9.0498L23.8594 9.28223L24.7207 9.45312C24.9486 9.20247 25.5342 9.17741 26.4775 9.37793C26.5687 10.2074 26.4958 10.8636 26.2588 11.3467L26.4775 11.8252L26.4502 12.8027L26.4092 15.585L26.1973 15.7695L25.623 17.5469L25.2334 19.0645L24.9463 19.3652C24.9326 19.5703 24.3174 19.5703 23.1006 19.3652L22.3691 19.2354L22.4033 18.709C22.6494 18.3991 23.0026 17.041 23.4629 14.6348L23.668 12.0986L23.5859 11.9824C23.5996 11.9004 23.6589 11.529 23.7637 10.8682L22.7041 10.834L22.3486 10.8682L22.0479 10.6494L21.4941 10.5469V10.4854L21.6445 10.3623L21.5146 10.1367L21.8086 9.4873L21.6719 9.09766L21.9453 8.84473L22.2871 8.97461L22.5195 8.7832Z" stroke="black" stroke-width="12" mask="url(#path-1-outside-1_35_327)"/>
<path d="M30.9141 17.5605L30.4355 17.2393L29.0479 16.5283C28.8975 16.3688 28.8154 16.1979 28.8018 16.0156L28.8428 15.9268L29.3486 15.2158V14.8193L29.9912 13.7666L30.0117 13.7119C29.9798 13.5843 30.0687 13.1217 30.2783 12.3242C30.2464 11.7728 30.3193 11.2236 30.4971 10.6768L30.5449 10.7041L30.7432 9.82227L30.8457 9.79492L30.8662 9.74707L31.3174 8.42773L31.5156 7.14941C32.2402 7.09017 32.8919 7.15397 33.4707 7.34082L33.5186 7.36133C33.6279 7.41146 33.6553 7.53223 33.6006 7.72363L33.9561 7.78516C33.0765 10.2461 32.6846 11.5973 32.7803 11.8389L32.6846 11.9004C32.4749 13.4362 32.2334 14.5436 31.96 15.2227C31.846 15.5098 31.5794 16.0794 31.1602 16.9316L30.9688 17.2461L31.0166 17.4375L30.9482 17.4717L30.9141 17.5605Z" stroke="black" stroke-width="12" mask="url(#path-1-outside-1_35_327)"/>
<path d="M37.6543 6.97852L38.2354 7.1084L38.9531 7.12891L39.5205 7.04004L40.9492 7.23828L41.1406 7.52539L41.0244 8.86523L40.8672 11.791H40.9629L40.7783 12.167L40.8672 12.8232L40.7783 13.6709L41.0586 13.7666L41.8105 13.5752C42.0703 13.6618 42.2594 13.819 42.3779 14.0469V14.7031L42.2822 14.7988L42.3779 14.8945V15.2705C42.3415 15.3343 42.2594 15.4893 42.1318 15.7354L41.6602 15.6396L40.874 15.4824V15.5781H41.0654L40.874 15.7695H38.7139L36.8682 15.79C36.5628 15.6488 36.3896 15.4779 36.3486 15.2773C36.417 14.7168 36.3304 14.4092 36.0889 14.3545L36.3691 14.1631L36.4648 14.2588H36.6562C36.6973 13.9443 36.7907 13.7871 36.9365 13.7871L38.6113 13.7256L38.707 13.6367L38.6113 13.541L38.5771 13.083L38.5225 11.0391L38.707 9.07031L38.4268 8.87891L37.5244 8.94043L36.6836 8.84473L36.4307 7.82617C36.4443 7.27474 36.6631 7.08561 37.0869 7.25879L37.4629 7.16309L37.6543 6.97852Z" stroke="black" stroke-width="12" mask="url(#path-1-outside-1_35_327)"/>
<path d="M47.7236 17.2119C46.9352 17.5036 46.4954 17.5651 46.4043 17.3965C45.7982 17.3783 45.4359 17.2598 45.3174 17.041L45.3789 17.0068C45.0098 16.8701 44.7728 16.7061 44.668 16.5146L44.6543 16.3164L43.9844 15.5918L43.9639 14.915L43.8135 14.7988L43.7588 14.5596L43.6084 14.4365C43.7406 14.1403 43.7018 13.7985 43.4922 13.4111L43.5537 13.3701L43.458 13.3564C43.3623 13.0465 43.3532 12.8711 43.4307 12.8301L43.3281 12.8164L43.2598 12.3721L43.1982 12.3994L43.2324 12.3174L43.1777 12.2148L43.041 12.29L43.0068 12.2422C43.1208 11.8184 43.0957 11.4424 42.9316 11.1143C43.1732 10.7451 43.319 10.3691 43.3691 9.98633L43.6768 9.26172L44.6543 7.97656L45.0918 7.80566L45.7207 7.33398C45.9622 7.32943 46.3314 7.19043 46.8281 6.91699L48.3867 7.0127C48.8652 6.93978 49.3232 7.07422 49.7607 7.41602C49.7152 7.64844 49.7448 7.97201 49.8496 8.38672C49.7266 8.45508 49.6764 8.73307 49.6992 9.2207C49.5944 9.27995 49.5876 9.53516 49.6787 9.98633C49.5693 10.2188 49.5443 10.3919 49.6035 10.5059L49.7129 10.5195L49.7334 10.5674L49.6924 10.6562L49.9111 10.8818C49.984 11.0186 49.9909 11.1963 49.9316 11.415C50.1504 11.7477 50.2917 11.8981 50.3555 11.8662C50.5514 12.7002 50.6061 13.1719 50.5195 13.2812L50.5537 14.1494C50.2939 14.2952 50.2119 14.5231 50.3076 14.833L49.8359 15.5713L48.9336 16.3506L47.7236 17.2119ZM48.291 13.0146L48.2021 12.9941L47.9834 12.4541L47.6963 12.085C47.3727 11.1143 47.3135 10.5719 47.5186 10.458C47.7601 10.1208 47.8376 9.87923 47.751 9.7334C47.637 9.51921 47.6348 9.36654 47.7441 9.27539L47.8398 9.28906L47.8672 9.20703C47.8125 9.11589 47.5459 9.06576 47.0674 9.05664L46.8828 9.15918L46.8486 9.24805L46.7598 9.22754L46.2676 9.50098C45.7207 10.2347 45.5042 11.1462 45.6182 12.2354L46.4727 14.9424C46.696 15.3389 47.1084 15.5075 47.71 15.4482L47.8945 15.3457C47.9492 15.0996 48.0472 14.9355 48.1885 14.8535C48.1064 14.7122 48.1429 14.4912 48.2979 14.1904C48.2386 14.0811 48.2523 13.7689 48.3389 13.2539L48.291 13.0146Z" stroke="black" stroke-width="12" mask="url(#path-1-outside-1_35_327)"/>
</g>
<defs>
<filter id="filter0_dd_35_327" x="0.539093" y="0.418823" width="67.2686" height="27.3158" filterUnits="userSpaceOnUse" color-interpolation-filters="sRGB">
<feFlood flood-opacity="0" result="BackgroundImageFix"/>
<feColorMatrix in="SourceAlpha" type="matrix" values="0 0 0 0 0 0 0 0 0 0 0 0 0 0 0 0 0 0 127 0" result="hardAlpha"/>
<feOffset dx="4"/>
<feComposite in2="hardAlpha" operator="out"/>
<feColorMatrix type="matrix" values="0 0 0 0 0.831373 0 0 0 0 0.639216 0 0 0 0 0.45098 0 0 0 1 0"/>
<feBlend mode="normal" in2="BackgroundImageFix" result="effect1_dropShadow_35_327"/>
<feColorMatrix in="SourceAlpha" type="matrix" values="0 0 0 0 0 0 0 0 0 0 0 0 0 0 0 0 0 0 127 0" result="hardAlpha"/>
<feOffset dx="5" dy="1"/>
<feComposite in2="hardAlpha" operator="out"/>
<feColorMatrix type="matrix" values="0 0 0 0 0.831373 0 0 0 0 0.639216 0 0 0 0 0.45098 0 0 0 1 0"/>
<feBlend mode="normal" in2="effect1_dropShadow_35_327" result="effect2_dropShadow_35_327"/>
<feBlend mode="normal" in="SourceGraphic" in2="effect2_dropShadow_35_327" result="shape"/>
</filter>
</defs>
</svg>
