<svg width="70" height="28" viewBox="0 0 70 28" fill="none" xmlns="http://www.w3.org/2000/svg">
<g filter="url(#filter0_dd_35_328)">
<mask id="path-1-outside-1_35_328" maskUnits="userSpaceOnUse" x="-0.0712891" y="-0.0830078" width="65" height="27" fill="black">
<rect fill="white" x="-0.0712891" y="-0.0830078" width="65" height="27"/>
<path d="M10.1484 7.7168L11.0166 7.58691C11.6364 7.49577 12.042 7.64844 12.2334 8.04492C12.8577 8.27279 13.2018 8.60547 13.2656 9.04297L13.3203 9.41895L13.5732 9.38477L13.3545 13.1172L13.498 13.2197L13.5186 13.3496L13.3545 15.4346L12.2129 16.248C13.7168 17.556 14.5234 18.0732 14.6328 17.7998L14.3662 18.1211L14.3252 18.251L14.2021 18.5244L12.9443 17.998L11.3174 16.7129L9.10938 17.0615L10.2441 16.877L9.19824 16.8018C8.76986 16.8656 8.07031 16.4144 7.09961 15.4482L6.92871 14.334L7.6875 12.5498C7.71484 10.2484 8.00423 9.05664 8.55566 8.97461C9.21647 8.19531 9.7474 7.77604 10.1484 7.7168ZM9.51953 13.459L9.65625 13.5684L9.66992 13.6914L9.62207 14.2109L9.79297 14.5664L11.1602 14.3408C11.5612 14.277 11.6865 13.1924 11.5361 11.0869L11.3857 9.95898L10.9961 9.64453C10.3809 9.74023 10.0618 10.2598 10.0391 11.2031L9.51953 13.459Z"/>
<path d="M24.0938 11.0186L23.7998 11.1074C24.2464 11.6133 24.5335 11.8662 24.6611 11.8662C25.7321 11.6976 26.2676 11.3809 26.2676 10.916H26.3633C26.2357 10.0775 25.7572 9.6582 24.9277 9.6582L24.627 9.43262C24.0527 9.64225 23.875 10.1709 24.0938 11.0186ZM23.7178 7.77148L25.0371 7.81934C26.7233 8.36621 27.6986 8.86068 27.9629 9.30273V9.50098L27.8945 9.5625V9.62402C28.3001 9.97038 28.5029 10.6152 28.5029 11.5586V11.7568C28.3161 12.2536 27.9082 12.7253 27.2793 13.1719L26.5342 13.8145C26.9124 13.9466 27.1243 14.1927 27.1699 14.5527C27.7624 14.8307 28.0586 15.193 28.0586 15.6396C27.8398 16.7106 27.2952 17.2461 26.4248 17.2461L26.1514 17.3145H26.0215L25.1533 17.6084C23.7178 17.2712 23 16.9521 23 16.6514C22.5898 16.3278 22.3848 16.027 22.3848 15.749V15.6123L22.1934 15.2637L22.3232 14.4365L23.2734 13.124L22.5898 12.3311V11.8799L22.3232 10.4033L22.2207 8.93359C22.5488 8.27734 22.9111 7.88997 23.3076 7.77148H23.7178ZM24.3535 14.3135L24.1416 14.6074C24.1416 15.0176 24.3717 15.3503 24.832 15.6055C24.832 15.7331 25.0417 15.8493 25.4609 15.9541H25.6729C25.8597 15.9541 25.9668 15.8971 25.9941 15.7832C25.9668 15.446 25.6159 15.0723 24.9414 14.6621C24.9414 14.5391 24.7454 14.4023 24.3535 14.252V14.3135Z"/>
<path d="M32.7139 17.5605L32.2354 17.2393L30.8477 16.5283C30.6973 16.3688 30.6152 16.1979 30.6016 16.0156L30.6426 15.9268L31.1484 15.2158V14.8193L31.791 13.7666L31.8115 13.7119C31.7796 13.5843 31.8685 13.1217 32.0781 12.3242C32.0462 11.7728 32.1191 11.2236 32.2969 10.6768L32.3447 10.7041L32.543 9.82227L32.6455 9.79492L32.666 9.74707L33.1172 8.42773L33.3154 7.14941C34.04 7.09017 34.6917 7.15397 35.2705 7.34082L35.3184 7.36133C35.4277 7.41146 35.4551 7.53223 35.4004 7.72363L35.7559 7.78516C34.8763 10.2461 34.4844 11.5973 34.5801 11.8389L34.4844 11.9004C34.2747 13.4362 34.0332 14.5436 33.7598 15.2227C33.6458 15.5098 33.3792 16.0794 32.96 16.9316L32.7686 17.2461L32.8164 17.4375L32.748 17.4717L32.7139 17.5605Z"/>
<path d="M39.4541 6.97852L40.0352 7.1084L40.7529 7.12891L41.3203 7.04004L42.749 7.23828L42.9404 7.52539L42.8242 8.86523L42.667 11.791H42.7627L42.5781 12.167L42.667 12.8232L42.5781 13.6709L42.8584 13.7666L43.6104 13.5752C43.8701 13.6618 44.0592 13.819 44.1777 14.0469V14.7031L44.082 14.7988L44.1777 14.8945V15.2705C44.1413 15.3343 44.0592 15.4893 43.9316 15.7354L43.46 15.6396L42.6738 15.4824V15.5781H42.8652L42.6738 15.7695H40.5137L38.668 15.79C38.3626 15.6488 38.1895 15.4779 38.1484 15.2773C38.2168 14.7168 38.1302 14.4092 37.8887 14.3545L38.1689 14.1631L38.2646 14.2588H38.4561C38.4971 13.9443 38.5905 13.7871 38.7363 13.7871L40.4111 13.7256L40.5068 13.6367L40.4111 13.541L40.377 13.083L40.3223 11.0391L40.5068 9.07031L40.2266 8.87891L39.3242 8.94043L38.4834 8.84473L38.2305 7.82617C38.2441 7.27474 38.4629 7.08561 38.8867 7.25879L39.2627 7.16309L39.4541 6.97852Z"/>
<path d="M49.5234 17.2119C48.735 17.5036 48.2952 17.5651 48.2041 17.3965C47.598 17.3783 47.2357 17.2598 47.1172 17.041L47.1787 17.0068C46.8096 16.8701 46.5726 16.7061 46.4678 16.5146L46.4541 16.3164L45.7842 15.5918L45.7637 14.915L45.6133 14.7988L45.5586 14.5596L45.4082 14.4365C45.5404 14.1403 45.5016 13.7985 45.292 13.4111L45.3535 13.3701L45.2578 13.3564C45.1621 13.0465 45.153 12.8711 45.2305 12.8301L45.1279 12.8164L45.0596 12.3721L44.998 12.3994L45.0322 12.3174L44.9775 12.2148L44.8408 12.29L44.8066 12.2422C44.9206 11.8184 44.8955 11.4424 44.7314 11.1143C44.973 10.7451 45.1188 10.3691 45.1689 9.98633L45.4766 9.26172L46.4541 7.97656L46.8916 7.80566L47.5205 7.33398C47.762 7.32943 48.1312 7.19043 48.6279 6.91699L50.1865 7.0127C50.665 6.93978 51.123 7.07422 51.5605 7.41602C51.515 7.64844 51.5446 7.97201 51.6494 8.38672C51.5264 8.45508 51.4762 8.73307 51.499 9.2207C51.3942 9.27995 51.3874 9.53516 51.4785 9.98633C51.3691 10.2188 51.3441 10.3919 51.4033 10.5059L51.5127 10.5195L51.5332 10.5674L51.4922 10.6562L51.7109 10.8818C51.7839 11.0186 51.7907 11.1963 51.7314 11.415C51.9502 11.7477 52.0915 11.8981 52.1553 11.8662C52.3512 12.7002 52.4059 13.1719 52.3193 13.2812L52.3535 14.1494C52.0938 14.2952 52.0117 14.5231 52.1074 14.833L51.6357 15.5713L50.7334 16.3506L49.5234 17.2119ZM50.0908 13.0146L50.002 12.9941L49.7832 12.4541L49.4961 12.085C49.1725 11.1143 49.1133 10.5719 49.3184 10.458C49.5599 10.1208 49.6374 9.87923 49.5508 9.7334C49.4368 9.51921 49.4346 9.36654 49.5439 9.27539L49.6396 9.28906L49.667 9.20703C49.6123 9.11589 49.3457 9.06576 48.8672 9.05664L48.6826 9.15918L48.6484 9.24805L48.5596 9.22754L48.0674 9.50098C47.5205 10.2347 47.304 11.1462 47.418 12.2354L48.2725 14.9424C48.4958 15.3389 48.9082 15.5075 49.5098 15.4482L49.6943 15.3457C49.749 15.0996 49.847 14.9355 49.9883 14.8535C49.9062 14.7122 49.9427 14.4912 50.0977 14.1904C50.0384 14.0811 50.0521 13.7689 50.1387 13.2539L50.0908 13.0146Z"/>
</mask>
<path d="M10.1484 7.7168L11.0166 7.58691C11.6364 7.49577 12.042 7.64844 12.2334 8.04492C12.8577 8.27279 13.2018 8.60547 13.2656 9.04297L13.3203 9.41895L13.5732 9.38477L13.3545 13.1172L13.498 13.2197L13.5186 13.3496L13.3545 15.4346L12.2129 16.248C13.7168 17.556 14.5234 18.0732 14.6328 17.7998L14.3662 18.1211L14.3252 18.251L14.2021 18.5244L12.9443 17.998L11.3174 16.7129L9.10938 17.0615L10.2441 16.877L9.19824 16.8018C8.76986 16.8656 8.07031 16.4144 7.09961 15.4482L6.92871 14.334L7.6875 12.5498C7.71484 10.2484 8.00423 9.05664 8.55566 8.97461C9.21647 8.19531 9.7474 7.77604 10.1484 7.7168ZM9.51953 13.459L9.65625 13.5684L9.66992 13.6914L9.62207 14.2109L9.79297 14.5664L11.1602 14.3408C11.5612 14.277 11.6865 13.1924 11.5361 11.0869L11.3857 9.95898L10.9961 9.64453C10.3809 9.74023 10.0618 10.2598 10.0391 11.2031L9.51953 13.459Z" fill="#FAEDCD"/>
<path d="M24.0938 11.0186L23.7998 11.1074C24.2464 11.6133 24.5335 11.8662 24.6611 11.8662C25.7321 11.6976 26.2676 11.3809 26.2676 10.916H26.3633C26.2357 10.0775 25.7572 9.6582 24.9277 9.6582L24.627 9.43262C24.0527 9.64225 23.875 10.1709 24.0938 11.0186ZM23.7178 7.77148L25.0371 7.81934C26.7233 8.36621 27.6986 8.86068 27.9629 9.30273V9.50098L27.8945 9.5625V9.62402C28.3001 9.97038 28.5029 10.6152 28.5029 11.5586V11.7568C28.3161 12.2536 27.9082 12.7253 27.2793 13.1719L26.5342 13.8145C26.9124 13.9466 27.1243 14.1927 27.1699 14.5527C27.7624 14.8307 28.0586 15.193 28.0586 15.6396C27.8398 16.7106 27.2952 17.2461 26.4248 17.2461L26.1514 17.3145H26.0215L25.1533 17.6084C23.7178 17.2712 23 16.9521 23 16.6514C22.5898 16.3278 22.3848 16.027 22.3848 15.749V15.6123L22.1934 15.2637L22.3232 14.4365L23.2734 13.124L22.5898 12.3311V11.8799L22.3232 10.4033L22.2207 8.93359C22.5488 8.27734 22.9111 7.88997 23.3076 7.77148H23.7178ZM24.3535 14.3135L24.1416 14.6074C24.1416 15.0176 24.3717 15.3503 24.832 15.6055C24.832 15.7331 25.0417 15.8493 25.4609 15.9541H25.6729C25.8597 15.9541 25.9668 15.8971 25.9941 15.7832C25.9668 15.446 25.6159 15.0723 24.9414 14.6621C24.9414 14.5391 24.7454 14.4023 24.3535 14.252V14.3135Z" fill="#FAEDCD"/>
<path d="M32.7139 17.5605L32.2354 17.2393L30.8477 16.5283C30.6973 16.3688 30.6152 16.1979 30.6016 16.0156L30.6426 15.9268L31.1484 15.2158V14.8193L31.791 13.7666L31.8115 13.7119C31.7796 13.5843 31.8685 13.1217 32.0781 12.3242C32.0462 11.7728 32.1191 11.2236 32.2969 10.6768L32.3447 10.7041L32.543 9.82227L32.6455 9.79492L32.666 9.74707L33.1172 8.42773L33.3154 7.14941C34.04 7.09017 34.6917 7.15397 35.2705 7.34082L35.3184 7.36133C35.4277 7.41146 35.4551 7.53223 35.4004 7.72363L35.7559 7.78516C34.8763 10.2461 34.4844 11.5973 34.5801 11.8389L34.4844 11.9004C34.2747 13.4362 34.0332 14.5436 33.7598 15.2227C33.6458 15.5098 33.3792 16.0794 32.96 16.9316L32.7686 17.2461L32.8164 17.4375L32.748 17.4717L32.7139 17.5605Z" fill="#FAEDCD"/>
<path d="M39.4541 6.97852L40.0352 7.1084L40.7529 7.12891L41.3203 7.04004L42.749 7.23828L42.9404 7.52539L42.8242 8.86523L42.667 11.791H42.7627L42.5781 12.167L42.667 12.8232L42.5781 13.6709L42.8584 13.7666L43.6104 13.5752C43.8701 13.6618 44.0592 13.819 44.1777 14.0469V14.7031L44.082 14.7988L44.1777 14.8945V15.2705C44.1413 15.3343 44.0592 15.4893 43.9316 15.7354L43.46 15.6396L42.6738 15.4824V15.5781H42.8652L42.6738 15.7695H40.5137L38.668 15.79C38.3626 15.6488 38.1895 15.4779 38.1484 15.2773C38.2168 14.7168 38.1302 14.4092 37.8887 14.3545L38.1689 14.1631L38.2646 14.2588H38.4561C38.4971 13.9443 38.5905 13.7871 38.7363 13.7871L40.4111 13.7256L40.5068 13.6367L40.4111 13.541L40.377 13.083L40.3223 11.0391L40.5068 9.07031L40.2266 8.87891L39.3242 8.94043L38.4834 8.84473L38.2305 7.82617C38.2441 7.27474 38.4629 7.08561 38.8867 7.25879L39.2627 7.16309L39.4541 6.97852Z" fill="#FAEDCD"/>
<path d="M49.5234 17.2119C48.735 17.5036 48.2952 17.5651 48.2041 17.3965C47.598 17.3783 47.2357 17.2598 47.1172 17.041L47.1787 17.0068C46.8096 16.8701 46.5726 16.7061 46.4678 16.5146L46.4541 16.3164L45.7842 15.5918L45.7637 14.915L45.6133 14.7988L45.5586 14.5596L45.4082 14.4365C45.5404 14.1403 45.5016 13.7985 45.292 13.4111L45.3535 13.3701L45.2578 13.3564C45.1621 13.0465 45.153 12.8711 45.2305 12.8301L45.1279 12.8164L45.0596 12.3721L44.998 12.3994L45.0322 12.3174L44.9775 12.2148L44.8408 12.29L44.8066 12.2422C44.9206 11.8184 44.8955 11.4424 44.7314 11.1143C44.973 10.7451 45.1188 10.3691 45.1689 9.98633L45.4766 9.26172L46.4541 7.97656L46.8916 7.80566L47.5205 7.33398C47.762 7.32943 48.1312 7.19043 48.6279 6.91699L50.1865 7.0127C50.665 6.93978 51.123 7.07422 51.5605 7.41602C51.515 7.64844 51.5446 7.97201 51.6494 8.38672C51.5264 8.45508 51.4762 8.73307 51.499 9.2207C51.3942 9.27995 51.3874 9.53516 51.4785 9.98633C51.3691 10.2188 51.3441 10.3919 51.4033 10.5059L51.5127 10.5195L51.5332 10.5674L51.4922 10.6562L51.7109 10.8818C51.7839 11.0186 51.7907 11.1963 51.7314 11.415C51.9502 11.7477 52.0915 11.8981 52.1553 11.8662C52.3512 12.7002 52.4059 13.1719 52.3193 13.2812L52.3535 14.1494C52.0938 14.2952 52.0117 14.5231 52.1074 14.833L51.6357 15.5713L50.7334 16.3506L49.5234 17.2119ZM50.0908 13.0146L50.002 12.9941L49.7832 12.4541L49.4961 12.085C49.1725 11.1143 49.1133 10.5719 49.3184 10.458C49.5599 10.1208 49.6374 9.87923 49.5508 9.7334C49.4368 9.51921 49.4346 9.36654 49.5439 9.27539L49.6396 9.28906L49.667 9.20703C49.6123 9.11589 49.3457 9.06576 48.8672 9.05664L48.6826 9.15918L48.6484 9.24805L48.5596 9.22754L48.0674 9.50098C47.5205 10.2347 47.304 11.1462 47.418 12.2354L48.2725 14.9424C48.4958 15.3389 48.9082 15.5075 49.5098 15.4482L49.6943 15.3457C49.749 15.0996 49.847 14.9355 49.9883 14.8535C49.9062 14.7122 49.9427 14.4912 50.0977 14.1904C50.0384 14.0811 50.0521 13.7689 50.1387 13.2539L50.0908 13.0146Z" fill="#FAEDCD"/>
<path d="M10.1484 7.7168L11.0166 7.58691C11.6364 7.49577 12.042 7.64844 12.2334 8.04492C12.8577 8.27279 13.2018 8.60547 13.2656 9.04297L13.3203 9.41895L13.5732 9.38477L13.3545 13.1172L13.498 13.2197L13.5186 13.3496L13.3545 15.4346L12.2129 16.248C13.7168 17.556 14.5234 18.0732 14.6328 17.7998L14.3662 18.1211L14.3252 18.251L14.2021 18.5244L12.9443 17.998L11.3174 16.7129L9.10938 17.0615L10.2441 16.877L9.19824 16.8018C8.76986 16.8656 8.07031 16.4144 7.09961 15.4482L6.92871 14.334L7.6875 12.5498C7.71484 10.2484 8.00423 9.05664 8.55566 8.97461C9.21647 8.19531 9.7474 7.77604 10.1484 7.7168ZM9.51953 13.459L9.65625 13.5684L9.66992 13.6914L9.62207 14.2109L9.79297 14.5664L11.1602 14.3408C11.5612 14.277 11.6865 13.1924 11.5361 11.0869L11.3857 9.95898L10.9961 9.64453C10.3809 9.74023 10.0618 10.2598 10.0391 11.2031L9.51953 13.459Z" stroke="black" stroke-width="12" mask="url(#path-1-outside-1_35_328)"/>
<path d="M24.0938 11.0186L23.7998 11.1074C24.2464 11.6133 24.5335 11.8662 24.6611 11.8662C25.7321 11.6976 26.2676 11.3809 26.2676 10.916H26.3633C26.2357 10.0775 25.7572 9.6582 24.9277 9.6582L24.627 9.43262C24.0527 9.64225 23.875 10.1709 24.0938 11.0186ZM23.7178 7.77148L25.0371 7.81934C26.7233 8.36621 27.6986 8.86068 27.9629 9.30273V9.50098L27.8945 9.5625V9.62402C28.3001 9.97038 28.5029 10.6152 28.5029 11.5586V11.7568C28.3161 12.2536 27.9082 12.7253 27.2793 13.1719L26.5342 13.8145C26.9124 13.9466 27.1243 14.1927 27.1699 14.5527C27.7624 14.8307 28.0586 15.193 28.0586 15.6396C27.8398 16.7106 27.2952 17.2461 26.4248 17.2461L26.1514 17.3145H26.0215L25.1533 17.6084C23.7178 17.2712 23 16.9521 23 16.6514C22.5898 16.3278 22.3848 16.027 22.3848 15.749V15.6123L22.1934 15.2637L22.3232 14.4365L23.2734 13.124L22.5898 12.3311V11.8799L22.3232 10.4033L22.2207 8.93359C22.5488 8.27734 22.9111 7.88997 23.3076 7.77148H23.7178ZM24.3535 14.3135L24.1416 14.6074C24.1416 15.0176 24.3717 15.3503 24.832 15.6055C24.832 15.7331 25.0417 15.8493 25.4609 15.9541H25.6729C25.8597 15.9541 25.9668 15.8971 25.9941 15.7832C25.9668 15.446 25.6159 15.0723 24.9414 14.6621C24.9414 14.5391 24.7454 14.4023 24.3535 14.252V14.3135Z" stroke="black" stroke-width="12" mask="url(#path-1-outside-1_35_328)"/>
<path d="M32.7139 17.5605L32.2354 17.2393L30.8477 16.5283C30.6973 16.3688 30.6152 16.1979 30.6016 16.0156L30.6426 15.9268L31.1484 15.2158V14.8193L31.791 13.7666L31.8115 13.7119C31.7796 13.5843 31.8685 13.1217 32.0781 12.3242C32.0462 11.7728 32.1191 11.2236 32.2969 10.6768L32.3447 10.7041L32.543 9.82227L32.6455 9.79492L32.666 9.74707L33.1172 8.42773L33.3154 7.14941C34.04 7.09017 34.6917 7.15397 35.2705 7.34082L35.3184 7.36133C35.4277 7.41146 35.4551 7.53223 35.4004 7.72363L35.7559 7.78516C34.8763 10.2461 34.4844 11.5973 34.5801 11.8389L34.4844 11.9004C34.2747 13.4362 34.0332 14.5436 33.7598 15.2227C33.6458 15.5098 33.3792 16.0794 32.96 16.9316L32.7686 17.2461L32.8164 17.4375L32.748 17.4717L32.7139 17.5605Z" stroke="black" stroke-width="12" mask="url(#path-1-outside-1_35_328)"/>
<path d="M39.4541 6.97852L40.0352 7.1084L40.7529 7.12891L41.3203 7.04004L42.749 7.23828L42.9404 7.52539L42.8242 8.86523L42.667 11.791H42.7627L42.5781 12.167L42.667 12.8232L42.5781 13.6709L42.8584 13.7666L43.6104 13.5752C43.8701 13.6618 44.0592 13.819 44.1777 14.0469V14.7031L44.082 14.7988L44.1777 14.8945V15.2705C44.1413 15.3343 44.0592 15.4893 43.9316 15.7354L43.46 15.6396L42.6738 15.4824V15.5781H42.8652L42.6738 15.7695H40.5137L38.668 15.79C38.3626 15.6488 38.1895 15.4779 38.1484 15.2773C38.2168 14.7168 38.1302 14.4092 37.8887 14.3545L38.1689 14.1631L38.2646 14.2588H38.4561C38.4971 13.9443 38.5905 13.7871 38.7363 13.7871L40.4111 13.7256L40.5068 13.6367L40.4111 13.541L40.377 13.083L40.3223 11.0391L40.5068 9.07031L40.2266 8.87891L39.3242 8.94043L38.4834 8.84473L38.2305 7.82617C38.2441 7.27474 38.4629 7.08561 38.8867 7.25879L39.2627 7.16309L39.4541 6.97852Z" stroke="black" stroke-width="12" mask="url(#path-1-outside-1_35_328)"/>
<path d="M49.5234 17.2119C48.735 17.5036 48.2952 17.5651 48.2041 17.3965C47.598 17.3783 47.2357 17.2598 47.1172 17.041L47.1787 17.0068C46.8096 16.8701 46.5726 16.7061 46.4678 16.5146L46.4541 16.3164L45.7842 15.5918L45.7637 14.915L45.6133 14.7988L45.5586 14.5596L45.4082 14.4365C45.5404 14.1403 45.5016 13.7985 45.292 13.4111L45.3535 13.3701L45.2578 13.3564C45.1621 13.0465 45.153 12.8711 45.2305 12.8301L45.1279 12.8164L45.0596 12.3721L44.998 12.3994L45.0322 12.3174L44.9775 12.2148L44.8408 12.29L44.8066 12.2422C44.9206 11.8184 44.8955 11.4424 44.7314 11.1143C44.973 10.7451 45.1188 10.3691 45.1689 9.98633L45.4766 9.26172L46.4541 7.97656L46.8916 7.80566L47.5205 7.33398C47.762 7.32943 48.1312 7.19043 48.6279 6.91699L50.1865 7.0127C50.665 6.93978 51.123 7.07422 51.5605 7.41602C51.515 7.64844 51.5446 7.97201 51.6494 8.38672C51.5264 8.45508 51.4762 8.73307 51.499 9.2207C51.3942 9.27995 51.3874 9.53516 51.4785 9.98633C51.3691 10.2188 51.3441 10.3919 51.4033 10.5059L51.5127 10.5195L51.5332 10.5674L51.4922 10.6562L51.7109 10.8818C51.7839 11.0186 51.7907 11.1963 51.7314 11.415C51.9502 11.7477 52.0915 11.8981 52.1553 11.8662C52.3512 12.7002 52.4059 13.1719 52.3193 13.2812L52.3535 14.1494C52.0938 14.2952 52.0117 14.5231 52.1074 14.833L51.6357 15.5713L50.7334 16.3506L49.5234 17.2119ZM50.0908 13.0146L50.002 12.9941L49.7832 12.4541L49.4961 12.085C49.1725 11.1143 49.1133 10.5719 49.3184 10.458C49.5599 10.1208 49.6374 9.87923 49.5508 9.7334C49.4368 9.51921 49.4346 9.36654 49.5439 9.27539L49.6396 9.28906L49.667 9.20703C49.6123 9.11589 49.3457 9.06576 48.8672 9.05664L48.6826 9.15918L48.6484 9.24805L48.5596 9.22754L48.0674 9.50098C47.5205 10.2347 47.304 11.1462 47.418 12.2354L48.2725 14.9424C48.4958 15.3389 48.9082 15.5075 49.5098 15.4482L49.6943 15.3457C49.749 15.0996 49.847 14.9355 49.9883 14.8535C49.9062 14.7122 49.9427 14.4912 50.0977 14.1904C50.0384 14.0811 50.0521 13.7689 50.1387 13.2539L50.0908 13.0146Z" stroke="black" stroke-width="12" mask="url(#path-1-outside-1_35_328)"/>
</g>
<defs>
<filter id="filter0_dd_35_328" x="0.739288" y="0.418823" width="68.8683" height="27.3158" filterUnits="userSpaceOnUse" color-interpolation-filters="sRGB">
<feFlood flood-opacity="0" result="BackgroundImageFix"/>
<feColorMatrix in="SourceAlpha" type="matrix" values="0 0 0 0 0 0 0 0 0 0 0 0 0 0 0 0 0 0 127 0" result="hardAlpha"/>
<feOffset dx="4"/>
<feComposite in2="hardAlpha" operator="out"/>
<feColorMatrix type="matrix" values="0 0 0 0 0.831373 0 0 0 0 0.639216 0 0 0 0 0.45098 0 0 0 1 0"/>
<feBlend mode="normal" in2="BackgroundImageFix" result="effect1_dropShadow_35_328"/>
<feColorMatrix in="SourceAlpha" type="matrix" values="0 0 0 0 0 0 0 0 0 0 0 0 0 0 0 0 0 0 127 0" result="hardAlpha"/>
<feOffset dx="5" dy="1"/>
<feComposite in2="hardAlpha" operator="out"/>
<feColorMatrix type="matrix" values="0 0 0 0 0.831373 0 0 0 0 0.639216 0 0 0 0 0.45098 0 0 0 1 0"/>
<feBlend mode="normal" in2="effect1_dropShadow_35_328" result="effect2_dropShadow_35_328"/>
<feBlend mode="normal" in="SourceGraphic" in2="effect2_dropShadow_35_328" result="shape"/>
</filter>
</defs>
</svg>
