<svg width="69" height="29" viewBox="0 0 69 29" fill="none" xmlns="http://www.w3.org/2000/svg">
<g filter="url(#filter0_dd_35_329)">
<mask id="path-1-outside-1_35_329" maskUnits="userSpaceOnUse" x="-0.133789" y="-0.0830078" width="64" height="28" fill="black">
<rect fill="white" x="-0.133789" y="-0.0830078" width="64" height="28"/>
<path d="M10.0859 8.7168L10.9541 8.58691C11.5739 8.49577 11.9795 8.64844 12.1709 9.04492C12.7952 9.27279 13.1393 9.60547 13.2031 10.043L13.2578 10.4189L13.5107 10.3848L13.292 14.1172L13.4355 14.2197L13.4561 14.3496L13.292 16.4346L12.1504 17.248C13.6543 18.556 14.4609 19.0732 14.5703 18.7998L14.3037 19.1211L14.2627 19.251L14.1396 19.5244L12.8818 18.998L11.2549 17.7129L9.04688 18.0615L10.1816 17.877L9.13574 17.8018C8.70736 17.8656 8.00781 17.4144 7.03711 16.4482L6.86621 15.334L7.625 13.5498C7.65234 11.2484 7.94173 10.0566 8.49316 9.97461C9.15397 9.19531 9.6849 8.77604 10.0859 8.7168ZM9.45703 14.459L9.59375 14.5684L9.60742 14.6914L9.55957 15.2109L9.73047 15.5664L11.0977 15.3408C11.4987 15.277 11.624 14.1924 11.4736 12.0869L11.3232 10.959L10.9336 10.6445C10.3184 10.7402 9.99935 11.2598 9.97656 12.2031L9.45703 14.459Z"/>
<path d="M24.3252 8.23828C25.1774 8.42513 25.8405 8.72363 26.3145 9.13379L27.0186 9.83789C27.4014 10.7311 27.5928 11.3691 27.5928 11.752L27.5312 11.8135V11.998H27.5928C27.5335 13.2786 27.4469 13.9189 27.333 13.9189H27.4014C27.3467 14.32 27.153 14.7233 26.8203 15.1289C26.7839 15.375 26.4854 15.8216 25.9248 16.4688C25.9248 16.569 25.542 16.9313 24.7764 17.5557C23.6826 18.7861 22.6777 19.4014 21.7617 19.4014C21.625 19.0186 21.4769 18.7406 21.3174 18.5674L21.1875 18.2529C21.1875 17.6195 21.3402 17.3027 21.6455 17.3027C21.6455 17.2344 21.9622 16.9792 22.5957 16.5371L24.2021 14.7461V14.6777L24.1338 14.623V14.5547C24.43 14.3861 24.6875 14.1742 24.9062 13.9189V13.7275L24.0039 13.2148C23.0651 12.5176 22.5957 11.8568 22.5957 11.2324L22.5342 10.7881H22.5957L22.5342 10.7266V10.5352L22.5957 10.1523L22.5342 9.83789C23.113 8.77148 23.71 8.23828 24.3252 8.23828ZM22.5342 9.00391L22.5957 9.07227V9.25684H22.4043V9.13379L22.5342 9.00391ZM24.4482 10.2822L24.2021 10.2139L24.0723 10.4736L24.1338 10.5352V10.5967L24.0723 10.8564C24.0723 11.1071 24.3708 11.4466 24.9678 11.875L25.6104 12.1279H25.8633L26.1846 11.8135V11.6836C26.1846 11.4876 25.9066 11.041 25.3506 10.3438L24.8379 10.0225L24.4482 10.2822Z"/>
<path d="M31.7764 18.5605L31.2979 18.2393L29.9102 17.5283C29.7598 17.3688 29.6777 17.1979 29.6641 17.0156L29.7051 16.9268L30.2109 16.2158V15.8193L30.8535 14.7666L30.874 14.7119C30.8421 14.5843 30.931 14.1217 31.1406 13.3242C31.1087 12.7728 31.1816 12.2236 31.3594 11.6768L31.4072 11.7041L31.6055 10.8223L31.708 10.7949L31.7285 10.7471L32.1797 9.42773L32.3779 8.14941C33.1025 8.09017 33.7542 8.15397 34.333 8.34082L34.3809 8.36133C34.4902 8.41146 34.5176 8.53223 34.4629 8.72363L34.8184 8.78516C33.9388 11.2461 33.5469 12.5973 33.6426 12.8389L33.5469 12.9004C33.3372 14.4362 33.0957 15.5436 32.8223 16.2227C32.7083 16.5098 32.4417 17.0794 32.0225 17.9316L31.8311 18.2461L31.8789 18.4375L31.8105 18.4717L31.7764 18.5605Z"/>
<path d="M38.5166 7.97852L39.0977 8.1084L39.8154 8.12891L40.3828 8.04004L41.8115 8.23828L42.0029 8.52539L41.8867 9.86523L41.7295 12.791H41.8252L41.6406 13.167L41.7295 13.8232L41.6406 14.6709L41.9209 14.7666L42.6729 14.5752C42.9326 14.6618 43.1217 14.819 43.2402 15.0469V15.7031L43.1445 15.7988L43.2402 15.8945V16.2705C43.2038 16.3343 43.1217 16.4893 42.9941 16.7354L42.5225 16.6396L41.7363 16.4824V16.5781H41.9277L41.7363 16.7695H39.5762L37.7305 16.79C37.4251 16.6488 37.252 16.4779 37.2109 16.2773C37.2793 15.7168 37.1927 15.4092 36.9512 15.3545L37.2314 15.1631L37.3271 15.2588H37.5186C37.5596 14.9443 37.653 14.7871 37.7988 14.7871L39.4736 14.7256L39.5693 14.6367L39.4736 14.541L39.4395 14.083L39.3848 12.0391L39.5693 10.0703L39.2891 9.87891L38.3867 9.94043L37.5459 9.84473L37.293 8.82617C37.3066 8.27474 37.5254 8.08561 37.9492 8.25879L38.3252 8.16309L38.5166 7.97852Z"/>
<path d="M48.5859 18.2119C47.7975 18.5036 47.3577 18.5651 47.2666 18.3965C46.6605 18.3783 46.2982 18.2598 46.1797 18.041L46.2412 18.0068C45.8721 17.8701 45.6351 17.7061 45.5303 17.5146L45.5166 17.3164L44.8467 16.5918L44.8262 15.915L44.6758 15.7988L44.6211 15.5596L44.4707 15.4365C44.6029 15.1403 44.5641 14.7985 44.3545 14.4111L44.416 14.3701L44.3203 14.3564C44.2246 14.0465 44.2155 13.8711 44.293 13.8301L44.1904 13.8164L44.1221 13.3721L44.0605 13.3994L44.0947 13.3174L44.04 13.2148L43.9033 13.29L43.8691 13.2422C43.9831 12.8184 43.958 12.4424 43.7939 12.1143C44.0355 11.7451 44.1813 11.3691 44.2314 10.9863L44.5391 10.2617L45.5166 8.97656L45.9541 8.80566L46.583 8.33398C46.8245 8.32943 47.1937 8.19043 47.6904 7.91699L49.249 8.0127C49.7275 7.93978 50.1855 8.07422 50.623 8.41602C50.5775 8.64844 50.6071 8.97201 50.7119 9.38672C50.5889 9.45508 50.5387 9.73307 50.5615 10.2207C50.4567 10.2799 50.4499 10.5352 50.541 10.9863C50.4316 11.2188 50.4066 11.3919 50.4658 11.5059L50.5752 11.5195L50.5957 11.5674L50.5547 11.6562L50.7734 11.8818C50.8464 12.0186 50.8532 12.1963 50.7939 12.415C51.0127 12.7477 51.154 12.8981 51.2178 12.8662C51.4137 13.7002 51.4684 14.1719 51.3818 14.2812L51.416 15.1494C51.1562 15.2952 51.0742 15.5231 51.1699 15.833L50.6982 16.5713L49.7959 17.3506L48.5859 18.2119ZM49.1533 14.0146L49.0645 13.9941L48.8457 13.4541L48.5586 13.085C48.235 12.1143 48.1758 11.5719 48.3809 11.458C48.6224 11.1208 48.6999 10.8792 48.6133 10.7334C48.4993 10.5192 48.4971 10.3665 48.6064 10.2754L48.7021 10.2891L48.7295 10.207C48.6748 10.1159 48.4082 10.0658 47.9297 10.0566L47.7451 10.1592L47.7109 10.248L47.6221 10.2275L47.1299 10.501C46.583 11.2347 46.3665 12.1462 46.4805 13.2354L47.335 15.9424C47.5583 16.3389 47.9707 16.5075 48.5723 16.4482L48.7568 16.3457C48.8115 16.0996 48.9095 15.9355 49.0508 15.8535C48.9688 15.7122 49.0052 15.4912 49.1602 15.1904C49.1009 15.0811 49.1146 14.7689 49.2012 14.2539L49.1533 14.0146Z"/>
</mask>
<path d="M10.0859 8.7168L10.9541 8.58691C11.5739 8.49577 11.9795 8.64844 12.1709 9.04492C12.7952 9.27279 13.1393 9.60547 13.2031 10.043L13.2578 10.4189L13.5107 10.3848L13.292 14.1172L13.4355 14.2197L13.4561 14.3496L13.292 16.4346L12.1504 17.248C13.6543 18.556 14.4609 19.0732 14.5703 18.7998L14.3037 19.1211L14.2627 19.251L14.1396 19.5244L12.8818 18.998L11.2549 17.7129L9.04688 18.0615L10.1816 17.877L9.13574 17.8018C8.70736 17.8656 8.00781 17.4144 7.03711 16.4482L6.86621 15.334L7.625 13.5498C7.65234 11.2484 7.94173 10.0566 8.49316 9.97461C9.15397 9.19531 9.6849 8.77604 10.0859 8.7168ZM9.45703 14.459L9.59375 14.5684L9.60742 14.6914L9.55957 15.2109L9.73047 15.5664L11.0977 15.3408C11.4987 15.277 11.624 14.1924 11.4736 12.0869L11.3232 10.959L10.9336 10.6445C10.3184 10.7402 9.99935 11.2598 9.97656 12.2031L9.45703 14.459Z" fill="#FAEDCD"/>
<path d="M24.3252 8.23828C25.1774 8.42513 25.8405 8.72363 26.3145 9.13379L27.0186 9.83789C27.4014 10.7311 27.5928 11.3691 27.5928 11.752L27.5312 11.8135V11.998H27.5928C27.5335 13.2786 27.4469 13.9189 27.333 13.9189H27.4014C27.3467 14.32 27.153 14.7233 26.8203 15.1289C26.7839 15.375 26.4854 15.8216 25.9248 16.4688C25.9248 16.569 25.542 16.9313 24.7764 17.5557C23.6826 18.7861 22.6777 19.4014 21.7617 19.4014C21.625 19.0186 21.4769 18.7406 21.3174 18.5674L21.1875 18.2529C21.1875 17.6195 21.3402 17.3027 21.6455 17.3027C21.6455 17.2344 21.9622 16.9792 22.5957 16.5371L24.2021 14.7461V14.6777L24.1338 14.623V14.5547C24.43 14.3861 24.6875 14.1742 24.9062 13.9189V13.7275L24.0039 13.2148C23.0651 12.5176 22.5957 11.8568 22.5957 11.2324L22.5342 10.7881H22.5957L22.5342 10.7266V10.5352L22.5957 10.1523L22.5342 9.83789C23.113 8.77148 23.71 8.23828 24.3252 8.23828ZM22.5342 9.00391L22.5957 9.07227V9.25684H22.4043V9.13379L22.5342 9.00391ZM24.4482 10.2822L24.2021 10.2139L24.0723 10.4736L24.1338 10.5352V10.5967L24.0723 10.8564C24.0723 11.1071 24.3708 11.4466 24.9678 11.875L25.6104 12.1279H25.8633L26.1846 11.8135V11.6836C26.1846 11.4876 25.9066 11.041 25.3506 10.3438L24.8379 10.0225L24.4482 10.2822Z" fill="#FAEDCD"/>
<path d="M31.7764 18.5605L31.2979 18.2393L29.9102 17.5283C29.7598 17.3688 29.6777 17.1979 29.6641 17.0156L29.7051 16.9268L30.2109 16.2158V15.8193L30.8535 14.7666L30.874 14.7119C30.8421 14.5843 30.931 14.1217 31.1406 13.3242C31.1087 12.7728 31.1816 12.2236 31.3594 11.6768L31.4072 11.7041L31.6055 10.8223L31.708 10.7949L31.7285 10.7471L32.1797 9.42773L32.3779 8.14941C33.1025 8.09017 33.7542 8.15397 34.333 8.34082L34.3809 8.36133C34.4902 8.41146 34.5176 8.53223 34.4629 8.72363L34.8184 8.78516C33.9388 11.2461 33.5469 12.5973 33.6426 12.8389L33.5469 12.9004C33.3372 14.4362 33.0957 15.5436 32.8223 16.2227C32.7083 16.5098 32.4417 17.0794 32.0225 17.9316L31.8311 18.2461L31.8789 18.4375L31.8105 18.4717L31.7764 18.5605Z" fill="#FAEDCD"/>
<path d="M38.5166 7.97852L39.0977 8.1084L39.8154 8.12891L40.3828 8.04004L41.8115 8.23828L42.0029 8.52539L41.8867 9.86523L41.7295 12.791H41.8252L41.6406 13.167L41.7295 13.8232L41.6406 14.6709L41.9209 14.7666L42.6729 14.5752C42.9326 14.6618 43.1217 14.819 43.2402 15.0469V15.7031L43.1445 15.7988L43.2402 15.8945V16.2705C43.2038 16.3343 43.1217 16.4893 42.9941 16.7354L42.5225 16.6396L41.7363 16.4824V16.5781H41.9277L41.7363 16.7695H39.5762L37.7305 16.79C37.4251 16.6488 37.252 16.4779 37.2109 16.2773C37.2793 15.7168 37.1927 15.4092 36.9512 15.3545L37.2314 15.1631L37.3271 15.2588H37.5186C37.5596 14.9443 37.653 14.7871 37.7988 14.7871L39.4736 14.7256L39.5693 14.6367L39.4736 14.541L39.4395 14.083L39.3848 12.0391L39.5693 10.0703L39.2891 9.87891L38.3867 9.94043L37.5459 9.84473L37.293 8.82617C37.3066 8.27474 37.5254 8.08561 37.9492 8.25879L38.3252 8.16309L38.5166 7.97852Z" fill="#FAEDCD"/>
<path d="M48.5859 18.2119C47.7975 18.5036 47.3577 18.5651 47.2666 18.3965C46.6605 18.3783 46.2982 18.2598 46.1797 18.041L46.2412 18.0068C45.8721 17.8701 45.6351 17.7061 45.5303 17.5146L45.5166 17.3164L44.8467 16.5918L44.8262 15.915L44.6758 15.7988L44.6211 15.5596L44.4707 15.4365C44.6029 15.1403 44.5641 14.7985 44.3545 14.4111L44.416 14.3701L44.3203 14.3564C44.2246 14.0465 44.2155 13.8711 44.293 13.8301L44.1904 13.8164L44.1221 13.3721L44.0605 13.3994L44.0947 13.3174L44.04 13.2148L43.9033 13.29L43.8691 13.2422C43.9831 12.8184 43.958 12.4424 43.7939 12.1143C44.0355 11.7451 44.1813 11.3691 44.2314 10.9863L44.5391 10.2617L45.5166 8.97656L45.9541 8.80566L46.583 8.33398C46.8245 8.32943 47.1937 8.19043 47.6904 7.91699L49.249 8.0127C49.7275 7.93978 50.1855 8.07422 50.623 8.41602C50.5775 8.64844 50.6071 8.97201 50.7119 9.38672C50.5889 9.45508 50.5387 9.73307 50.5615 10.2207C50.4567 10.2799 50.4499 10.5352 50.541 10.9863C50.4316 11.2188 50.4066 11.3919 50.4658 11.5059L50.5752 11.5195L50.5957 11.5674L50.5547 11.6562L50.7734 11.8818C50.8464 12.0186 50.8532 12.1963 50.7939 12.415C51.0127 12.7477 51.154 12.8981 51.2178 12.8662C51.4137 13.7002 51.4684 14.1719 51.3818 14.2812L51.416 15.1494C51.1562 15.2952 51.0742 15.5231 51.1699 15.833L50.6982 16.5713L49.7959 17.3506L48.5859 18.2119ZM49.1533 14.0146L49.0645 13.9941L48.8457 13.4541L48.5586 13.085C48.235 12.1143 48.1758 11.5719 48.3809 11.458C48.6224 11.1208 48.6999 10.8792 48.6133 10.7334C48.4993 10.5192 48.4971 10.3665 48.6064 10.2754L48.7021 10.2891L48.7295 10.207C48.6748 10.1159 48.4082 10.0658 47.9297 10.0566L47.7451 10.1592L47.7109 10.248L47.6221 10.2275L47.1299 10.501C46.583 11.2347 46.3665 12.1462 46.4805 13.2354L47.335 15.9424C47.5583 16.3389 47.9707 16.5075 48.5723 16.4482L48.7568 16.3457C48.8115 16.0996 48.9095 15.9355 49.0508 15.8535C48.9688 15.7122 49.0052 15.4912 49.1602 15.1904C49.1009 15.0811 49.1146 14.7689 49.2012 14.2539L49.1533 14.0146Z" fill="#FAEDCD"/>
<path d="M10.0859 8.7168L10.9541 8.58691C11.5739 8.49577 11.9795 8.64844 12.1709 9.04492C12.7952 9.27279 13.1393 9.60547 13.2031 10.043L13.2578 10.4189L13.5107 10.3848L13.292 14.1172L13.4355 14.2197L13.4561 14.3496L13.292 16.4346L12.1504 17.248C13.6543 18.556 14.4609 19.0732 14.5703 18.7998L14.3037 19.1211L14.2627 19.251L14.1396 19.5244L12.8818 18.998L11.2549 17.7129L9.04688 18.0615L10.1816 17.877L9.13574 17.8018C8.70736 17.8656 8.00781 17.4144 7.03711 16.4482L6.86621 15.334L7.625 13.5498C7.65234 11.2484 7.94173 10.0566 8.49316 9.97461C9.15397 9.19531 9.6849 8.77604 10.0859 8.7168ZM9.45703 14.459L9.59375 14.5684L9.60742 14.6914L9.55957 15.2109L9.73047 15.5664L11.0977 15.3408C11.4987 15.277 11.624 14.1924 11.4736 12.0869L11.3232 10.959L10.9336 10.6445C10.3184 10.7402 9.99935 11.2598 9.97656 12.2031L9.45703 14.459Z" stroke="black" stroke-width="12" mask="url(#path-1-outside-1_35_329)"/>
<path d="M24.3252 8.23828C25.1774 8.42513 25.8405 8.72363 26.3145 9.13379L27.0186 9.83789C27.4014 10.7311 27.5928 11.3691 27.5928 11.752L27.5312 11.8135V11.998H27.5928C27.5335 13.2786 27.4469 13.9189 27.333 13.9189H27.4014C27.3467 14.32 27.153 14.7233 26.8203 15.1289C26.7839 15.375 26.4854 15.8216 25.9248 16.4688C25.9248 16.569 25.542 16.9313 24.7764 17.5557C23.6826 18.7861 22.6777 19.4014 21.7617 19.4014C21.625 19.0186 21.4769 18.7406 21.3174 18.5674L21.1875 18.2529C21.1875 17.6195 21.3402 17.3027 21.6455 17.3027C21.6455 17.2344 21.9622 16.9792 22.5957 16.5371L24.2021 14.7461V14.6777L24.1338 14.623V14.5547C24.43 14.3861 24.6875 14.1742 24.9062 13.9189V13.7275L24.0039 13.2148C23.0651 12.5176 22.5957 11.8568 22.5957 11.2324L22.5342 10.7881H22.5957L22.5342 10.7266V10.5352L22.5957 10.1523L22.5342 9.83789C23.113 8.77148 23.71 8.23828 24.3252 8.23828ZM22.5342 9.00391L22.5957 9.07227V9.25684H22.4043V9.13379L22.5342 9.00391ZM24.4482 10.2822L24.2021 10.2139L24.0723 10.4736L24.1338 10.5352V10.5967L24.0723 10.8564C24.0723 11.1071 24.3708 11.4466 24.9678 11.875L25.6104 12.1279H25.8633L26.1846 11.8135V11.6836C26.1846 11.4876 25.9066 11.041 25.3506 10.3438L24.8379 10.0225L24.4482 10.2822Z" stroke="black" stroke-width="12" mask="url(#path-1-outside-1_35_329)"/>
<path d="M31.7764 18.5605L31.2979 18.2393L29.9102 17.5283C29.7598 17.3688 29.6777 17.1979 29.6641 17.0156L29.7051 16.9268L30.2109 16.2158V15.8193L30.8535 14.7666L30.874 14.7119C30.8421 14.5843 30.931 14.1217 31.1406 13.3242C31.1087 12.7728 31.1816 12.2236 31.3594 11.6768L31.4072 11.7041L31.6055 10.8223L31.708 10.7949L31.7285 10.7471L32.1797 9.42773L32.3779 8.14941C33.1025 8.09017 33.7542 8.15397 34.333 8.34082L34.3809 8.36133C34.4902 8.41146 34.5176 8.53223 34.4629 8.72363L34.8184 8.78516C33.9388 11.2461 33.5469 12.5973 33.6426 12.8389L33.5469 12.9004C33.3372 14.4362 33.0957 15.5436 32.8223 16.2227C32.7083 16.5098 32.4417 17.0794 32.0225 17.9316L31.8311 18.2461L31.8789 18.4375L31.8105 18.4717L31.7764 18.5605Z" stroke="black" stroke-width="12" mask="url(#path-1-outside-1_35_329)"/>
<path d="M38.5166 7.97852L39.0977 8.1084L39.8154 8.12891L40.3828 8.04004L41.8115 8.23828L42.0029 8.52539L41.8867 9.86523L41.7295 12.791H41.8252L41.6406 13.167L41.7295 13.8232L41.6406 14.6709L41.9209 14.7666L42.6729 14.5752C42.9326 14.6618 43.1217 14.819 43.2402 15.0469V15.7031L43.1445 15.7988L43.2402 15.8945V16.2705C43.2038 16.3343 43.1217 16.4893 42.9941 16.7354L42.5225 16.6396L41.7363 16.4824V16.5781H41.9277L41.7363 16.7695H39.5762L37.7305 16.79C37.4251 16.6488 37.252 16.4779 37.2109 16.2773C37.2793 15.7168 37.1927 15.4092 36.9512 15.3545L37.2314 15.1631L37.3271 15.2588H37.5186C37.5596 14.9443 37.653 14.7871 37.7988 14.7871L39.4736 14.7256L39.5693 14.6367L39.4736 14.541L39.4395 14.083L39.3848 12.0391L39.5693 10.0703L39.2891 9.87891L38.3867 9.94043L37.5459 9.84473L37.293 8.82617C37.3066 8.27474 37.5254 8.08561 37.9492 8.25879L38.3252 8.16309L38.5166 7.97852Z" stroke="black" stroke-width="12" mask="url(#path-1-outside-1_35_329)"/>
<path d="M48.5859 18.2119C47.7975 18.5036 47.3577 18.5651 47.2666 18.3965C46.6605 18.3783 46.2982 18.2598 46.1797 18.041L46.2412 18.0068C45.8721 17.8701 45.6351 17.7061 45.5303 17.5146L45.5166 17.3164L44.8467 16.5918L44.8262 15.915L44.6758 15.7988L44.6211 15.5596L44.4707 15.4365C44.6029 15.1403 44.5641 14.7985 44.3545 14.4111L44.416 14.3701L44.3203 14.3564C44.2246 14.0465 44.2155 13.8711 44.293 13.8301L44.1904 13.8164L44.1221 13.3721L44.0605 13.3994L44.0947 13.3174L44.04 13.2148L43.9033 13.29L43.8691 13.2422C43.9831 12.8184 43.958 12.4424 43.7939 12.1143C44.0355 11.7451 44.1813 11.3691 44.2314 10.9863L44.5391 10.2617L45.5166 8.97656L45.9541 8.80566L46.583 8.33398C46.8245 8.32943 47.1937 8.19043 47.6904 7.91699L49.249 8.0127C49.7275 7.93978 50.1855 8.07422 50.623 8.41602C50.5775 8.64844 50.6071 8.97201 50.7119 9.38672C50.5889 9.45508 50.5387 9.73307 50.5615 10.2207C50.4567 10.2799 50.4499 10.5352 50.541 10.9863C50.4316 11.2188 50.4066 11.3919 50.4658 11.5059L50.5752 11.5195L50.5957 11.5674L50.5547 11.6562L50.7734 11.8818C50.8464 12.0186 50.8532 12.1963 50.7939 12.415C51.0127 12.7477 51.154 12.8981 51.2178 12.8662C51.4137 13.7002 51.4684 14.1719 51.3818 14.2812L51.416 15.1494C51.1562 15.2952 51.0742 15.5231 51.1699 15.833L50.6982 16.5713L49.7959 17.3506L48.5859 18.2119ZM49.1533 14.0146L49.0645 13.9941L48.8457 13.4541L48.5586 13.085C48.235 12.1143 48.1758 11.5719 48.3809 11.458C48.6224 11.1208 48.6999 10.8792 48.6133 10.7334C48.4993 10.5192 48.4971 10.3665 48.6064 10.2754L48.7021 10.2891L48.7295 10.207C48.6748 10.1159 48.4082 10.0658 47.9297 10.0566L47.7451 10.1592L47.7109 10.248L47.6221 10.2275L47.1299 10.501C46.583 11.2347 46.3665 12.1462 46.4805 13.2354L47.335 15.9424C47.5583 16.3389 47.9707 16.5075 48.5723 16.4482L48.7568 16.3457C48.8115 16.0996 48.9095 15.9355 49.0508 15.8535C48.9688 15.7122 49.0052 15.4912 49.1602 15.1904C49.1009 15.0811 49.1146 14.7689 49.2012 14.2539L49.1533 14.0146Z" stroke="black" stroke-width="12" mask="url(#path-1-outside-1_35_329)"/>
</g>
<defs>
<filter id="filter0_dd_35_329" x="0.676819" y="0.289429" width="67.9932" height="28.4452" filterUnits="userSpaceOnUse" color-interpolation-filters="sRGB">
<feFlood flood-opacity="0" result="BackgroundImageFix"/>
<feColorMatrix in="SourceAlpha" type="matrix" values="0 0 0 0 0 0 0 0 0 0 0 0 0 0 0 0 0 0 127 0" result="hardAlpha"/>
<feOffset dx="4"/>
<feComposite in2="hardAlpha" operator="out"/>
<feColorMatrix type="matrix" values="0 0 0 0 0.831373 0 0 0 0 0.639216 0 0 0 0 0.45098 0 0 0 1 0"/>
<feBlend mode="normal" in2="BackgroundImageFix" result="effect1_dropShadow_35_329"/>
<feColorMatrix in="SourceAlpha" type="matrix" values="0 0 0 0 0 0 0 0 0 0 0 0 0 0 0 0 0 0 127 0" result="hardAlpha"/>
<feOffset dx="5" dy="1"/>
<feComposite in2="hardAlpha" operator="out"/>
<feColorMatrix type="matrix" values="0 0 0 0 0.831373 0 0 0 0 0.639216 0 0 0 0 0.45098 0 0 0 1 0"/>
<feBlend mode="normal" in2="effect1_dropShadow_35_329" result="effect2_dropShadow_35_329"/>
<feBlend mode="normal" in="SourceGraphic" in2="effect2_dropShadow_35_329" result="shape"/>
</filter>
</defs>
</svg>
