<svg width="209" height="125" viewBox="0 0 209 125" fill="none" xmlns="http://www.w3.org/2000/svg">
<g filter="url(#filter0_dd_35_413)">
<mask id="path-1-outside-1_35_413" maskUnits="userSpaceOnUse" x="0.09375" y="0.1875" width="204" height="124" fill="black">
<rect fill="white" x="0.09375" y="0.1875" width="204" height="124"/>
<path d="M16.9062 7.1875C18.7812 7.375 19.7188 7.65625 19.7188 8.03125L21.125 7.1875C22.7708 7.33333 23.625 7.61458 23.6875 8.03125L25.0938 7.75L29.0625 8.875H33L38.125 12V12.5625C38.9792 12.7083 40.1042 14.4062 41.5 17.6562C43.3958 19.5312 44.3438 22.2604 44.3438 25.8438C44.3438 27.0729 43.2083 30.9479 40.9375 37.4688C38.2917 39.5312 36.6979 41.125 36.1562 42.25L33 43.9688C30.9792 44.3646 28.8125 45.5833 26.5 47.625L19.7188 48.7812C19.3229 49.2396 16.1458 49.8021 10.1875 50.4688C9.91667 51.2188 9.64583 51.5938 9.375 51.5938L7.09375 50.75L7.375 48.7812L8.03125 44.25L9.8125 31.2188L9.53125 30.9688L11.0625 29.5312V27.8125L10.7812 26.6875L11.625 22.75L8.34375 13.6875L8.625 13.4062L8.34375 12V11.7188C8.34375 9.63542 9.1875 8.59375 10.875 8.59375C10.875 8.03125 11.1667 7.75 11.75 7.75L12 8.03125H12.3125C12.7083 7.69792 14.2396 7.41667 16.9062 7.1875ZM20.4062 19.0625L20.6875 21.3125L19.8438 31.7812L19.1562 37.4688L20.2812 36.9062L23.0938 37.1562C24.9896 37.1562 26.8854 36.2188 28.7812 34.3438C30.4688 33.8229 31.3125 32.8854 31.3125 31.5312C31.6667 31.5312 32.2292 30.8646 33 29.5312V28.125L33.5625 24.1562C32.6667 24.0521 31.7292 22.9167 30.75 20.75C30.1875 20.75 29.9062 20.4792 29.9062 19.9375H29.3438C29.3438 19.3542 29.0625 19.0625 28.5 19.0625V18.5L26.8125 18.7812L22.2812 15.9688H21.9688C20.4688 15.9688 19.7188 16.3438 19.7188 17.0938L20.4062 19.0625ZM11.5 16.7812V18.5H11.8125V16.7812H11.5Z"/>
<path d="M47.1875 7.375L51.4062 7.96875L53.2188 7.375L65.9375 9.1875L68.3438 8.59375C69.1562 8.59375 69.5625 9.39583 69.5625 11C70.375 11 70.9792 13.2188 71.375 17.6562H70.7812L67.75 18.875L60.4688 17.6562L59.2812 22.5C60.3646 23.3125 65.6042 23.9167 75 24.3125L75.625 23.7188L76.2188 24.3125V28.5625C76.2188 32.1875 74.6042 34 71.375 34L68.9688 32.7812L68.3438 33.4062H67.75L62.3125 32.7812L57.4688 38.8438V39.4375L68.3438 41.25L68.9688 40.6562H69.5625L70.1562 41.25V42.4688C68.4062 48.1146 67 50.9375 65.9375 50.9375C58.0208 50.5417 53.5833 49.9375 52.625 49.125L50.8125 49.7188L42.9375 47.9062L49.5938 27.9375V24.3125H48.375V17.6562L49 12.2188L47.1875 7.96875V7.375Z"/>
<path d="M87.625 8.8125L91.1875 8.96875L91.7188 25.6562L90.4688 33.7812L91.5625 39.5L87.1875 40.3125V40.9375L98.5 39.8438L99.6562 43.625L100.188 47.2812L82.75 50.2188C79.0833 49.8021 77.25 48.7812 77.25 47.1562L78.625 42.7812L78 42.1562V41.5312L79.2188 37.25L78.625 35.4375L79.8438 32.375L79.2188 28.6875L79.8438 24.4062L79.2188 23.7812H79.8438L79.2188 23.1875V18.2812L80.0312 9C82.1146 9.35417 84.6458 9.29167 87.625 8.8125Z"/>
<path d="M102.375 7.375L106.594 7.96875L108.406 7.375L121.125 9.1875L123.531 8.59375C124.344 8.59375 124.75 9.39583 124.75 11C125.562 11 126.167 13.2188 126.562 17.6562H125.969L122.938 18.875L115.656 17.6562L114.469 22.5C115.552 23.3125 120.792 23.9167 130.188 24.3125L130.812 23.7188L131.406 24.3125V28.5625C131.406 32.1875 129.792 34 126.562 34L124.156 32.7812L123.531 33.4062H122.938L117.5 32.7812L112.656 38.8438V39.4375L123.531 41.25L124.156 40.6562H124.75L125.344 41.25V42.4688C123.594 48.1146 122.188 50.9375 121.125 50.9375C113.208 50.5417 108.771 49.9375 107.812 49.125L106 49.7188L98.125 47.9062L104.781 27.9375V24.3125H103.562V17.6562L104.188 12.2188L102.375 7.96875V7.375Z"/>
<path d="M146.562 14.875C145.646 11.0417 146.354 8.67708 148.688 7.78125L158.875 10.125L156.125 16.25C154.938 19.0208 158.292 19.875 166.188 18.8125L166.219 19C166.406 21.3958 166.448 24.375 166.344 27.9375L166.125 28.1875L166.688 28.0938L166.312 29.9375L162.25 30.0938L159.188 28.5L156.688 28.5625L155.594 28.9375L155.844 30.75C156.198 33.9167 156.177 36.8438 155.781 39.5312C156.052 38.6771 156.344 38.3333 156.656 38.5C156.99 38.6667 157.312 40.1042 157.625 42.8125C154.292 44.25 150.771 44.8646 147.062 44.6562L146.25 44.75C145.167 43.9583 144.688 42.7812 144.812 41.2188C143.104 39.5312 143.062 39.1979 144.688 40.2188L144.75 36.3438L145 30.9062L144.281 29.6875C142.719 28.5833 139.552 27.7396 134.781 27.1562L134.5 25C134.917 24.9375 134.615 23.9271 133.594 21.9688L135.125 22.0312C135.812 19.1979 136.385 17.3438 136.844 16.4688L144.156 18.0625L146.219 18.9062L146.562 14.875Z"/>
<path d="M174.688 8.375L178.031 9L178.938 8.6875L180.75 9.28125H181.938L184.656 9L187.375 9.28125L193.438 9C193.75 10 194.354 10.5 195.25 10.5L195.844 11.7188V14.125C195.198 17.1458 194.188 18.6562 192.812 18.6562H189.812C185.896 18.6562 183.375 18.1562 182.25 17.1562C180.438 18.6354 179.531 20.0417 179.531 21.375V21.6875L184.375 22.5938L186.188 22.2812H186.781C194.031 23.4896 197.656 24.5938 197.656 25.5938L197.969 28.625C197.802 31.0417 197.594 32.25 197.344 32.25L196.438 33.1562H196.156C195.698 32.6979 194.583 32.3958 192.812 32.25L192.219 32.8438C189.76 32.4479 186.031 31.4479 181.031 29.8438L178.625 31.9375C177.812 33.4792 177.406 34.6875 177.406 35.5625V35.875C177.406 36.4583 179.823 37.3646 184.656 38.5938C185.51 39.6354 187.323 40.5417 190.094 41.3125V41C191.302 41.2708 191.906 41.6771 191.906 42.2188C191.906 43.6562 190.5 46.375 187.688 50.375H186.781C186.781 49.9792 186.375 49.7812 185.562 49.7812C185.562 49.0312 182.844 47.7188 177.406 45.8438C175.031 44.2396 171.708 42.7292 167.438 41.3125C167.438 40.8333 166.635 40.3333 165.031 39.8125L164.125 38.2812C164.729 38.2812 165.938 36.5729 167.75 33.1562C168.354 33.1146 169.156 31.1979 170.156 27.4062C171.365 25.0729 171.969 22.8646 171.969 20.7812H172.281L171.688 17.75L172.281 10.8125L171.969 9.59375L174.688 8.375ZM174.406 48.25C183.177 51.1667 188.104 53.2812 189.188 54.5938C190.208 54.5938 190.719 55.0938 190.719 56.0938L188 60.3125L188.906 61.2188V61.8438H188.594L184.969 62.125C184.365 61.5 182.552 60.8021 179.531 60.0312C179.531 59.6979 178.219 58.8854 175.594 57.5938L174.688 57.9062L172.281 57H171.375L170.781 54.875C170.781 53.625 171.479 52.125 172.875 50.375L171.969 49.4688C172.823 48.6562 173.635 48.25 174.406 48.25Z"/>
<path d="M51.5625 60.5625L55.5312 59.9688C58.3646 59.5521 60.2188 60.25 61.0938 62.0625C63.9479 63.1042 65.5208 64.625 65.8125 66.625L66.0625 68.3438L67.2188 68.1875L66.2188 85.25L66.875 85.7188L66.9688 86.3125L66.2188 95.8438L61 99.5625C67.875 105.542 71.5625 107.906 72.0625 106.656L70.8438 108.125L70.6562 108.719L70.0938 109.969L64.3438 107.562L56.9062 101.688L46.8125 103.281L52 102.438L47.2188 102.094C45.2604 102.385 42.0625 100.323 37.625 95.9062L36.8438 90.8125L40.3125 82.6562C40.4375 72.1354 41.7604 66.6875 44.2812 66.3125C47.3021 62.75 49.7292 60.8333 51.5625 60.5625ZM48.6875 86.8125L49.3125 87.3125L49.375 87.875L49.1562 90.25L49.9375 91.875L56.1875 90.8438C58.0208 90.5521 58.5938 85.5938 57.9062 75.9688L57.2188 70.8125L55.4375 69.375C52.625 69.8125 51.1667 72.1875 51.0625 76.5L48.6875 86.8125Z"/>
<path d="M72.9375 55.5625L78.375 56.125H79C79 57.2917 79.4062 57.875 80.2188 57.875C78.5938 63.1042 77.7812 71.4167 77.7812 82.8125H78.375L79.5938 85.7188H79C79.25 88.4271 80.0625 89.7812 81.4375 89.7812C84.7917 89.7812 86.8125 87.6562 87.5 83.4062L85.6875 66.5625L86.9062 60.7812L85.6875 59.625C86.8958 59.625 87.5 59.0417 87.5 57.875H89.3125C89.3125 59.0417 90.7292 60.0104 93.5625 60.7812L94.7812 59.625L95.4062 61.3438L94.7812 66.5625C94.7812 74.7708 96 82.125 98.4375 88.625H99.6562L99.0312 88.0312V87.4688L99.6562 85.125H99.0312L96 100.25L96.625 97.3125C94.5208 99.3125 91.2812 100.865 86.9062 101.969C77.5938 101.969 72.9375 100.229 72.9375 96.75C71.5 95.0833 69.875 90.8229 68.0625 83.9688V76.4375C68.0625 62.5208 69.6875 55.5625 72.9375 55.5625Z"/>
<path d="M101.688 59.3438L104.219 59.75L108.594 59.3438C109.49 59.6979 110.115 60.2292 110.469 60.9375V61.3438L109.531 65.0625L110.188 66.6562L109.25 71.9688V72.2188C109.604 72.6771 110.01 74.6771 110.469 78.2188C111.531 80.3438 112.146 82.6458 112.312 85.125H112.062L112.719 88.9688L112.312 89.25V89.5L113.906 94.2812V98.4062C111.615 101.052 108.781 102.812 105.406 103.688H105.156C104.615 103.688 104.302 103.25 104.219 102.375L102.625 102.781C102.188 91.4479 101.562 85.3854 100.75 84.5938L101.031 84.1875C99.3438 77.7292 98.5 72.9062 98.5 69.7188C98.5 68.3854 99.5625 65.9062 101.688 62.2812L101.969 60.6875L101.438 60L101.688 59.75V59.3438ZM100.375 74.75V76.3438H100.75V74.75H100.375Z"/>
<path d="M116.469 98.9375C116.135 97.1875 120.219 89.6875 128.719 76.4375C128.76 74.0417 125.177 73.0729 117.969 73.5312L118.938 69L120.5 66.1875L132.719 67.625L138.156 65.875C141.365 69.4792 143.052 72.1667 143.219 73.9375L142.156 75.0625C139.177 80.2708 137.771 83.3333 137.938 84.25L137.219 83.5938L136.719 83.8438L133.125 88.2188L128.938 94.7812L133.312 95.0625L137.531 93.1875L140.344 92.8438C140.135 94.5521 140.812 96.5833 142.375 98.9375C141.75 99.2917 141.583 99.7083 141.875 100.188L142.438 102.5L136.062 103.844L135.188 106.875L134.281 105.031C128.531 105.031 125.469 105.125 125.094 105.312L118.125 106.469L116.469 98.9375Z"/>
<path d="M152.219 102.75L145.062 102.125L145 97.8438L145.031 95.5625L147.344 93.9062L153.156 94.0312L154.844 95.375C154.635 100.333 153.76 102.792 152.219 102.75ZM157.156 61.3438C158.74 61.6146 159.49 62.0833 159.406 62.75C164.719 64.7708 166.938 69.1875 166.062 76C165.729 78.5833 162.115 81.3229 155.219 84.2188L152.906 90.5C153.031 91.2083 152.375 91.6562 150.938 91.8438C149.521 92.0312 147.74 91.375 145.594 89.875C145.26 89.7083 145.385 87.4167 145.969 83C146.177 81.3333 147.229 79.6771 149.125 78.0312C153.917 76.8438 156.771 75.0729 157.688 72.7188L157.75 72.1562L150.562 69.0312L149.594 68.9375L149.469 70L148.469 69.8438L149.312 67.25L149.125 62.4688L149.344 60.8438L149.906 60.375L151.281 61.125L153.344 60.8438L157.156 61.3438Z"/>
</mask>
<path d="M16.9062 7.1875C18.7812 7.375 19.7188 7.65625 19.7188 8.03125L21.125 7.1875C22.7708 7.33333 23.625 7.61458 23.6875 8.03125L25.0938 7.75L29.0625 8.875H33L38.125 12V12.5625C38.9792 12.7083 40.1042 14.4062 41.5 17.6562C43.3958 19.5312 44.3438 22.2604 44.3438 25.8438C44.3438 27.0729 43.2083 30.9479 40.9375 37.4688C38.2917 39.5312 36.6979 41.125 36.1562 42.25L33 43.9688C30.9792 44.3646 28.8125 45.5833 26.5 47.625L19.7188 48.7812C19.3229 49.2396 16.1458 49.8021 10.1875 50.4688C9.91667 51.2188 9.64583 51.5938 9.375 51.5938L7.09375 50.75L7.375 48.7812L8.03125 44.25L9.8125 31.2188L9.53125 30.9688L11.0625 29.5312V27.8125L10.7812 26.6875L11.625 22.75L8.34375 13.6875L8.625 13.4062L8.34375 12V11.7188C8.34375 9.63542 9.1875 8.59375 10.875 8.59375C10.875 8.03125 11.1667 7.75 11.75 7.75L12 8.03125H12.3125C12.7083 7.69792 14.2396 7.41667 16.9062 7.1875ZM20.4062 19.0625L20.6875 21.3125L19.8438 31.7812L19.1562 37.4688L20.2812 36.9062L23.0938 37.1562C24.9896 37.1562 26.8854 36.2188 28.7812 34.3438C30.4688 33.8229 31.3125 32.8854 31.3125 31.5312C31.6667 31.5312 32.2292 30.8646 33 29.5312V28.125L33.5625 24.1562C32.6667 24.0521 31.7292 22.9167 30.75 20.75C30.1875 20.75 29.9062 20.4792 29.9062 19.9375H29.3438C29.3438 19.3542 29.0625 19.0625 28.5 19.0625V18.5L26.8125 18.7812L22.2812 15.9688H21.9688C20.4688 15.9688 19.7188 16.3438 19.7188 17.0938L20.4062 19.0625ZM11.5 16.7812V18.5H11.8125V16.7812H11.5Z" fill="#FF7171"/>
<path d="M47.1875 7.375L51.4062 7.96875L53.2188 7.375L65.9375 9.1875L68.3438 8.59375C69.1562 8.59375 69.5625 9.39583 69.5625 11C70.375 11 70.9792 13.2188 71.375 17.6562H70.7812L67.75 18.875L60.4688 17.6562L59.2812 22.5C60.3646 23.3125 65.6042 23.9167 75 24.3125L75.625 23.7188L76.2188 24.3125V28.5625C76.2188 32.1875 74.6042 34 71.375 34L68.9688 32.7812L68.3438 33.4062H67.75L62.3125 32.7812L57.4688 38.8438V39.4375L68.3438 41.25L68.9688 40.6562H69.5625L70.1562 41.25V42.4688C68.4062 48.1146 67 50.9375 65.9375 50.9375C58.0208 50.5417 53.5833 49.9375 52.625 49.125L50.8125 49.7188L42.9375 47.9062L49.5938 27.9375V24.3125H48.375V17.6562L49 12.2188L47.1875 7.96875V7.375Z" fill="#FF7171"/>
<path d="M87.625 8.8125L91.1875 8.96875L91.7188 25.6562L90.4688 33.7812L91.5625 39.5L87.1875 40.3125V40.9375L98.5 39.8438L99.6562 43.625L100.188 47.2812L82.75 50.2188C79.0833 49.8021 77.25 48.7812 77.25 47.1562L78.625 42.7812L78 42.1562V41.5312L79.2188 37.25L78.625 35.4375L79.8438 32.375L79.2188 28.6875L79.8438 24.4062L79.2188 23.7812H79.8438L79.2188 23.1875V18.2812L80.0312 9C82.1146 9.35417 84.6458 9.29167 87.625 8.8125Z" fill="#FF7171"/>
<path d="M102.375 7.375L106.594 7.96875L108.406 7.375L121.125 9.1875L123.531 8.59375C124.344 8.59375 124.75 9.39583 124.75 11C125.562 11 126.167 13.2188 126.562 17.6562H125.969L122.938 18.875L115.656 17.6562L114.469 22.5C115.552 23.3125 120.792 23.9167 130.188 24.3125L130.812 23.7188L131.406 24.3125V28.5625C131.406 32.1875 129.792 34 126.562 34L124.156 32.7812L123.531 33.4062H122.938L117.5 32.7812L112.656 38.8438V39.4375L123.531 41.25L124.156 40.6562H124.75L125.344 41.25V42.4688C123.594 48.1146 122.188 50.9375 121.125 50.9375C113.208 50.5417 108.771 49.9375 107.812 49.125L106 49.7188L98.125 47.9062L104.781 27.9375V24.3125H103.562V17.6562L104.188 12.2188L102.375 7.96875V7.375Z" fill="#FF7171"/>
<path d="M146.562 14.875C145.646 11.0417 146.354 8.67708 148.688 7.78125L158.875 10.125L156.125 16.25C154.938 19.0208 158.292 19.875 166.188 18.8125L166.219 19C166.406 21.3958 166.448 24.375 166.344 27.9375L166.125 28.1875L166.688 28.0938L166.312 29.9375L162.25 30.0938L159.188 28.5L156.688 28.5625L155.594 28.9375L155.844 30.75C156.198 33.9167 156.177 36.8438 155.781 39.5312C156.052 38.6771 156.344 38.3333 156.656 38.5C156.99 38.6667 157.312 40.1042 157.625 42.8125C154.292 44.25 150.771 44.8646 147.062 44.6562L146.25 44.75C145.167 43.9583 144.688 42.7812 144.812 41.2188C143.104 39.5312 143.062 39.1979 144.688 40.2188L144.75 36.3438L145 30.9062L144.281 29.6875C142.719 28.5833 139.552 27.7396 134.781 27.1562L134.5 25C134.917 24.9375 134.615 23.9271 133.594 21.9688L135.125 22.0312C135.812 19.1979 136.385 17.3438 136.844 16.4688L144.156 18.0625L146.219 18.9062L146.562 14.875Z" fill="#FF7171"/>
<path d="M174.688 8.375L178.031 9L178.938 8.6875L180.75 9.28125H181.938L184.656 9L187.375 9.28125L193.438 9C193.75 10 194.354 10.5 195.25 10.5L195.844 11.7188V14.125C195.198 17.1458 194.188 18.6562 192.812 18.6562H189.812C185.896 18.6562 183.375 18.1562 182.25 17.1562C180.438 18.6354 179.531 20.0417 179.531 21.375V21.6875L184.375 22.5938L186.188 22.2812H186.781C194.031 23.4896 197.656 24.5938 197.656 25.5938L197.969 28.625C197.802 31.0417 197.594 32.25 197.344 32.25L196.438 33.1562H196.156C195.698 32.6979 194.583 32.3958 192.812 32.25L192.219 32.8438C189.76 32.4479 186.031 31.4479 181.031 29.8438L178.625 31.9375C177.812 33.4792 177.406 34.6875 177.406 35.5625V35.875C177.406 36.4583 179.823 37.3646 184.656 38.5938C185.51 39.6354 187.323 40.5417 190.094 41.3125V41C191.302 41.2708 191.906 41.6771 191.906 42.2188C191.906 43.6562 190.5 46.375 187.688 50.375H186.781C186.781 49.9792 186.375 49.7812 185.562 49.7812C185.562 49.0312 182.844 47.7188 177.406 45.8438C175.031 44.2396 171.708 42.7292 167.438 41.3125C167.438 40.8333 166.635 40.3333 165.031 39.8125L164.125 38.2812C164.729 38.2812 165.938 36.5729 167.75 33.1562C168.354 33.1146 169.156 31.1979 170.156 27.4062C171.365 25.0729 171.969 22.8646 171.969 20.7812H172.281L171.688 17.75L172.281 10.8125L171.969 9.59375L174.688 8.375ZM174.406 48.25C183.177 51.1667 188.104 53.2812 189.188 54.5938C190.208 54.5938 190.719 55.0938 190.719 56.0938L188 60.3125L188.906 61.2188V61.8438H188.594L184.969 62.125C184.365 61.5 182.552 60.8021 179.531 60.0312C179.531 59.6979 178.219 58.8854 175.594 57.5938L174.688 57.9062L172.281 57H171.375L170.781 54.875C170.781 53.625 171.479 52.125 172.875 50.375L171.969 49.4688C172.823 48.6562 173.635 48.25 174.406 48.25Z" fill="#FF7171"/>
<path d="M51.5625 60.5625L55.5312 59.9688C58.3646 59.5521 60.2188 60.25 61.0938 62.0625C63.9479 63.1042 65.5208 64.625 65.8125 66.625L66.0625 68.3438L67.2188 68.1875L66.2188 85.25L66.875 85.7188L66.9688 86.3125L66.2188 95.8438L61 99.5625C67.875 105.542 71.5625 107.906 72.0625 106.656L70.8438 108.125L70.6562 108.719L70.0938 109.969L64.3438 107.562L56.9062 101.688L46.8125 103.281L52 102.438L47.2188 102.094C45.2604 102.385 42.0625 100.323 37.625 95.9062L36.8438 90.8125L40.3125 82.6562C40.4375 72.1354 41.7604 66.6875 44.2812 66.3125C47.3021 62.75 49.7292 60.8333 51.5625 60.5625ZM48.6875 86.8125L49.3125 87.3125L49.375 87.875L49.1562 90.25L49.9375 91.875L56.1875 90.8438C58.0208 90.5521 58.5938 85.5938 57.9062 75.9688L57.2188 70.8125L55.4375 69.375C52.625 69.8125 51.1667 72.1875 51.0625 76.5L48.6875 86.8125Z" fill="#FF7171"/>
<path d="M72.9375 55.5625L78.375 56.125H79C79 57.2917 79.4062 57.875 80.2188 57.875C78.5938 63.1042 77.7812 71.4167 77.7812 82.8125H78.375L79.5938 85.7188H79C79.25 88.4271 80.0625 89.7812 81.4375 89.7812C84.7917 89.7812 86.8125 87.6562 87.5 83.4062L85.6875 66.5625L86.9062 60.7812L85.6875 59.625C86.8958 59.625 87.5 59.0417 87.5 57.875H89.3125C89.3125 59.0417 90.7292 60.0104 93.5625 60.7812L94.7812 59.625L95.4062 61.3438L94.7812 66.5625C94.7812 74.7708 96 82.125 98.4375 88.625H99.6562L99.0312 88.0312V87.4688L99.6562 85.125H99.0312L96 100.25L96.625 97.3125C94.5208 99.3125 91.2812 100.865 86.9062 101.969C77.5938 101.969 72.9375 100.229 72.9375 96.75C71.5 95.0833 69.875 90.8229 68.0625 83.9688V76.4375C68.0625 62.5208 69.6875 55.5625 72.9375 55.5625Z" fill="#FF7171"/>
<path d="M101.688 59.3438L104.219 59.75L108.594 59.3438C109.49 59.6979 110.115 60.2292 110.469 60.9375V61.3438L109.531 65.0625L110.188 66.6562L109.25 71.9688V72.2188C109.604 72.6771 110.01 74.6771 110.469 78.2188C111.531 80.3438 112.146 82.6458 112.312 85.125H112.062L112.719 88.9688L112.312 89.25V89.5L113.906 94.2812V98.4062C111.615 101.052 108.781 102.812 105.406 103.688H105.156C104.615 103.688 104.302 103.25 104.219 102.375L102.625 102.781C102.188 91.4479 101.562 85.3854 100.75 84.5938L101.031 84.1875C99.3438 77.7292 98.5 72.9062 98.5 69.7188C98.5 68.3854 99.5625 65.9062 101.688 62.2812L101.969 60.6875L101.438 60L101.688 59.75V59.3438ZM100.375 74.75V76.3438H100.75V74.75H100.375Z" fill="#FF7171"/>
<path d="M116.469 98.9375C116.135 97.1875 120.219 89.6875 128.719 76.4375C128.76 74.0417 125.177 73.0729 117.969 73.5312L118.938 69L120.5 66.1875L132.719 67.625L138.156 65.875C141.365 69.4792 143.052 72.1667 143.219 73.9375L142.156 75.0625C139.177 80.2708 137.771 83.3333 137.938 84.25L137.219 83.5938L136.719 83.8438L133.125 88.2188L128.938 94.7812L133.312 95.0625L137.531 93.1875L140.344 92.8438C140.135 94.5521 140.812 96.5833 142.375 98.9375C141.75 99.2917 141.583 99.7083 141.875 100.188L142.438 102.5L136.062 103.844L135.188 106.875L134.281 105.031C128.531 105.031 125.469 105.125 125.094 105.312L118.125 106.469L116.469 98.9375Z" fill="#FF7171"/>
<path d="M152.219 102.75L145.062 102.125L145 97.8438L145.031 95.5625L147.344 93.9062L153.156 94.0312L154.844 95.375C154.635 100.333 153.76 102.792 152.219 102.75ZM157.156 61.3438C158.74 61.6146 159.49 62.0833 159.406 62.75C164.719 64.7708 166.938 69.1875 166.062 76C165.729 78.5833 162.115 81.3229 155.219 84.2188L152.906 90.5C153.031 91.2083 152.375 91.6562 150.938 91.8438C149.521 92.0312 147.74 91.375 145.594 89.875C145.26 89.7083 145.385 87.4167 145.969 83C146.177 81.3333 147.229 79.6771 149.125 78.0312C153.917 76.8438 156.771 75.0729 157.688 72.7188L157.75 72.1562L150.562 69.0312L149.594 68.9375L149.469 70L148.469 69.8438L149.312 67.25L149.125 62.4688L149.344 60.8438L149.906 60.375L151.281 61.125L153.344 60.8438L157.156 61.3438Z" fill="#FF7171"/>
<path d="M16.9062 7.1875C18.7812 7.375 19.7188 7.65625 19.7188 8.03125L21.125 7.1875C22.7708 7.33333 23.625 7.61458 23.6875 8.03125L25.0938 7.75L29.0625 8.875H33L38.125 12V12.5625C38.9792 12.7083 40.1042 14.4062 41.5 17.6562C43.3958 19.5312 44.3438 22.2604 44.3438 25.8438C44.3438 27.0729 43.2083 30.9479 40.9375 37.4688C38.2917 39.5312 36.6979 41.125 36.1562 42.25L33 43.9688C30.9792 44.3646 28.8125 45.5833 26.5 47.625L19.7188 48.7812C19.3229 49.2396 16.1458 49.8021 10.1875 50.4688C9.91667 51.2188 9.64583 51.5938 9.375 51.5938L7.09375 50.75L7.375 48.7812L8.03125 44.25L9.8125 31.2188L9.53125 30.9688L11.0625 29.5312V27.8125L10.7812 26.6875L11.625 22.75L8.34375 13.6875L8.625 13.4062L8.34375 12V11.7188C8.34375 9.63542 9.1875 8.59375 10.875 8.59375C10.875 8.03125 11.1667 7.75 11.75 7.75L12 8.03125H12.3125C12.7083 7.69792 14.2396 7.41667 16.9062 7.1875ZM20.4062 19.0625L20.6875 21.3125L19.8438 31.7812L19.1562 37.4688L20.2812 36.9062L23.0938 37.1562C24.9896 37.1562 26.8854 36.2188 28.7812 34.3438C30.4688 33.8229 31.3125 32.8854 31.3125 31.5312C31.6667 31.5312 32.2292 30.8646 33 29.5312V28.125L33.5625 24.1562C32.6667 24.0521 31.7292 22.9167 30.75 20.75C30.1875 20.75 29.9062 20.4792 29.9062 19.9375H29.3438C29.3438 19.3542 29.0625 19.0625 28.5 19.0625V18.5L26.8125 18.7812L22.2812 15.9688H21.9688C20.4688 15.9688 19.7188 16.3438 19.7188 17.0938L20.4062 19.0625ZM11.5 16.7812V18.5H11.8125V16.7812H11.5Z" stroke="black" stroke-width="12" mask="url(#path-1-outside-1_35_413)"/>
<path d="M47.1875 7.375L51.4062 7.96875L53.2188 7.375L65.9375 9.1875L68.3438 8.59375C69.1562 8.59375 69.5625 9.39583 69.5625 11C70.375 11 70.9792 13.2188 71.375 17.6562H70.7812L67.75 18.875L60.4688 17.6562L59.2812 22.5C60.3646 23.3125 65.6042 23.9167 75 24.3125L75.625 23.7188L76.2188 24.3125V28.5625C76.2188 32.1875 74.6042 34 71.375 34L68.9688 32.7812L68.3438 33.4062H67.75L62.3125 32.7812L57.4688 38.8438V39.4375L68.3438 41.25L68.9688 40.6562H69.5625L70.1562 41.25V42.4688C68.4062 48.1146 67 50.9375 65.9375 50.9375C58.0208 50.5417 53.5833 49.9375 52.625 49.125L50.8125 49.7188L42.9375 47.9062L49.5938 27.9375V24.3125H48.375V17.6562L49 12.2188L47.1875 7.96875V7.375Z" stroke="black" stroke-width="12" mask="url(#path-1-outside-1_35_413)"/>
<path d="M87.625 8.8125L91.1875 8.96875L91.7188 25.6562L90.4688 33.7812L91.5625 39.5L87.1875 40.3125V40.9375L98.5 39.8438L99.6562 43.625L100.188 47.2812L82.75 50.2188C79.0833 49.8021 77.25 48.7812 77.25 47.1562L78.625 42.7812L78 42.1562V41.5312L79.2188 37.25L78.625 35.4375L79.8438 32.375L79.2188 28.6875L79.8438 24.4062L79.2188 23.7812H79.8438L79.2188 23.1875V18.2812L80.0312 9C82.1146 9.35417 84.6458 9.29167 87.625 8.8125Z" stroke="black" stroke-width="12" mask="url(#path-1-outside-1_35_413)"/>
<path d="M102.375 7.375L106.594 7.96875L108.406 7.375L121.125 9.1875L123.531 8.59375C124.344 8.59375 124.75 9.39583 124.75 11C125.562 11 126.167 13.2188 126.562 17.6562H125.969L122.938 18.875L115.656 17.6562L114.469 22.5C115.552 23.3125 120.792 23.9167 130.188 24.3125L130.812 23.7188L131.406 24.3125V28.5625C131.406 32.1875 129.792 34 126.562 34L124.156 32.7812L123.531 33.4062H122.938L117.5 32.7812L112.656 38.8438V39.4375L123.531 41.25L124.156 40.6562H124.75L125.344 41.25V42.4688C123.594 48.1146 122.188 50.9375 121.125 50.9375C113.208 50.5417 108.771 49.9375 107.812 49.125L106 49.7188L98.125 47.9062L104.781 27.9375V24.3125H103.562V17.6562L104.188 12.2188L102.375 7.96875V7.375Z" stroke="black" stroke-width="12" mask="url(#path-1-outside-1_35_413)"/>
<path d="M146.562 14.875C145.646 11.0417 146.354 8.67708 148.688 7.78125L158.875 10.125L156.125 16.25C154.938 19.0208 158.292 19.875 166.188 18.8125L166.219 19C166.406 21.3958 166.448 24.375 166.344 27.9375L166.125 28.1875L166.688 28.0938L166.312 29.9375L162.25 30.0938L159.188 28.5L156.688 28.5625L155.594 28.9375L155.844 30.75C156.198 33.9167 156.177 36.8438 155.781 39.5312C156.052 38.6771 156.344 38.3333 156.656 38.5C156.99 38.6667 157.312 40.1042 157.625 42.8125C154.292 44.25 150.771 44.8646 147.062 44.6562L146.25 44.75C145.167 43.9583 144.688 42.7812 144.812 41.2188C143.104 39.5312 143.062 39.1979 144.688 40.2188L144.75 36.3438L145 30.9062L144.281 29.6875C142.719 28.5833 139.552 27.7396 134.781 27.1562L134.5 25C134.917 24.9375 134.615 23.9271 133.594 21.9688L135.125 22.0312C135.812 19.1979 136.385 17.3438 136.844 16.4688L144.156 18.0625L146.219 18.9062L146.562 14.875Z" stroke="black" stroke-width="12" mask="url(#path-1-outside-1_35_413)"/>
<path d="M174.688 8.375L178.031 9L178.938 8.6875L180.75 9.28125H181.938L184.656 9L187.375 9.28125L193.438 9C193.75 10 194.354 10.5 195.25 10.5L195.844 11.7188V14.125C195.198 17.1458 194.188 18.6562 192.812 18.6562H189.812C185.896 18.6562 183.375 18.1562 182.25 17.1562C180.438 18.6354 179.531 20.0417 179.531 21.375V21.6875L184.375 22.5938L186.188 22.2812H186.781C194.031 23.4896 197.656 24.5938 197.656 25.5938L197.969 28.625C197.802 31.0417 197.594 32.25 197.344 32.25L196.438 33.1562H196.156C195.698 32.6979 194.583 32.3958 192.812 32.25L192.219 32.8438C189.76 32.4479 186.031 31.4479 181.031 29.8438L178.625 31.9375C177.812 33.4792 177.406 34.6875 177.406 35.5625V35.875C177.406 36.4583 179.823 37.3646 184.656 38.5938C185.51 39.6354 187.323 40.5417 190.094 41.3125V41C191.302 41.2708 191.906 41.6771 191.906 42.2188C191.906 43.6562 190.5 46.375 187.688 50.375H186.781C186.781 49.9792 186.375 49.7812 185.562 49.7812C185.562 49.0312 182.844 47.7188 177.406 45.8438C175.031 44.2396 171.708 42.7292 167.438 41.3125C167.438 40.8333 166.635 40.3333 165.031 39.8125L164.125 38.2812C164.729 38.2812 165.938 36.5729 167.75 33.1562C168.354 33.1146 169.156 31.1979 170.156 27.4062C171.365 25.0729 171.969 22.8646 171.969 20.7812H172.281L171.688 17.75L172.281 10.8125L171.969 9.59375L174.688 8.375ZM174.406 48.25C183.177 51.1667 188.104 53.2812 189.188 54.5938C190.208 54.5938 190.719 55.0938 190.719 56.0938L188 60.3125L188.906 61.2188V61.8438H188.594L184.969 62.125C184.365 61.5 182.552 60.8021 179.531 60.0312C179.531 59.6979 178.219 58.8854 175.594 57.5938L174.688 57.9062L172.281 57H171.375L170.781 54.875C170.781 53.625 171.479 52.125 172.875 50.375L171.969 49.4688C172.823 48.6562 173.635 48.25 174.406 48.25Z" stroke="black" stroke-width="12" mask="url(#path-1-outside-1_35_413)"/>
<path d="M51.5625 60.5625L55.5312 59.9688C58.3646 59.5521 60.2188 60.25 61.0938 62.0625C63.9479 63.1042 65.5208 64.625 65.8125 66.625L66.0625 68.3438L67.2188 68.1875L66.2188 85.25L66.875 85.7188L66.9688 86.3125L66.2188 95.8438L61 99.5625C67.875 105.542 71.5625 107.906 72.0625 106.656L70.8438 108.125L70.6562 108.719L70.0938 109.969L64.3438 107.562L56.9062 101.688L46.8125 103.281L52 102.438L47.2188 102.094C45.2604 102.385 42.0625 100.323 37.625 95.9062L36.8438 90.8125L40.3125 82.6562C40.4375 72.1354 41.7604 66.6875 44.2812 66.3125C47.3021 62.75 49.7292 60.8333 51.5625 60.5625ZM48.6875 86.8125L49.3125 87.3125L49.375 87.875L49.1562 90.25L49.9375 91.875L56.1875 90.8438C58.0208 90.5521 58.5938 85.5938 57.9062 75.9688L57.2188 70.8125L55.4375 69.375C52.625 69.8125 51.1667 72.1875 51.0625 76.5L48.6875 86.8125Z" stroke="black" stroke-width="12" mask="url(#path-1-outside-1_35_413)"/>
<path d="M72.9375 55.5625L78.375 56.125H79C79 57.2917 79.4062 57.875 80.2188 57.875C78.5938 63.1042 77.7812 71.4167 77.7812 82.8125H78.375L79.5938 85.7188H79C79.25 88.4271 80.0625 89.7812 81.4375 89.7812C84.7917 89.7812 86.8125 87.6562 87.5 83.4062L85.6875 66.5625L86.9062 60.7812L85.6875 59.625C86.8958 59.625 87.5 59.0417 87.5 57.875H89.3125C89.3125 59.0417 90.7292 60.0104 93.5625 60.7812L94.7812 59.625L95.4062 61.3438L94.7812 66.5625C94.7812 74.7708 96 82.125 98.4375 88.625H99.6562L99.0312 88.0312V87.4688L99.6562 85.125H99.0312L96 100.25L96.625 97.3125C94.5208 99.3125 91.2812 100.865 86.9062 101.969C77.5938 101.969 72.9375 100.229 72.9375 96.75C71.5 95.0833 69.875 90.8229 68.0625 83.9688V76.4375C68.0625 62.5208 69.6875 55.5625 72.9375 55.5625Z" stroke="black" stroke-width="12" mask="url(#path-1-outside-1_35_413)"/>
<path d="M101.688 59.3438L104.219 59.75L108.594 59.3438C109.49 59.6979 110.115 60.2292 110.469 60.9375V61.3438L109.531 65.0625L110.188 66.6562L109.25 71.9688V72.2188C109.604 72.6771 110.01 74.6771 110.469 78.2188C111.531 80.3438 112.146 82.6458 112.312 85.125H112.062L112.719 88.9688L112.312 89.25V89.5L113.906 94.2812V98.4062C111.615 101.052 108.781 102.812 105.406 103.688H105.156C104.615 103.688 104.302 103.25 104.219 102.375L102.625 102.781C102.188 91.4479 101.562 85.3854 100.75 84.5938L101.031 84.1875C99.3438 77.7292 98.5 72.9062 98.5 69.7188C98.5 68.3854 99.5625 65.9062 101.688 62.2812L101.969 60.6875L101.438 60L101.688 59.75V59.3438ZM100.375 74.75V76.3438H100.75V74.75H100.375Z" stroke="black" stroke-width="12" mask="url(#path-1-outside-1_35_413)"/>
<path d="M116.469 98.9375C116.135 97.1875 120.219 89.6875 128.719 76.4375C128.76 74.0417 125.177 73.0729 117.969 73.5312L118.938 69L120.5 66.1875L132.719 67.625L138.156 65.875C141.365 69.4792 143.052 72.1667 143.219 73.9375L142.156 75.0625C139.177 80.2708 137.771 83.3333 137.938 84.25L137.219 83.5938L136.719 83.8438L133.125 88.2188L128.938 94.7812L133.312 95.0625L137.531 93.1875L140.344 92.8438C140.135 94.5521 140.812 96.5833 142.375 98.9375C141.75 99.2917 141.583 99.7083 141.875 100.188L142.438 102.5L136.062 103.844L135.188 106.875L134.281 105.031C128.531 105.031 125.469 105.125 125.094 105.312L118.125 106.469L116.469 98.9375Z" stroke="black" stroke-width="12" mask="url(#path-1-outside-1_35_413)"/>
<path d="M152.219 102.75L145.062 102.125L145 97.8438L145.031 95.5625L147.344 93.9062L153.156 94.0312L154.844 95.375C154.635 100.333 153.76 102.792 152.219 102.75ZM157.156 61.3438C158.74 61.6146 159.49 62.0833 159.406 62.75C164.719 64.7708 166.938 69.1875 166.062 76C165.729 78.5833 162.115 81.3229 155.219 84.2188L152.906 90.5C153.031 91.2083 152.375 91.6562 150.938 91.8438C149.521 92.0312 147.74 91.375 145.594 89.875C145.26 89.7083 145.385 87.4167 145.969 83C146.177 81.3333 147.229 79.6771 149.125 78.0312C153.917 76.8438 156.771 75.0729 157.688 72.7188L157.75 72.1562L150.562 69.0312L149.594 68.9375L149.469 70L148.469 69.8438L149.312 67.25L149.125 62.4688L149.344 60.8438L149.906 60.375L151.281 61.125L153.344 60.8438L157.156 61.3438Z" stroke="black" stroke-width="12" mask="url(#path-1-outside-1_35_413)"/>
</g>
<defs>
<filter id="filter0_dd_35_413" x="0.468979" y="0.471436" width="208.521" height="123.977" filterUnits="userSpaceOnUse" color-interpolation-filters="sRGB">
<feFlood flood-opacity="0" result="BackgroundImageFix"/>
<feColorMatrix in="SourceAlpha" type="matrix" values="0 0 0 0 0 0 0 0 0 0 0 0 0 0 0 0 0 0 127 0" result="hardAlpha"/>
<feOffset dx="4"/>
<feComposite in2="hardAlpha" operator="out"/>
<feColorMatrix type="matrix" values="0 0 0 0 0.831373 0 0 0 0 0.639216 0 0 0 0 0.45098 0 0 0 1 0"/>
<feBlend mode="normal" in2="BackgroundImageFix" result="effect1_dropShadow_35_413"/>
<feColorMatrix in="SourceAlpha" type="matrix" values="0 0 0 0 0 0 0 0 0 0 0 0 0 0 0 0 0 0 127 0" result="hardAlpha"/>
<feOffset dx="5" dy="1"/>
<feComposite in2="hardAlpha" operator="out"/>
<feColorMatrix type="matrix" values="0 0 0 0 0.831373 0 0 0 0 0.639216 0 0 0 0 0.45098 0 0 0 1 0"/>
<feBlend mode="normal" in2="effect1_dropShadow_35_413" result="effect2_dropShadow_35_413"/>
<feBlend mode="normal" in="SourceGraphic" in2="effect2_dropShadow_35_413" result="shape"/>
</filter>
</defs>
</svg>
