<svg width="260" height="228" viewBox="0 0 260 228" fill="none" xmlns="http://www.w3.org/2000/svg">
<g filter="url(#filter0_dd_35_414)">
<mask id="path-1-outside-1_35_414" maskUnits="userSpaceOnUse" x="0.125" y="-0.5625" width="255" height="227" fill="black">
<rect fill="white" x="0.125" y="-0.5625" width="255" height="227"/>
<path d="M32.125 11.2188H32.625L32.375 12.5H33.6562C35.5938 13.9375 37.125 14.7083 38.25 14.8125V16.0938L38 16.3438L38.25 16.5938V17.375L31.1875 27.2188C30.6875 27.5938 30.4375 28.0208 30.4375 28.5L30.1875 41.2812L29.1562 39.9375L29.6875 43.25L29.4062 44.0312C29.4062 45.1562 29.8333 46.0938 30.6875 46.8438V47.0938C30.0208 47.0938 29.4271 47.3438 28.9062 47.8438H28.6562L25.8125 47.0938L23 46.9375H22.125L20.5 45.6875H19.2188V44.1562L19.4688 43.125L19.2188 42.0938L19.4688 41.8438L19.2188 41.0938C19.4896 36.3229 19.6562 33.0729 19.7188 31.3438H19.4375L19.7188 31.0938C19.7188 28.6979 18.6458 25.3125 16.5 20.9375C15.7917 17.25 14.9375 15.0312 13.9375 14.2812C13.9375 12.3854 14.5312 11.4479 15.7188 11.4688L18.9375 10.5938H20.9688C21.4271 10.5938 21.9375 11.5312 22.5 13.4062C23 13.4062 23.6042 14.6875 24.3125 17.25C24.6458 17.25 24.8125 17.5 24.8125 18L25.0625 18.2812H25.3125C26.2083 18.3229 27.2812 17.1667 28.5312 14.8125C29.5104 13.1042 30.4479 12.25 31.3438 12.25C31.4271 11.5625 31.6875 11.2188 32.125 11.2188Z"/>
<path d="M56.5625 12.4062H60.7812C63.7812 12.4062 65.5938 13.4167 66.2188 15.4375C69.0312 16.9375 70.4375 18.75 70.4375 20.875V22.6875H71.6562L68.0312 40.1875L68.625 40.7812V41.4062L67.4375 45.625H68.0312C65.9271 51.6667 62.5 54.6875 57.75 54.6875L58.375 55.2812V55.875L54.75 57.0938L54.125 56.5L51.125 57.0938L45.0938 56.5V55.875L45.6875 55.2812V54.6875C43.6042 54.6875 40.5833 52.0625 36.625 46.8125V41.4062L41.4688 33.5312C43.2188 22.6771 45.4271 17.25 48.0938 17.25C51.7812 14.0208 54.6042 12.4062 56.5625 12.4062ZM60.1875 14.2188V15.4375H62L60.7812 14.2188H60.1875ZM48.6875 38.9688L49.3125 39.5938V40.1875L48.6875 42.5938L49.3125 44.4062H56.5625C58.6667 44.4062 60.0729 39.375 60.7812 29.3125V23.875L58.9688 22.0625C55.7396 22.0625 53.7292 24.2812 52.9375 28.7188L48.6875 38.9688Z"/>
<path d="M77.4375 13.3438L83.5312 14.4688L81.9688 23.0625L81.0312 22.5L81.5312 23.2188L81.4062 23.8438L80.3438 26.1875L80.8438 26.9062L80.75 27.5312L80.0312 28L79.5625 44.4062L81.4062 44.75C85.0104 43.4167 86.9688 41.875 87.2812 40.125C89.3854 29.0208 90.1458 21.6562 89.5625 18.0312L91.625 17.125L97.1562 18.1562C98.0729 18.3229 98.5 19.4479 98.4375 21.5312L97.8125 21.4062L98.3125 22.125L98.2188 22.75L97.4688 23.25L97.375 23.875C96.0417 28.25 96.3438 33.2812 98.2812 38.9688L97.5938 42.625L96.4375 45.5938L96.9375 46.3125C95.9792 46.1458 94.625 47.8021 92.875 51.2812C89.8958 55.3646 84.3646 56.6771 76.2812 55.2188L74.4375 54.875C71.2917 54.2917 70.0833 43.2188 70.8125 21.6562C71.9375 15.5104 74.1458 12.7396 77.4375 13.3438Z"/>
<path d="M111.75 6.4375C119.604 9.64583 123.531 12.7917 123.531 15.875C124.719 16.7708 125.312 18.1458 125.312 20H124.719L125.312 20.5938V22.375C125.312 24.4792 123.542 27.0312 120 30.0312C121.042 30.0312 125.917 33.25 134.625 39.6875L139 41.1875L134.625 47.3438H131.688C131.688 46.6771 126.615 43.0625 116.469 36.5L115.281 35.3438V37.0938L117.406 55.7188L114.844 55.5938L105.656 53.9062L104.469 51.5625V39.1562L102.719 33.2812L103.281 31.5L96.8125 23.8438C97.0625 20.6979 97.6562 19.125 98.5938 19.125L99.1562 19.7188H99.75L100.938 18.5312L99.75 12.6562C100.542 12.6562 101.135 11.4688 101.531 9.09375C101.531 7.53125 104.938 6.64583 111.75 6.4375ZM109.625 17.375V18.5312C110.646 21.0938 111.948 22.5625 113.531 22.9375C115.885 22.1458 117.062 21.3646 117.062 20.5938C117.062 17.8438 115.375 16.1771 112 15.5938L109.625 17.375Z"/>
<path d="M155.812 14.5625L159.781 13.9688C162.615 13.5521 164.469 14.25 165.344 16.0625C168.198 17.1042 169.771 18.625 170.062 20.625L170.312 22.3438L171.469 22.1875L170.469 39.25L171.125 39.7188L171.219 40.3125L170.688 44.4688L170.625 46.8125C170.375 49.9167 168.323 52.3646 164.469 54.1562L173.5 61.0625L174.031 63.25L170.062 63.8125L165.781 61.3125L160.156 56.4062L151.281 57.1562L151.062 57.2812L151.562 56.6562L151.469 56.0938C149.51 56.3854 146.312 54.3229 141.875 49.9062L141.094 44.8125L144.562 36.6562C144.688 26.1354 146.01 20.6875 148.531 20.3125C151.552 16.75 153.979 14.8333 155.812 14.5625ZM152.938 40.8125L153.562 41.3125L153.625 41.875L153.406 44.25L154.188 45.875L160.438 44.8438C162.271 44.5521 162.844 39.5938 162.156 29.9688L161.469 24.8125L159.688 23.375C156.875 23.8125 155.417 26.1875 155.312 30.5L152.938 40.8125Z"/>
<path d="M180.062 13.3438L186.156 14.4688L184.594 23.0625L183.656 22.5L184.156 23.2188L184.031 23.8438L182.969 26.1875L183.469 26.9062L183.375 27.5312L182.656 28L182.188 44.4062L184.031 44.75C187.635 43.4167 189.594 41.875 189.906 40.125C192.01 29.0208 192.771 21.6562 192.188 18.0312L194.25 17.125L199.781 18.1562C200.698 18.3229 201.125 19.4479 201.062 21.5312L200.438 21.4062L200.938 22.125L200.844 22.75L200.094 23.25L200 23.875C198.667 28.25 198.969 33.2812 200.906 38.9688L200.219 42.625L199.062 45.5938L199.562 46.3125C198.604 46.1458 197.25 47.8021 195.5 51.2812C192.521 55.3646 186.99 56.6771 178.906 55.2188L177.062 54.875C173.917 54.2917 172.708 43.2188 173.438 21.6562C174.562 15.5104 176.771 12.7396 180.062 13.3438Z"/>
<path d="M207.969 10.7812C210.552 10.7812 213.938 11.7812 218.125 13.7812C214.938 24.0312 213.344 32.3854 213.344 38.8438L213.938 50.7812L212.156 50.1875L203.781 51.375L203.188 48.375L202.594 35.25L206.781 10.7812H207.969Z"/>
<path d="M217.062 46.1562C216.729 44.4062 220.812 36.9062 229.312 23.6562C229.354 21.2604 225.771 20.2917 218.562 20.75L219.531 16.2188L221.094 13.4062L233.312 14.8438L238.75 13.0938C241.958 16.6979 243.646 19.3854 243.812 21.1562L242.75 22.2812C239.771 27.4896 238.365 30.5521 238.531 31.4688L237.812 30.8125L237.312 31.0625L233.719 35.4375L229.531 42L233.906 42.2812L238.125 40.4062L240.938 40.0625C240.729 41.7708 241.406 43.8021 242.969 46.1562C242.344 46.5104 242.177 46.9271 242.469 47.4062L243.031 49.7188L236.656 51.0625L235.781 54.0938L234.875 52.25C229.125 52.25 226.062 52.3438 225.688 52.5312L218.719 53.6875L217.062 46.1562Z"/>
<path d="M104.406 62.5625H105.094C111.531 62.875 114.75 63.7917 114.75 65.3125L114.062 73.5312L114.75 75.5938C113.792 83.4896 113.312 91.7188 113.312 100.281V104.406H105.094L103.719 103.031L104.406 90.6875L103.719 88.625L96.0938 89.5625C95.1771 89.5625 94.7188 90.25 94.7188 91.625L95.4062 95.0625L94.7188 99.1875H95.4062L94.7188 99.875V105.344L85.125 107.406L84.4375 105.344L85.125 95.75L83.75 83.4062V82.7188L85.125 80.6562V75.1562L84.4375 74.4688V73.7812H85.125L84.4375 73.0938V72.4062L85.125 71.7188V71.0312L84.4375 70.375L85.125 66.9375V64.1875H88.5625L89.25 64.875L89.9375 64.1875H94.0312L94.7188 64.875H95.4062L94.0312 79.2812H94.7188C100.552 78.4688 103.271 77.5833 102.875 76.625L103.125 77.6562L103.031 73.5312V72.8438L104.406 65.3125V62.5625Z"/>
<path d="M125.625 63.2188L126.094 62.7188C132.698 64.0729 137.302 64.9062 139.906 65.2188L141.125 67.8438V71.9375L141.312 73.6562C141.458 78.7396 142.135 81.5417 143.344 82.0625L146.656 82.625L146.812 82.6562L148.031 85.4688L147.625 87.8125L147.094 90.0312V91.2188L143.188 92.125L144.094 97.625C143.698 104.25 143.688 107.052 144.062 106.031L135.75 107.562C134.562 107.562 134.062 104.031 134.25 96.9688L129.062 96.1562C128.375 96.3646 127.635 99.9271 126.844 106.844L116.969 102.812L117.906 96.6875L119 91.4062L118.906 89.4375V83C119.281 84.1042 121.042 78.1146 124.188 65.0312L125.625 63.2188ZM132.156 76.875L128.906 85.2812L133.219 86.0312L134.906 86.6875L134.625 84.875L135.344 81.8125L133.938 75.5L132.156 76.875Z"/>
<path d="M170.875 65.6875L173.469 66.25L175.438 65.6875V66.25L177.406 76.125L162.812 78.5625L161.5 81.4375C161.5 82.1875 164.115 84.8958 169.344 89.5625C172.573 94.1042 174.323 97.5833 174.594 100C173.115 104.646 170.5 106.969 166.75 106.969L161.5 108.688L156.906 109.281C152.99 109.281 151.031 106.385 151.031 100.594L153 97.0938L156.25 97.6875H160.844L162.156 96.5312V95.375C161.156 93.4167 158.323 91.2917 153.656 89C150.885 86.5417 149.354 84.0208 149.062 81.4375C149.938 72.9375 152.99 68.6875 158.219 68.6875C163.635 66.375 167.854 65.375 170.875 65.6875Z"/>
<path d="M68.875 110.406H69.9062C71.9479 110.656 72.9688 111.156 72.9688 111.906C74.0521 113.948 75.7604 115.365 78.0938 116.156C79.5104 116.76 81.6667 117.156 84.5625 117.344C88.3333 119.885 90.5 121.698 91.0625 122.781L93.0938 128.219C91.2812 134.052 89.3542 136.969 87.3125 136.969C84.6667 139.802 82.6146 141.219 81.1562 141.219L80.4688 141.812C86.6979 142.562 90 143.969 90.375 146.031C90.8333 147.052 91.5104 147.562 92.4062 147.562C93.5521 148.333 94.125 149.135 94.125 149.969V151.188C94.125 156.208 90.1458 158.719 82.1875 158.719L79.8125 159.906H77.75C70.0208 157.948 66.1562 156.25 66.1562 154.812C63.8854 154.125 62.75 151.5 62.75 146.938H63.4375C63.4375 146.083 62.9792 145.479 62.0625 145.125L60.375 140.906C60.375 140.51 58.7812 140.208 55.5938 140C52.8646 139.396 51.5 138.688 51.5 137.875V136.688L51.8438 136.375L50.8125 132.438V132.156C51.5 131.135 52.3021 130.625 53.2188 130.625L62.4062 133.344L62.75 133.062L62.4062 129.719L63.0938 119.75L62.75 119.469V119.156C64.8542 115.01 66.8958 112.094 68.875 110.406ZM68.875 127.625H69.5625V127.906L69.2188 129.125C69.2188 129.792 70.0208 130.396 71.625 130.938C71.625 131.938 73.5521 132.438 77.4062 132.438C79.5521 131.667 80.9167 130.458 81.5 128.812L81.8438 127.625C81.8438 125.5 78.6667 123.885 72.3125 122.781C70.9375 122.781 70.25 123.792 70.25 125.812L68.875 127.625ZM70.9375 144.531L70.25 146.031H70.5938L70.25 146.344V146.656L72.625 151.188C74.0833 151.979 75.6771 152.375 77.4062 152.375H80.4688L81.5 151.469C77.4167 147.865 73.8958 145.552 70.9375 144.531Z"/>
<path d="M100.344 115.375L103.688 116L104.594 115.688L106.406 116.281H107.594L110.312 116L113.031 116.281L119.094 116C119.406 117 120.01 117.5 120.906 117.5L121.5 118.719V121.125C120.854 124.146 119.844 125.656 118.469 125.656H115.469C111.552 125.656 109.031 125.156 107.906 124.156C106.094 125.635 105.188 127.042 105.188 128.375V128.688L110.031 129.594L111.844 129.281H112.438C119.688 130.49 123.312 131.594 123.312 132.594L123.625 135.625C123.458 138.042 123.25 139.25 123 139.25L122.094 140.156H121.812C121.354 139.698 120.24 139.396 118.469 139.25L117.875 139.844C115.417 139.448 111.688 138.448 106.688 136.844L104.281 138.938C103.469 140.479 103.062 141.688 103.062 142.562V142.875C103.062 143.458 105.479 144.365 110.312 145.594C111.167 146.635 112.979 147.542 115.75 148.312V148C116.958 148.271 117.562 148.677 117.562 149.219C117.562 150.656 116.156 153.375 113.344 157.375H112.438C112.438 156.979 112.031 156.781 111.219 156.781C111.219 156.031 108.5 154.719 103.062 152.844C100.688 151.24 97.3646 149.729 93.0938 148.312C93.0938 147.833 92.2917 147.333 90.6875 146.812L89.7812 145.281C90.3854 145.281 91.5938 143.573 93.4062 140.156C94.0104 140.115 94.8125 138.198 95.8125 134.406C97.0208 132.073 97.625 129.865 97.625 127.781H97.9375L97.3438 124.75L97.9375 117.812L97.625 116.594L100.344 115.375ZM100.062 155.25C108.833 158.167 113.76 160.281 114.844 161.594C115.865 161.594 116.375 162.094 116.375 163.094L113.656 167.312L114.562 168.219V168.844H114.25L110.625 169.125C110.021 168.5 108.208 167.802 105.188 167.031C105.188 166.698 103.875 165.885 101.25 164.594L100.344 164.906L97.9375 164H97.0312L96.4375 161.875C96.4375 160.625 97.1354 159.125 98.5312 157.375L97.625 156.469C98.4792 155.656 99.2917 155.25 100.062 155.25Z"/>
<path d="M132.531 115.375L135.875 116L136.781 115.688L138.594 116.281H139.781L142.5 116L145.219 116.281L151.281 116C151.594 117 152.198 117.5 153.094 117.5L153.688 118.719V121.125C153.042 124.146 152.031 125.656 150.656 125.656H147.656C143.74 125.656 141.219 125.156 140.094 124.156C138.281 125.635 137.375 127.042 137.375 128.375V128.688L142.219 129.594L144.031 129.281H144.625C151.875 130.49 155.5 131.594 155.5 132.594L155.812 135.625C155.646 138.042 155.438 139.25 155.188 139.25L154.281 140.156H154C153.542 139.698 152.427 139.396 150.656 139.25L150.062 139.844C147.604 139.448 143.875 138.448 138.875 136.844L136.469 138.938C135.656 140.479 135.25 141.688 135.25 142.562V142.875C135.25 143.458 137.667 144.365 142.5 145.594C143.354 146.635 145.167 147.542 147.938 148.312V148C149.146 148.271 149.75 148.677 149.75 149.219C149.75 150.656 148.344 153.375 145.531 157.375H144.625C144.625 156.979 144.219 156.781 143.406 156.781C143.406 156.031 140.688 154.719 135.25 152.844C132.875 151.24 129.552 149.729 125.281 148.312C125.281 147.833 124.479 147.333 122.875 146.812L121.969 145.281C122.573 145.281 123.781 143.573 125.594 140.156C126.198 140.115 127 138.198 128 134.406C129.208 132.073 129.812 129.865 129.812 127.781H130.125L129.531 124.75L130.125 117.812L129.812 116.594L132.531 115.375ZM132.25 155.25C141.021 158.167 145.948 160.281 147.031 161.594C148.052 161.594 148.562 162.094 148.562 163.094L145.844 167.312L146.75 168.219V168.844H146.438L142.812 169.125C142.208 168.5 140.396 167.802 137.375 167.031C137.375 166.698 136.062 165.885 133.438 164.594L132.531 164.906L130.125 164H129.219L128.625 161.875C128.625 160.625 129.323 159.125 130.719 157.375L129.812 156.469C130.667 155.656 131.479 155.25 132.25 155.25Z"/>
<path d="M169 112.969C170.25 112.969 172.938 119.146 177.062 131.5C178.917 130.646 180.167 127.406 180.812 121.781L185.656 120.406L190.531 121.781L186.375 140.188L188.469 150.469C184.281 152.26 181.26 154.073 179.406 155.906H177.312C175.646 150.01 174.49 147.062 173.844 147.062L174.531 146.344V145.688L169.25 137.531L168.375 146.344L168 152.5L167.469 153.875H165.906C164.885 153.229 163.385 152.521 161.406 151.75C161.406 150.938 160.25 150.479 157.938 150.375V149.656L158.312 137.562L157.844 136.125V135.406C159.885 128.552 160.906 124.885 160.906 124.406L159.25 116.344L169 112.969Z"/>
<path d="M16.9375 165.188C18.8125 165.375 19.75 165.656 19.75 166.031L21.1562 165.188C22.8021 165.333 23.6562 165.615 23.7188 166.031L25.125 165.75L29.0938 166.875H33.0312L38.1562 170V170.562C39.0104 170.708 40.1354 172.406 41.5312 175.656C43.4271 177.531 44.375 180.26 44.375 183.844C44.375 185.073 43.2396 188.948 40.9688 195.469C38.3229 197.531 36.7292 199.125 36.1875 200.25L33.0312 201.969C31.0104 202.365 28.8438 203.583 26.5312 205.625L19.75 206.781C19.3542 207.24 16.1771 207.802 10.2188 208.469C9.94792 209.219 9.67708 209.594 9.40625 209.594L7.125 208.75L7.40625 206.781L8.0625 202.25L9.84375 189.219L9.5625 188.969L11.0938 187.531V185.812L10.8125 184.688L11.6562 180.75L8.375 171.688L8.65625 171.406L8.375 170V169.719C8.375 167.635 9.21875 166.594 10.9062 166.594C10.9062 166.031 11.1979 165.75 11.7812 165.75L12.0312 166.031H12.3438C12.7396 165.698 14.2708 165.417 16.9375 165.188ZM20.4375 177.062L20.7188 179.312L19.875 189.781L19.1875 195.469L20.3125 194.906L23.125 195.156C25.0208 195.156 26.9167 194.219 28.8125 192.344C30.5 191.823 31.3438 190.885 31.3438 189.531C31.6979 189.531 32.2604 188.865 33.0312 187.531V186.125L33.5938 182.156C32.6979 182.052 31.7604 180.917 30.7812 178.75C30.2188 178.75 29.9375 178.479 29.9375 177.938H29.375C29.375 177.354 29.0938 177.062 28.5312 177.062V176.5L26.8438 176.781L22.3125 173.969H22C20.5 173.969 19.75 174.344 19.75 175.094L20.4375 177.062ZM11.5312 174.781V176.5H11.8438V174.781H11.5312Z"/>
<path d="M53.6562 166.375L57 167L57.9062 166.688L59.7188 167.281H60.9062L63.625 167L66.3438 167.281L72.4062 167C72.7188 168 73.3229 168.5 74.2188 168.5L74.8125 169.719V172.125C74.1667 175.146 73.1562 176.656 71.7812 176.656H68.7812C64.8646 176.656 62.3438 176.156 61.2188 175.156C59.4062 176.635 58.5 178.042 58.5 179.375V179.688L63.3438 180.594L65.1562 180.281H65.75C73 181.49 76.625 182.594 76.625 183.594L76.9375 186.625C76.7708 189.042 76.5625 190.25 76.3125 190.25L75.4062 191.156H75.125C74.6667 190.698 73.5521 190.396 71.7812 190.25L71.1875 190.844C68.7292 190.448 65 189.448 60 187.844L57.5938 189.938C56.7812 191.479 56.375 192.688 56.375 193.562V193.875C56.375 194.458 58.7917 195.365 63.625 196.594C64.4792 197.635 66.2917 198.542 69.0625 199.312V199C70.2708 199.271 70.875 199.677 70.875 200.219C70.875 201.656 69.4688 204.375 66.6562 208.375H65.75C65.75 207.979 65.3438 207.781 64.5312 207.781C64.5312 207.031 61.8125 205.719 56.375 203.844C54 202.24 50.6771 200.729 46.4062 199.312C46.4062 198.833 45.6042 198.333 44 197.812L43.0938 196.281C43.6979 196.281 44.9062 194.573 46.7188 191.156C47.3229 191.115 48.125 189.198 49.125 185.406C50.3333 183.073 50.9375 180.865 50.9375 178.781H51.25L50.6562 175.75L51.25 168.812L50.9375 167.594L53.6562 166.375ZM53.375 206.25C62.1458 209.167 67.0729 211.281 68.1562 212.594C69.1771 212.594 69.6875 213.094 69.6875 214.094L66.9688 218.312L67.875 219.219V219.844H67.5625L63.9375 220.125C63.3333 219.5 61.5208 218.802 58.5 218.031C58.5 217.698 57.1875 216.885 54.5625 215.594L53.6562 215.906L51.25 215H50.3438L49.75 212.875C49.75 211.625 50.4479 210.125 51.8438 208.375L50.9375 207.469C51.7917 206.656 52.6042 206.25 53.375 206.25Z"/>
<path d="M89.0938 166.375L92.4375 167L93.3438 166.688L95.1562 167.281H96.3438C97.6771 173.531 97.2292 176.625 95 176.562C94.2917 177.104 94.25 177.427 94.875 177.531L93.9375 179.688L93.8125 187.375L93.0312 189.938C92.2188 191.479 91.8125 192.688 91.8125 193.562V193.875C91.8125 194.458 93.2917 194.583 96.25 194.25C97.1042 195.292 98.6042 195.802 100.75 195.781V195.469C101.958 195.74 102.562 196.146 102.562 196.688C102.562 198.125 101.469 201.24 99.2812 206.031H98.375C98.375 205.635 97.9688 205.438 97.1562 205.438C97.1562 204.688 95.375 204.156 91.8125 203.844C89.4375 202.719 85.3438 201.531 79.5312 200.281C79.5312 199.802 78.0208 198.917 75 197.625L76.2188 196.531C76.8229 196.531 78.0312 194.823 79.8438 191.406C80.4479 191.365 81.5521 189.365 83.1562 185.406C84.3646 183.073 84.9688 180.865 84.9688 178.781H85.2812L84.6875 175.75L85.2812 168.812L84.9688 167.594L89.0938 166.375Z"/>
<path d="M108.531 166.375L111.875 167L112.781 166.688L114.594 167.281H115.781L118.5 167L121.219 167.281L127.281 167C127.594 168 128.198 168.5 129.094 168.5L129.688 169.719V172.125C129.042 175.146 128.031 176.656 126.656 176.656H123.656C119.74 176.656 117.219 176.156 116.094 175.156C114.281 176.635 113.375 178.042 113.375 179.375V179.688L118.219 180.594L120.031 180.281H120.625C127.875 181.49 131.5 182.594 131.5 183.594L131.812 186.625C131.646 189.042 131.438 190.25 131.188 190.25L130.281 191.156H130C129.542 190.698 128.427 190.396 126.656 190.25L126.062 190.844C123.604 190.448 119.875 189.448 114.875 187.844L112.469 189.938C111.656 191.479 111.25 192.688 111.25 193.562V193.875C111.25 194.458 113.667 195.365 118.5 196.594C119.354 197.635 121.167 198.542 123.938 199.312V199C125.146 199.271 125.75 199.677 125.75 200.219C125.75 201.656 124.344 204.375 121.531 208.375H120.625C120.625 207.979 120.219 207.781 119.406 207.781C119.406 207.031 116.688 205.719 111.25 203.844C108.875 202.24 105.552 200.729 101.281 199.312C101.281 198.833 100.479 198.333 98.875 197.812L97.9688 196.281C98.5729 196.281 99.7812 194.573 101.594 191.156C102.198 191.115 103 189.198 104 185.406C105.208 183.073 105.812 180.865 105.812 178.781H106.125L105.531 175.75L106.125 168.812L105.812 167.594L108.531 166.375ZM108.25 206.25C117.021 209.167 121.948 211.281 123.031 212.594C124.052 212.594 124.562 213.094 124.562 214.094L121.844 218.312L122.75 219.219V219.844H122.438L118.812 220.125C118.208 219.5 116.396 218.802 113.375 218.031C113.375 217.698 112.062 216.885 109.438 215.594L108.531 215.906L106.125 215H105.219L104.625 212.875C104.625 211.625 105.323 210.125 106.719 208.375L105.812 207.469C106.667 206.656 107.479 206.25 108.25 206.25Z"/>
<path d="M144.438 172.75C143.354 169.146 143.896 166.854 146.062 165.875L155.875 167.562L153.594 173.531C152.615 176.219 155.844 176.844 163.281 175.406L163.312 175.594C163.625 177.865 163.833 180.688 163.938 184.062L163.719 184.312L164.25 184.219L164 185.969L160.156 186.344L157.156 185L154.781 185.188L153.781 185.594L154.094 187.312C154.615 190.312 154.76 193.094 154.531 195.656C154.74 194.823 155 194.479 155.312 194.625C155.625 194.771 156.01 196.125 156.469 198.688C153.365 200.229 150.052 201 146.531 201L145.75 201.125C144.688 200.438 144.167 199.344 144.188 197.844C142.479 196.344 142.427 196.031 144.031 196.906L143.875 193.219L143.812 188.062L143.062 186.938C141.521 185.979 138.469 185.344 133.906 185.031L133.531 183C133.927 182.917 133.583 181.979 132.5 180.188L133.969 180.156C134.469 177.427 134.906 175.635 135.281 174.781L142.312 175.906L144.312 176.594L144.438 172.75Z"/>
<path d="M172.531 166.375L175.875 167L176.781 166.688L178.594 167.281H179.781L182.5 167L185.219 167.281L191.281 167C191.594 168 192.198 168.5 193.094 168.5L193.688 169.719V172.125C193.042 175.146 192.031 176.656 190.656 176.656H187.656C183.74 176.656 181.219 176.156 180.094 175.156C178.281 176.635 177.375 178.042 177.375 179.375V179.688L182.219 180.594L184.031 180.281H184.625C191.875 181.49 195.5 182.594 195.5 183.594L195.812 186.625C195.646 189.042 195.438 190.25 195.188 190.25L194.281 191.156H194C193.542 190.698 192.427 190.396 190.656 190.25L190.062 190.844C187.604 190.448 183.875 189.448 178.875 187.844L176.469 189.938C175.656 191.479 175.25 192.688 175.25 193.562V193.875C175.25 194.458 177.667 195.365 182.5 196.594C183.354 197.635 185.167 198.542 187.938 199.312V199C189.146 199.271 189.75 199.677 189.75 200.219C189.75 201.656 188.344 204.375 185.531 208.375H184.625C184.625 207.979 184.219 207.781 183.406 207.781C183.406 207.031 180.688 205.719 175.25 203.844C172.875 202.24 169.552 200.729 165.281 199.312C165.281 198.833 164.479 198.333 162.875 197.812L161.969 196.281C162.573 196.281 163.781 194.573 165.594 191.156C166.198 191.115 167 189.198 168 185.406C169.208 183.073 169.812 180.865 169.812 178.781H170.125L169.531 175.75L170.125 168.812L169.812 167.594L172.531 166.375ZM172.25 206.25C181.021 209.167 185.948 211.281 187.031 212.594C188.052 212.594 188.562 213.094 188.562 214.094L185.844 218.312L186.75 219.219V219.844H186.438L182.812 220.125C182.208 219.5 180.396 218.802 177.375 218.031C177.375 217.698 176.062 216.885 173.438 215.594L172.531 215.906L170.125 215H169.219L168.625 212.875C168.625 211.625 169.323 210.125 170.719 208.375L169.812 207.469C170.667 206.656 171.479 206.25 172.25 206.25Z"/>
<path d="M206.188 165.188C208.062 165.375 209 165.656 209 166.031L210.406 165.188C212.052 165.333 212.906 165.615 212.969 166.031L214.375 165.75L218.344 166.875H222.281L227.406 170V170.562C228.26 170.708 229.385 172.406 230.781 175.656C232.677 177.531 233.625 180.26 233.625 183.844C233.625 185.073 232.49 188.948 230.219 195.469C227.573 197.531 225.979 199.125 225.438 200.25L222.281 201.969C220.26 202.365 218.094 203.583 215.781 205.625L209 206.781C208.604 207.24 205.427 207.802 199.469 208.469C199.198 209.219 198.927 209.594 198.656 209.594L196.375 208.75L196.656 206.781L197.312 202.25L199.094 189.219L198.812 188.969L200.344 187.531V185.812L200.062 184.688L200.906 180.75L197.625 171.688L197.906 171.406L197.625 170V169.719C197.625 167.635 198.469 166.594 200.156 166.594C200.156 166.031 200.448 165.75 201.031 165.75L201.281 166.031H201.594C201.99 165.698 203.521 165.417 206.188 165.188ZM209.688 177.062L209.969 179.312L209.125 189.781L208.438 195.469L209.562 194.906L212.375 195.156C214.271 195.156 216.167 194.219 218.062 192.344C219.75 191.823 220.594 190.885 220.594 189.531C220.948 189.531 221.51 188.865 222.281 187.531V186.125L222.844 182.156C221.948 182.052 221.01 180.917 220.031 178.75C219.469 178.75 219.188 178.479 219.188 177.938H218.625C218.625 177.354 218.344 177.062 217.781 177.062V176.5L216.094 176.781L211.562 173.969H211.25C209.75 173.969 209 174.344 209 175.094L209.688 177.062ZM200.781 174.781V176.5H201.094V174.781H200.781Z"/>
<path d="M239.562 194.406L248.312 194.938L247.75 203.156V205.875L245.031 208.094H237.938L235.75 206.438C236.417 198.417 237.688 194.406 239.562 194.406Z"/>
</mask>
<path d="M32.125 11.2188H32.625L32.375 12.5H33.6562C35.5938 13.9375 37.125 14.7083 38.25 14.8125V16.0938L38 16.3438L38.25 16.5938V17.375L31.1875 27.2188C30.6875 27.5938 30.4375 28.0208 30.4375 28.5L30.1875 41.2812L29.1562 39.9375L29.6875 43.25L29.4062 44.0312C29.4062 45.1562 29.8333 46.0938 30.6875 46.8438V47.0938C30.0208 47.0938 29.4271 47.3438 28.9062 47.8438H28.6562L25.8125 47.0938L23 46.9375H22.125L20.5 45.6875H19.2188V44.1562L19.4688 43.125L19.2188 42.0938L19.4688 41.8438L19.2188 41.0938C19.4896 36.3229 19.6562 33.0729 19.7188 31.3438H19.4375L19.7188 31.0938C19.7188 28.6979 18.6458 25.3125 16.5 20.9375C15.7917 17.25 14.9375 15.0312 13.9375 14.2812C13.9375 12.3854 14.5312 11.4479 15.7188 11.4688L18.9375 10.5938H20.9688C21.4271 10.5938 21.9375 11.5312 22.5 13.4062C23 13.4062 23.6042 14.6875 24.3125 17.25C24.6458 17.25 24.8125 17.5 24.8125 18L25.0625 18.2812H25.3125C26.2083 18.3229 27.2812 17.1667 28.5312 14.8125C29.5104 13.1042 30.4479 12.25 31.3438 12.25C31.4271 11.5625 31.6875 11.2188 32.125 11.2188Z" fill="#FAEDCD"/>
<path d="M56.5625 12.4062H60.7812C63.7812 12.4062 65.5938 13.4167 66.2188 15.4375C69.0312 16.9375 70.4375 18.75 70.4375 20.875V22.6875H71.6562L68.0312 40.1875L68.625 40.7812V41.4062L67.4375 45.625H68.0312C65.9271 51.6667 62.5 54.6875 57.75 54.6875L58.375 55.2812V55.875L54.75 57.0938L54.125 56.5L51.125 57.0938L45.0938 56.5V55.875L45.6875 55.2812V54.6875C43.6042 54.6875 40.5833 52.0625 36.625 46.8125V41.4062L41.4688 33.5312C43.2188 22.6771 45.4271 17.25 48.0938 17.25C51.7812 14.0208 54.6042 12.4062 56.5625 12.4062ZM60.1875 14.2188V15.4375H62L60.7812 14.2188H60.1875ZM48.6875 38.9688L49.3125 39.5938V40.1875L48.6875 42.5938L49.3125 44.4062H56.5625C58.6667 44.4062 60.0729 39.375 60.7812 29.3125V23.875L58.9688 22.0625C55.7396 22.0625 53.7292 24.2812 52.9375 28.7188L48.6875 38.9688Z" fill="#FAEDCD"/>
<path d="M77.4375 13.3438L83.5312 14.4688L81.9688 23.0625L81.0312 22.5L81.5312 23.2188L81.4062 23.8438L80.3438 26.1875L80.8438 26.9062L80.75 27.5312L80.0312 28L79.5625 44.4062L81.4062 44.75C85.0104 43.4167 86.9688 41.875 87.2812 40.125C89.3854 29.0208 90.1458 21.6562 89.5625 18.0312L91.625 17.125L97.1562 18.1562C98.0729 18.3229 98.5 19.4479 98.4375 21.5312L97.8125 21.4062L98.3125 22.125L98.2188 22.75L97.4688 23.25L97.375 23.875C96.0417 28.25 96.3438 33.2812 98.2812 38.9688L97.5938 42.625L96.4375 45.5938L96.9375 46.3125C95.9792 46.1458 94.625 47.8021 92.875 51.2812C89.8958 55.3646 84.3646 56.6771 76.2812 55.2188L74.4375 54.875C71.2917 54.2917 70.0833 43.2188 70.8125 21.6562C71.9375 15.5104 74.1458 12.7396 77.4375 13.3438Z" fill="#FAEDCD"/>
<path d="M111.75 6.4375C119.604 9.64583 123.531 12.7917 123.531 15.875C124.719 16.7708 125.312 18.1458 125.312 20H124.719L125.312 20.5938V22.375C125.312 24.4792 123.542 27.0312 120 30.0312C121.042 30.0312 125.917 33.25 134.625 39.6875L139 41.1875L134.625 47.3438H131.688C131.688 46.6771 126.615 43.0625 116.469 36.5L115.281 35.3438V37.0938L117.406 55.7188L114.844 55.5938L105.656 53.9062L104.469 51.5625V39.1562L102.719 33.2812L103.281 31.5L96.8125 23.8438C97.0625 20.6979 97.6562 19.125 98.5938 19.125L99.1562 19.7188H99.75L100.938 18.5312L99.75 12.6562C100.542 12.6562 101.135 11.4688 101.531 9.09375C101.531 7.53125 104.938 6.64583 111.75 6.4375ZM109.625 17.375V18.5312C110.646 21.0938 111.948 22.5625 113.531 22.9375C115.885 22.1458 117.062 21.3646 117.062 20.5938C117.062 17.8438 115.375 16.1771 112 15.5938L109.625 17.375Z" fill="#FAEDCD"/>
<path d="M155.812 14.5625L159.781 13.9688C162.615 13.5521 164.469 14.25 165.344 16.0625C168.198 17.1042 169.771 18.625 170.062 20.625L170.312 22.3438L171.469 22.1875L170.469 39.25L171.125 39.7188L171.219 40.3125L170.688 44.4688L170.625 46.8125C170.375 49.9167 168.323 52.3646 164.469 54.1562L173.5 61.0625L174.031 63.25L170.062 63.8125L165.781 61.3125L160.156 56.4062L151.281 57.1562L151.062 57.2812L151.562 56.6562L151.469 56.0938C149.51 56.3854 146.312 54.3229 141.875 49.9062L141.094 44.8125L144.562 36.6562C144.688 26.1354 146.01 20.6875 148.531 20.3125C151.552 16.75 153.979 14.8333 155.812 14.5625ZM152.938 40.8125L153.562 41.3125L153.625 41.875L153.406 44.25L154.188 45.875L160.438 44.8438C162.271 44.5521 162.844 39.5938 162.156 29.9688L161.469 24.8125L159.688 23.375C156.875 23.8125 155.417 26.1875 155.312 30.5L152.938 40.8125Z" fill="#FAEDCD"/>
<path d="M180.062 13.3438L186.156 14.4688L184.594 23.0625L183.656 22.5L184.156 23.2188L184.031 23.8438L182.969 26.1875L183.469 26.9062L183.375 27.5312L182.656 28L182.188 44.4062L184.031 44.75C187.635 43.4167 189.594 41.875 189.906 40.125C192.01 29.0208 192.771 21.6562 192.188 18.0312L194.25 17.125L199.781 18.1562C200.698 18.3229 201.125 19.4479 201.062 21.5312L200.438 21.4062L200.938 22.125L200.844 22.75L200.094 23.25L200 23.875C198.667 28.25 198.969 33.2812 200.906 38.9688L200.219 42.625L199.062 45.5938L199.562 46.3125C198.604 46.1458 197.25 47.8021 195.5 51.2812C192.521 55.3646 186.99 56.6771 178.906 55.2188L177.062 54.875C173.917 54.2917 172.708 43.2188 173.438 21.6562C174.562 15.5104 176.771 12.7396 180.062 13.3438Z" fill="#FAEDCD"/>
<path d="M207.969 10.7812C210.552 10.7812 213.938 11.7812 218.125 13.7812C214.938 24.0312 213.344 32.3854 213.344 38.8438L213.938 50.7812L212.156 50.1875L203.781 51.375L203.188 48.375L202.594 35.25L206.781 10.7812H207.969Z" fill="#FAEDCD"/>
<path d="M217.062 46.1562C216.729 44.4062 220.812 36.9062 229.312 23.6562C229.354 21.2604 225.771 20.2917 218.562 20.75L219.531 16.2188L221.094 13.4062L233.312 14.8438L238.75 13.0938C241.958 16.6979 243.646 19.3854 243.812 21.1562L242.75 22.2812C239.771 27.4896 238.365 30.5521 238.531 31.4688L237.812 30.8125L237.312 31.0625L233.719 35.4375L229.531 42L233.906 42.2812L238.125 40.4062L240.938 40.0625C240.729 41.7708 241.406 43.8021 242.969 46.1562C242.344 46.5104 242.177 46.9271 242.469 47.4062L243.031 49.7188L236.656 51.0625L235.781 54.0938L234.875 52.25C229.125 52.25 226.062 52.3438 225.688 52.5312L218.719 53.6875L217.062 46.1562Z" fill="#FAEDCD"/>
<path d="M104.406 62.5625H105.094C111.531 62.875 114.75 63.7917 114.75 65.3125L114.062 73.5312L114.75 75.5938C113.792 83.4896 113.312 91.7188 113.312 100.281V104.406H105.094L103.719 103.031L104.406 90.6875L103.719 88.625L96.0938 89.5625C95.1771 89.5625 94.7188 90.25 94.7188 91.625L95.4062 95.0625L94.7188 99.1875H95.4062L94.7188 99.875V105.344L85.125 107.406L84.4375 105.344L85.125 95.75L83.75 83.4062V82.7188L85.125 80.6562V75.1562L84.4375 74.4688V73.7812H85.125L84.4375 73.0938V72.4062L85.125 71.7188V71.0312L84.4375 70.375L85.125 66.9375V64.1875H88.5625L89.25 64.875L89.9375 64.1875H94.0312L94.7188 64.875H95.4062L94.0312 79.2812H94.7188C100.552 78.4688 103.271 77.5833 102.875 76.625L103.125 77.6562L103.031 73.5312V72.8438L104.406 65.3125V62.5625Z" fill="#FAEDCD"/>
<path d="M125.625 63.2188L126.094 62.7188C132.698 64.0729 137.302 64.9062 139.906 65.2188L141.125 67.8438V71.9375L141.312 73.6562C141.458 78.7396 142.135 81.5417 143.344 82.0625L146.656 82.625L146.812 82.6562L148.031 85.4688L147.625 87.8125L147.094 90.0312V91.2188L143.188 92.125L144.094 97.625C143.698 104.25 143.688 107.052 144.062 106.031L135.75 107.562C134.562 107.562 134.062 104.031 134.25 96.9688L129.062 96.1562C128.375 96.3646 127.635 99.9271 126.844 106.844L116.969 102.812L117.906 96.6875L119 91.4062L118.906 89.4375V83C119.281 84.1042 121.042 78.1146 124.188 65.0312L125.625 63.2188ZM132.156 76.875L128.906 85.2812L133.219 86.0312L134.906 86.6875L134.625 84.875L135.344 81.8125L133.938 75.5L132.156 76.875Z" fill="#FAEDCD"/>
<path d="M170.875 65.6875L173.469 66.25L175.438 65.6875V66.25L177.406 76.125L162.812 78.5625L161.5 81.4375C161.5 82.1875 164.115 84.8958 169.344 89.5625C172.573 94.1042 174.323 97.5833 174.594 100C173.115 104.646 170.5 106.969 166.75 106.969L161.5 108.688L156.906 109.281C152.99 109.281 151.031 106.385 151.031 100.594L153 97.0938L156.25 97.6875H160.844L162.156 96.5312V95.375C161.156 93.4167 158.323 91.2917 153.656 89C150.885 86.5417 149.354 84.0208 149.062 81.4375C149.938 72.9375 152.99 68.6875 158.219 68.6875C163.635 66.375 167.854 65.375 170.875 65.6875Z" fill="#FAEDCD"/>
<path d="M68.875 110.406H69.9062C71.9479 110.656 72.9688 111.156 72.9688 111.906C74.0521 113.948 75.7604 115.365 78.0938 116.156C79.5104 116.76 81.6667 117.156 84.5625 117.344C88.3333 119.885 90.5 121.698 91.0625 122.781L93.0938 128.219C91.2812 134.052 89.3542 136.969 87.3125 136.969C84.6667 139.802 82.6146 141.219 81.1562 141.219L80.4688 141.812C86.6979 142.562 90 143.969 90.375 146.031C90.8333 147.052 91.5104 147.562 92.4062 147.562C93.5521 148.333 94.125 149.135 94.125 149.969V151.188C94.125 156.208 90.1458 158.719 82.1875 158.719L79.8125 159.906H77.75C70.0208 157.948 66.1562 156.25 66.1562 154.812C63.8854 154.125 62.75 151.5 62.75 146.938H63.4375C63.4375 146.083 62.9792 145.479 62.0625 145.125L60.375 140.906C60.375 140.51 58.7812 140.208 55.5938 140C52.8646 139.396 51.5 138.688 51.5 137.875V136.688L51.8438 136.375L50.8125 132.438V132.156C51.5 131.135 52.3021 130.625 53.2188 130.625L62.4062 133.344L62.75 133.062L62.4062 129.719L63.0938 119.75L62.75 119.469V119.156C64.8542 115.01 66.8958 112.094 68.875 110.406ZM68.875 127.625H69.5625V127.906L69.2188 129.125C69.2188 129.792 70.0208 130.396 71.625 130.938C71.625 131.938 73.5521 132.438 77.4062 132.438C79.5521 131.667 80.9167 130.458 81.5 128.812L81.8438 127.625C81.8438 125.5 78.6667 123.885 72.3125 122.781C70.9375 122.781 70.25 123.792 70.25 125.812L68.875 127.625ZM70.9375 144.531L70.25 146.031H70.5938L70.25 146.344V146.656L72.625 151.188C74.0833 151.979 75.6771 152.375 77.4062 152.375H80.4688L81.5 151.469C77.4167 147.865 73.8958 145.552 70.9375 144.531Z" fill="#FAEDCD"/>
<path d="M100.344 115.375L103.688 116L104.594 115.688L106.406 116.281H107.594L110.312 116L113.031 116.281L119.094 116C119.406 117 120.01 117.5 120.906 117.5L121.5 118.719V121.125C120.854 124.146 119.844 125.656 118.469 125.656H115.469C111.552 125.656 109.031 125.156 107.906 124.156C106.094 125.635 105.188 127.042 105.188 128.375V128.688L110.031 129.594L111.844 129.281H112.438C119.688 130.49 123.312 131.594 123.312 132.594L123.625 135.625C123.458 138.042 123.25 139.25 123 139.25L122.094 140.156H121.812C121.354 139.698 120.24 139.396 118.469 139.25L117.875 139.844C115.417 139.448 111.688 138.448 106.688 136.844L104.281 138.938C103.469 140.479 103.062 141.688 103.062 142.562V142.875C103.062 143.458 105.479 144.365 110.312 145.594C111.167 146.635 112.979 147.542 115.75 148.312V148C116.958 148.271 117.562 148.677 117.562 149.219C117.562 150.656 116.156 153.375 113.344 157.375H112.438C112.438 156.979 112.031 156.781 111.219 156.781C111.219 156.031 108.5 154.719 103.062 152.844C100.688 151.24 97.3646 149.729 93.0938 148.312C93.0938 147.833 92.2917 147.333 90.6875 146.812L89.7812 145.281C90.3854 145.281 91.5938 143.573 93.4062 140.156C94.0104 140.115 94.8125 138.198 95.8125 134.406C97.0208 132.073 97.625 129.865 97.625 127.781H97.9375L97.3438 124.75L97.9375 117.812L97.625 116.594L100.344 115.375ZM100.062 155.25C108.833 158.167 113.76 160.281 114.844 161.594C115.865 161.594 116.375 162.094 116.375 163.094L113.656 167.312L114.562 168.219V168.844H114.25L110.625 169.125C110.021 168.5 108.208 167.802 105.188 167.031C105.188 166.698 103.875 165.885 101.25 164.594L100.344 164.906L97.9375 164H97.0312L96.4375 161.875C96.4375 160.625 97.1354 159.125 98.5312 157.375L97.625 156.469C98.4792 155.656 99.2917 155.25 100.062 155.25Z" fill="#FAEDCD"/>
<path d="M132.531 115.375L135.875 116L136.781 115.688L138.594 116.281H139.781L142.5 116L145.219 116.281L151.281 116C151.594 117 152.198 117.5 153.094 117.5L153.688 118.719V121.125C153.042 124.146 152.031 125.656 150.656 125.656H147.656C143.74 125.656 141.219 125.156 140.094 124.156C138.281 125.635 137.375 127.042 137.375 128.375V128.688L142.219 129.594L144.031 129.281H144.625C151.875 130.49 155.5 131.594 155.5 132.594L155.812 135.625C155.646 138.042 155.438 139.25 155.188 139.25L154.281 140.156H154C153.542 139.698 152.427 139.396 150.656 139.25L150.062 139.844C147.604 139.448 143.875 138.448 138.875 136.844L136.469 138.938C135.656 140.479 135.25 141.688 135.25 142.562V142.875C135.25 143.458 137.667 144.365 142.5 145.594C143.354 146.635 145.167 147.542 147.938 148.312V148C149.146 148.271 149.75 148.677 149.75 149.219C149.75 150.656 148.344 153.375 145.531 157.375H144.625C144.625 156.979 144.219 156.781 143.406 156.781C143.406 156.031 140.688 154.719 135.25 152.844C132.875 151.24 129.552 149.729 125.281 148.312C125.281 147.833 124.479 147.333 122.875 146.812L121.969 145.281C122.573 145.281 123.781 143.573 125.594 140.156C126.198 140.115 127 138.198 128 134.406C129.208 132.073 129.812 129.865 129.812 127.781H130.125L129.531 124.75L130.125 117.812L129.812 116.594L132.531 115.375ZM132.25 155.25C141.021 158.167 145.948 160.281 147.031 161.594C148.052 161.594 148.562 162.094 148.562 163.094L145.844 167.312L146.75 168.219V168.844H146.438L142.812 169.125C142.208 168.5 140.396 167.802 137.375 167.031C137.375 166.698 136.062 165.885 133.438 164.594L132.531 164.906L130.125 164H129.219L128.625 161.875C128.625 160.625 129.323 159.125 130.719 157.375L129.812 156.469C130.667 155.656 131.479 155.25 132.25 155.25Z" fill="#FAEDCD"/>
<path d="M169 112.969C170.25 112.969 172.938 119.146 177.062 131.5C178.917 130.646 180.167 127.406 180.812 121.781L185.656 120.406L190.531 121.781L186.375 140.188L188.469 150.469C184.281 152.26 181.26 154.073 179.406 155.906H177.312C175.646 150.01 174.49 147.062 173.844 147.062L174.531 146.344V145.688L169.25 137.531L168.375 146.344L168 152.5L167.469 153.875H165.906C164.885 153.229 163.385 152.521 161.406 151.75C161.406 150.938 160.25 150.479 157.938 150.375V149.656L158.312 137.562L157.844 136.125V135.406C159.885 128.552 160.906 124.885 160.906 124.406L159.25 116.344L169 112.969Z" fill="#FAEDCD"/>
<path d="M16.9375 165.188C18.8125 165.375 19.75 165.656 19.75 166.031L21.1562 165.188C22.8021 165.333 23.6562 165.615 23.7188 166.031L25.125 165.75L29.0938 166.875H33.0312L38.1562 170V170.562C39.0104 170.708 40.1354 172.406 41.5312 175.656C43.4271 177.531 44.375 180.26 44.375 183.844C44.375 185.073 43.2396 188.948 40.9688 195.469C38.3229 197.531 36.7292 199.125 36.1875 200.25L33.0312 201.969C31.0104 202.365 28.8438 203.583 26.5312 205.625L19.75 206.781C19.3542 207.24 16.1771 207.802 10.2188 208.469C9.94792 209.219 9.67708 209.594 9.40625 209.594L7.125 208.75L7.40625 206.781L8.0625 202.25L9.84375 189.219L9.5625 188.969L11.0938 187.531V185.812L10.8125 184.688L11.6562 180.75L8.375 171.688L8.65625 171.406L8.375 170V169.719C8.375 167.635 9.21875 166.594 10.9062 166.594C10.9062 166.031 11.1979 165.75 11.7812 165.75L12.0312 166.031H12.3438C12.7396 165.698 14.2708 165.417 16.9375 165.188ZM20.4375 177.062L20.7188 179.312L19.875 189.781L19.1875 195.469L20.3125 194.906L23.125 195.156C25.0208 195.156 26.9167 194.219 28.8125 192.344C30.5 191.823 31.3438 190.885 31.3438 189.531C31.6979 189.531 32.2604 188.865 33.0312 187.531V186.125L33.5938 182.156C32.6979 182.052 31.7604 180.917 30.7812 178.75C30.2188 178.75 29.9375 178.479 29.9375 177.938H29.375C29.375 177.354 29.0938 177.062 28.5312 177.062V176.5L26.8438 176.781L22.3125 173.969H22C20.5 173.969 19.75 174.344 19.75 175.094L20.4375 177.062ZM11.5312 174.781V176.5H11.8438V174.781H11.5312Z" fill="#FAEDCD"/>
<path d="M53.6562 166.375L57 167L57.9062 166.688L59.7188 167.281H60.9062L63.625 167L66.3438 167.281L72.4062 167C72.7188 168 73.3229 168.5 74.2188 168.5L74.8125 169.719V172.125C74.1667 175.146 73.1562 176.656 71.7812 176.656H68.7812C64.8646 176.656 62.3438 176.156 61.2188 175.156C59.4062 176.635 58.5 178.042 58.5 179.375V179.688L63.3438 180.594L65.1562 180.281H65.75C73 181.49 76.625 182.594 76.625 183.594L76.9375 186.625C76.7708 189.042 76.5625 190.25 76.3125 190.25L75.4062 191.156H75.125C74.6667 190.698 73.5521 190.396 71.7812 190.25L71.1875 190.844C68.7292 190.448 65 189.448 60 187.844L57.5938 189.938C56.7812 191.479 56.375 192.688 56.375 193.562V193.875C56.375 194.458 58.7917 195.365 63.625 196.594C64.4792 197.635 66.2917 198.542 69.0625 199.312V199C70.2708 199.271 70.875 199.677 70.875 200.219C70.875 201.656 69.4688 204.375 66.6562 208.375H65.75C65.75 207.979 65.3438 207.781 64.5312 207.781C64.5312 207.031 61.8125 205.719 56.375 203.844C54 202.24 50.6771 200.729 46.4062 199.312C46.4062 198.833 45.6042 198.333 44 197.812L43.0938 196.281C43.6979 196.281 44.9062 194.573 46.7188 191.156C47.3229 191.115 48.125 189.198 49.125 185.406C50.3333 183.073 50.9375 180.865 50.9375 178.781H51.25L50.6562 175.75L51.25 168.812L50.9375 167.594L53.6562 166.375ZM53.375 206.25C62.1458 209.167 67.0729 211.281 68.1562 212.594C69.1771 212.594 69.6875 213.094 69.6875 214.094L66.9688 218.312L67.875 219.219V219.844H67.5625L63.9375 220.125C63.3333 219.5 61.5208 218.802 58.5 218.031C58.5 217.698 57.1875 216.885 54.5625 215.594L53.6562 215.906L51.25 215H50.3438L49.75 212.875C49.75 211.625 50.4479 210.125 51.8438 208.375L50.9375 207.469C51.7917 206.656 52.6042 206.25 53.375 206.25Z" fill="#FAEDCD"/>
<path d="M89.0938 166.375L92.4375 167L93.3438 166.688L95.1562 167.281H96.3438C97.6771 173.531 97.2292 176.625 95 176.562C94.2917 177.104 94.25 177.427 94.875 177.531L93.9375 179.688L93.8125 187.375L93.0312 189.938C92.2188 191.479 91.8125 192.688 91.8125 193.562V193.875C91.8125 194.458 93.2917 194.583 96.25 194.25C97.1042 195.292 98.6042 195.802 100.75 195.781V195.469C101.958 195.74 102.562 196.146 102.562 196.688C102.562 198.125 101.469 201.24 99.2812 206.031H98.375C98.375 205.635 97.9688 205.438 97.1562 205.438C97.1562 204.688 95.375 204.156 91.8125 203.844C89.4375 202.719 85.3438 201.531 79.5312 200.281C79.5312 199.802 78.0208 198.917 75 197.625L76.2188 196.531C76.8229 196.531 78.0312 194.823 79.8438 191.406C80.4479 191.365 81.5521 189.365 83.1562 185.406C84.3646 183.073 84.9688 180.865 84.9688 178.781H85.2812L84.6875 175.75L85.2812 168.812L84.9688 167.594L89.0938 166.375Z" fill="#FAEDCD"/>
<path d="M108.531 166.375L111.875 167L112.781 166.688L114.594 167.281H115.781L118.5 167L121.219 167.281L127.281 167C127.594 168 128.198 168.5 129.094 168.5L129.688 169.719V172.125C129.042 175.146 128.031 176.656 126.656 176.656H123.656C119.74 176.656 117.219 176.156 116.094 175.156C114.281 176.635 113.375 178.042 113.375 179.375V179.688L118.219 180.594L120.031 180.281H120.625C127.875 181.49 131.5 182.594 131.5 183.594L131.812 186.625C131.646 189.042 131.438 190.25 131.188 190.25L130.281 191.156H130C129.542 190.698 128.427 190.396 126.656 190.25L126.062 190.844C123.604 190.448 119.875 189.448 114.875 187.844L112.469 189.938C111.656 191.479 111.25 192.688 111.25 193.562V193.875C111.25 194.458 113.667 195.365 118.5 196.594C119.354 197.635 121.167 198.542 123.938 199.312V199C125.146 199.271 125.75 199.677 125.75 200.219C125.75 201.656 124.344 204.375 121.531 208.375H120.625C120.625 207.979 120.219 207.781 119.406 207.781C119.406 207.031 116.688 205.719 111.25 203.844C108.875 202.24 105.552 200.729 101.281 199.312C101.281 198.833 100.479 198.333 98.875 197.812L97.9688 196.281C98.5729 196.281 99.7812 194.573 101.594 191.156C102.198 191.115 103 189.198 104 185.406C105.208 183.073 105.812 180.865 105.812 178.781H106.125L105.531 175.75L106.125 168.812L105.812 167.594L108.531 166.375ZM108.25 206.25C117.021 209.167 121.948 211.281 123.031 212.594C124.052 212.594 124.562 213.094 124.562 214.094L121.844 218.312L122.75 219.219V219.844H122.438L118.812 220.125C118.208 219.5 116.396 218.802 113.375 218.031C113.375 217.698 112.062 216.885 109.438 215.594L108.531 215.906L106.125 215H105.219L104.625 212.875C104.625 211.625 105.323 210.125 106.719 208.375L105.812 207.469C106.667 206.656 107.479 206.25 108.25 206.25Z" fill="#FAEDCD"/>
<path d="M144.438 172.75C143.354 169.146 143.896 166.854 146.062 165.875L155.875 167.562L153.594 173.531C152.615 176.219 155.844 176.844 163.281 175.406L163.312 175.594C163.625 177.865 163.833 180.688 163.938 184.062L163.719 184.312L164.25 184.219L164 185.969L160.156 186.344L157.156 185L154.781 185.188L153.781 185.594L154.094 187.312C154.615 190.312 154.76 193.094 154.531 195.656C154.74 194.823 155 194.479 155.312 194.625C155.625 194.771 156.01 196.125 156.469 198.688C153.365 200.229 150.052 201 146.531 201L145.75 201.125C144.688 200.438 144.167 199.344 144.188 197.844C142.479 196.344 142.427 196.031 144.031 196.906L143.875 193.219L143.812 188.062L143.062 186.938C141.521 185.979 138.469 185.344 133.906 185.031L133.531 183C133.927 182.917 133.583 181.979 132.5 180.188L133.969 180.156C134.469 177.427 134.906 175.635 135.281 174.781L142.312 175.906L144.312 176.594L144.438 172.75Z" fill="#FAEDCD"/>
<path d="M172.531 166.375L175.875 167L176.781 166.688L178.594 167.281H179.781L182.5 167L185.219 167.281L191.281 167C191.594 168 192.198 168.5 193.094 168.5L193.688 169.719V172.125C193.042 175.146 192.031 176.656 190.656 176.656H187.656C183.74 176.656 181.219 176.156 180.094 175.156C178.281 176.635 177.375 178.042 177.375 179.375V179.688L182.219 180.594L184.031 180.281H184.625C191.875 181.49 195.5 182.594 195.5 183.594L195.812 186.625C195.646 189.042 195.438 190.25 195.188 190.25L194.281 191.156H194C193.542 190.698 192.427 190.396 190.656 190.25L190.062 190.844C187.604 190.448 183.875 189.448 178.875 187.844L176.469 189.938C175.656 191.479 175.25 192.688 175.25 193.562V193.875C175.25 194.458 177.667 195.365 182.5 196.594C183.354 197.635 185.167 198.542 187.938 199.312V199C189.146 199.271 189.75 199.677 189.75 200.219C189.75 201.656 188.344 204.375 185.531 208.375H184.625C184.625 207.979 184.219 207.781 183.406 207.781C183.406 207.031 180.688 205.719 175.25 203.844C172.875 202.24 169.552 200.729 165.281 199.312C165.281 198.833 164.479 198.333 162.875 197.812L161.969 196.281C162.573 196.281 163.781 194.573 165.594 191.156C166.198 191.115 167 189.198 168 185.406C169.208 183.073 169.812 180.865 169.812 178.781H170.125L169.531 175.75L170.125 168.812L169.812 167.594L172.531 166.375ZM172.25 206.25C181.021 209.167 185.948 211.281 187.031 212.594C188.052 212.594 188.562 213.094 188.562 214.094L185.844 218.312L186.75 219.219V219.844H186.438L182.812 220.125C182.208 219.5 180.396 218.802 177.375 218.031C177.375 217.698 176.062 216.885 173.438 215.594L172.531 215.906L170.125 215H169.219L168.625 212.875C168.625 211.625 169.323 210.125 170.719 208.375L169.812 207.469C170.667 206.656 171.479 206.25 172.25 206.25Z" fill="#FAEDCD"/>
<path d="M206.188 165.188C208.062 165.375 209 165.656 209 166.031L210.406 165.188C212.052 165.333 212.906 165.615 212.969 166.031L214.375 165.75L218.344 166.875H222.281L227.406 170V170.562C228.26 170.708 229.385 172.406 230.781 175.656C232.677 177.531 233.625 180.26 233.625 183.844C233.625 185.073 232.49 188.948 230.219 195.469C227.573 197.531 225.979 199.125 225.438 200.25L222.281 201.969C220.26 202.365 218.094 203.583 215.781 205.625L209 206.781C208.604 207.24 205.427 207.802 199.469 208.469C199.198 209.219 198.927 209.594 198.656 209.594L196.375 208.75L196.656 206.781L197.312 202.25L199.094 189.219L198.812 188.969L200.344 187.531V185.812L200.062 184.688L200.906 180.75L197.625 171.688L197.906 171.406L197.625 170V169.719C197.625 167.635 198.469 166.594 200.156 166.594C200.156 166.031 200.448 165.75 201.031 165.75L201.281 166.031H201.594C201.99 165.698 203.521 165.417 206.188 165.188ZM209.688 177.062L209.969 179.312L209.125 189.781L208.438 195.469L209.562 194.906L212.375 195.156C214.271 195.156 216.167 194.219 218.062 192.344C219.75 191.823 220.594 190.885 220.594 189.531C220.948 189.531 221.51 188.865 222.281 187.531V186.125L222.844 182.156C221.948 182.052 221.01 180.917 220.031 178.75C219.469 178.75 219.188 178.479 219.188 177.938H218.625C218.625 177.354 218.344 177.062 217.781 177.062V176.5L216.094 176.781L211.562 173.969H211.25C209.75 173.969 209 174.344 209 175.094L209.688 177.062ZM200.781 174.781V176.5H201.094V174.781H200.781Z" fill="#FAEDCD"/>
<path d="M239.562 194.406L248.312 194.938L247.75 203.156V205.875L245.031 208.094H237.938L235.75 206.438C236.417 198.417 237.688 194.406 239.562 194.406Z" fill="#FAEDCD"/>
<path d="M32.125 11.2188H32.625L32.375 12.5H33.6562C35.5938 13.9375 37.125 14.7083 38.25 14.8125V16.0938L38 16.3438L38.25 16.5938V17.375L31.1875 27.2188C30.6875 27.5938 30.4375 28.0208 30.4375 28.5L30.1875 41.2812L29.1562 39.9375L29.6875 43.25L29.4062 44.0312C29.4062 45.1562 29.8333 46.0938 30.6875 46.8438V47.0938C30.0208 47.0938 29.4271 47.3438 28.9062 47.8438H28.6562L25.8125 47.0938L23 46.9375H22.125L20.5 45.6875H19.2188V44.1562L19.4688 43.125L19.2188 42.0938L19.4688 41.8438L19.2188 41.0938C19.4896 36.3229 19.6562 33.0729 19.7188 31.3438H19.4375L19.7188 31.0938C19.7188 28.6979 18.6458 25.3125 16.5 20.9375C15.7917 17.25 14.9375 15.0312 13.9375 14.2812C13.9375 12.3854 14.5312 11.4479 15.7188 11.4688L18.9375 10.5938H20.9688C21.4271 10.5938 21.9375 11.5312 22.5 13.4062C23 13.4062 23.6042 14.6875 24.3125 17.25C24.6458 17.25 24.8125 17.5 24.8125 18L25.0625 18.2812H25.3125C26.2083 18.3229 27.2812 17.1667 28.5312 14.8125C29.5104 13.1042 30.4479 12.25 31.3438 12.25C31.4271 11.5625 31.6875 11.2188 32.125 11.2188Z" stroke="black" stroke-width="12" mask="url(#path-1-outside-1_35_414)"/>
<path d="M56.5625 12.4062H60.7812C63.7812 12.4062 65.5938 13.4167 66.2188 15.4375C69.0312 16.9375 70.4375 18.75 70.4375 20.875V22.6875H71.6562L68.0312 40.1875L68.625 40.7812V41.4062L67.4375 45.625H68.0312C65.9271 51.6667 62.5 54.6875 57.75 54.6875L58.375 55.2812V55.875L54.75 57.0938L54.125 56.5L51.125 57.0938L45.0938 56.5V55.875L45.6875 55.2812V54.6875C43.6042 54.6875 40.5833 52.0625 36.625 46.8125V41.4062L41.4688 33.5312C43.2188 22.6771 45.4271 17.25 48.0938 17.25C51.7812 14.0208 54.6042 12.4062 56.5625 12.4062ZM60.1875 14.2188V15.4375H62L60.7812 14.2188H60.1875ZM48.6875 38.9688L49.3125 39.5938V40.1875L48.6875 42.5938L49.3125 44.4062H56.5625C58.6667 44.4062 60.0729 39.375 60.7812 29.3125V23.875L58.9688 22.0625C55.7396 22.0625 53.7292 24.2812 52.9375 28.7188L48.6875 38.9688Z" stroke="black" stroke-width="12" mask="url(#path-1-outside-1_35_414)"/>
<path d="M77.4375 13.3438L83.5312 14.4688L81.9688 23.0625L81.0312 22.5L81.5312 23.2188L81.4062 23.8438L80.3438 26.1875L80.8438 26.9062L80.75 27.5312L80.0312 28L79.5625 44.4062L81.4062 44.75C85.0104 43.4167 86.9688 41.875 87.2812 40.125C89.3854 29.0208 90.1458 21.6562 89.5625 18.0312L91.625 17.125L97.1562 18.1562C98.0729 18.3229 98.5 19.4479 98.4375 21.5312L97.8125 21.4062L98.3125 22.125L98.2188 22.75L97.4688 23.25L97.375 23.875C96.0417 28.25 96.3438 33.2812 98.2812 38.9688L97.5938 42.625L96.4375 45.5938L96.9375 46.3125C95.9792 46.1458 94.625 47.8021 92.875 51.2812C89.8958 55.3646 84.3646 56.6771 76.2812 55.2188L74.4375 54.875C71.2917 54.2917 70.0833 43.2188 70.8125 21.6562C71.9375 15.5104 74.1458 12.7396 77.4375 13.3438Z" stroke="black" stroke-width="12" mask="url(#path-1-outside-1_35_414)"/>
<path d="M111.75 6.4375C119.604 9.64583 123.531 12.7917 123.531 15.875C124.719 16.7708 125.312 18.1458 125.312 20H124.719L125.312 20.5938V22.375C125.312 24.4792 123.542 27.0312 120 30.0312C121.042 30.0312 125.917 33.25 134.625 39.6875L139 41.1875L134.625 47.3438H131.688C131.688 46.6771 126.615 43.0625 116.469 36.5L115.281 35.3438V37.0938L117.406 55.7188L114.844 55.5938L105.656 53.9062L104.469 51.5625V39.1562L102.719 33.2812L103.281 31.5L96.8125 23.8438C97.0625 20.6979 97.6562 19.125 98.5938 19.125L99.1562 19.7188H99.75L100.938 18.5312L99.75 12.6562C100.542 12.6562 101.135 11.4688 101.531 9.09375C101.531 7.53125 104.938 6.64583 111.75 6.4375ZM109.625 17.375V18.5312C110.646 21.0938 111.948 22.5625 113.531 22.9375C115.885 22.1458 117.062 21.3646 117.062 20.5938C117.062 17.8438 115.375 16.1771 112 15.5938L109.625 17.375Z" stroke="black" stroke-width="12" mask="url(#path-1-outside-1_35_414)"/>
<path d="M155.812 14.5625L159.781 13.9688C162.615 13.5521 164.469 14.25 165.344 16.0625C168.198 17.1042 169.771 18.625 170.062 20.625L170.312 22.3438L171.469 22.1875L170.469 39.25L171.125 39.7188L171.219 40.3125L170.688 44.4688L170.625 46.8125C170.375 49.9167 168.323 52.3646 164.469 54.1562L173.5 61.0625L174.031 63.25L170.062 63.8125L165.781 61.3125L160.156 56.4062L151.281 57.1562L151.062 57.2812L151.562 56.6562L151.469 56.0938C149.51 56.3854 146.312 54.3229 141.875 49.9062L141.094 44.8125L144.562 36.6562C144.688 26.1354 146.01 20.6875 148.531 20.3125C151.552 16.75 153.979 14.8333 155.812 14.5625ZM152.938 40.8125L153.562 41.3125L153.625 41.875L153.406 44.25L154.188 45.875L160.438 44.8438C162.271 44.5521 162.844 39.5938 162.156 29.9688L161.469 24.8125L159.688 23.375C156.875 23.8125 155.417 26.1875 155.312 30.5L152.938 40.8125Z" stroke="black" stroke-width="12" mask="url(#path-1-outside-1_35_414)"/>
<path d="M180.062 13.3438L186.156 14.4688L184.594 23.0625L183.656 22.5L184.156 23.2188L184.031 23.8438L182.969 26.1875L183.469 26.9062L183.375 27.5312L182.656 28L182.188 44.4062L184.031 44.75C187.635 43.4167 189.594 41.875 189.906 40.125C192.01 29.0208 192.771 21.6562 192.188 18.0312L194.25 17.125L199.781 18.1562C200.698 18.3229 201.125 19.4479 201.062 21.5312L200.438 21.4062L200.938 22.125L200.844 22.75L200.094 23.25L200 23.875C198.667 28.25 198.969 33.2812 200.906 38.9688L200.219 42.625L199.062 45.5938L199.562 46.3125C198.604 46.1458 197.25 47.8021 195.5 51.2812C192.521 55.3646 186.99 56.6771 178.906 55.2188L177.062 54.875C173.917 54.2917 172.708 43.2188 173.438 21.6562C174.562 15.5104 176.771 12.7396 180.062 13.3438Z" stroke="black" stroke-width="12" mask="url(#path-1-outside-1_35_414)"/>
<path d="M207.969 10.7812C210.552 10.7812 213.938 11.7812 218.125 13.7812C214.938 24.0312 213.344 32.3854 213.344 38.8438L213.938 50.7812L212.156 50.1875L203.781 51.375L203.188 48.375L202.594 35.25L206.781 10.7812H207.969Z" stroke="black" stroke-width="12" mask="url(#path-1-outside-1_35_414)"/>
<path d="M217.062 46.1562C216.729 44.4062 220.812 36.9062 229.312 23.6562C229.354 21.2604 225.771 20.2917 218.562 20.75L219.531 16.2188L221.094 13.4062L233.312 14.8438L238.75 13.0938C241.958 16.6979 243.646 19.3854 243.812 21.1562L242.75 22.2812C239.771 27.4896 238.365 30.5521 238.531 31.4688L237.812 30.8125L237.312 31.0625L233.719 35.4375L229.531 42L233.906 42.2812L238.125 40.4062L240.938 40.0625C240.729 41.7708 241.406 43.8021 242.969 46.1562C242.344 46.5104 242.177 46.9271 242.469 47.4062L243.031 49.7188L236.656 51.0625L235.781 54.0938L234.875 52.25C229.125 52.25 226.062 52.3438 225.688 52.5312L218.719 53.6875L217.062 46.1562Z" stroke="black" stroke-width="12" mask="url(#path-1-outside-1_35_414)"/>
<path d="M104.406 62.5625H105.094C111.531 62.875 114.75 63.7917 114.75 65.3125L114.062 73.5312L114.75 75.5938C113.792 83.4896 113.312 91.7188 113.312 100.281V104.406H105.094L103.719 103.031L104.406 90.6875L103.719 88.625L96.0938 89.5625C95.1771 89.5625 94.7188 90.25 94.7188 91.625L95.4062 95.0625L94.7188 99.1875H95.4062L94.7188 99.875V105.344L85.125 107.406L84.4375 105.344L85.125 95.75L83.75 83.4062V82.7188L85.125 80.6562V75.1562L84.4375 74.4688V73.7812H85.125L84.4375 73.0938V72.4062L85.125 71.7188V71.0312L84.4375 70.375L85.125 66.9375V64.1875H88.5625L89.25 64.875L89.9375 64.1875H94.0312L94.7188 64.875H95.4062L94.0312 79.2812H94.7188C100.552 78.4688 103.271 77.5833 102.875 76.625L103.125 77.6562L103.031 73.5312V72.8438L104.406 65.3125V62.5625Z" stroke="black" stroke-width="12" mask="url(#path-1-outside-1_35_414)"/>
<path d="M125.625 63.2188L126.094 62.7188C132.698 64.0729 137.302 64.9062 139.906 65.2188L141.125 67.8438V71.9375L141.312 73.6562C141.458 78.7396 142.135 81.5417 143.344 82.0625L146.656 82.625L146.812 82.6562L148.031 85.4688L147.625 87.8125L147.094 90.0312V91.2188L143.188 92.125L144.094 97.625C143.698 104.25 143.688 107.052 144.062 106.031L135.75 107.562C134.562 107.562 134.062 104.031 134.25 96.9688L129.062 96.1562C128.375 96.3646 127.635 99.9271 126.844 106.844L116.969 102.812L117.906 96.6875L119 91.4062L118.906 89.4375V83C119.281 84.1042 121.042 78.1146 124.188 65.0312L125.625 63.2188ZM132.156 76.875L128.906 85.2812L133.219 86.0312L134.906 86.6875L134.625 84.875L135.344 81.8125L133.938 75.5L132.156 76.875Z" stroke="black" stroke-width="12" mask="url(#path-1-outside-1_35_414)"/>
<path d="M170.875 65.6875L173.469 66.25L175.438 65.6875V66.25L177.406 76.125L162.812 78.5625L161.5 81.4375C161.5 82.1875 164.115 84.8958 169.344 89.5625C172.573 94.1042 174.323 97.5833 174.594 100C173.115 104.646 170.5 106.969 166.75 106.969L161.5 108.688L156.906 109.281C152.99 109.281 151.031 106.385 151.031 100.594L153 97.0938L156.25 97.6875H160.844L162.156 96.5312V95.375C161.156 93.4167 158.323 91.2917 153.656 89C150.885 86.5417 149.354 84.0208 149.062 81.4375C149.938 72.9375 152.99 68.6875 158.219 68.6875C163.635 66.375 167.854 65.375 170.875 65.6875Z" stroke="black" stroke-width="12" mask="url(#path-1-outside-1_35_414)"/>
<path d="M68.875 110.406H69.9062C71.9479 110.656 72.9688 111.156 72.9688 111.906C74.0521 113.948 75.7604 115.365 78.0938 116.156C79.5104 116.76 81.6667 117.156 84.5625 117.344C88.3333 119.885 90.5 121.698 91.0625 122.781L93.0938 128.219C91.2812 134.052 89.3542 136.969 87.3125 136.969C84.6667 139.802 82.6146 141.219 81.1562 141.219L80.4688 141.812C86.6979 142.562 90 143.969 90.375 146.031C90.8333 147.052 91.5104 147.562 92.4062 147.562C93.5521 148.333 94.125 149.135 94.125 149.969V151.188C94.125 156.208 90.1458 158.719 82.1875 158.719L79.8125 159.906H77.75C70.0208 157.948 66.1562 156.25 66.1562 154.812C63.8854 154.125 62.75 151.5 62.75 146.938H63.4375C63.4375 146.083 62.9792 145.479 62.0625 145.125L60.375 140.906C60.375 140.51 58.7812 140.208 55.5938 140C52.8646 139.396 51.5 138.688 51.5 137.875V136.688L51.8438 136.375L50.8125 132.438V132.156C51.5 131.135 52.3021 130.625 53.2188 130.625L62.4062 133.344L62.75 133.062L62.4062 129.719L63.0938 119.75L62.75 119.469V119.156C64.8542 115.01 66.8958 112.094 68.875 110.406ZM68.875 127.625H69.5625V127.906L69.2188 129.125C69.2188 129.792 70.0208 130.396 71.625 130.938C71.625 131.938 73.5521 132.438 77.4062 132.438C79.5521 131.667 80.9167 130.458 81.5 128.812L81.8438 127.625C81.8438 125.5 78.6667 123.885 72.3125 122.781C70.9375 122.781 70.25 123.792 70.25 125.812L68.875 127.625ZM70.9375 144.531L70.25 146.031H70.5938L70.25 146.344V146.656L72.625 151.188C74.0833 151.979 75.6771 152.375 77.4062 152.375H80.4688L81.5 151.469C77.4167 147.865 73.8958 145.552 70.9375 144.531Z" stroke="black" stroke-width="12" mask="url(#path-1-outside-1_35_414)"/>
<path d="M100.344 115.375L103.688 116L104.594 115.688L106.406 116.281H107.594L110.312 116L113.031 116.281L119.094 116C119.406 117 120.01 117.5 120.906 117.5L121.5 118.719V121.125C120.854 124.146 119.844 125.656 118.469 125.656H115.469C111.552 125.656 109.031 125.156 107.906 124.156C106.094 125.635 105.188 127.042 105.188 128.375V128.688L110.031 129.594L111.844 129.281H112.438C119.688 130.49 123.312 131.594 123.312 132.594L123.625 135.625C123.458 138.042 123.25 139.25 123 139.25L122.094 140.156H121.812C121.354 139.698 120.24 139.396 118.469 139.25L117.875 139.844C115.417 139.448 111.688 138.448 106.688 136.844L104.281 138.938C103.469 140.479 103.062 141.688 103.062 142.562V142.875C103.062 143.458 105.479 144.365 110.312 145.594C111.167 146.635 112.979 147.542 115.75 148.312V148C116.958 148.271 117.562 148.677 117.562 149.219C117.562 150.656 116.156 153.375 113.344 157.375H112.438C112.438 156.979 112.031 156.781 111.219 156.781C111.219 156.031 108.5 154.719 103.062 152.844C100.688 151.24 97.3646 149.729 93.0938 148.312C93.0938 147.833 92.2917 147.333 90.6875 146.812L89.7812 145.281C90.3854 145.281 91.5938 143.573 93.4062 140.156C94.0104 140.115 94.8125 138.198 95.8125 134.406C97.0208 132.073 97.625 129.865 97.625 127.781H97.9375L97.3438 124.75L97.9375 117.812L97.625 116.594L100.344 115.375ZM100.062 155.25C108.833 158.167 113.76 160.281 114.844 161.594C115.865 161.594 116.375 162.094 116.375 163.094L113.656 167.312L114.562 168.219V168.844H114.25L110.625 169.125C110.021 168.5 108.208 167.802 105.188 167.031C105.188 166.698 103.875 165.885 101.25 164.594L100.344 164.906L97.9375 164H97.0312L96.4375 161.875C96.4375 160.625 97.1354 159.125 98.5312 157.375L97.625 156.469C98.4792 155.656 99.2917 155.25 100.062 155.25Z" stroke="black" stroke-width="12" mask="url(#path-1-outside-1_35_414)"/>
<path d="M132.531 115.375L135.875 116L136.781 115.688L138.594 116.281H139.781L142.5 116L145.219 116.281L151.281 116C151.594 117 152.198 117.5 153.094 117.5L153.688 118.719V121.125C153.042 124.146 152.031 125.656 150.656 125.656H147.656C143.74 125.656 141.219 125.156 140.094 124.156C138.281 125.635 137.375 127.042 137.375 128.375V128.688L142.219 129.594L144.031 129.281H144.625C151.875 130.49 155.5 131.594 155.5 132.594L155.812 135.625C155.646 138.042 155.438 139.25 155.188 139.25L154.281 140.156H154C153.542 139.698 152.427 139.396 150.656 139.25L150.062 139.844C147.604 139.448 143.875 138.448 138.875 136.844L136.469 138.938C135.656 140.479 135.25 141.688 135.25 142.562V142.875C135.25 143.458 137.667 144.365 142.5 145.594C143.354 146.635 145.167 147.542 147.938 148.312V148C149.146 148.271 149.75 148.677 149.75 149.219C149.75 150.656 148.344 153.375 145.531 157.375H144.625C144.625 156.979 144.219 156.781 143.406 156.781C143.406 156.031 140.688 154.719 135.25 152.844C132.875 151.24 129.552 149.729 125.281 148.312C125.281 147.833 124.479 147.333 122.875 146.812L121.969 145.281C122.573 145.281 123.781 143.573 125.594 140.156C126.198 140.115 127 138.198 128 134.406C129.208 132.073 129.812 129.865 129.812 127.781H130.125L129.531 124.75L130.125 117.812L129.812 116.594L132.531 115.375ZM132.25 155.25C141.021 158.167 145.948 160.281 147.031 161.594C148.052 161.594 148.562 162.094 148.562 163.094L145.844 167.312L146.75 168.219V168.844H146.438L142.812 169.125C142.208 168.5 140.396 167.802 137.375 167.031C137.375 166.698 136.062 165.885 133.438 164.594L132.531 164.906L130.125 164H129.219L128.625 161.875C128.625 160.625 129.323 159.125 130.719 157.375L129.812 156.469C130.667 155.656 131.479 155.25 132.25 155.25Z" stroke="black" stroke-width="12" mask="url(#path-1-outside-1_35_414)"/>
<path d="M169 112.969C170.25 112.969 172.938 119.146 177.062 131.5C178.917 130.646 180.167 127.406 180.812 121.781L185.656 120.406L190.531 121.781L186.375 140.188L188.469 150.469C184.281 152.26 181.26 154.073 179.406 155.906H177.312C175.646 150.01 174.49 147.062 173.844 147.062L174.531 146.344V145.688L169.25 137.531L168.375 146.344L168 152.5L167.469 153.875H165.906C164.885 153.229 163.385 152.521 161.406 151.75C161.406 150.938 160.25 150.479 157.938 150.375V149.656L158.312 137.562L157.844 136.125V135.406C159.885 128.552 160.906 124.885 160.906 124.406L159.25 116.344L169 112.969Z" stroke="black" stroke-width="12" mask="url(#path-1-outside-1_35_414)"/>
<path d="M16.9375 165.188C18.8125 165.375 19.75 165.656 19.75 166.031L21.1562 165.188C22.8021 165.333 23.6562 165.615 23.7188 166.031L25.125 165.75L29.0938 166.875H33.0312L38.1562 170V170.562C39.0104 170.708 40.1354 172.406 41.5312 175.656C43.4271 177.531 44.375 180.26 44.375 183.844C44.375 185.073 43.2396 188.948 40.9688 195.469C38.3229 197.531 36.7292 199.125 36.1875 200.25L33.0312 201.969C31.0104 202.365 28.8438 203.583 26.5312 205.625L19.75 206.781C19.3542 207.24 16.1771 207.802 10.2188 208.469C9.94792 209.219 9.67708 209.594 9.40625 209.594L7.125 208.75L7.40625 206.781L8.0625 202.25L9.84375 189.219L9.5625 188.969L11.0938 187.531V185.812L10.8125 184.688L11.6562 180.75L8.375 171.688L8.65625 171.406L8.375 170V169.719C8.375 167.635 9.21875 166.594 10.9062 166.594C10.9062 166.031 11.1979 165.75 11.7812 165.75L12.0312 166.031H12.3438C12.7396 165.698 14.2708 165.417 16.9375 165.188ZM20.4375 177.062L20.7188 179.312L19.875 189.781L19.1875 195.469L20.3125 194.906L23.125 195.156C25.0208 195.156 26.9167 194.219 28.8125 192.344C30.5 191.823 31.3438 190.885 31.3438 189.531C31.6979 189.531 32.2604 188.865 33.0312 187.531V186.125L33.5938 182.156C32.6979 182.052 31.7604 180.917 30.7812 178.75C30.2188 178.75 29.9375 178.479 29.9375 177.938H29.375C29.375 177.354 29.0938 177.062 28.5312 177.062V176.5L26.8438 176.781L22.3125 173.969H22C20.5 173.969 19.75 174.344 19.75 175.094L20.4375 177.062ZM11.5312 174.781V176.5H11.8438V174.781H11.5312Z" stroke="black" stroke-width="12" mask="url(#path-1-outside-1_35_414)"/>
<path d="M53.6562 166.375L57 167L57.9062 166.688L59.7188 167.281H60.9062L63.625 167L66.3438 167.281L72.4062 167C72.7188 168 73.3229 168.5 74.2188 168.5L74.8125 169.719V172.125C74.1667 175.146 73.1562 176.656 71.7812 176.656H68.7812C64.8646 176.656 62.3438 176.156 61.2188 175.156C59.4062 176.635 58.5 178.042 58.5 179.375V179.688L63.3438 180.594L65.1562 180.281H65.75C73 181.49 76.625 182.594 76.625 183.594L76.9375 186.625C76.7708 189.042 76.5625 190.25 76.3125 190.25L75.4062 191.156H75.125C74.6667 190.698 73.5521 190.396 71.7812 190.25L71.1875 190.844C68.7292 190.448 65 189.448 60 187.844L57.5938 189.938C56.7812 191.479 56.375 192.688 56.375 193.562V193.875C56.375 194.458 58.7917 195.365 63.625 196.594C64.4792 197.635 66.2917 198.542 69.0625 199.312V199C70.2708 199.271 70.875 199.677 70.875 200.219C70.875 201.656 69.4688 204.375 66.6562 208.375H65.75C65.75 207.979 65.3438 207.781 64.5312 207.781C64.5312 207.031 61.8125 205.719 56.375 203.844C54 202.24 50.6771 200.729 46.4062 199.312C46.4062 198.833 45.6042 198.333 44 197.812L43.0938 196.281C43.6979 196.281 44.9062 194.573 46.7188 191.156C47.3229 191.115 48.125 189.198 49.125 185.406C50.3333 183.073 50.9375 180.865 50.9375 178.781H51.25L50.6562 175.75L51.25 168.812L50.9375 167.594L53.6562 166.375ZM53.375 206.25C62.1458 209.167 67.0729 211.281 68.1562 212.594C69.1771 212.594 69.6875 213.094 69.6875 214.094L66.9688 218.312L67.875 219.219V219.844H67.5625L63.9375 220.125C63.3333 219.5 61.5208 218.802 58.5 218.031C58.5 217.698 57.1875 216.885 54.5625 215.594L53.6562 215.906L51.25 215H50.3438L49.75 212.875C49.75 211.625 50.4479 210.125 51.8438 208.375L50.9375 207.469C51.7917 206.656 52.6042 206.25 53.375 206.25Z" stroke="black" stroke-width="12" mask="url(#path-1-outside-1_35_414)"/>
<path d="M89.0938 166.375L92.4375 167L93.3438 166.688L95.1562 167.281H96.3438C97.6771 173.531 97.2292 176.625 95 176.562C94.2917 177.104 94.25 177.427 94.875 177.531L93.9375 179.688L93.8125 187.375L93.0312 189.938C92.2188 191.479 91.8125 192.688 91.8125 193.562V193.875C91.8125 194.458 93.2917 194.583 96.25 194.25C97.1042 195.292 98.6042 195.802 100.75 195.781V195.469C101.958 195.74 102.562 196.146 102.562 196.688C102.562 198.125 101.469 201.24 99.2812 206.031H98.375C98.375 205.635 97.9688 205.438 97.1562 205.438C97.1562 204.688 95.375 204.156 91.8125 203.844C89.4375 202.719 85.3438 201.531 79.5312 200.281C79.5312 199.802 78.0208 198.917 75 197.625L76.2188 196.531C76.8229 196.531 78.0312 194.823 79.8438 191.406C80.4479 191.365 81.5521 189.365 83.1562 185.406C84.3646 183.073 84.9688 180.865 84.9688 178.781H85.2812L84.6875 175.75L85.2812 168.812L84.9688 167.594L89.0938 166.375Z" stroke="black" stroke-width="12" mask="url(#path-1-outside-1_35_414)"/>
<path d="M108.531 166.375L111.875 167L112.781 166.688L114.594 167.281H115.781L118.5 167L121.219 167.281L127.281 167C127.594 168 128.198 168.5 129.094 168.5L129.688 169.719V172.125C129.042 175.146 128.031 176.656 126.656 176.656H123.656C119.74 176.656 117.219 176.156 116.094 175.156C114.281 176.635 113.375 178.042 113.375 179.375V179.688L118.219 180.594L120.031 180.281H120.625C127.875 181.49 131.5 182.594 131.5 183.594L131.812 186.625C131.646 189.042 131.438 190.25 131.188 190.25L130.281 191.156H130C129.542 190.698 128.427 190.396 126.656 190.25L126.062 190.844C123.604 190.448 119.875 189.448 114.875 187.844L112.469 189.938C111.656 191.479 111.25 192.688 111.25 193.562V193.875C111.25 194.458 113.667 195.365 118.5 196.594C119.354 197.635 121.167 198.542 123.938 199.312V199C125.146 199.271 125.75 199.677 125.75 200.219C125.75 201.656 124.344 204.375 121.531 208.375H120.625C120.625 207.979 120.219 207.781 119.406 207.781C119.406 207.031 116.688 205.719 111.25 203.844C108.875 202.24 105.552 200.729 101.281 199.312C101.281 198.833 100.479 198.333 98.875 197.812L97.9688 196.281C98.5729 196.281 99.7812 194.573 101.594 191.156C102.198 191.115 103 189.198 104 185.406C105.208 183.073 105.812 180.865 105.812 178.781H106.125L105.531 175.75L106.125 168.812L105.812 167.594L108.531 166.375ZM108.25 206.25C117.021 209.167 121.948 211.281 123.031 212.594C124.052 212.594 124.562 213.094 124.562 214.094L121.844 218.312L122.75 219.219V219.844H122.438L118.812 220.125C118.208 219.5 116.396 218.802 113.375 218.031C113.375 217.698 112.062 216.885 109.438 215.594L108.531 215.906L106.125 215H105.219L104.625 212.875C104.625 211.625 105.323 210.125 106.719 208.375L105.812 207.469C106.667 206.656 107.479 206.25 108.25 206.25Z" stroke="black" stroke-width="12" mask="url(#path-1-outside-1_35_414)"/>
<path d="M144.438 172.75C143.354 169.146 143.896 166.854 146.062 165.875L155.875 167.562L153.594 173.531C152.615 176.219 155.844 176.844 163.281 175.406L163.312 175.594C163.625 177.865 163.833 180.688 163.938 184.062L163.719 184.312L164.25 184.219L164 185.969L160.156 186.344L157.156 185L154.781 185.188L153.781 185.594L154.094 187.312C154.615 190.312 154.76 193.094 154.531 195.656C154.74 194.823 155 194.479 155.312 194.625C155.625 194.771 156.01 196.125 156.469 198.688C153.365 200.229 150.052 201 146.531 201L145.75 201.125C144.688 200.438 144.167 199.344 144.188 197.844C142.479 196.344 142.427 196.031 144.031 196.906L143.875 193.219L143.812 188.062L143.062 186.938C141.521 185.979 138.469 185.344 133.906 185.031L133.531 183C133.927 182.917 133.583 181.979 132.5 180.188L133.969 180.156C134.469 177.427 134.906 175.635 135.281 174.781L142.312 175.906L144.312 176.594L144.438 172.75Z" stroke="black" stroke-width="12" mask="url(#path-1-outside-1_35_414)"/>
<path d="M172.531 166.375L175.875 167L176.781 166.688L178.594 167.281H179.781L182.5 167L185.219 167.281L191.281 167C191.594 168 192.198 168.5 193.094 168.5L193.688 169.719V172.125C193.042 175.146 192.031 176.656 190.656 176.656H187.656C183.74 176.656 181.219 176.156 180.094 175.156C178.281 176.635 177.375 178.042 177.375 179.375V179.688L182.219 180.594L184.031 180.281H184.625C191.875 181.49 195.5 182.594 195.5 183.594L195.812 186.625C195.646 189.042 195.438 190.25 195.188 190.25L194.281 191.156H194C193.542 190.698 192.427 190.396 190.656 190.25L190.062 190.844C187.604 190.448 183.875 189.448 178.875 187.844L176.469 189.938C175.656 191.479 175.25 192.688 175.25 193.562V193.875C175.25 194.458 177.667 195.365 182.5 196.594C183.354 197.635 185.167 198.542 187.938 199.312V199C189.146 199.271 189.75 199.677 189.75 200.219C189.75 201.656 188.344 204.375 185.531 208.375H184.625C184.625 207.979 184.219 207.781 183.406 207.781C183.406 207.031 180.688 205.719 175.25 203.844C172.875 202.24 169.552 200.729 165.281 199.312C165.281 198.833 164.479 198.333 162.875 197.812L161.969 196.281C162.573 196.281 163.781 194.573 165.594 191.156C166.198 191.115 167 189.198 168 185.406C169.208 183.073 169.812 180.865 169.812 178.781H170.125L169.531 175.75L170.125 168.812L169.812 167.594L172.531 166.375ZM172.25 206.25C181.021 209.167 185.948 211.281 187.031 212.594C188.052 212.594 188.562 213.094 188.562 214.094L185.844 218.312L186.75 219.219V219.844H186.438L182.812 220.125C182.208 219.5 180.396 218.802 177.375 218.031C177.375 217.698 176.062 216.885 173.438 215.594L172.531 215.906L170.125 215H169.219L168.625 212.875C168.625 211.625 169.323 210.125 170.719 208.375L169.812 207.469C170.667 206.656 171.479 206.25 172.25 206.25Z" stroke="black" stroke-width="12" mask="url(#path-1-outside-1_35_414)"/>
<path d="M206.188 165.188C208.062 165.375 209 165.656 209 166.031L210.406 165.188C212.052 165.333 212.906 165.615 212.969 166.031L214.375 165.75L218.344 166.875H222.281L227.406 170V170.562C228.26 170.708 229.385 172.406 230.781 175.656C232.677 177.531 233.625 180.26 233.625 183.844C233.625 185.073 232.49 188.948 230.219 195.469C227.573 197.531 225.979 199.125 225.438 200.25L222.281 201.969C220.26 202.365 218.094 203.583 215.781 205.625L209 206.781C208.604 207.24 205.427 207.802 199.469 208.469C199.198 209.219 198.927 209.594 198.656 209.594L196.375 208.75L196.656 206.781L197.312 202.25L199.094 189.219L198.812 188.969L200.344 187.531V185.812L200.062 184.688L200.906 180.75L197.625 171.688L197.906 171.406L197.625 170V169.719C197.625 167.635 198.469 166.594 200.156 166.594C200.156 166.031 200.448 165.75 201.031 165.75L201.281 166.031H201.594C201.99 165.698 203.521 165.417 206.188 165.188ZM209.688 177.062L209.969 179.312L209.125 189.781L208.438 195.469L209.562 194.906L212.375 195.156C214.271 195.156 216.167 194.219 218.062 192.344C219.75 191.823 220.594 190.885 220.594 189.531C220.948 189.531 221.51 188.865 222.281 187.531V186.125L222.844 182.156C221.948 182.052 221.01 180.917 220.031 178.75C219.469 178.75 219.188 178.479 219.188 177.938H218.625C218.625 177.354 218.344 177.062 217.781 177.062V176.5L216.094 176.781L211.562 173.969H211.25C209.75 173.969 209 174.344 209 175.094L209.688 177.062ZM200.781 174.781V176.5H201.094V174.781H200.781Z" stroke="black" stroke-width="12" mask="url(#path-1-outside-1_35_414)"/>
<path d="M239.562 194.406L248.312 194.938L247.75 203.156V205.875L245.031 208.094H237.938L235.75 206.438C236.417 198.417 237.688 194.406 239.562 194.406Z" stroke="black" stroke-width="12" mask="url(#path-1-outside-1_35_414)"/>
</g>
<defs>
<filter id="filter0_dd_35_414" x="0.500244" y="0.401367" width="259.211" height="226.924" filterUnits="userSpaceOnUse" color-interpolation-filters="sRGB">
<feFlood flood-opacity="0" result="BackgroundImageFix"/>
<feColorMatrix in="SourceAlpha" type="matrix" values="0 0 0 0 0 0 0 0 0 0 0 0 0 0 0 0 0 0 127 0" result="hardAlpha"/>
<feOffset dx="4"/>
<feComposite in2="hardAlpha" operator="out"/>
<feColorMatrix type="matrix" values="0 0 0 0 0.831373 0 0 0 0 0.639216 0 0 0 0 0.45098 0 0 0 1 0"/>
<feBlend mode="normal" in2="BackgroundImageFix" result="effect1_dropShadow_35_414"/>
<feColorMatrix in="SourceAlpha" type="matrix" values="0 0 0 0 0 0 0 0 0 0 0 0 0 0 0 0 0 0 127 0" result="hardAlpha"/>
<feOffset dx="5" dy="1"/>
<feComposite in2="hardAlpha" operator="out"/>
<feColorMatrix type="matrix" values="0 0 0 0 0.831373 0 0 0 0 0.639216 0 0 0 0 0.45098 0 0 0 1 0"/>
<feBlend mode="normal" in2="effect1_dropShadow_35_414" result="effect2_dropShadow_35_414"/>
<feBlend mode="normal" in="SourceGraphic" in2="effect2_dropShadow_35_414" result="shape"/>
</filter>
</defs>
</svg>
